<svg xmlns="http://www.w3.org/2000/svg" xmlns:xlink="http://www.w3.org/1999/xlink" width="500" zoomAndPan="magnify" viewBox="0 0 375.12 383.03998" height="500" preserveAspectRatio="xMidYMid meet" version="1.2"><defs><clipPath id="bebba424b6"><path d="M 37.4375 104.738281 L 336.6875 104.738281 L 336.6875 269.324219 L 37.4375 269.324219 Z M 37.4375 104.738281 "/></clipPath><clipPath id="d87d55a5fc"><path d="M 134 112 L 182 112 L 182 165.324219 L 134 165.324219 Z M 134 112 "/></clipPath><clipPath id="be61ec3a37"><rect x="0" width="300" y="0" height="166"/></clipPath></defs><g id="c67e1abc13"><g clip-rule="nonzero" clip-path="url(#bebba424b6)"><g transform="matrix(1,0,0,1,37,104)"><g clip-path="url(#be61ec3a37)"><path style=" stroke:none;fill-rule:nonzero;fill:#020202;fill-opacity:1;" d="M 108.542969 133.714844 C 108.730469 134.796875 108.921875 135.890625 109.109375 136.972656 C 110.425781 144.632812 117.070312 150.230469 124.839844 150.230469 L 138.214844 150.230469 L 163.597656 124.6875 C 162.472656 121.703125 161.460938 118.875 160.480469 116.730469 C 157.695312 110.6875 143.777344 111.046875 137.128906 113.46875 C 128.566406 116.585938 135.769531 130.507812 128.914062 133.15625 C 124.089844 135.019531 114.789062 133.878906 109.621094 133.746094 C 109.257812 133.734375 108.902344 133.726562 108.550781 133.714844 Z M 108.542969 133.714844 "/><g clip-rule="nonzero" clip-path="url(#d87d55a5fc)"><path style=" stroke:none;fill-rule:nonzero;fill:#020202;fill-opacity:1;" d="M 134.582031 138.820312 C 134.582031 153.441406 145.085938 165.292969 158.046875 165.292969 C 170.167969 165.292969 180.144531 154.925781 181.382812 141.621094 C 178.28125 142.148438 175.324219 142.074219 172.398438 140 C 168.546875 137.265625 165.839844 130.679688 163.589844 124.6875 C 162.464844 121.703125 161.453125 118.875 160.472656 116.730469 C 159.535156 114.695312 157.339844 113.390625 154.578125 112.644531 C 143.261719 114.53125 134.574219 125.535156 134.574219 138.824219 Z M 134.582031 138.820312 "/></g><path style=" stroke:none;fill-rule:nonzero;fill:#a2d4d3;fill-opacity:1;" d="M 142.316406 138.691406 C 142.316406 139.230469 142.34375 139.757812 142.394531 140.273438 C 142.972656 146.21875 146.789062 150.8125 151.398438 150.8125 C 156.40625 150.8125 160.476562 145.386719 160.476562 138.691406 C 160.476562 131.996094 156.40625 126.570312 151.398438 126.570312 C 151 126.570312 150.609375 126.605469 150.226562 126.671875 C 145.765625 127.433594 142.3125 132.523438 142.3125 138.691406 Z M 142.316406 138.691406 "/><path style=" stroke:none;fill-rule:nonzero;fill:#a2d4d3;fill-opacity:1;" d="M 151.398438 156.644531 C 155.136719 156.644531 158.730469 154.546875 161.261719 150.890625 C 161.335938 150.789062 161.308594 150.652344 161.207031 150.582031 C 161.105469 150.507812 160.96875 150.535156 160.898438 150.636719 C 158.453125 154.171875 154.988281 156.199219 151.398438 156.199219 C 144.90625 156.199219 139.382812 149.707031 138.550781 141.097656 C 138.476562 140.355469 138.433594 139.589844 138.433594 138.820312 C 138.433594 132.617188 140.929688 126.839844 144.953125 123.742188 C 145.054688 123.667969 145.070312 123.527344 144.996094 123.433594 C 144.921875 123.332031 144.78125 123.316406 144.683594 123.390625 C 140.554688 126.570312 137.992188 132.480469 137.992188 138.820312 C 137.992188 139.605469 138.03125 140.386719 138.105469 141.144531 C 138.964844 149.976562 144.679688 156.640625 151.398438 156.640625 Z M 151.398438 156.644531 "/><path style=" stroke:none;fill-rule:nonzero;fill:#a2d4d3;fill-opacity:1;" d="M 150.757812 154.035156 C 153.785156 154.035156 156.695312 152.261719 158.742188 149.175781 C 158.808594 149.074219 158.78125 148.9375 158.679688 148.871094 C 158.578125 148.800781 158.441406 148.828125 158.375 148.933594 C 156.410156 151.890625 153.636719 153.59375 150.757812 153.59375 C 145.558594 153.59375 141.128906 148.144531 140.457031 140.921875 C 140.394531 140.300781 140.367188 139.652344 140.367188 139.007812 C 140.367188 133.796875 142.371094 128.949219 145.601562 126.347656 C 145.695312 126.269531 145.714844 126.128906 145.636719 126.035156 C 145.558594 125.9375 145.417969 125.921875 145.324219 126 C 141.992188 128.683594 139.917969 133.664062 139.917969 139.003906 C 139.917969 139.664062 139.949219 140.324219 140.015625 140.964844 C 140.707031 148.414062 145.324219 154.035156 150.757812 154.035156 Z M 150.757812 154.035156 "/><path style=" stroke:none;fill-rule:nonzero;fill:#a2d4d3;fill-opacity:1;" d="M 164.570312 138.363281 C 164.570312 138.363281 164.574219 138.363281 164.578125 138.363281 C 164.699219 138.359375 164.796875 138.257812 164.792969 138.136719 C 164.628906 132.359375 162.347656 127.03125 158.699219 123.871094 C 158.609375 123.789062 158.46875 123.800781 158.386719 123.894531 C 158.304688 123.988281 158.316406 124.128906 158.410156 124.207031 C 161.96875 127.285156 164.1875 132.496094 164.347656 138.148438 C 164.347656 138.269531 164.453125 138.363281 164.570312 138.363281 Z M 164.570312 138.363281 "/><path style=" stroke:none;fill-rule:nonzero;fill:#fffcfc;fill-opacity:1;" d="M 142.316406 138.691406 C 142.316406 139.230469 142.34375 139.757812 142.394531 140.273438 C 143.304688 140.917969 144.347656 141.285156 145.457031 141.285156 C 149.054688 141.285156 151.96875 137.394531 151.96875 132.589844 C 151.96875 130.304688 151.3125 128.226562 150.226562 126.671875 C 145.765625 127.433594 142.3125 132.523438 142.3125 138.691406 Z M 142.316406 138.691406 "/><path style=" stroke:none;fill-rule:nonzero;fill:#020202;fill-opacity:1;" d="M 231.375 137.800781 L 231.375 140.933594 C 231.375 151.628906 240.050781 160.308594 250.75 160.308594 L 254.96875 160.308594 C 265.667969 160.308594 274.34375 151.628906 274.34375 140.933594 L 274.34375 135.855469 C 273.519531 135.910156 272.691406 135.949219 271.878906 135.984375 C 258.375 136.589844 244.878906 137.195312 231.378906 137.800781 Z M 231.375 137.800781 "/><path style=" stroke:none;fill-rule:nonzero;fill:#020202;fill-opacity:1;" d="M 27.367188 132.6875 C 27.367188 144.089844 35.753906 153.328125 46.105469 153.328125 C 56.453125 153.328125 64.835938 144.089844 64.835938 132.6875 C 64.835938 131.9375 64.804688 131.195312 64.726562 130.46875 C 64.003906 130.234375 63.269531 129.980469 62.527344 129.691406 C 56.101562 127.175781 54.3125 120.738281 49.34375 112.992188 C 46.765625 112.890625 43.898438 112.851562 40.9375 112.832031 C 33.105469 115.308594 27.367188 123.257812 27.367188 132.683594 Z M 27.367188 132.6875 "/><path style=" stroke:none;fill-rule:nonzero;fill:#020202;fill-opacity:1;" d="M 76.984375 131.664062 L 74.40625 133.890625 C 72.882812 135.210938 70.910156 135.898438 68.898438 135.820312 L 61.511719 135.53125 L 60.835938 129.761719 L 77.734375 129.761719 L 76.988281 131.664062 Z M 76.984375 131.664062 "/><path style=" stroke:none;fill-rule:nonzero;fill:#020202;fill-opacity:1;" d="M 45.1875 112.25 L 25.457031 111.710938 C 23.136719 111.648438 21.222656 113.515625 21.222656 115.839844 L 21.222656 125.21875 L 13.132812 125.21875 L 13.132812 128.132812 L 18.003906 128.132812 C 20.472656 128.132812 22.925781 127.726562 25.261719 126.9375 C 26.5625 126.496094 27.78125 125.835938 28.867188 124.992188 L 45.191406 112.25 Z M 45.1875 112.25 "/><path style=" stroke:none;fill-rule:nonzero;fill:#a2d4d3;fill-opacity:1;" d="M 41.160156 140.355469 C 45.289062 140.355469 48.648438 135.898438 48.648438 130.417969 C 48.648438 124.941406 45.289062 120.480469 41.160156 120.480469 C 40.839844 120.480469 40.511719 120.507812 40.191406 120.566406 C 36.472656 121.203125 33.671875 125.4375 33.671875 130.417969 C 33.671875 130.855469 33.691406 131.292969 33.738281 131.714844 C 34.214844 136.640625 37.40625 140.355469 41.160156 140.355469 Z M 41.160156 120.835938 C 45.09375 120.835938 48.292969 125.136719 48.292969 130.414062 C 48.292969 135.695312 45.09375 139.996094 41.160156 139.996094 C 37.589844 139.996094 34.550781 136.417969 34.089844 131.671875 C 34.050781 131.265625 34.027344 130.839844 34.027344 130.414062 C 34.027344 125.601562 36.703125 121.515625 40.246094 120.910156 C 40.550781 120.855469 40.859375 120.832031 41.15625 120.832031 Z M 41.160156 120.835938 "/><path style=" stroke:none;fill-rule:nonzero;fill:#a2d4d3;fill-opacity:1;" d="M 41.160156 144.871094 C 44.171875 144.871094 47.066406 143.179688 49.105469 140.238281 C 49.164062 140.15625 49.144531 140.042969 49.0625 139.988281 C 48.980469 139.929688 48.867188 139.953125 48.8125 140.03125 C 46.84375 142.878906 44.054688 144.511719 41.160156 144.511719 C 35.9375 144.511719 31.488281 139.285156 30.816406 132.359375 C 30.757812 131.757812 30.726562 131.140625 30.726562 130.523438 C 30.726562 125.527344 32.734375 120.875 35.976562 118.382812 C 36.054688 118.320312 36.066406 118.210938 36.007812 118.132812 C 35.949219 118.054688 35.835938 118.039062 35.757812 118.097656 C 32.433594 120.65625 30.367188 125.414062 30.367188 130.523438 C 30.367188 131.152344 30.398438 131.78125 30.464844 132.390625 C 31.15625 139.503906 35.753906 144.871094 41.164062 144.871094 Z M 41.160156 144.871094 "/><path style=" stroke:none;fill-rule:nonzero;fill:#a2d4d3;fill-opacity:1;" d="M 40.644531 142.773438 C 43.082031 142.773438 45.425781 141.34375 47.074219 138.859375 C 47.128906 138.78125 47.105469 138.667969 47.023438 138.613281 C 46.941406 138.558594 46.828125 138.582031 46.773438 138.664062 C 45.195312 141.046875 42.960938 142.414062 40.644531 142.414062 C 36.460938 142.414062 32.890625 138.03125 32.351562 132.214844 C 32.300781 131.710938 32.277344 131.191406 32.277344 130.671875 C 32.277344 126.472656 33.890625 122.570312 36.492188 120.476562 C 36.570312 120.417969 36.582031 120.304688 36.519531 120.226562 C 36.460938 120.148438 36.347656 120.136719 36.269531 120.199219 C 33.585938 122.355469 31.917969 126.367188 31.917969 130.667969 C 31.917969 131.199219 31.945312 131.730469 31.992188 132.246094 C 32.550781 138.246094 36.269531 142.769531 40.644531 142.769531 Z M 40.644531 142.773438 "/><path style=" stroke:none;fill-rule:nonzero;fill:#a2d4d3;fill-opacity:1;" d="M 51.769531 130.152344 C 51.769531 130.152344 51.773438 130.152344 51.777344 130.152344 C 51.875 130.152344 51.953125 130.070312 51.949219 129.96875 C 51.816406 125.320312 49.984375 121.027344 47.042969 118.484375 C 46.96875 118.421875 46.855469 118.425781 46.792969 118.503906 C 46.726562 118.578125 46.734375 118.691406 46.808594 118.753906 C 49.675781 121.230469 51.460938 125.429688 51.589844 129.980469 C 51.589844 130.074219 51.671875 130.152344 51.765625 130.152344 Z M 51.769531 130.152344 "/><path style=" stroke:none;fill-rule:nonzero;fill:#fffcfc;fill-opacity:1;" d="M 33.851562 130.414062 C 33.851562 130.847656 33.871094 131.273438 33.914062 131.695312 C 34.648438 132.210938 35.488281 132.507812 36.378906 132.507812 C 39.273438 132.507812 41.621094 129.375 41.621094 125.503906 C 41.621094 123.664062 41.09375 121.988281 40.21875 120.738281 C 36.625 121.355469 33.851562 125.449219 33.851562 130.414062 Z M 33.851562 130.414062 "/><path style=" stroke:none;fill-rule:nonzero;fill:#e9ffff;fill-opacity:1;" d="M 10.335938 64.15625 L 175.75 63.851562 C 198.078125 64.191406 217.082031 71.480469 230.792969 84.625 C 235.59375 89.226562 240.03125 94.324219 243.8125 99.820312 C 250.015625 108.835938 254.464844 118.921875 255.871094 129.621094 C 256.066406 131.085938 256.199219 132.566406 256.277344 134.054688 L 256.464844 136.675781 C 257.265625 136.636719 258.070312 136.601562 258.867188 136.570312 C 261.265625 136.460938 263.667969 136.355469 266.066406 136.25 C 268.007812 136.160156 269.941406 136.074219 271.878906 135.984375 C 272.695312 135.953125 273.519531 135.910156 274.34375 135.855469 C 279.761719 135.515625 285.320312 134.667969 289.246094 131.054688 C 294.664062 126.082031 295.003906 117.789062 294.804688 110.441406 C 294.390625 95.808594 293.328125 81.195312 291.625 66.660156 C 291.589844 66.339844 291.550781 66.03125 291.511719 65.71875 C 289.671875 50.324219 282.664062 28.292969 272.46875 16.613281 C 264.949219 7.992188 258.210938 8.597656 247.105469 5.84375 C 247.105469 5.84375 235.546875 3.988281 217.492188 2.359375 C 199.4375 0.726562 175.136719 1.269531 175.136719 1.269531 C 131.285156 2.152344 95.179688 5.886719 54.863281 10.84375 C 48.238281 11.65625 37.046875 13.917969 31.175781 17.085938 C 24.53125 20.664062 20.824219 24.964844 18.269531 30.730469 C 18.003906 31.328125 17.753906 31.941406 17.511719 32.5625 C 17.410156 32.828125 17.304688 33.101562 17.207031 33.375 C 16.988281 33.96875 16.78125 34.582031 16.582031 35.207031 C 16.492188 35.476562 16.40625 35.75 16.320312 36.023438 C 16.140625 36.621094 15.960938 37.226562 15.789062 37.855469 C 15.714844 38.121094 15.640625 38.394531 15.566406 38.671875 C 15.464844 39.054688 15.363281 39.4375 15.261719 39.832031 C 15.203125 40.050781 15.148438 40.28125 15.09375 40.5 C 15.019531 40.769531 14.949219 41.046875 14.882812 41.320312 C 14.734375 41.929688 14.582031 42.539062 14.433594 43.148438 C 14.367188 43.425781 14.300781 43.691406 14.242188 43.964844 C 14.09375 44.574219 13.949219 45.183594 13.816406 45.796875 C 13.746094 46.066406 13.691406 46.335938 13.628906 46.613281 C 13.492188 47.222656 13.351562 47.832031 13.21875 48.445312 C 13.160156 48.71875 13.101562 48.988281 13.042969 49.261719 C 12.910156 49.871094 12.78125 50.480469 12.660156 51.09375 C 12.601562 51.363281 12.542969 51.636719 12.488281 51.910156 C 12.371094 52.519531 12.242188 53.125 12.128906 53.730469 C 12.070312 54.023438 12.011719 54.3125 11.957031 54.605469 C 11.855469 55.121094 11.757812 55.644531 11.664062 56.160156 C 11.171875 58.824219 10.726562 61.488281 10.328125 64.15625 Z M 10.335938 64.15625 "/><path style=" stroke:none;fill-rule:nonzero;fill:#e5f4f4;fill-opacity:1;" d="M 200.335938 79.933594 C 200.335938 80.34375 200.375 80.746094 200.453125 81.144531 C 200.535156 81.546875 200.652344 81.933594 200.808594 82.3125 C 200.964844 82.6875 201.15625 83.046875 201.382812 83.386719 C 201.609375 83.722656 201.867188 84.039062 202.152344 84.324219 C 202.441406 84.613281 202.757812 84.871094 203.09375 85.097656 C 203.433594 85.324219 203.792969 85.515625 204.167969 85.671875 C 204.546875 85.828125 204.933594 85.945312 205.332031 86.027344 C 205.734375 86.105469 206.136719 86.144531 206.546875 86.144531 C 206.953125 86.144531 207.355469 86.105469 207.757812 86.027344 C 208.15625 85.945312 208.546875 85.828125 208.921875 85.671875 C 209.296875 85.515625 209.65625 85.324219 209.996094 85.097656 C 210.335938 84.871094 210.648438 84.613281 210.9375 84.324219 C 211.226562 84.039062 211.484375 83.722656 211.710938 83.386719 C 211.9375 83.046875 212.128906 82.6875 212.28125 82.3125 C 212.4375 81.933594 212.558594 81.546875 212.636719 81.144531 C 212.714844 80.746094 212.757812 80.34375 212.757812 79.933594 C 212.757812 79.527344 212.714844 79.121094 212.636719 78.722656 C 212.558594 78.324219 212.4375 77.933594 212.28125 77.558594 C 212.128906 77.179688 211.9375 76.824219 211.710938 76.484375 C 211.484375 76.144531 211.226562 75.832031 210.9375 75.542969 C 210.648438 75.253906 210.335938 74.996094 209.996094 74.769531 C 209.65625 74.542969 209.296875 74.351562 208.921875 74.195312 C 208.546875 74.039062 208.15625 73.921875 207.757812 73.84375 C 207.355469 73.765625 206.953125 73.722656 206.546875 73.722656 C 206.136719 73.722656 205.734375 73.765625 205.332031 73.84375 C 204.933594 73.921875 204.546875 74.039062 204.167969 74.195312 C 203.792969 74.351562 203.433594 74.542969 203.09375 74.769531 C 202.757812 74.996094 202.441406 75.253906 202.152344 75.542969 C 201.867188 75.832031 201.609375 76.144531 201.382812 76.484375 C 201.15625 76.824219 200.964844 77.179688 200.808594 77.558594 C 200.652344 77.933594 200.535156 78.324219 200.453125 78.722656 C 200.375 79.121094 200.335938 79.527344 200.335938 79.933594 Z M 200.335938 79.933594 "/><path style=" stroke:none;fill-rule:nonzero;fill:#000000;fill-opacity:1;" d="M 206.546875 86.367188 C 210.089844 86.367188 212.976562 83.480469 212.976562 79.933594 C 212.976562 76.386719 210.089844 73.503906 206.546875 73.503906 C 203 73.503906 200.113281 76.386719 200.113281 79.933594 C 200.113281 83.480469 203 86.367188 206.546875 86.367188 Z M 206.546875 73.945312 C 209.847656 73.945312 212.535156 76.632812 212.535156 79.933594 C 212.535156 83.234375 209.847656 85.921875 206.546875 85.921875 C 203.246094 85.921875 200.554688 83.234375 200.554688 79.933594 C 200.554688 76.632812 203.246094 73.945312 206.546875 73.945312 Z M 206.546875 73.945312 "/><path style=" stroke:none;fill-rule:nonzero;fill:#92c3c5;fill-opacity:1;" d="M 201.855469 79.933594 C 201.855469 80.242188 201.882812 80.546875 201.945312 80.851562 C 202.003906 81.152344 202.09375 81.445312 202.210938 81.730469 C 202.328125 82.015625 202.472656 82.285156 202.644531 82.539062 C 202.816406 82.796875 203.011719 83.035156 203.226562 83.25 C 203.445312 83.46875 203.683594 83.664062 203.9375 83.835938 C 204.195312 84.007812 204.464844 84.152344 204.75 84.269531 C 205.035156 84.386719 205.328125 84.476562 205.628906 84.535156 C 205.933594 84.59375 206.238281 84.625 206.546875 84.625 C 206.851562 84.625 207.160156 84.59375 207.460938 84.535156 C 207.761719 84.476562 208.054688 84.386719 208.339844 84.269531 C 208.625 84.152344 208.894531 84.007812 209.152344 83.835938 C 209.40625 83.664062 209.644531 83.46875 209.863281 83.25 C 210.082031 83.035156 210.273438 82.796875 210.445312 82.539062 C 210.617188 82.285156 210.761719 82.015625 210.878906 81.730469 C 210.996094 81.445312 211.085938 81.152344 211.144531 80.851562 C 211.207031 80.546875 211.238281 80.242188 211.238281 79.933594 C 211.238281 79.625 211.207031 79.320312 211.144531 79.019531 C 211.085938 78.71875 210.996094 78.425781 210.878906 78.140625 C 210.761719 77.855469 210.617188 77.585938 210.445312 77.328125 C 210.273438 77.070312 210.082031 76.835938 209.863281 76.617188 C 209.644531 76.398438 209.40625 76.207031 209.152344 76.035156 C 208.894531 75.863281 208.625 75.71875 208.339844 75.601562 C 208.054688 75.484375 207.761719 75.394531 207.460938 75.332031 C 207.160156 75.273438 206.851562 75.242188 206.546875 75.242188 C 206.238281 75.242188 205.933594 75.273438 205.628906 75.332031 C 205.328125 75.394531 205.035156 75.484375 204.75 75.601562 C 204.464844 75.71875 204.195312 75.863281 203.9375 76.035156 C 203.683594 76.207031 203.445312 76.398438 203.226562 76.617188 C 203.011719 76.835938 202.816406 77.070312 202.644531 77.328125 C 202.472656 77.585938 202.328125 77.855469 202.210938 78.140625 C 202.09375 78.425781 202.003906 78.71875 201.945312 79.019531 C 201.882812 79.320312 201.855469 79.625 201.855469 79.933594 Z M 201.855469 79.933594 "/><path style=" stroke:none;fill-rule:nonzero;fill:#000000;fill-opacity:1;" d="M 206.546875 84.839844 C 209.25 84.839844 211.449219 82.640625 211.449219 79.933594 C 211.449219 77.230469 209.25 75.027344 206.546875 75.027344 C 203.839844 75.027344 201.640625 77.230469 201.640625 79.933594 C 201.640625 82.640625 203.839844 84.839844 206.546875 84.839844 Z M 206.546875 75.453125 C 209.015625 75.453125 211.023438 77.464844 211.023438 79.933594 C 211.023438 82.40625 209.015625 84.414062 206.546875 84.414062 C 204.074219 84.414062 202.066406 82.40625 202.066406 79.933594 C 202.066406 77.464844 204.074219 75.453125 206.546875 75.453125 Z M 206.546875 75.453125 "/><path style=" stroke:none;fill-rule:nonzero;fill:#fc8321;fill-opacity:1;" d="M 259.1875 135.859375 C 263.523438 135.664062 267.855469 135.476562 272.195312 135.277344 C 273.011719 135.242188 273.835938 135.203125 274.660156 135.148438 C 280.078125 134.808594 285.636719 133.957031 289.566406 130.347656 C 294.980469 125.375 295.320312 117.082031 295.121094 109.734375 C 294.707031 95.101562 293.644531 80.488281 291.941406 65.953125 C 282.351562 76.25 275.371094 88.769531 270.085938 101.816406 C 265.609375 112.867188 262.296875 124.339844 259.191406 135.859375 Z M 259.1875 135.859375 "/><path style=" stroke:none;fill-rule:nonzero;fill:#e5f4f4;fill-opacity:1;" d="M 284.910156 80.507812 C 284.910156 80.867188 284.933594 81.222656 284.984375 81.574219 C 285.03125 81.925781 285.105469 82.269531 285.199219 82.601562 C 285.296875 82.933594 285.410156 83.246094 285.550781 83.546875 C 285.6875 83.84375 285.84375 84.121094 286.023438 84.375 C 286.199219 84.628906 286.390625 84.855469 286.597656 85.054688 C 286.804688 85.253906 287.023438 85.425781 287.25 85.5625 C 287.480469 85.699219 287.71875 85.804688 287.964844 85.871094 C 288.207031 85.941406 288.453125 85.976562 288.703125 85.976562 C 288.953125 85.976562 289.199219 85.941406 289.441406 85.871094 C 289.6875 85.804688 289.925781 85.699219 290.152344 85.5625 C 290.382812 85.425781 290.601562 85.253906 290.808594 85.054688 C 291.015625 84.855469 291.207031 84.628906 291.382812 84.375 C 291.558594 84.121094 291.71875 83.84375 291.855469 83.546875 C 291.992188 83.246094 292.109375 82.933594 292.207031 82.601562 C 292.300781 82.269531 292.375 81.925781 292.421875 81.574219 C 292.46875 81.222656 292.496094 80.867188 292.496094 80.507812 C 292.496094 80.148438 292.46875 79.792969 292.421875 79.4375 C 292.375 79.085938 292.300781 78.746094 292.207031 78.414062 C 292.109375 78.082031 291.992188 77.765625 291.855469 77.46875 C 291.71875 77.167969 291.558594 76.890625 291.382812 76.636719 C 291.207031 76.382812 291.015625 76.15625 290.808594 75.957031 C 290.601562 75.757812 290.382812 75.589844 290.152344 75.453125 C 289.925781 75.316406 289.6875 75.210938 289.441406 75.140625 C 289.199219 75.070312 288.953125 75.035156 288.703125 75.035156 C 288.453125 75.035156 288.207031 75.070312 287.964844 75.140625 C 287.71875 75.210938 287.480469 75.316406 287.25 75.453125 C 287.023438 75.589844 286.804688 75.757812 286.597656 75.957031 C 286.390625 76.15625 286.199219 76.382812 286.023438 76.636719 C 285.84375 76.890625 285.6875 77.167969 285.550781 77.46875 C 285.410156 77.765625 285.296875 78.082031 285.199219 78.414062 C 285.105469 78.746094 285.03125 79.085938 284.984375 79.4375 C 284.933594 79.792969 284.910156 80.148438 284.910156 80.507812 Z M 284.910156 80.507812 "/><path style=" stroke:none;fill-rule:nonzero;fill:#000000;fill-opacity:1;" d="M 288.703125 86.203125 C 290.917969 86.203125 292.714844 83.648438 292.714844 80.507812 C 292.714844 77.367188 290.914062 74.8125 288.703125 74.8125 C 286.492188 74.8125 284.691406 77.367188 284.691406 80.507812 C 284.691406 83.648438 286.492188 86.203125 288.703125 86.203125 Z M 288.703125 75.257812 C 290.671875 75.257812 292.273438 77.609375 292.273438 80.507812 C 292.273438 83.402344 290.671875 85.757812 288.703125 85.757812 C 286.734375 85.757812 285.132812 83.402344 285.132812 80.507812 C 285.132812 77.609375 286.734375 75.257812 288.703125 75.257812 Z M 288.703125 75.257812 "/><path style=" stroke:none;fill-rule:nonzero;fill:#92c3c5;fill-opacity:1;" d="M 286.121094 80.507812 C 286.121094 81 286.1875 81.476562 286.316406 81.933594 C 286.449219 82.390625 286.632812 82.792969 286.875 83.140625 C 287.117188 83.492188 287.398438 83.761719 287.714844 83.949219 C 288.03125 84.140625 288.359375 84.234375 288.703125 84.234375 C 289.046875 84.234375 289.375 84.140625 289.691406 83.949219 C 290.007812 83.761719 290.285156 83.492188 290.527344 83.140625 C 290.769531 82.792969 290.957031 82.390625 291.089844 81.933594 C 291.21875 81.476562 291.285156 81 291.285156 80.507812 C 291.285156 80.011719 291.21875 79.539062 291.089844 79.082031 C 290.957031 78.625 290.769531 78.222656 290.527344 77.871094 C 290.285156 77.523438 290.007812 77.253906 289.691406 77.0625 C 289.375 76.875 289.046875 76.78125 288.703125 76.78125 C 288.359375 76.78125 288.03125 76.875 287.714844 77.0625 C 287.398438 77.253906 287.117188 77.523438 286.875 77.871094 C 286.632812 78.222656 286.449219 78.625 286.316406 79.082031 C 286.1875 79.539062 286.121094 80.011719 286.121094 80.507812 Z M 286.121094 80.507812 "/><path style=" stroke:none;fill-rule:nonzero;fill:#000000;fill-opacity:1;" d="M 288.703125 84.4375 C 290.238281 84.4375 291.484375 82.675781 291.484375 80.511719 C 291.484375 78.34375 290.234375 76.582031 288.703125 76.582031 C 287.167969 76.582031 285.917969 78.34375 285.917969 80.511719 C 285.917969 82.675781 287.167969 84.4375 288.703125 84.4375 Z M 288.703125 76.984375 C 290.015625 76.984375 291.085938 78.566406 291.085938 80.511719 C 291.085938 82.457031 290.019531 84.035156 288.703125 84.035156 C 287.386719 84.035156 286.320312 82.457031 286.320312 80.511719 C 286.320312 78.566406 287.386719 76.984375 288.703125 76.984375 Z M 288.703125 76.984375 "/><path style=" stroke:none;fill-rule:nonzero;fill:#e5f4f4;fill-opacity:1;" d="M 279.328125 103.179688 C 279.328125 103.964844 279.378906 104.746094 279.480469 105.519531 C 279.582031 106.289062 279.730469 107.039062 279.929688 107.765625 C 280.128906 108.492188 280.371094 109.183594 280.660156 109.839844 C 280.949219 110.492188 281.277344 111.097656 281.644531 111.65625 C 282.015625 112.210938 282.414062 112.710938 282.847656 113.148438 C 283.277344 113.585938 283.734375 113.953125 284.214844 114.253906 C 284.695312 114.554688 285.191406 114.785156 285.699219 114.9375 C 286.210938 115.089844 286.726562 115.167969 287.246094 115.167969 C 287.765625 115.167969 288.28125 115.089844 288.789062 114.9375 C 289.300781 114.785156 289.792969 114.554688 290.273438 114.253906 C 290.753906 113.953125 291.210938 113.585938 291.644531 113.148438 C 292.074219 112.710938 292.476562 112.210938 292.84375 111.65625 C 293.210938 111.097656 293.539062 110.492188 293.828125 109.839844 C 294.117188 109.183594 294.359375 108.492188 294.558594 107.765625 C 294.757812 107.039062 294.910156 106.289062 295.011719 105.519531 C 295.113281 104.746094 295.160156 103.964844 295.160156 103.179688 C 295.160156 102.390625 295.113281 101.613281 295.011719 100.839844 C 294.910156 100.066406 294.757812 99.316406 294.558594 98.589844 C 294.359375 97.863281 294.117188 97.171875 293.828125 96.519531 C 293.539062 95.863281 293.210938 95.257812 292.84375 94.703125 C 292.476562 94.144531 292.074219 93.648438 291.644531 93.210938 C 291.210938 92.773438 290.753906 92.402344 290.273438 92.101562 C 289.792969 91.800781 289.300781 91.574219 288.789062 91.421875 C 288.28125 91.265625 287.765625 91.191406 287.246094 91.191406 C 286.726562 91.191406 286.210938 91.265625 285.699219 91.421875 C 285.191406 91.574219 284.695312 91.800781 284.214844 92.101562 C 283.734375 92.402344 283.277344 92.773438 282.847656 93.210938 C 282.414062 93.648438 282.015625 94.144531 281.644531 94.703125 C 281.277344 95.257812 280.949219 95.863281 280.660156 96.519531 C 280.371094 97.171875 280.128906 97.863281 279.929688 98.589844 C 279.730469 99.316406 279.582031 100.066406 279.480469 100.839844 C 279.378906 101.613281 279.328125 102.390625 279.328125 103.179688 Z M 279.328125 103.179688 "/><path style=" stroke:none;fill-rule:nonzero;fill:#000000;fill-opacity:1;" d="M 287.246094 115.394531 C 291.734375 115.394531 295.390625 109.914062 295.390625 103.179688 C 295.390625 96.445312 291.734375 90.960938 287.246094 90.960938 C 282.753906 90.960938 279.097656 96.445312 279.097656 103.179688 C 279.097656 109.914062 282.753906 115.394531 287.246094 115.394531 Z M 287.246094 91.417969 C 291.484375 91.417969 294.933594 96.695312 294.933594 103.179688 C 294.933594 109.660156 291.484375 114.9375 287.246094 114.9375 C 283.007812 114.9375 279.554688 109.660156 279.554688 103.179688 C 279.554688 96.695312 283.007812 91.417969 287.246094 91.417969 Z M 287.246094 91.417969 "/><path style=" stroke:none;fill-rule:nonzero;fill:#92c3c5;fill-opacity:1;" d="M 281.238281 103.316406 C 281.238281 103.914062 281.277344 104.503906 281.355469 105.089844 C 281.429688 105.675781 281.542969 106.246094 281.695312 106.796875 C 281.847656 107.347656 282.03125 107.871094 282.25 108.367188 C 282.46875 108.863281 282.71875 109.324219 282.996094 109.746094 C 283.277344 110.167969 283.578125 110.546875 283.90625 110.878906 C 284.234375 111.210938 284.582031 111.488281 284.945312 111.71875 C 285.3125 111.949219 285.6875 112.121094 286.074219 112.238281 C 286.460938 112.351562 286.851562 112.410156 287.246094 112.410156 C 287.640625 112.410156 288.03125 112.351562 288.417969 112.238281 C 288.804688 112.121094 289.179688 111.949219 289.542969 111.71875 C 289.90625 111.488281 290.253906 111.210938 290.582031 110.878906 C 290.910156 110.546875 291.210938 110.167969 291.492188 109.746094 C 291.769531 109.324219 292.019531 108.863281 292.238281 108.367188 C 292.457031 107.871094 292.644531 107.347656 292.792969 106.796875 C 292.945312 106.246094 293.058594 105.675781 293.136719 105.089844 C 293.210938 104.503906 293.25 103.914062 293.25 103.316406 C 293.25 102.71875 293.210938 102.125 293.136719 101.539062 C 293.058594 100.953125 292.945312 100.386719 292.792969 99.835938 C 292.644531 99.28125 292.457031 98.757812 292.238281 98.261719 C 292.019531 97.765625 291.769531 97.304688 291.492188 96.882812 C 291.210938 96.460938 290.910156 96.082031 290.582031 95.753906 C 290.253906 95.421875 289.90625 95.140625 289.542969 94.910156 C 289.179688 94.683594 288.804688 94.511719 288.417969 94.394531 C 288.03125 94.277344 287.640625 94.21875 287.246094 94.21875 C 286.851562 94.21875 286.460938 94.277344 286.074219 94.394531 C 285.6875 94.511719 285.3125 94.683594 284.945312 94.910156 C 284.582031 95.140625 284.234375 95.421875 283.90625 95.753906 C 283.578125 96.082031 283.277344 96.460938 282.996094 96.882812 C 282.71875 97.304688 282.46875 97.765625 282.25 98.261719 C 282.03125 98.757812 281.847656 99.28125 281.695312 99.835938 C 281.542969 100.386719 281.429688 100.953125 281.355469 101.539062 C 281.277344 102.125 281.238281 102.71875 281.238281 103.316406 Z M 281.238281 103.316406 "/><path style=" stroke:none;fill-rule:nonzero;fill:#000000;fill-opacity:1;" d="M 287.246094 112.621094 C 290.675781 112.621094 293.464844 108.445312 293.464844 103.316406 C 293.464844 98.183594 290.675781 94.007812 287.246094 94.007812 C 283.8125 94.007812 281.023438 98.183594 281.023438 103.316406 C 281.023438 108.445312 283.8125 112.621094 287.246094 112.621094 Z M 287.246094 94.429688 C 290.441406 94.429688 293.039062 98.417969 293.039062 103.3125 C 293.039062 108.207031 290.441406 112.191406 287.246094 112.191406 C 284.050781 112.191406 281.449219 108.207031 281.449219 103.3125 C 281.449219 98.417969 284.050781 94.429688 287.246094 94.429688 Z M 287.246094 94.429688 "/><path style=" stroke:none;fill-rule:nonzero;fill:#fca935;fill-opacity:1;" d="M 7.769531 109.082031 C 7.871094 112 8.167969 115.410156 9.097656 118.347656 C 10.121094 121.613281 11.917969 124.292969 15.054688 125.078125 C 18.007812 125.8125 24.640625 125.796875 23.148438 123.140625 C 22.539062 122.0625 22.199219 120.824219 22.046875 119.574219 C 21.699219 116.652344 22.394531 113.691406 23.136719 112.652344 C 28.414062 112.867188 34.886719 112.804688 40.945312 112.832031 C 43.90625 112.851562 46.773438 112.890625 49.351562 112.992188 C 51.335938 116.085938 52.816406 118.976562 54.28125 121.484375 C 56.492188 125.253906 58.675781 128.175781 62.535156 129.691406 C 63.277344 129.980469 64.011719 130.234375 64.730469 130.46875 C 71.042969 132.464844 76.730469 132.285156 81.539062 132.511719 C 91.71875 132.976562 98.589844 133.445312 108.546875 133.714844 C 108.898438 133.726562 109.257812 133.738281 109.617188 133.746094 C 114.789062 133.878906 124.089844 135.019531 128.910156 133.15625 C 133.472656 131.394531 131.808594 124.636719 132.707031 119.398438 C 133.160156 116.765625 134.261719 114.511719 137.125 113.46875 C 141.535156 111.863281 149.148438 111.160156 154.585938 112.640625 C 157.1875 113.34375 159.292969 114.546875 160.304688 116.390625 C 160.367188 116.503906 160.425781 116.613281 160.480469 116.726562 C 161.460938 118.867188 162.472656 121.703125 163.597656 124.6875 C 165.847656 130.675781 168.554688 137.261719 172.40625 139.996094 C 175.328125 142.070312 178.285156 142.144531 181.390625 141.617188 C 184.8125 141.042969 188.417969 139.730469 192.363281 139.554688 C 205.371094 138.96875 218.375 138.382812 231.378906 137.800781 C 239.742188 137.421875 248.109375 137.050781 256.46875 136.675781 L 256.28125 134.054688 C 256.207031 132.566406 256.074219 131.085938 255.875 129.621094 C 254.46875 118.921875 250.019531 108.835938 243.816406 99.820312 C 240.035156 94.320312 235.59375 89.226562 230.796875 84.625 C 217.085938 71.480469 198.082031 64.191406 175.75 63.851562 L 10.339844 64.15625 C 8.105469 79.011719 7.238281 94.074219 7.769531 109.082031 Z M 7.769531 109.082031 "/><path style=" stroke:none;fill-rule:nonzero;fill:#020202;fill-opacity:1;" d="M 257.574219 136.679688 C 257.726562 139.027344 257.902344 141.375 258.074219 143.722656 L 255.890625 143.425781 C 256.269531 142.003906 256.644531 140.585938 257.027344 139.164062 C 257.21875 138.457031 257.40625 137.746094 257.59375 137.039062 C 257.640625 136.871094 257.65625 136.648438 257.738281 136.492188 C 257.820312 136.339844 257.773438 136.523438 257.757812 136.566406 C 257.800781 136.453125 257.792969 136.304688 257.820312 136.191406 C 257.90625 135.808594 258.023438 135.433594 258.128906 135.054688 C 258.902344 132.207031 259.683594 129.363281 260.5 126.527344 C 262.125 120.890625 263.863281 115.285156 265.832031 109.761719 C 267.785156 104.289062 269.960938 98.894531 272.457031 93.648438 C 274.746094 88.828125 277.304688 84.136719 280.195312 79.652344 C 283.089844 75.164062 286.308594 70.878906 289.886719 66.914062 C 290.316406 66.433594 290.753906 65.964844 291.191406 65.488281 C 291.601562 65.050781 292.351562 65.078125 292.765625 65.488281 C 293.203125 65.929688 293.171875 66.621094 292.765625 67.058594 C 289.21875 70.875 285.992188 74.945312 283.09375 79.273438 C 280.199219 83.605469 277.527344 88.320312 275.1875 93.082031 C 272.710938 98.121094 270.546875 103.300781 268.617188 108.570312 C 266.617188 114.027344 264.851562 119.566406 263.21875 125.140625 C 262.398438 127.933594 261.613281 130.734375 260.84375 133.539062 C 260.640625 134.269531 260.445312 134.996094 260.246094 135.726562 C 260.203125 135.890625 260.15625 136.050781 260.113281 136.214844 C 260.09375 136.296875 260.070312 136.378906 260.046875 136.457031 C 260.035156 136.503906 259.914062 136.816406 259.980469 136.632812 C 260.050781 136.4375 259.941406 136.863281 259.941406 136.863281 C 259.925781 136.9375 259.898438 137.011719 259.882812 137.082031 C 259.832031 137.261719 259.785156 137.449219 259.738281 137.628906 C 259.34375 139.101562 258.953125 140.566406 258.5625 142.039062 C 258.390625 142.699219 258.210938 143.355469 258.039062 144.011719 C 257.898438 144.539062 257.355469 144.886719 256.820312 144.804688 C 256.25 144.722656 255.898438 144.28125 255.855469 143.714844 C 255.683594 141.367188 255.507812 139.019531 255.359375 136.675781 C 255.320312 136.074219 255.894531 135.5625 256.46875 135.5625 C 257.101562 135.5625 257.542969 136.074219 257.578125 136.675781 Z M 257.574219 136.679688 "/><path style=" stroke:none;fill-rule:nonzero;fill:#92c3c5;fill-opacity:1;" d="M 187.082031 60.1875 C 197.808594 62.023438 207.167969 63.746094 217.160156 68.980469 C 227.152344 74.21875 236.503906 81.011719 243.398438 89.945312 C 250.503906 99.148438 254.710938 110.199219 258.820312 121.078125 C 262.425781 102.199219 271.074219 84.304688 283.625 69.75 C 283.625 69.75 264.191406 68.335938 264.328125 67.792969 C 264.464844 67.25 277.765625 65.980469 277.765625 65.980469 L 187.085938 60.1875 Z M 187.082031 60.1875 "/><path style=" stroke:none;fill-rule:nonzero;fill:#2c1b48;fill-opacity:1;" d="M 245.886719 84.070312 C 245.886719 90.875 250.894531 96.410156 257.046875 96.410156 C 263.199219 96.410156 268.203125 90.875 268.203125 84.070312 C 268.203125 77.265625 263.199219 71.734375 257.046875 71.734375 C 250.894531 71.734375 245.886719 77.265625 245.886719 84.070312 Z M 245.886719 84.070312 "/><path style=" stroke:none;fill-rule:nonzero;fill:#e9ffff;fill-opacity:1;" d="M 257.046875 93.8125 C 261.90625 93.8125 265.855469 89.441406 265.855469 84.074219 C 265.855469 78.703125 261.90625 74.332031 257.046875 74.332031 C 252.1875 74.332031 248.238281 78.703125 248.238281 84.074219 C 248.238281 89.441406 252.1875 93.8125 257.046875 93.8125 Z M 257.046875 75.367188 C 261.335938 75.367188 264.824219 79.273438 264.824219 84.074219 C 264.824219 88.875 261.335938 92.78125 257.046875 92.78125 C 252.757812 92.78125 249.269531 88.875 249.269531 84.074219 C 249.269531 79.273438 252.757812 75.367188 257.046875 75.367188 Z M 257.046875 75.367188 "/><path style=" stroke:none;fill-rule:nonzero;fill:#020202;fill-opacity:1;" d="M 273.964844 19.882812 C 258.769531 15.664062 243.089844 13.566406 227.359375 12.769531 C 211.46875 11.964844 195.542969 12.4375 179.660156 13.253906 C 163.328125 14.09375 147.003906 15.171875 130.679688 16.160156 C 114.035156 17.167969 97.390625 18.175781 80.742188 19.183594 C 64.015625 20.195312 47.285156 21.210938 30.558594 22.222656 C 28.664062 22.339844 26.738281 22.570312 24.839844 22.570312 C 23.410156 22.570312 23.40625 20.351562 24.839844 20.351562 C 28.878906 20.351562 32.984375 19.855469 37.019531 19.613281 C 41.050781 19.371094 45.300781 19.113281 49.4375 18.863281 C 57.800781 18.355469 66.167969 17.851562 74.535156 17.34375 C 91.261719 16.332031 107.992188 15.316406 124.71875 14.304688 C 141.21875 13.304688 157.722656 12.25 174.230469 11.328125 C 190.191406 10.4375 206.199219 9.796875 222.1875 10.335938 C 237.882812 10.867188 253.601562 12.546875 268.886719 16.265625 C 270.785156 16.730469 272.675781 17.222656 274.554688 17.742188 C 275.929688 18.125 275.34375 20.269531 273.964844 19.882812 Z M 273.964844 19.882812 "/><path style=" stroke:none;fill-rule:nonzero;fill:#92c3c5;fill-opacity:1;" d="M 98.34375 56.796875 L 114.976562 56.796875 C 116.542969 56.796875 117.882812 55.679688 118.164062 54.132812 L 123.15625 26.707031 C 123.410156 25.304688 122.730469 23.984375 121.609375 23.332031 C 121.089844 23.015625 120.46875 22.851562 119.808594 22.882812 L 118.28125 22.957031 L 112.941406 23.214844 L 107.066406 23.5 L 104.347656 23.632812 C 102.898438 23.703125 101.671875 24.726562 101.347656 26.136719 L 98.890625 36.753906 L 95.179688 52.8125 C 94.707031 54.847656 96.25 56.785156 98.339844 56.785156 Z M 98.34375 56.796875 "/><path style=" stroke:none;fill-rule:nonzero;fill:#020202;fill-opacity:1;" d="M 119.96875 22.882812 C 119.917969 22.882812 119.863281 22.882812 119.8125 22.886719 L 118.285156 22.960938 L 112.945312 23.21875 L 107.070312 23.5 L 104.351562 23.632812 C 102.902344 23.707031 101.675781 24.730469 101.351562 26.140625 L 98.894531 36.757812 L 95.183594 52.816406 C 94.710938 54.851562 96.253906 56.792969 98.34375 56.792969 L 114.976562 56.792969 C 116.542969 56.792969 117.882812 55.675781 118.164062 54.128906 L 123.15625 26.703125 C 123.410156 25.300781 122.730469 23.980469 121.609375 23.328125 C 121.132812 23.039062 120.570312 22.875 119.96875 22.875 Z M 119.96875 21.992188 C 120.71875 21.992188 121.445312 22.191406 122.070312 22.574219 C 123.546875 23.433594 124.34375 25.160156 124.035156 26.867188 L 119.039062 54.292969 C 118.683594 56.257812 116.976562 57.683594 114.976562 57.683594 L 98.347656 57.683594 C 97.078125 57.683594 95.902344 57.117188 95.109375 56.125 C 94.324219 55.132812 94.035156 53.855469 94.320312 52.621094 L 98.03125 36.5625 L 100.488281 25.949219 C 100.902344 24.15625 102.472656 22.839844 104.3125 22.753906 L 107.03125 22.617188 L 112.90625 22.335938 L 118.25 22.078125 L 119.773438 22.003906 C 119.84375 22.003906 119.910156 22 119.976562 22 Z M 119.96875 21.992188 "/><path style=" stroke:none;fill-rule:nonzero;fill:#92c3c5;fill-opacity:1;" d="M 64.835938 56.773438 C 64.980469 56.785156 65.128906 56.796875 65.277344 56.796875 L 84.117188 56.796875 C 85.890625 56.796875 87.414062 55.703125 87.734375 54.191406 L 93.390625 27.410156 C 93.8125 25.402344 91.957031 23.578125 89.597656 23.675781 L 85.648438 23.839844 L 82.117188 23.984375 L 77.753906 24.171875 L 72.082031 24.40625 C 71.382812 24.4375 70.722656 24.640625 70.175781 24.964844 C 69.601562 25.308594 69.140625 25.789062 68.867188 26.363281 L 68.867188 26.375 C 68.789062 26.53125 68.726562 26.695312 68.679688 26.859375 L 61.695312 52.914062 C 61.203125 54.777344 62.703125 56.558594 64.839844 56.773438 Z M 64.835938 56.773438 "/><path style=" stroke:none;fill-rule:nonzero;fill:#020202;fill-opacity:1;" d="M 89.78125 23.671875 C 89.71875 23.671875 89.664062 23.671875 89.601562 23.675781 L 85.652344 23.839844 L 82.121094 23.984375 L 77.757812 24.171875 L 72.085938 24.40625 C 71.386719 24.4375 70.726562 24.640625 70.179688 24.964844 C 69.605469 25.308594 69.144531 25.789062 68.871094 26.363281 L 68.871094 26.375 C 68.792969 26.53125 68.726562 26.695312 68.683594 26.859375 L 61.699219 52.914062 C 61.207031 54.777344 62.703125 56.558594 64.84375 56.773438 C 64.988281 56.789062 65.132812 56.800781 65.285156 56.800781 L 84.125 56.800781 C 85.898438 56.800781 87.421875 55.707031 87.742188 54.195312 L 93.398438 27.414062 C 93.808594 25.457031 92.0625 23.675781 89.785156 23.675781 Z M 89.78125 22.78125 C 91.238281 22.78125 92.625 23.414062 93.476562 24.464844 C 94.21875 25.375 94.492188 26.484375 94.261719 27.589844 L 88.601562 54.375 C 88.199219 56.289062 86.308594 57.679688 84.117188 57.679688 L 65.277344 57.679688 C 65.113281 57.679688 64.941406 57.675781 64.757812 57.652344 C 63.351562 57.511719 62.128906 56.816406 61.390625 55.75 C 60.753906 54.828125 60.558594 53.738281 60.839844 52.683594 L 67.820312 26.625 C 67.878906 26.410156 67.960938 26.1875 68.0625 25.976562 C 68.0625 25.976562 68.070312 25.960938 68.070312 25.960938 C 68.410156 25.253906 68.984375 24.640625 69.71875 24.199219 C 70.414062 23.792969 71.21875 23.554688 72.046875 23.519531 L 77.71875 23.285156 L 82.082031 23.097656 L 85.617188 22.949219 L 89.566406 22.785156 C 89.640625 22.785156 89.714844 22.78125 89.785156 22.78125 Z M 89.78125 22.78125 "/><path style=" stroke:none;fill-rule:nonzero;fill:#92c3c5;fill-opacity:1;" d="M 31.132812 56.796875 L 50.40625 56.796875 C 52.222656 56.796875 53.78125 55.730469 54.105469 54.269531 L 57.632812 38.398438 L 58.65625 33.800781 L 59.894531 28.21875 C 60 27.738281 59.96875 27.273438 59.820312 26.84375 C 59.371094 25.511719 57.84375 24.515625 56.019531 24.589844 L 38.097656 25.304688 C 36.414062 25.371094 34.996094 26.34375 34.617188 27.6875 L 27.515625 52.859375 L 27.472656 53.023438 C 26.925781 54.957031 28.714844 56.800781 31.132812 56.800781 Z M 31.132812 56.796875 "/><path style=" stroke:none;fill-rule:nonzero;fill:#020202;fill-opacity:1;" d="M 56.207031 24.585938 C 56.144531 24.585938 56.078125 24.585938 56.015625 24.589844 L 38.09375 25.300781 C 36.410156 25.367188 34.992188 26.339844 34.613281 27.683594 L 27.511719 52.859375 L 27.46875 53.019531 C 26.925781 54.953125 28.710938 56.796875 31.132812 56.796875 L 50.40625 56.796875 C 52.222656 56.796875 53.78125 55.730469 54.105469 54.269531 L 57.632812 38.398438 L 58.65625 33.800781 L 59.894531 28.21875 C 60 27.738281 59.96875 27.273438 59.820312 26.84375 C 59.386719 25.558594 57.953125 24.589844 56.210938 24.589844 Z M 56.207031 23.695312 C 58.257812 23.695312 60.089844 24.871094 60.65625 26.554688 C 60.867188 27.144531 60.898438 27.769531 60.761719 28.40625 L 59.519531 33.988281 L 58.496094 38.585938 L 54.972656 54.457031 C 54.554688 56.320312 52.636719 57.679688 50.40625 57.679688 L 31.132812 57.679688 C 29.542969 57.679688 28.082031 57 27.222656 55.867188 C 26.523438 54.945312 26.3125 53.84375 26.613281 52.777344 L 26.65625 52.621094 L 33.757812 27.441406 C 34.242188 25.710938 35.972656 24.496094 38.058594 24.410156 L 55.976562 23.699219 C 56.050781 23.699219 56.128906 23.695312 56.203125 23.695312 Z M 56.207031 23.695312 "/><path style=" stroke:none;fill-rule:nonzero;fill:#2c1b48;fill-opacity:1;" d="M 241.105469 21.402344 L 254.71875 53.164062 C 255.050781 53.9375 255.796875 54.449219 256.636719 54.480469 L 282.871094 55.375 C 284.417969 55.429688 285.519531 53.898438 284.980469 52.449219 L 284.40625 50.914062 L 280.304688 39.910156 C 280.304688 39.910156 277.515625 32.433594 277.515625 32.433594 L 276.003906 28.382812 L 274.378906 24.023438 C 274.101562 23.28125 273.441406 22.75 272.652344 22.632812 L 269.070312 22.113281 L 265.523438 21.597656 L 254.550781 20.007812 L 243.40625 18.390625 C 243.269531 18.375 243.132812 18.363281 243.007812 18.375 C 241.53125 18.421875 240.488281 19.964844 241.105469 21.398438 Z M 241.105469 21.402344 "/><path style=" stroke:none;fill-rule:nonzero;fill:#2c1b48;fill-opacity:1;" d="M 183.882812 25.578125 L 185.050781 30.152344 L 190.359375 50.964844 C 191.027344 53.582031 193.390625 55.402344 196.085938 55.375 L 231.507812 55.007812 L 239.441406 54.921875 C 242.242188 54.890625 244.433594 52.949219 245.058594 50.5 C 245.339844 49.398438 245.304688 48.195312 244.859375 47.015625 L 241.40625 37.839844 L 238.59375 30.355469 L 235.480469 22.074219 C 234.621094 19.796875 232.4375 18.28125 230.003906 18.28125 L 189.550781 18.28125 C 189.113281 18.28125 188.6875 18.328125 188.277344 18.425781 C 185.140625 19.113281 183.050781 22.304688 183.882812 25.578125 Z M 183.882812 25.578125 "/><path style=" stroke:none;fill-rule:nonzero;fill:#92c3c5;fill-opacity:1;" d="M 139.652344 55.828125 L 172.941406 55.828125 C 175.738281 55.828125 177.929688 53.226562 177.667969 50.21875 L 175.8125 29.066406 C 175.582031 26.429688 173.535156 24.421875 171.085938 24.421875 L 142.121094 24.421875 C 139.730469 24.421875 137.710938 26.34375 137.410156 28.910156 L 134.941406 50.0625 C 134.585938 53.125 136.792969 55.832031 139.648438 55.832031 Z M 139.652344 55.828125 "/><path style=" stroke:none;fill-rule:nonzero;fill:#020202;fill-opacity:1;" d="M 142.125 24.417969 C 139.734375 24.417969 137.714844 26.339844 137.414062 28.90625 L 134.945312 50.058594 C 134.589844 53.121094 136.796875 55.828125 139.652344 55.828125 L 172.941406 55.828125 C 175.738281 55.828125 177.929688 53.226562 177.667969 50.21875 L 175.8125 29.066406 C 175.582031 26.429688 173.535156 24.421875 171.085938 24.421875 L 142.121094 24.421875 Z M 142.125 23.527344 L 171.089844 23.527344 C 174.019531 23.527344 176.425781 25.871094 176.699219 28.984375 L 178.550781 50.136719 C 178.707031 51.902344 178.125 53.640625 176.96875 54.910156 C 175.902344 56.074219 174.46875 56.714844 172.945312 56.714844 L 139.65625 56.714844 C 138.101562 56.714844 136.652344 56.050781 135.578125 54.847656 C 134.410156 53.535156 133.859375 51.75 134.066406 49.953125 L 136.535156 28.800781 C 136.882812 25.796875 139.289062 23.527344 142.125 23.527344 Z M 142.125 23.527344 "/><path style=" stroke:none;fill-rule:nonzero;fill:#2e1a46;fill-opacity:1;" d="M 25.214844 67.113281 L 15.628906 67.113281 C 15.378906 67.113281 15.160156 67.203125 14.980469 67.382812 C 14.804688 67.5625 14.714844 67.777344 14.714844 68.03125 C 14.714844 68.28125 14.804688 68.496094 14.980469 68.675781 C 15.160156 68.855469 15.378906 68.945312 15.628906 68.945312 L 25.214844 68.945312 C 25.464844 68.945312 25.683594 68.855469 25.863281 68.675781 C 26.039062 68.496094 26.128906 68.28125 26.128906 68.03125 C 26.128906 67.777344 26.039062 67.5625 25.863281 67.382812 C 25.683594 67.203125 25.464844 67.113281 25.214844 67.113281 Z M 25.214844 67.113281 "/><path style=" stroke:none;fill-rule:nonzero;fill:#2e1a46;fill-opacity:1;" d="M 25.214844 69.761719 L 15.628906 69.761719 C 15.378906 69.761719 15.160156 69.851562 14.980469 70.03125 C 14.804688 70.207031 14.714844 70.425781 14.714844 70.675781 C 14.714844 70.929688 14.804688 71.144531 14.980469 71.324219 C 15.160156 71.503906 15.378906 71.589844 15.628906 71.589844 L 25.214844 71.589844 C 25.464844 71.589844 25.683594 71.503906 25.863281 71.324219 C 26.039062 71.144531 26.128906 70.929688 26.128906 70.675781 C 26.128906 70.425781 26.039062 70.207031 25.863281 70.03125 C 25.683594 69.851562 25.464844 69.761719 25.214844 69.761719 Z M 25.214844 69.761719 "/><path style=" stroke:none;fill-rule:nonzero;fill:#2e1a46;fill-opacity:1;" d="M 25.214844 72.410156 L 15.628906 72.410156 C 15.378906 72.410156 15.160156 72.5 14.980469 72.675781 C 14.804688 72.855469 14.714844 73.070312 14.714844 73.324219 C 14.714844 73.578125 14.804688 73.792969 14.980469 73.96875 C 15.160156 74.148438 15.378906 74.238281 15.628906 74.238281 L 25.214844 74.238281 C 25.464844 74.238281 25.683594 74.148438 25.863281 73.96875 C 26.039062 73.792969 26.128906 73.578125 26.128906 73.324219 C 26.128906 73.070312 26.039062 72.855469 25.863281 72.675781 C 25.683594 72.5 25.464844 72.410156 25.214844 72.410156 Z M 25.214844 72.410156 "/><path style=" stroke:none;fill-rule:nonzero;fill:#2e1a46;fill-opacity:1;" d="M 25.214844 75.054688 L 15.628906 75.054688 C 15.378906 75.054688 15.160156 75.144531 14.980469 75.324219 C 14.804688 75.503906 14.714844 75.71875 14.714844 75.972656 C 14.714844 76.222656 14.804688 76.4375 14.980469 76.617188 C 15.160156 76.796875 15.378906 76.886719 15.628906 76.886719 L 25.214844 76.886719 C 25.464844 76.886719 25.683594 76.796875 25.863281 76.617188 C 26.039062 76.4375 26.128906 76.222656 26.128906 75.972656 C 26.128906 75.71875 26.039062 75.503906 25.863281 75.324219 C 25.683594 75.144531 25.464844 75.054688 25.214844 75.054688 Z M 25.214844 75.054688 "/><path style=" stroke:none;fill-rule:nonzero;fill:#2e1a46;fill-opacity:1;" d="M 25.214844 77.703125 L 15.628906 77.703125 C 15.378906 77.703125 15.160156 77.792969 14.980469 77.972656 C 14.804688 78.148438 14.714844 78.363281 14.714844 78.617188 C 14.714844 78.871094 14.804688 79.085938 14.980469 79.265625 C 15.160156 79.441406 15.378906 79.53125 15.628906 79.53125 L 25.214844 79.53125 C 25.464844 79.53125 25.683594 79.441406 25.863281 79.265625 C 26.039062 79.085938 26.128906 78.871094 26.128906 78.617188 C 26.128906 78.363281 26.039062 78.148438 25.863281 77.972656 C 25.683594 77.792969 25.464844 77.703125 25.214844 77.703125 Z M 25.214844 77.703125 "/><path style=" stroke:none;fill-rule:nonzero;fill:#2e1a46;fill-opacity:1;" d="M 25.214844 80.351562 L 15.628906 80.351562 C 15.378906 80.351562 15.160156 80.4375 14.980469 80.617188 C 14.804688 80.796875 14.714844 81.011719 14.714844 81.265625 C 14.714844 81.515625 14.804688 81.734375 14.980469 81.910156 C 15.160156 82.089844 15.378906 82.179688 15.628906 82.179688 L 25.214844 82.179688 C 25.464844 82.179688 25.683594 82.089844 25.863281 81.910156 C 26.039062 81.734375 26.128906 81.515625 26.128906 81.265625 C 26.128906 81.011719 26.039062 80.796875 25.863281 80.617188 C 25.683594 80.4375 25.464844 80.351562 25.214844 80.351562 Z M 25.214844 80.351562 "/><path style=" stroke:none;fill-rule:nonzero;fill:#2e1a46;fill-opacity:1;" d="M 25.214844 82.996094 L 15.628906 82.996094 C 15.378906 82.996094 15.160156 83.085938 14.980469 83.265625 C 14.804688 83.445312 14.714844 83.660156 14.714844 83.910156 C 14.714844 84.164062 14.804688 84.378906 14.980469 84.558594 C 15.160156 84.738281 15.378906 84.828125 15.628906 84.828125 L 25.214844 84.828125 C 25.464844 84.828125 25.683594 84.738281 25.863281 84.558594 C 26.039062 84.378906 26.128906 84.164062 26.128906 83.910156 C 26.128906 83.660156 26.039062 83.445312 25.863281 83.265625 C 25.683594 83.085938 25.464844 82.996094 25.214844 82.996094 Z M 25.214844 82.996094 "/><path style=" stroke:none;fill-rule:nonzero;fill:#2e1a46;fill-opacity:1;" d="M 25.214844 85.644531 L 15.628906 85.644531 C 15.378906 85.644531 15.160156 85.734375 14.980469 85.914062 C 14.804688 86.089844 14.714844 86.304688 14.714844 86.558594 C 14.714844 86.8125 14.804688 87.027344 14.980469 87.207031 C 15.160156 87.382812 15.378906 87.472656 15.628906 87.472656 L 25.214844 87.472656 C 25.464844 87.472656 25.683594 87.382812 25.863281 87.207031 C 26.039062 87.027344 26.128906 86.8125 26.128906 86.558594 C 26.128906 86.304688 26.039062 86.089844 25.863281 85.914062 C 25.683594 85.734375 25.464844 85.644531 25.214844 85.644531 Z M 25.214844 85.644531 "/><path style=" stroke:none;fill-rule:nonzero;fill:#2e1a46;fill-opacity:1;" d="M 25.214844 88.292969 L 15.628906 88.292969 C 15.378906 88.292969 15.160156 88.378906 14.980469 88.558594 C 14.804688 88.738281 14.714844 88.953125 14.714844 89.207031 C 14.714844 89.457031 14.804688 89.675781 14.980469 89.851562 C 15.160156 90.03125 15.378906 90.121094 15.628906 90.121094 L 25.214844 90.121094 C 25.464844 90.121094 25.683594 90.03125 25.863281 89.851562 C 26.039062 89.675781 26.128906 89.457031 26.128906 89.207031 C 26.128906 88.953125 26.039062 88.738281 25.863281 88.558594 C 25.683594 88.378906 25.464844 88.292969 25.214844 88.292969 Z M 25.214844 88.292969 "/><path style=" stroke:none;fill-rule:nonzero;fill:#2e1a46;fill-opacity:1;" d="M 25.214844 90.9375 L 15.628906 90.9375 C 15.378906 90.9375 15.160156 91.027344 14.980469 91.207031 C 14.804688 91.386719 14.714844 91.601562 14.714844 91.851562 C 14.714844 92.105469 14.804688 92.320312 14.980469 92.5 C 15.160156 92.679688 15.378906 92.769531 15.628906 92.769531 L 25.214844 92.769531 C 25.464844 92.769531 25.683594 92.679688 25.863281 92.5 C 26.039062 92.320312 26.128906 92.105469 26.128906 91.851562 C 26.128906 91.601562 26.039062 91.386719 25.863281 91.207031 C 25.683594 91.027344 25.464844 90.9375 25.214844 90.9375 Z M 25.214844 90.9375 "/><path style=" stroke:none;fill-rule:nonzero;fill:#2e1a46;fill-opacity:1;" d="M 17.515625 32.5625 L 21.859375 32.5625 C 22.359375 32.5625 22.769531 32.152344 22.769531 31.644531 C 22.769531 31.390625 22.667969 31.164062 22.5 31 C 22.335938 30.828125 22.101562 30.726562 21.855469 30.726562 L 18.269531 30.726562 C 18.003906 31.324219 17.753906 31.9375 17.511719 32.558594 Z M 17.515625 32.5625 "/><path style=" stroke:none;fill-rule:nonzero;fill:#2e1a46;fill-opacity:1;" d="M 16.585938 35.210938 L 21.855469 35.210938 C 22.355469 35.210938 22.765625 34.796875 22.765625 34.296875 C 22.765625 34.046875 22.664062 33.8125 22.496094 33.648438 C 22.332031 33.480469 22.101562 33.378906 21.851562 33.378906 L 17.207031 33.378906 C 16.988281 33.972656 16.78125 34.585938 16.582031 35.210938 Z M 16.585938 35.210938 "/><path style=" stroke:none;fill-rule:nonzero;fill:#2e1a46;fill-opacity:1;" d="M 15.792969 37.859375 L 21.855469 37.859375 C 22.355469 37.859375 22.765625 37.449219 22.765625 36.945312 C 22.765625 36.691406 22.664062 36.464844 22.496094 36.296875 C 22.332031 36.132812 22.101562 36.03125 21.851562 36.03125 L 16.320312 36.03125 C 16.140625 36.628906 15.960938 37.234375 15.789062 37.859375 Z M 15.792969 37.859375 "/><path style=" stroke:none;fill-rule:nonzero;fill:#2e1a46;fill-opacity:1;" d="M 15.09375 40.503906 L 21.855469 40.503906 C 22.355469 40.503906 22.765625 40.097656 22.765625 39.589844 C 22.765625 39.339844 22.664062 39.109375 22.496094 38.945312 C 22.332031 38.78125 22.101562 38.679688 21.851562 38.679688 L 15.5625 38.679688 C 15.460938 39.058594 15.359375 39.445312 15.257812 39.835938 C 15.199219 40.058594 15.144531 40.285156 15.089844 40.507812 Z M 15.09375 40.503906 "/><path style=" stroke:none;fill-rule:nonzero;fill:#2e1a46;fill-opacity:1;" d="M 14.441406 43.152344 L 21.859375 43.152344 C 22.359375 43.152344 22.769531 42.742188 22.769531 42.238281 C 22.769531 41.988281 22.667969 41.757812 22.5 41.589844 C 22.335938 41.429688 22.101562 41.324219 21.855469 41.324219 L 14.886719 41.324219 C 14.738281 41.933594 14.585938 42.546875 14.4375 43.15625 Z M 14.441406 43.152344 "/><path style=" stroke:none;fill-rule:nonzero;fill:#2e1a46;fill-opacity:1;" d="M 13.816406 45.796875 L 21.855469 45.796875 C 22.355469 45.796875 22.765625 45.386719 22.765625 44.882812 C 22.765625 44.628906 22.664062 44.402344 22.496094 44.234375 C 22.332031 44.070312 22.101562 43.96875 21.851562 43.96875 L 14.242188 43.96875 C 14.09375 44.578125 13.949219 45.183594 13.816406 45.796875 Z M 13.816406 45.796875 "/><path style=" stroke:none;fill-rule:nonzero;fill:#2e1a46;fill-opacity:1;" d="M 13.222656 48.449219 L 21.855469 48.449219 C 22.355469 48.449219 22.765625 48.035156 22.765625 47.53125 C 22.765625 47.28125 22.664062 47.050781 22.496094 46.886719 C 22.332031 46.714844 22.101562 46.613281 21.851562 46.613281 L 13.628906 46.613281 C 13.492188 47.222656 13.351562 47.832031 13.21875 48.445312 Z M 13.222656 48.449219 "/><path style=" stroke:none;fill-rule:nonzero;fill:#2e1a46;fill-opacity:1;" d="M 12.664062 51.09375 L 21.855469 51.09375 C 22.355469 51.09375 22.765625 50.679688 22.765625 50.179688 C 22.765625 49.925781 22.664062 49.695312 22.496094 49.53125 C 22.332031 49.363281 22.101562 49.261719 21.851562 49.261719 L 13.042969 49.261719 C 12.910156 49.871094 12.78125 50.480469 12.660156 51.09375 Z M 12.664062 51.09375 "/><path style=" stroke:none;fill-rule:nonzero;fill:#2e1a46;fill-opacity:1;" d="M 12.136719 53.734375 C 12.179688 53.738281 12.222656 53.742188 12.269531 53.742188 L 21.855469 53.742188 C 22.355469 53.742188 22.765625 53.335938 22.765625 52.832031 C 22.765625 52.578125 22.664062 52.347656 22.496094 52.183594 C 22.332031 52.019531 22.101562 51.917969 21.851562 51.917969 L 12.492188 51.917969 C 12.375 52.527344 12.246094 53.128906 12.132812 53.738281 Z M 12.136719 53.734375 "/><path style=" stroke:none;fill-rule:nonzero;fill:#2e1a46;fill-opacity:1;" d="M 11.675781 56.164062 C 11.832031 56.300781 12.042969 56.386719 12.269531 56.386719 L 21.859375 56.386719 C 22.359375 56.386719 22.769531 55.976562 22.769531 55.472656 C 22.769531 55.222656 22.667969 54.988281 22.5 54.828125 C 22.335938 54.664062 22.101562 54.5625 21.855469 54.5625 L 12.269531 54.5625 C 12.164062 54.5625 12.058594 54.578125 11.964844 54.609375 C 11.863281 55.125 11.765625 55.648438 11.671875 56.164062 Z M 11.675781 56.164062 "/><path style=" stroke:none;fill-rule:nonzero;fill:#fc8321;fill-opacity:1;" d="M 160.304688 116.394531 C 160.367188 116.507812 160.425781 116.613281 160.480469 116.730469 C 161.460938 118.871094 162.472656 121.703125 163.597656 124.6875 C 165.847656 130.679688 168.554688 137.265625 172.40625 140 C 173.707031 140.921875 175.011719 141.445312 176.335938 141.699219 C 177.988281 142.019531 179.664062 141.914062 181.386719 141.621094 C 184.808594 141.046875 188.414062 139.734375 192.359375 139.554688 C 205.367188 138.972656 218.371094 138.386719 231.378906 137.804688 C 242.941406 137.289062 254.503906 136.765625 266.066406 136.25 L 262.523438 129.386719 C 260.308594 129.476562 258.089844 129.558594 255.875 129.625 C 254.46875 118.925781 250.019531 108.835938 243.816406 99.824219 C 216.386719 107.183594 188.46875 112.71875 160.308594 116.394531 Z M 160.304688 116.394531 "/><path style=" stroke:none;fill-rule:nonzero;fill:#e5f4f4;fill-opacity:1;" d="M 207.625 103.316406 C 207.625 104.144531 207.695312 104.96875 207.832031 105.78125 C 207.96875 106.59375 208.175781 107.386719 208.445312 108.152344 C 208.714844 108.921875 209.046875 109.648438 209.4375 110.339844 C 209.832031 111.027344 210.277344 111.667969 210.777344 112.253906 C 211.277344 112.839844 211.820312 113.367188 212.40625 113.828125 C 212.992188 114.289062 213.613281 114.675781 214.265625 114.996094 C 214.917969 115.3125 215.59375 115.550781 216.285156 115.714844 C 216.976562 115.875 217.675781 115.957031 218.382812 115.957031 C 219.089844 115.957031 219.789062 115.875 220.484375 115.714844 C 221.175781 115.550781 221.847656 115.3125 222.5 114.996094 C 223.152344 114.675781 223.773438 114.289062 224.359375 113.828125 C 224.949219 113.367188 225.492188 112.839844 225.992188 112.253906 C 226.492188 111.667969 226.9375 111.027344 227.328125 110.339844 C 227.722656 109.648438 228.054688 108.921875 228.324219 108.152344 C 228.59375 107.386719 228.796875 106.59375 228.9375 105.78125 C 229.074219 104.96875 229.140625 104.144531 229.140625 103.316406 C 229.140625 102.484375 229.074219 101.664062 228.9375 100.847656 C 228.796875 100.035156 228.59375 99.242188 228.324219 98.476562 C 228.054688 97.710938 227.722656 96.980469 227.328125 96.292969 C 226.9375 95.601562 226.492188 94.960938 225.992188 94.375 C 225.492188 93.789062 224.949219 93.265625 224.359375 92.804688 C 223.773438 92.34375 223.152344 91.953125 222.5 91.636719 C 221.847656 91.316406 221.175781 91.078125 220.484375 90.914062 C 219.789062 90.753906 219.089844 90.671875 218.382812 90.671875 C 217.675781 90.671875 216.976562 90.753906 216.285156 90.914062 C 215.59375 91.078125 214.917969 91.316406 214.265625 91.636719 C 213.613281 91.953125 212.992188 92.34375 212.40625 92.804688 C 211.820312 93.265625 211.277344 93.789062 210.777344 94.375 C 210.277344 94.960938 209.832031 95.601562 209.4375 96.292969 C 209.046875 96.980469 208.714844 97.710938 208.445312 98.476562 C 208.175781 99.242188 207.96875 100.035156 207.832031 100.847656 C 207.695312 101.664062 207.625 102.484375 207.625 103.316406 Z M 207.625 103.316406 "/><path style=" stroke:none;fill-rule:nonzero;fill:#000000;fill-opacity:1;" d="M 218.382812 116.1875 C 224.441406 116.1875 229.371094 110.410156 229.371094 103.316406 C 229.371094 96.21875 224.441406 90.445312 218.382812 90.445312 C 212.328125 90.445312 207.398438 96.21875 207.398438 103.316406 C 207.398438 110.410156 212.328125 116.1875 218.382812 116.1875 Z M 218.382812 90.902344 C 224.1875 90.902344 228.914062 96.472656 228.914062 103.316406 C 228.914062 110.160156 224.1875 115.730469 218.382812 115.730469 C 212.578125 115.730469 207.855469 110.160156 207.855469 103.316406 C 207.855469 96.472656 212.578125 90.902344 218.382812 90.902344 Z M 218.382812 90.902344 "/><path style=" stroke:none;fill-rule:nonzero;fill:#92c3c5;fill-opacity:1;" d="M 210.628906 103.316406 C 210.628906 103.914062 210.679688 104.507812 210.777344 105.09375 C 210.878906 105.679688 211.027344 106.25 211.21875 106.800781 C 211.414062 107.355469 211.652344 107.878906 211.9375 108.378906 C 212.21875 108.875 212.542969 109.335938 212.902344 109.757812 C 213.261719 110.183594 213.652344 110.558594 214.074219 110.890625 C 214.5 111.226562 214.945312 111.503906 215.417969 111.734375 C 215.886719 111.964844 216.371094 112.136719 216.871094 112.253906 C 217.371094 112.371094 217.875 112.429688 218.382812 112.429688 C 218.894531 112.429688 219.398438 112.371094 219.898438 112.253906 C 220.394531 112.136719 220.878906 111.964844 221.351562 111.734375 C 221.820312 111.503906 222.269531 111.226562 222.691406 110.890625 C 223.113281 110.558594 223.507812 110.183594 223.867188 109.757812 C 224.226562 109.335938 224.546875 108.875 224.832031 108.378906 C 225.113281 107.878906 225.351562 107.355469 225.546875 106.800781 C 225.742188 106.25 225.890625 105.679688 225.988281 105.09375 C 226.089844 104.507812 226.136719 103.914062 226.136719 103.316406 C 226.136719 102.714844 226.089844 102.125 225.988281 101.539062 C 225.890625 100.949219 225.742188 100.378906 225.546875 99.828125 C 225.351562 99.273438 225.113281 98.75 224.832031 98.253906 C 224.546875 97.753906 224.226562 97.292969 223.867188 96.871094 C 223.507812 96.449219 223.113281 96.070312 222.691406 95.738281 C 222.269531 95.40625 221.820312 95.125 221.351562 94.894531 C 220.878906 94.667969 220.394531 94.492188 219.898438 94.378906 C 219.398438 94.261719 218.894531 94.203125 218.382812 94.203125 C 217.875 94.203125 217.371094 94.261719 216.871094 94.378906 C 216.371094 94.492188 215.886719 94.667969 215.417969 94.894531 C 214.945312 95.125 214.5 95.40625 214.074219 95.738281 C 213.652344 96.070312 213.261719 96.449219 212.902344 96.871094 C 212.542969 97.292969 212.21875 97.753906 211.9375 98.253906 C 211.652344 98.75 211.414062 99.273438 211.21875 99.828125 C 211.027344 100.378906 210.878906 100.949219 210.777344 101.539062 C 210.679688 102.125 210.628906 102.714844 210.628906 103.316406 Z M 210.628906 103.316406 "/><path style=" stroke:none;fill-rule:nonzero;fill:#000000;fill-opacity:1;" d="M 218.382812 112.640625 C 222.777344 112.640625 226.351562 108.457031 226.351562 103.316406 C 226.351562 98.175781 222.777344 93.992188 218.382812 93.992188 C 213.988281 93.992188 210.414062 98.175781 210.414062 103.316406 C 210.414062 108.457031 213.988281 112.640625 218.382812 112.640625 Z M 218.382812 94.414062 C 222.542969 94.414062 225.925781 98.40625 225.925781 103.3125 C 225.925781 108.21875 222.542969 112.210938 218.382812 112.210938 C 214.222656 112.210938 210.839844 108.21875 210.839844 103.3125 C 210.839844 98.40625 214.222656 94.414062 218.382812 94.414062 Z M 218.382812 94.414062 "/><path style=" stroke:none;fill-rule:nonzero;fill:#fc8321;fill-opacity:1;" d="M 54.277344 121.488281 C 56.488281 125.257812 58.671875 128.179688 62.53125 129.695312 C 63.273438 129.984375 64.007812 130.238281 64.730469 130.46875 C 71.042969 132.46875 76.726562 132.289062 81.535156 132.515625 C 91.71875 132.980469 98.585938 133.449219 108.542969 133.71875 C 108.894531 133.730469 109.253906 133.742188 109.613281 133.746094 C 114.785156 133.878906 124.085938 135.023438 128.910156 133.160156 C 133.46875 131.398438 131.804688 124.640625 132.703125 119.402344 C 106.632812 121.683594 80.421875 122.386719 54.269531 121.488281 Z M 54.277344 121.488281 "/><path style=" stroke:none;fill-rule:nonzero;fill:#fc8321;fill-opacity:1;" d="M 9.09375 118.347656 C 10.117188 121.613281 11.914062 124.292969 15.050781 125.078125 C 18.003906 125.8125 24.636719 125.796875 23.144531 123.140625 C 22.535156 122.0625 22.195312 120.824219 22.046875 119.574219 C 17.726562 119.214844 13.410156 118.808594 9.09375 118.347656 Z M 9.09375 118.347656 "/><path style=" stroke:none;fill-rule:nonzero;fill:#020202;fill-opacity:1;" d="M 255.167969 133.410156 C 254.121094 114.859375 243.808594 98.257812 230.804688 85.539062 C 218.976562 73.96875 203.476562 67.257812 187.160156 65.128906 C 179.117188 64.078125 171.027344 64.324219 162.9375 64.339844 C 153.335938 64.359375 143.730469 64.378906 134.128906 64.394531 C 131.023438 64.402344 127.925781 64.40625 124.820312 64.414062 C 119.390625 64.421875 113.960938 64.433594 108.53125 64.445312 C 99.484375 64.460938 90.4375 64.476562 81.390625 64.496094 C 71.222656 64.511719 61.054688 64.53125 50.882812 64.550781 C 42.207031 64.566406 33.53125 64.582031 24.855469 64.597656 C 20.261719 64.605469 15.660156 64.613281 11.066406 64.621094 C 10.859375 64.621094 10.644531 64.621094 10.4375 64.621094 C 9.011719 64.621094 9.007812 62.402344 10.4375 62.398438 C 13.726562 62.394531 17.011719 62.386719 20.300781 62.382812 C 28.335938 62.371094 36.378906 62.351562 44.414062 62.339844 C 54.554688 62.320312 64.699219 62.300781 74.835938 62.285156 C 84.433594 62.265625 94.03125 62.25 103.628906 62.230469 C 110.03125 62.21875 116.4375 62.207031 122.84375 62.195312 C 125.355469 62.191406 127.867188 62.183594 130.378906 62.183594 C 139.558594 62.164062 148.734375 62.148438 157.910156 62.128906 C 164.472656 62.117188 171.058594 61.925781 177.621094 62.144531 C 194.457031 62.703125 211.359375 67.421875 224.960938 77.601562 C 231.972656 82.847656 238.0625 89.394531 243.230469 96.441406 C 248.554688 103.695312 252.839844 111.820312 255.269531 120.515625 C 256.445312 124.726562 257.144531 129.050781 257.390625 133.414062 C 257.472656 134.839844 255.25 134.835938 255.171875 133.414062 Z M 255.167969 133.410156 "/><path style=" stroke:none;fill-rule:nonzero;fill:#fcfcfc;fill-opacity:1;" d="M 12.863281 117.132812 C 14.347656 119.945312 15.824219 122.753906 17.304688 125.566406 C 17.605469 126.136719 17.917969 126.789062 17.714844 127.402344 C 17.492188 128.085938 16.722656 128.417969 16.027344 128.609375 C 12.597656 129.558594 8.78125 128.988281 5.769531 127.085938 C 4.578125 126.328125 3.488281 125.34375 2.863281 124.074219 C 2.183594 122.707031 2.109375 121.054688 2.65625 119.628906 C 3.207031 118.207031 4.367188 117.027344 5.789062 116.464844 C 7.886719 115.632812 10.25 116.144531 12.449219 116.667969 L 12.859375 117.125 Z M 12.863281 117.132812 "/><path style=" stroke:none;fill-rule:nonzero;fill:#020202;fill-opacity:1;" d="M 13.824219 116.570312 C 14.710938 118.253906 15.597656 119.933594 16.480469 121.617188 C 16.917969 122.445312 17.355469 123.273438 17.789062 124.101562 C 18.238281 124.953125 18.8125 125.835938 18.882812 126.824219 C 19.015625 128.710938 17.1875 129.515625 15.644531 129.847656 C 14.027344 130.195312 12.375 130.25 10.734375 130.027344 C 7.585938 129.597656 4.28125 128.097656 2.394531 125.457031 C 0.421875 122.6875 0.949219 118.664062 3.585938 116.515625 C 5.078125 115.296875 6.945312 114.824219 8.859375 114.9375 C 9.871094 114.992188 10.871094 115.175781 11.859375 115.394531 C 12.324219 115.496094 12.890625 115.546875 13.246094 115.894531 C 13.390625 116.035156 13.515625 116.195312 13.648438 116.347656 C 14.046875 116.792969 14.085938 117.476562 13.648438 117.917969 C 13.242188 118.320312 12.480469 118.367188 12.078125 117.917969 L 11.664062 117.457031 L 12.15625 117.742188 C 10.828125 117.429688 9.484375 117.117188 8.113281 117.144531 C 7.457031 117.15625 6.847656 117.265625 6.226562 117.488281 C 5.847656 117.625 5.28125 117.972656 4.964844 118.25 C 4.132812 118.984375 3.578125 119.933594 3.441406 121.019531 C 3.289062 122.242188 3.628906 123.460938 4.394531 124.445312 C 5.863281 126.324219 8.417969 127.40625 10.761719 127.804688 C 11.875 127.992188 13.253906 128.007812 14.367188 127.835938 C 14.972656 127.742188 15.605469 127.625 16.183594 127.402344 C 16.058594 127.449219 16.308594 127.339844 16.347656 127.324219 C 16.410156 127.289062 16.480469 127.246094 16.542969 127.203125 C 16.523438 127.21875 16.441406 127.28125 16.542969 127.203125 C 16.585938 127.171875 16.628906 127.128906 16.664062 127.085938 C 16.558594 127.210938 16.671875 127.078125 16.679688 127.046875 C 16.640625 127.21875 16.691406 126.921875 16.691406 126.976562 C 16.691406 126.667969 16.460938 126.3125 16.320312 126.046875 C 16.109375 125.644531 15.898438 125.246094 15.6875 124.84375 C 15.28125 124.066406 14.867188 123.285156 14.457031 122.507812 C 13.613281 120.902344 12.765625 119.296875 11.921875 117.691406 C 11.640625 117.160156 11.785156 116.484375 12.320312 116.171875 C 12.820312 115.878906 13.554688 116.039062 13.839844 116.570312 Z M 13.824219 116.570312 "/><path style=" stroke:none;fill-rule:nonzero;fill:#020202;fill-opacity:1;" d="M 193.699219 132.148438 C 193.839844 132.445312 193.976562 132.742188 194.117188 133.042969 C 193.429688 133.230469 192.738281 133.417969 192.050781 133.601562 C 193.421875 121.488281 193.535156 109.238281 192.390625 97.105469 C 191.820312 91.082031 190.9375 85.089844 189.746094 79.15625 C 189.148438 76.160156 188.464844 73.183594 187.710938 70.21875 C 187.332031 68.738281 186.933594 67.261719 186.515625 65.792969 C 186.320312 65.09375 186.113281 64.394531 185.90625 63.699219 C 185.792969 63.324219 185.742188 63.046875 185.792969 62.648438 C 185.832031 62.3125 185.851562 61.972656 185.855469 61.636719 C 185.867188 59.410156 184.957031 57.207031 183.378906 55.632812 C 183.160156 55.417969 182.933594 55.203125 182.6875 55.011719 C 182.441406 54.816406 182.140625 54.667969 181.972656 54.378906 C 181.863281 54.195312 181.84375 53.992188 181.816406 53.785156 C 181.796875 53.664062 181.785156 53.546875 181.769531 53.425781 C 181.554688 51.816406 181.339844 50.199219 181.125 48.589844 C 180.335938 42.660156 179.546875 36.734375 178.761719 30.804688 C 178.398438 28.09375 178.039062 25.382812 177.675781 22.667969 C 177.484375 21.234375 177.242188 19.800781 177.105469 18.367188 C 177.097656 18.300781 177.085938 18.234375 177.078125 18.167969 L 178.1875 19.277344 C 175.542969 19.316406 172.898438 19.359375 170.257812 19.402344 C 164.917969 19.488281 159.578125 19.570312 154.242188 19.65625 C 150.105469 19.71875 145.964844 19.785156 141.832031 19.847656 C 140.539062 19.871094 139.34375 19.886719 138.105469 20.394531 C 136.496094 21.054688 135.199219 22.335938 134.441406 23.898438 C 133.996094 24.8125 133.847656 25.816406 133.6875 26.808594 C 133.46875 28.167969 133.253906 29.523438 133.03125 30.882812 C 132.144531 36.386719 131.261719 41.886719 130.375 47.386719 C 129.972656 49.882812 129.515625 52.359375 128.480469 54.6875 C 127.640625 56.574219 126.042969 58.5 126.285156 60.683594 C 126.367188 61.421875 126.675781 62.140625 127.320312 62.539062 C 127.789062 62.824219 127.898438 63.289062 127.832031 63.792969 C 126.589844 72.664062 125.90625 81.617188 125.765625 90.574219 C 125.621094 99.53125 126.023438 108.472656 126.96875 117.367188 C 127.5 122.367188 128.214844 127.351562 129.09375 132.300781 C 129.199219 132.890625 128.933594 133.496094 128.316406 133.664062 C 127.78125 133.8125 127.054688 133.484375 126.949219 132.890625 C 125.355469 123.910156 124.304688 114.832031 123.824219 105.726562 C 123.347656 96.683594 123.425781 87.605469 124.0625 78.570312 C 124.425781 73.429688 124.976562 68.308594 125.691406 63.203125 L 126.203125 64.457031 C 124.265625 63.277344 123.742188 60.84375 124.222656 58.742188 C 124.777344 56.339844 126.410156 54.339844 127.136719 51.988281 C 127.925781 49.433594 128.246094 46.738281 128.667969 44.105469 C 129.117188 41.316406 129.566406 38.523438 130.015625 35.730469 C 130.464844 32.941406 130.914062 30.148438 131.363281 27.359375 C 131.558594 26.160156 131.675781 24.917969 132.101562 23.769531 C 132.460938 22.800781 132.957031 21.921875 133.601562 21.109375 C 135.324219 18.929688 138 17.695312 140.761719 17.652344 C 144.3125 17.597656 147.859375 17.539062 151.40625 17.484375 C 156.957031 17.398438 162.507812 17.3125 168.050781 17.222656 C 171.375 17.171875 174.710938 17.027344 178.03125 17.066406 C 178.082031 17.066406 178.128906 17.066406 178.179688 17.066406 C 178.839844 17.054688 179.214844 17.585938 179.292969 18.175781 C 179.824219 22.207031 180.363281 26.238281 180.898438 30.265625 C 181.746094 36.648438 182.597656 43.027344 183.445312 49.40625 C 183.636719 50.882812 183.835938 52.351562 184.03125 53.828125 C 183.847656 53.507812 183.664062 53.1875 183.480469 52.871094 C 186.832031 55.214844 188.527344 59.253906 187.914062 63.289062 L 187.914062 62.699219 C 190.59375 71.652344 192.550781 80.804688 193.792969 90.066406 C 195.03125 99.296875 195.554688 108.621094 195.332031 117.9375 C 195.210938 123.175781 194.851562 128.40625 194.257812 133.613281 C 194.203125 134.105469 193.949219 134.542969 193.441406 134.679688 C 193 134.804688 192.394531 134.609375 192.1875 134.171875 C 192.050781 133.871094 191.910156 133.574219 191.769531 133.273438 C 191.519531 132.734375 191.617188 132.078125 192.167969 131.753906 C 192.648438 131.472656 193.433594 131.609375 193.6875 132.152344 Z M 193.699219 132.148438 "/><path style=" stroke:none;fill-rule:nonzero;fill:#020202;fill-opacity:1;" d="M 133.066406 63.929688 C 131.71875 74.363281 131.417969 84.933594 132.179688 95.429688 C 132.394531 98.371094 132.691406 101.308594 133.066406 104.234375 C 132.796875 103.878906 132.527344 103.523438 132.253906 103.164062 C 136.875 104.203125 141.644531 103.71875 146.335938 103.707031 C 150.558594 103.695312 154.910156 104.09375 158.753906 105.960938 C 162.195312 107.636719 164.765625 110.558594 166.652344 113.828125 C 168.507812 117.039062 169.804688 120.558594 171.253906 123.863281 C 172.085938 125.761719 172.9375 127.855469 174.257812 129.449219 C 174.90625 130.230469 175.722656 130.949219 176.628906 131.289062 C 177.121094 131.472656 177.554688 131.566406 178.015625 131.578125 C 178.480469 131.585938 178.941406 131.515625 179.347656 131.320312 C 179.886719 131.0625 180.546875 131.171875 180.863281 131.71875 C 181.148438 132.203125 181.007812 132.976562 180.464844 133.238281 C 178.441406 134.214844 176.03125 133.816406 174.25 132.492188 C 172.519531 131.203125 171.40625 129.347656 170.472656 127.441406 C 168.78125 124.003906 167.582031 120.558594 165.898438 117.148438 C 164.328125 113.957031 162.382812 110.925781 159.511719 108.96875 C 156.066406 106.621094 151.84375 106.035156 147.769531 105.945312 C 142.390625 105.824219 136.972656 106.503906 131.664062 105.3125 C 131.144531 105.195312 130.910156 104.714844 130.851562 104.242188 C 129.5 93.808594 129.199219 83.238281 129.960938 72.742188 C 130.175781 69.800781 130.472656 66.863281 130.851562 63.9375 C 130.929688 63.34375 131.308594 62.824219 131.960938 62.824219 C 132.503906 62.824219 133.148438 63.335938 133.070312 63.9375 Z M 133.066406 63.929688 "/><path style=" stroke:none;fill-rule:nonzero;fill:#ffffff;fill-opacity:1;" d="M 175.722656 140.847656 C 175.828125 141.019531 175.953125 141.179688 176.082031 141.335938 C 176.410156 141.734375 176.773438 142.082031 177.167969 142.382812 C 179.785156 144.40625 183.671875 144.480469 187.109375 144.375 C 194.054688 144.148438 201 143.917969 207.941406 143.6875 C 224.574219 143.148438 241.289062 142.066406 257.925781 142.066406 C 266.375 141.800781 274.820312 141.527344 283.265625 141.261719 C 288.113281 141.105469 295.308594 140.375 296.863281 134.894531 C 296.949219 134.589844 297.023438 134.269531 297.070312 133.933594 C 297.714844 129.648438 293 127.480469 289.445312 127.332031 C 285.839844 127.1875 282.09375 127.652344 278.484375 127.816406 C 274.78125 127.988281 271.085938 128.148438 267.386719 128.308594 C 265.558594 128.390625 263.730469 128.460938 261.902344 128.53125 C 259.6875 128.621094 257.46875 128.703125 255.253906 128.769531 C 251.886719 128.882812 248.519531 128.976562 245.152344 129.039062 C 241.628906 129.109375 238.109375 129.144531 234.597656 129.144531 C 217.84375 129.632812 201.066406 129.890625 184.304688 130.277344 C 182.039062 130.332031 179.65625 130.414062 177.71875 131.585938 C 174.699219 133.414062 173.792969 137.921875 175.71875 140.835938 Z M 175.722656 140.847656 "/><path style=" stroke:none;fill-rule:nonzero;fill:#92c3c5;fill-opacity:1;" d="M 177.167969 142.382812 C 179.785156 144.40625 183.671875 144.480469 187.109375 144.375 C 194.054688 144.148438 201 143.917969 207.941406 143.6875 C 224.574219 143.148438 241.289062 142.066406 257.925781 142.066406 C 266.375 141.800781 274.820312 141.527344 283.265625 141.261719 C 288.113281 141.105469 295.308594 140.375 296.863281 134.894531 C 285.886719 138.273438 274.039062 137.492188 262.511719 137.109375 C 233.984375 136.164062 205.367188 137.933594 177.164062 142.378906 Z M 177.167969 142.382812 "/><path style=" stroke:none;fill-rule:nonzero;fill:#020202;fill-opacity:1;" d="M 177.292969 141.136719 C 179.160156 143.921875 183.105469 144.15625 186.128906 144.144531 C 190.617188 144.128906 195.109375 143.871094 199.59375 143.722656 C 208.910156 143.417969 218.21875 143.070312 227.535156 142.667969 C 236.824219 142.269531 246.117188 141.890625 255.417969 141.816406 C 264.746094 141.746094 274.074219 141.3125 283.398438 141.019531 C 286.117188 140.933594 288.792969 140.773438 291.390625 139.929688 C 293.75 139.164062 295.84375 137.726562 296.46875 135.234375 C 296.78125 134 296.640625 132.785156 295.859375 131.808594 C 295.042969 130.789062 293.8125 130.148438 292.585938 129.757812 C 290.996094 129.253906 289.425781 129.242188 287.75 129.277344 C 285.480469 129.324219 283.222656 129.527344 280.960938 129.675781 C 276.332031 129.980469 271.6875 130.121094 267.054688 130.316406 C 262.449219 130.511719 257.839844 130.679688 253.230469 130.820312 C 248.585938 130.960938 243.941406 131.058594 239.292969 131.097656 C 234.628906 131.132812 229.972656 131.265625 225.308594 131.378906 C 215.960938 131.609375 206.609375 131.789062 197.261719 131.984375 C 192.707031 132.078125 188.136719 132.078125 183.582031 132.292969 C 181.828125 132.375 179.855469 132.585938 178.4375 133.726562 C 177.34375 134.605469 176.675781 135.964844 176.488281 137.34375 C 176.308594 138.671875 176.574219 140.007812 177.300781 141.140625 C 178.074219 142.347656 176.152344 143.460938 175.382812 142.261719 C 173.550781 139.402344 173.964844 135.484375 176.109375 132.917969 C 178.890625 129.589844 183.941406 130.046875 187.832031 129.960938 C 197.542969 129.75 207.257812 129.566406 216.96875 129.351562 C 221.84375 129.246094 226.71875 129.132812 231.59375 129 C 236.402344 128.871094 241.210938 128.878906 246.015625 128.785156 C 255.644531 128.59375 265.269531 128.183594 274.886719 127.753906 C 277.304688 127.644531 279.71875 127.550781 282.132812 127.378906 C 284.46875 127.210938 286.804688 127.023438 289.148438 127.054688 C 292.296875 127.097656 295.765625 127.980469 297.742188 130.628906 C 299.667969 133.214844 298.882812 136.84375 296.867188 139.136719 C 294.957031 141.304688 291.984375 142.269531 289.21875 142.738281 C 285.714844 143.332031 282.128906 143.285156 278.585938 143.394531 C 273.714844 143.550781 268.851562 143.707031 263.984375 143.859375 C 259.132812 144.011719 254.28125 144.03125 249.425781 144.128906 C 244.617188 144.226562 239.808594 144.390625 235.003906 144.578125 C 225.304688 144.960938 215.605469 145.417969 205.90625 145.734375 C 201.058594 145.894531 196.214844 146.054688 191.367188 146.214844 C 187.542969 146.339844 183.316406 146.839844 179.644531 145.472656 C 177.925781 144.832031 176.414062 143.792969 175.386719 142.253906 C 174.589844 141.066406 176.511719 139.953125 177.304688 141.132812 Z M 177.292969 141.136719 "/><path style=" stroke:none;fill-rule:nonzero;fill:#ffffff;fill-opacity:1;" d="M 137.28125 76.289062 C 137.28125 76.457031 137.347656 76.625 137.480469 76.789062 C 137.613281 76.953125 137.808594 77.117188 138.070312 77.269531 C 138.332031 77.425781 138.648438 77.574219 139.027344 77.714844 C 139.402344 77.855469 139.832031 77.984375 140.3125 78.101562 C 140.792969 78.222656 141.316406 78.328125 141.882812 78.421875 C 142.449219 78.515625 143.042969 78.59375 143.671875 78.660156 C 144.300781 78.722656 144.945312 78.773438 145.613281 78.804688 C 146.28125 78.839844 146.953125 78.855469 147.632812 78.855469 C 148.3125 78.855469 148.984375 78.839844 149.652344 78.804688 C 150.316406 78.773438 150.964844 78.722656 151.59375 78.660156 C 152.222656 78.59375 152.816406 78.515625 153.382812 78.421875 C 153.949219 78.328125 154.46875 78.222656 154.949219 78.101562 C 155.429688 77.984375 155.859375 77.855469 156.238281 77.714844 C 156.617188 77.574219 156.933594 77.425781 157.195312 77.269531 C 157.453125 77.117188 157.652344 76.953125 157.78125 76.789062 C 157.914062 76.625 157.980469 76.457031 157.980469 76.289062 C 157.980469 76.121094 157.914062 75.953125 157.78125 75.789062 C 157.652344 75.625 157.453125 75.464844 157.195312 75.308594 C 156.933594 75.152344 156.617188 75.003906 156.238281 74.863281 C 155.859375 74.722656 155.429688 74.59375 154.949219 74.476562 C 154.46875 74.355469 153.949219 74.25 153.382812 74.15625 C 152.816406 74.0625 152.222656 73.984375 151.59375 73.917969 C 150.964844 73.855469 150.316406 73.804688 149.652344 73.773438 C 148.984375 73.742188 148.3125 73.722656 147.632812 73.722656 C 146.953125 73.722656 146.28125 73.742188 145.613281 73.773438 C 144.945312 73.804688 144.300781 73.855469 143.671875 73.917969 C 143.042969 73.984375 142.445312 74.0625 141.882812 74.15625 C 141.316406 74.25 140.792969 74.355469 140.3125 74.476562 C 139.832031 74.59375 139.402344 74.722656 139.027344 74.863281 C 138.648438 75.003906 138.332031 75.152344 138.070312 75.308594 C 137.808594 75.464844 137.613281 75.625 137.480469 75.789062 C 137.347656 75.953125 137.28125 76.121094 137.28125 76.289062 Z M 137.28125 76.289062 "/><path style=" stroke:none;fill-rule:nonzero;fill:#4b3d63;fill-opacity:1;" d="M 265.527344 21.601562 L 277.519531 32.4375 L 276.003906 28.386719 L 269.074219 22.117188 Z M 265.527344 21.601562 "/><path style=" stroke:none;fill-rule:nonzero;fill:#4b3d63;fill-opacity:1;" d="M 243.011719 18.378906 L 284.414062 50.914062 L 280.3125 39.910156 C 280.3125 39.910156 254.558594 20.007812 254.558594 20.007812 L 243.417969 18.394531 C 243.28125 18.378906 243.144531 18.367188 243.019531 18.378906 Z M 243.011719 18.378906 "/><path style=" stroke:none;fill-rule:nonzero;fill:#4b3d63;fill-opacity:1;" d="M 200.511719 18.285156 L 241.40625 37.84375 L 238.59375 30.359375 L 213.175781 18.285156 Z M 200.511719 18.285156 "/><path style=" stroke:none;fill-rule:nonzero;fill:#4b3d63;fill-opacity:1;" d="M 183.882812 25.578125 L 185.050781 30.152344 L 231.507812 55.007812 L 239.441406 54.921875 C 242.242188 54.890625 244.433594 52.949219 245.058594 50.5 L 188.28125 18.425781 C 185.144531 19.113281 183.050781 22.304688 183.886719 25.578125 Z M 183.882812 25.578125 "/><path style=" stroke:none;fill-rule:nonzero;fill:#b8d8d9;fill-opacity:1;" d="M 31.132812 56.796875 L 32.578125 56.796875 L 58.652344 33.800781 L 59.890625 28.21875 C 59.996094 27.738281 59.964844 27.273438 59.816406 26.84375 L 27.511719 52.859375 L 27.46875 53.019531 C 26.925781 54.953125 28.710938 56.796875 31.132812 56.796875 Z M 31.132812 56.796875 "/><path style=" stroke:none;fill-rule:nonzero;fill:#b8d8d9;fill-opacity:1;" d="M 64.835938 56.773438 L 77.753906 24.171875 L 72.082031 24.40625 C 71.382812 24.4375 70.722656 24.640625 70.175781 24.964844 L 68.867188 26.363281 L 68.867188 26.375 C 68.789062 26.53125 68.726562 26.695312 68.679688 26.859375 L 61.695312 52.914062 C 61.203125 54.777344 62.703125 56.558594 64.839844 56.773438 Z M 64.835938 56.773438 "/><path style=" stroke:none;fill-rule:nonzero;fill:#b8d8d9;fill-opacity:1;" d="M 40.453125 56.796875 L 50.40625 56.796875 C 52.222656 56.796875 53.78125 55.730469 54.105469 54.269531 L 57.632812 38.398438 Z M 40.453125 56.796875 "/><path style=" stroke:none;fill-rule:nonzero;fill:#b8d8d9;fill-opacity:1;" d="M 98.34375 56.796875 L 101.839844 56.796875 L 112.945312 23.21875 L 107.070312 23.5 C 105.136719 26.628906 102.140625 31.484375 98.898438 36.761719 L 95.183594 52.820312 C 94.714844 54.855469 96.257812 56.792969 98.347656 56.792969 Z M 98.34375 56.796875 "/><path style=" stroke:none;fill-rule:nonzero;fill:#b8d8d9;fill-opacity:1;" d="M 105.425781 56.796875 L 109.457031 56.796875 L 121.609375 23.335938 C 121.089844 23.019531 120.46875 22.855469 119.808594 22.886719 L 118.28125 22.960938 L 105.421875 56.796875 Z M 105.425781 56.796875 "/><path style=" stroke:none;fill-rule:nonzero;fill:#b8d8d9;fill-opacity:1;" d="M 69.65625 56.796875 L 73.679688 56.796875 L 85.652344 23.839844 L 82.117188 23.984375 Z M 69.65625 56.796875 "/><path style=" stroke:none;fill-rule:nonzero;fill:#b8d8d9;fill-opacity:1;" d="M 142.710938 55.828125 L 147.691406 55.828125 L 156.164062 24.417969 L 153.6875 24.417969 Z M 142.710938 55.828125 "/><path style=" stroke:none;fill-rule:nonzero;fill:#b8d8d9;fill-opacity:1;" d="M 153.082031 55.828125 L 162.625 55.828125 L 166.585938 24.417969 L 162.195312 24.417969 Z M 153.082031 55.828125 "/></g></g></g></g></svg>