<svg version="1.2" xmlns="http://www.w3.org/2000/svg" viewBox="0 0 649 361" width="649" height="361">
	<title>file</title>
	<defs>
		<clipPath clipPathUnits="userSpaceOnUse" id="cp1">
			<path d="m151.23 13.08h398.87v326.07h-398.87z"/>
		</clipPath>
		<clipPath clipPathUnits="userSpaceOnUse" id="cp2">
			<path d="m150.65 12.31h399.87v327.89h-399.87z"/>
		</clipPath>
		<clipPath clipPathUnits="userSpaceOnUse" id="cp3">
			<path d="m151.23 51.81h209.3v287.28h-209.3z"/>
		</clipPath>
		<clipPath clipPathUnits="userSpaceOnUse" id="cp4">
			<path d="m215.45 339.09h122.86c7.46 0 17.07-11.41 21.93-22.38-2.96 4.11-7.75 6.68-13.54 6.68h-122.86c-11.06 0-21.61-9.36-23.56-20.91l-40.43-239.35c-0.68-4.06-0.21-7.85 1.16-11.06-6.45 6.88-10.87 18.89-9.54 26.76l40.42 239.35c1.95 11.55 12.5 20.91 23.56 20.91z"/>
		</clipPath>
		<clipPath clipPathUnits="userSpaceOnUse" id="cp5">
			<path d="m215.45 339.09h122.86c7.46 0 17.07-11.41 21.93-22.38-2.96 4.11-7.75 6.68-13.54 6.68h-122.86c-11.06 0-21.61-9.36-23.56-20.91l-40.43-239.35c-0.68-4.06-0.21-7.85 1.16-11.06-6.45 6.88-10.87 18.89-9.54 26.76l40.42 239.35c1.95 11.55 12.5 20.91 23.56 20.91z"/>
		</clipPath>
		<clipPath clipPathUnits="userSpaceOnUse" id="cp6">
			<path d="m489.85 256.79l-278.68 176.97-189.55-299.39 278.69-176.97z"/>
		</clipPath>
		<linearGradient id="g1" x2="1" gradientUnits="userSpaceOnUse" gradientTransform="matrix(-189.545,-299.387,278.57,-176.366,347.32,347.299)">
			<stop offset="0" stop-color="#2f71a2"/>
			<stop offset=".008" stop-color="#2f71a2"/>
			<stop offset=".016" stop-color="#2f72a2"/>
			<stop offset=".023" stop-color="#2f73a3"/>
			<stop offset=".031" stop-color="#3073a4"/>
			<stop offset=".047" stop-color="#3074a4"/>
			<stop offset=".063" stop-color="#3074a5"/>
			<stop offset=".066" stop-color="#3075a6"/>
			<stop offset=".07" stop-color="#3176a6"/>
			<stop offset=".078" stop-color="#3176a6"/>
			<stop offset=".086" stop-color="#3176a6"/>
			<stop offset=".094" stop-color="#3177a7"/>
			<stop offset=".102" stop-color="#3177a7"/>
			<stop offset=".105" stop-color="#3278a8"/>
			<stop offset=".109" stop-color="#3279a8"/>
			<stop offset=".125" stop-color="#3279a9"/>
			<stop offset=".133" stop-color="#327aa9"/>
			<stop offset=".141" stop-color="#327aaa"/>
			<stop offset=".148" stop-color="#337baa"/>
			<stop offset=".156" stop-color="#337cab"/>
			<stop offset=".172" stop-color="#337cab"/>
			<stop offset=".188" stop-color="#337dac"/>
			<stop offset=".195" stop-color="#347ead"/>
			<stop offset=".203" stop-color="#347eae"/>
			<stop offset=".219" stop-color="#347fae"/>
			<stop offset=".227" stop-color="#3580af"/>
			<stop offset=".23" stop-color="#3581af"/>
			<stop offset=".234" stop-color="#3581b0"/>
			<stop offset=".25" stop-color="#3582b0"/>
			<stop offset=".258" stop-color="#3582b0"/>
			<stop offset=".266" stop-color="#3683b1"/>
			<stop offset=".281" stop-color="#3683b1"/>
			<stop offset=".289" stop-color="#3684b2"/>
			<stop offset=".297" stop-color="#3685b3"/>
			<stop offset=".313" stop-color="#3786b4"/>
			<stop offset=".328" stop-color="#3786b4"/>
			<stop offset=".344" stop-color="#3787b5"/>
			<stop offset=".352" stop-color="#3888b6"/>
			<stop offset=".355" stop-color="#3889b6"/>
			<stop offset=".359" stop-color="#388ab7"/>
			<stop offset=".375" stop-color="#388ab7"/>
			<stop offset=".391" stop-color="#398bb8"/>
			<stop offset=".398" stop-color="#398cb9"/>
			<stop offset=".406" stop-color="#398cb9"/>
			<stop offset=".414" stop-color="#398dba"/>
			<stop offset=".422" stop-color="#3a8dba"/>
			<stop offset=".438" stop-color="#3a8ebb"/>
			<stop offset=".441" stop-color="#3a8fbb"/>
			<stop offset=".445" stop-color="#3a8fbc"/>
			<stop offset=".453" stop-color="#3a8fbc"/>
			<stop offset=".469" stop-color="#3b90bd"/>
			<stop offset=".477" stop-color="#3b91bd"/>
			<stop offset=".484" stop-color="#3b92be"/>
			<stop offset=".492" stop-color="#3b92be"/>
			<stop offset=".5" stop-color="#3c93bf"/>
			<stop offset=".516" stop-color="#3c94bf"/>
			<stop offset=".531" stop-color="#3c94c0"/>
			<stop offset=".547" stop-color="#3d95c1"/>
			<stop offset=".555" stop-color="#3d96c2"/>
			<stop offset=".563" stop-color="#3d97c2"/>
			<stop offset=".57" stop-color="#3e97c3"/>
			<stop offset=".578" stop-color="#3e98c3"/>
			<stop offset=".594" stop-color="#3e98c4"/>
			<stop offset=".602" stop-color="#3e99c5"/>
			<stop offset=".605" stop-color="#3f9ac5"/>
			<stop offset=".609" stop-color="#3f9bc6"/>
			<stop offset=".625" stop-color="#3f9bc6"/>
			<stop offset=".641" stop-color="#3f9cc7"/>
			<stop offset=".648" stop-color="#409dc7"/>
			<stop offset=".656" stop-color="#409dc8"/>
			<stop offset=".672" stop-color="#409ec8"/>
			<stop offset=".68" stop-color="#409fc9"/>
			<stop offset=".688" stop-color="#419fca"/>
			<stop offset=".695" stop-color="#41a0ca"/>
			<stop offset=".703" stop-color="#41a0cb"/>
			<stop offset=".719" stop-color="#41a1cb"/>
			<stop offset=".727" stop-color="#42a2cc"/>
			<stop offset=".734" stop-color="#42a3cc"/>
			<stop offset=".75" stop-color="#42a3cd"/>
			<stop offset=".758" stop-color="#42a4ce"/>
			<stop offset=".766" stop-color="#43a5ce"/>
			<stop offset=".773" stop-color="#43a5cf"/>
			<stop offset=".781" stop-color="#43a6cf"/>
			<stop offset=".797" stop-color="#43a6d0"/>
			<stop offset=".813" stop-color="#44a7d1"/>
			<stop offset=".828" stop-color="#44a8d1"/>
			<stop offset=".836" stop-color="#44a9d2"/>
			<stop offset=".844" stop-color="#45aad3"/>
			<stop offset=".852" stop-color="#45abd3"/>
			<stop offset=".859" stop-color="#45abd4"/>
			<stop offset=".875" stop-color="#45acd5"/>
			<stop offset=".891" stop-color="#46add5"/>
			<stop offset=".898" stop-color="#46aed6"/>
			<stop offset=".906" stop-color="#46aed6"/>
			<stop offset=".922" stop-color="#47afd7"/>
			<stop offset=".938" stop-color="#47b0d8"/>
			<stop offset=".953" stop-color="#47b0d8"/>
			<stop offset=".969" stop-color="#48b1d9"/>
			<stop offset=".977" stop-color="#49b2da"/>
			<stop offset=".984" stop-color="#49b3db"/>
			<stop offset="1" stop-color="#49b3db"/>
		</linearGradient>
		<clipPath clipPathUnits="userSpaceOnUse" id="cp7">
			<path d="m196.64 138.76h353.46v150.79h-353.46z"/>
		</clipPath>
		<clipPath clipPathUnits="userSpaceOnUse" id="cp8">
			<path d="m196.76 144.02l26.13 145.38h138.31c0 0 142.19 40.96 149.43 37.27 85.07-43.41 46.32-84.64 46.32-84.64 0 0-68.73-92.63-98.32-96.83-29.59-4.2-219.63-47.37-261.87-1.18z"/>
		</clipPath>
		<clipPath clipPathUnits="userSpaceOnUse" id="cp9">
			<path d="m230.62 221.86h251.27v55.9h-251.27z"/>
		</clipPath>
		<clipPath clipPathUnits="userSpaceOnUse" id="cp10">
			<path d="m196.76 144.02l26.13 145.38h138.31c0 0 142.19 40.96 149.43 37.27 85.07-43.41 46.32-84.64 46.32-84.64 0 0-68.73-92.63-98.32-96.83-29.59-4.2-219.63-47.37-261.87-1.18z"/>
		</clipPath>
		<clipPath clipPathUnits="userSpaceOnUse" id="cp11">
			<path d="m310.92 149.7h102.17v45.84h-102.17z"/>
		</clipPath>
		<clipPath clipPathUnits="userSpaceOnUse" id="cp12">
			<path d="m196.76 144.02l26.13 145.38h138.31c0 0 142.19 40.96 149.43 37.27 85.07-43.41 46.32-84.64 46.32-84.64 0 0-68.73-92.63-98.32-96.83-29.59-4.2-219.63-47.37-261.87-1.18z"/>
		</clipPath>
		<clipPath clipPathUnits="userSpaceOnUse" id="cp13">
			<path d="m204.03 149.7h105.12v47.03h-105.12z"/>
		</clipPath>
		<clipPath clipPathUnits="userSpaceOnUse" id="cp14">
			<path d="m196.76 144.02l26.13 145.38h138.31c0 0 142.19 40.96 149.43 37.27 85.07-43.41 46.32-84.64 46.32-84.64 0 0-68.73-92.63-98.32-96.83-29.59-4.2-219.63-47.37-261.87-1.18z"/>
		</clipPath>
		<clipPath clipPathUnits="userSpaceOnUse" id="cp15">
			<path d="m382.09 147.34h84.74v46.13h-84.74z"/>
		</clipPath>
		<clipPath clipPathUnits="userSpaceOnUse" id="cp16">
			<path d="m196.76 144.02l26.13 145.38h138.31c0 0 142.19 40.96 149.43 37.27 85.07-43.41 46.32-84.64 46.32-84.64 0 0-68.73-92.63-98.32-96.83-29.59-4.2-219.63-47.37-261.87-1.18z"/>
		</clipPath>
		<clipPath clipPathUnits="userSpaceOnUse" id="cp17">
			<path d="m196.64 226.6h353.46v62.95h-353.46z"/>
		</clipPath>
		<clipPath clipPathUnits="userSpaceOnUse" id="cp18">
			<path d="m196.76 144.02l26.13 145.38h138.31c0 0 142.19 40.96 149.43 37.27 85.07-43.41 46.32-84.64 46.32-84.64 0 0-68.73-92.63-98.32-96.83-29.59-4.2-219.63-47.37-261.87-1.18z"/>
		</clipPath>
		<clipPath clipPathUnits="userSpaceOnUse" id="cp19">
			<path d="m544.49 259.43v-20.98c0 0-2.99-22.97-36.9-36.95l-42.9-11.99c0 0-19.94-27.97-85.77-43.95 0 0-68.82-14.99-195.49 0 0 0 1.99 7.99 6.98 11.98 0 0-20.94 32.96-25.93 45.95v16.98c0 0 0 12.99-5.99 19.98v40.96c0 0-1.99 6.99 24.94 7.99h344.1l18.96-1.5c0 0 8.97-30.46-2-28.47z"/>
		</clipPath>
		<clipPath clipPathUnits="userSpaceOnUse" id="cp20">
			<path d="m449.12 243.16h76.47v46.39h-76.47z"/>
		</clipPath>
		<clipPath clipPathUnits="userSpaceOnUse" id="cp21">
			<path d="m196.76 144.02l26.13 145.38h138.31c0 0 142.19 40.96 149.43 37.27 85.07-43.41 46.32-84.64 46.32-84.64 0 0-68.73-92.63-98.32-96.83-29.59-4.2-219.63-47.37-261.87-1.18z"/>
		</clipPath>
		<clipPath clipPathUnits="userSpaceOnUse" id="cp22">
			<path d="m544.49 259.43v-20.98c0 0-2.99-22.97-36.9-36.95l-42.9-11.99c0 0-19.94-27.97-85.77-43.95 0 0-68.82-14.99-195.49 0 0 0 1.99 7.99 6.98 11.98 0 0-20.94 32.96-25.93 45.95v16.98c0 0 0 12.99-5.99 19.98v40.96c0 0-1.99 6.99 24.94 7.99h344.1l18.96-1.5c0 0 8.97-30.46-2-28.47z"/>
		</clipPath>
		<clipPath clipPathUnits="userSpaceOnUse" id="cp23">
			<path d="m196.64 243.16h53.16v46.39h-53.16z"/>
		</clipPath>
		<clipPath clipPathUnits="userSpaceOnUse" id="cp24">
			<path d="m196.76 144.02l26.13 145.38h138.31c0 0 142.19 40.96 149.43 37.27 85.07-43.41 46.32-84.64 46.32-84.64 0 0-68.73-92.63-98.32-96.83-29.59-4.2-219.63-47.37-261.87-1.18z"/>
		</clipPath>
		<clipPath clipPathUnits="userSpaceOnUse" id="cp25">
			<path d="m544.49 259.43v-20.98c0 0-2.99-22.97-36.9-36.95l-42.9-11.99c0 0-19.94-27.97-85.77-43.95 0 0-68.82-14.99-195.49 0 0 0 1.99 7.99 6.98 11.98 0 0-20.94 32.96-25.93 45.95v16.98c0 0 0 12.99-5.99 19.98v40.96c0 0-1.99 6.99 24.94 7.99h344.1l18.96-1.5c0 0 8.97-30.46-2-28.47z"/>
		</clipPath>
		<clipPath clipPathUnits="userSpaceOnUse" id="cp26">
			<path d="m452.95 249.66h68.51v68.62h-68.51z"/>
		</clipPath>
		<clipPath clipPathUnits="userSpaceOnUse" id="cp27">
			<path d="m196.76 144.02l26.13 145.38h138.31c0 0 142.19 40.96 149.43 37.27 85.07-43.41 46.32-84.64 46.32-84.64 0 0-68.73-92.63-98.32-96.83-29.59-4.2-219.63-47.37-261.87-1.18z"/>
		</clipPath>
		<clipPath clipPathUnits="userSpaceOnUse" id="cp28">
			<path d="m460.34 257.06h53.74v53.82h-53.74z"/>
		</clipPath>
		<clipPath clipPathUnits="userSpaceOnUse" id="cp29">
			<path d="m196.76 144.02l26.13 145.38h138.31c0 0 142.19 40.96 149.43 37.27 85.07-43.41 46.32-84.64 46.32-84.64 0 0-68.73-92.63-98.32-96.83-29.59-4.2-219.63-47.37-261.87-1.18z"/>
		</clipPath>
		<clipPath clipPathUnits="userSpaceOnUse" id="cp30">
			<path d="m465.36 262.09h43.7v43.76h-43.7z"/>
		</clipPath>
		<clipPath clipPathUnits="userSpaceOnUse" id="cp31">
			<path d="m196.76 144.02l26.13 145.38h138.31c0 0 142.19 40.96 149.43 37.27 85.07-43.41 46.32-84.64 46.32-84.64 0 0-68.73-92.63-98.32-96.83-29.59-4.2-219.63-47.37-261.87-1.18z"/>
		</clipPath>
		<clipPath clipPathUnits="userSpaceOnUse" id="cp32">
			<path d="m474.81 271.55h25.06v25.13h-25.06z"/>
		</clipPath>
		<clipPath clipPathUnits="userSpaceOnUse" id="cp33">
			<path d="m196.76 144.02l26.13 145.38h138.31c0 0 142.19 40.96 149.43 37.27 85.07-43.41 46.32-84.64 46.32-84.64 0 0-68.73-92.63-98.32-96.83-29.59-4.2-219.63-47.37-261.87-1.18z"/>
		</clipPath>
		<clipPath clipPathUnits="userSpaceOnUse" id="cp34">
			<path d="m196.64 249.66h48.14v68.62h-48.14z"/>
		</clipPath>
		<clipPath clipPathUnits="userSpaceOnUse" id="cp35">
			<path d="m196.76 144.02l26.13 145.38h138.31c0 0 142.19 40.96 149.43 37.27 85.07-43.41 46.32-84.64 46.32-84.64 0 0-68.73-92.63-98.32-96.83-29.59-4.2-219.63-47.37-261.87-1.18z"/>
		</clipPath>
		<clipPath clipPathUnits="userSpaceOnUse" id="cp36">
			<path d="m196.64 257.06h40.46v53.82h-40.46z"/>
		</clipPath>
		<clipPath clipPathUnits="userSpaceOnUse" id="cp37">
			<path d="m196.76 144.02l26.13 145.38h138.31c0 0 142.19 40.96 149.43 37.27 85.07-43.41 46.32-84.64 46.32-84.64 0 0-68.73-92.63-98.32-96.83-29.59-4.2-219.63-47.37-261.87-1.18z"/>
		</clipPath>
		<clipPath clipPathUnits="userSpaceOnUse" id="cp38">
			<path d="m196.64 262.09h35.73v43.76h-35.73z"/>
		</clipPath>
		<clipPath clipPathUnits="userSpaceOnUse" id="cp39">
			<path d="m196.76 144.02l26.13 145.38h138.31c0 0 142.19 40.96 149.43 37.27 85.07-43.41 46.32-84.64 46.32-84.64 0 0-68.73-92.63-98.32-96.83-29.59-4.2-219.63-47.37-261.87-1.18z"/>
		</clipPath>
		<clipPath clipPathUnits="userSpaceOnUse" id="cp40">
			<path d="m197.83 271.55h25.1v25.13h-25.1z"/>
		</clipPath>
		<clipPath clipPathUnits="userSpaceOnUse" id="cp41">
			<path d="m196.76 144.02l26.13 145.38h138.31c0 0 142.19 40.96 149.43 37.27 85.07-43.41 46.32-84.64 46.32-84.64 0 0-68.73-92.63-98.32-96.83-29.59-4.2-219.63-47.37-261.87-1.18z"/>
		</clipPath>
		<clipPath clipPathUnits="userSpaceOnUse" id="cp42">
			<path d="m310.62 149.7h29.83v45.84h-29.83z"/>
		</clipPath>
		<clipPath clipPathUnits="userSpaceOnUse" id="cp43">
			<path d="m196.76 144.02l26.13 145.38h138.31c0 0 142.19 40.96 149.43 37.27 85.07-43.41 46.32-84.64 46.32-84.64 0 0-68.73-92.63-98.32-96.83-29.59-4.2-219.63-47.37-261.87-1.18z"/>
		</clipPath>
		<clipPath clipPathUnits="userSpaceOnUse" id="cp44">
			<path d="m408.07 170.11h57.87v23.96h-57.87z"/>
		</clipPath>
		<clipPath clipPathUnits="userSpaceOnUse" id="cp45">
			<path d="m196.76 144.02l26.13 145.38h138.31c0 0 142.19 40.96 149.43 37.27 85.07-43.41 46.32-84.64 46.32-84.64 0 0-68.73-92.63-98.32-96.83-29.59-4.2-219.63-47.37-261.87-1.18z"/>
		</clipPath>
		<clipPath clipPathUnits="userSpaceOnUse" id="cp46">
			<path d="m311.22 172.47h100.68v23.37h-100.68z"/>
		</clipPath>
		<clipPath clipPathUnits="userSpaceOnUse" id="cp47">
			<path d="m196.76 144.02l26.13 145.38h138.31c0 0 142.19 40.96 149.43 37.27 85.07-43.41 46.32-84.64 46.32-84.64 0 0-68.73-92.63-98.32-96.83-29.59-4.2-219.63-47.37-261.87-1.18z"/>
		</clipPath>
		<clipPath clipPathUnits="userSpaceOnUse" id="cp48">
			<path d="m203.44 166.92h102.16v29.81h-102.16z"/>
		</clipPath>
		<clipPath clipPathUnits="userSpaceOnUse" id="cp49">
			<path d="m196.76 144.02l26.13 145.38h138.31c0 0 142.19 40.96 149.43 37.27 85.07-43.41 46.32-84.64 46.32-84.64 0 0-68.73-92.63-98.32-96.83-29.59-4.2-219.63-47.37-261.87-1.18z"/>
		</clipPath>
		<clipPath clipPathUnits="userSpaceOnUse" id="cp50">
			<path d="m196.64 157.4h2.37v39.33h-2.37z"/>
		</clipPath>
		<clipPath clipPathUnits="userSpaceOnUse" id="cp51">
			<path d="m196.76 144.02l26.13 145.38h138.31c0 0 142.19 40.96 149.43 37.27 85.07-43.41 46.32-84.64 46.32-84.64 0 0-68.73-92.63-98.32-96.83-29.59-4.2-219.63-47.37-261.87-1.18z"/>
		</clipPath>
		<clipPath clipPathUnits="userSpaceOnUse" id="cp52">
			<path d="m196.64 138.46h208.48v28.69h-208.48z"/>
		</clipPath>
		<clipPath clipPathUnits="userSpaceOnUse" id="cp53">
			<path d="m196.76 144.02l26.13 145.38h138.31c0 0 142.19 40.96 149.43 37.27 85.07-43.41 46.32-84.64 46.32-84.64 0 0-68.73-92.63-98.32-96.83-29.59-4.2-219.63-47.37-261.87-1.18z"/>
		</clipPath>
		<clipPath clipPathUnits="userSpaceOnUse" id="cp54">
			<path d="m447.93 189.04h90.06v34.9h-90.06z"/>
		</clipPath>
		<clipPath clipPathUnits="userSpaceOnUse" id="cp55">
			<path d="m196.76 144.02l26.13 145.38h138.31c0 0 142.19 40.96 149.43 37.27 85.07-43.41 46.32-84.64 46.32-84.64 0 0-68.73-92.63-98.32-96.83-29.59-4.2-219.63-47.37-261.87-1.18z"/>
		</clipPath>
		<clipPath clipPathUnits="userSpaceOnUse" id="cp56">
			<path d="m424.31 188.45h41.63v9.75h-41.63z"/>
		</clipPath>
		<clipPath clipPathUnits="userSpaceOnUse" id="cp57">
			<path d="m196.76 144.02l26.13 145.38h138.31c0 0 142.19 40.96 149.43 37.27 85.07-43.41 46.32-84.64 46.32-84.64 0 0-68.73-92.63-98.32-96.83-29.59-4.2-219.63-47.37-261.87-1.18z"/>
		</clipPath>
		<clipPath clipPathUnits="userSpaceOnUse" id="cp58">
			<path d="m196.64 194.95h212.32v72.46h-212.32z"/>
		</clipPath>
		<clipPath clipPathUnits="userSpaceOnUse" id="cp59">
			<path d="m196.76 144.02l26.13 145.38h138.31c0 0 142.19 40.96 149.43 37.27 85.07-43.41 46.32-84.64 46.32-84.64 0 0-68.73-92.63-98.32-96.83-29.59-4.2-219.63-47.37-261.87-1.18z"/>
		</clipPath>
		<clipPath clipPathUnits="userSpaceOnUse" id="cp60">
			<path d="m311.81 194.95h95.97v6.51h-95.97z"/>
		</clipPath>
		<clipPath clipPathUnits="userSpaceOnUse" id="cp61">
			<path d="m196.76 144.02l26.13 145.38h138.31c0 0 142.19 40.96 149.43 37.27 85.07-43.41 46.32-84.64 46.32-84.64 0 0-68.73-92.63-98.32-96.83-29.59-4.2-219.63-47.37-261.87-1.18z"/>
		</clipPath>
		<clipPath clipPathUnits="userSpaceOnUse" id="cp62">
			<path d="m206.09 195.25h99.18v7.39h-99.18z"/>
		</clipPath>
		<clipPath clipPathUnits="userSpaceOnUse" id="cp63">
			<path d="m196.76 144.02l26.13 145.38h138.31c0 0 142.19 40.96 149.43 37.27 85.07-43.41 46.32-84.64 46.32-84.64 0 0-68.73-92.63-98.32-96.83-29.59-4.2-219.63-47.37-261.87-1.18z"/>
		</clipPath>
		<clipPath clipPathUnits="userSpaceOnUse" id="cp64">
			<path d="m510.83 217.43h28.35v22.48h-28.35z"/>
		</clipPath>
		<clipPath clipPathUnits="userSpaceOnUse" id="cp65">
			<path d="m196.76 144.02l26.13 145.38h138.31c0 0 142.19 40.96 149.43 37.27 85.07-43.41 46.32-84.64 46.32-84.64 0 0-68.73-92.63-98.32-96.83-29.59-4.2-219.63-47.37-261.87-1.18z"/>
		</clipPath>
		<clipPath clipPathUnits="userSpaceOnUse" id="cp66">
			<path d="m531.2 223.64h13v11.83h-13z"/>
		</clipPath>
		<clipPath clipPathUnits="userSpaceOnUse" id="cp67">
			<path d="m196.76 144.02l26.13 145.38h138.31c0 0 142.19 40.96 149.43 37.27 85.07-43.41 46.32-84.64 46.32-84.64 0 0-68.73-92.63-98.32-96.83-29.59-4.2-219.63-47.37-261.87-1.18z"/>
		</clipPath>
		<clipPath clipPathUnits="userSpaceOnUse" id="cp68">
			<path d="m525.2 244.64h19.29v15.08h-19.29z"/>
		</clipPath>
		<clipPath clipPathUnits="userSpaceOnUse" id="cp69">
			<path d="m196.76 144.02l26.13 145.38h138.31c0 0 142.19 40.96 149.43 37.27 85.07-43.41 46.32-84.64 46.32-84.64 0 0-68.73-92.63-98.32-96.83-29.59-4.2-219.63-47.37-261.87-1.18z"/>
		</clipPath>
		<clipPath clipPathUnits="userSpaceOnUse" id="cp70">
			<path d="m522.94 242.27h21.55v17.45h-21.55z"/>
		</clipPath>
		<clipPath clipPathUnits="userSpaceOnUse" id="cp71">
			<path d="m196.76 144.02l26.13 145.38h138.31c0 0 142.19 40.96 149.43 37.27 85.07-43.41 46.32-84.64 46.32-84.64 0 0-68.73-92.63-98.32-96.83-29.59-4.2-219.63-47.37-261.87-1.18z"/>
		</clipPath>
		<clipPath clipPathUnits="userSpaceOnUse" id="cp72">
			<path d="m314.76 240.49h90.36v8.29h-90.36z"/>
		</clipPath>
		<clipPath clipPathUnits="userSpaceOnUse" id="cp73">
			<path d="m196.76 144.02l26.13 145.38h138.31c0 0 142.19 40.96 149.43 37.27 85.07-43.41 46.32-84.64 46.32-84.64 0 0-68.73-92.63-98.32-96.83-29.59-4.2-219.63-47.37-261.87-1.18z"/>
		</clipPath>
		<clipPath clipPathUnits="userSpaceOnUse" id="cp74">
			<path d="m406.59 226.6h73.24v14.19h-73.24z"/>
		</clipPath>
		<clipPath clipPathUnits="userSpaceOnUse" id="cp75">
			<path d="m196.76 144.02l26.13 145.38h138.31c0 0 142.19 40.96 149.43 37.27 85.07-43.41 46.32-84.64 46.32-84.64 0 0-68.73-92.63-98.32-96.83-29.59-4.2-219.63-47.37-261.87-1.18z"/>
		</clipPath>
	</defs>
	<style>
		.s0 { fill: url(#g1) } 
		.s1 { fill: #66d8d8 } 
		.s2 { fill: #ffffff } 
		.s3 { fill: #bbc0c0 } 
		.s4 { fill: #51a4a4 } 
		.s5 { fill: #e3615f } 
		.s6 { fill: #72dbdb } 
		.s7 { fill: #e56d6c } 
		.s8 { fill: #fe8c18 } 
		.s9 { fill: #e67716 } 
		.s10 { fill: #3f3029 } 
		.s11 { fill: #d35720 } 
		.s12 { fill: #81302c } 
		.s13 { fill: #3a3a3e } 
		.s14 { fill: #e9eaec } 
		.s15 { fill: #636368 } 
		.s16 { fill: #281d18 } 
		.s17 { fill: #fcb61a } 
		.s18 { fill: #fffefd } 
		.s19 { fill: #c75b14 } 
		.s20 { fill: #ba4b16 } 
		.s21 { fill: #bb6f1e } 
		.s22 { fill: #aa611d } 
		.s23 { fill: #352f2a } 
		.s24 { fill: #9d4a24 } 
		.s25 { fill: #632f2c } 
		.s26 { fill: #323639 } 
		.s27 { fill: #acb1b2 } 
		.s28 { fill: #4e5356 } 
		.s29 { fill: #25221e } 
		.s30 { fill: #b98d20 } 
	</style>
	<g id="343f8e94de">
		<g id="Clip-Path" clip-path="url(#cp1)">
			<g>
				<g>
					<g id="Clip-Path" clip-path="url(#cp2)">
						<g>
							<g id="Clip-Path" clip-path="url(#cp3)">
								<g>
									<g id="Clip-Path" clip-path="url(#cp4)">
										<g>
											<g id="Clip-Path" clip-path="url(#cp5)">
												<g>
													<g id="Clip-Path" clip-path="url(#cp6)">
														<g>
															<path class="s0" d="m489.9 256.8l-278.7 177-189.6-299.4 278.7-177z"/>
														</g>
													</g>
												</g>
											</g>
										</g>
									</g>
								</g>
							</g>
							<path class="s1" d="m200.3 302.5c1.9 11.5 12.5 20.9 23.5 20.9h122.9c11.1 0 18.4-9.4 16.5-20.9l-40.4-239.4c-2-11.5-12.5-20.9-23.6-20.9h-122.8c-11.1 0-18.5 9.4-16.5 20.9z"/>
							<path class="s2" d="m299.9 78.1h-112.2l33.8 206.5h114.5z"/>
							<path class="s2" d="m283.8 312.7h7.5c1.8 0 3.4-0.7 4.5-2.1 1.2-1.4 1.6-3.2 1.3-5.2l-1.4-7.9c-0.6-3.8-4-6.8-7.6-6.8h-7.5c-1.9 0-3.5 0.8-4.6 2.2-1.1 1.4-1.5 3.2-1.2 5.1l1.3 7.9c0.7 3.8 4 6.8 7.7 6.8zm4.3-19c2.2 0 4.5 2 4.9 4.3l1.3 7.9c0.2 1.1 0 2.1-0.6 2.8-0.6 0.7-1.4 1.1-2.4 1.1h-7.5c-2.3 0-4.5-2-4.9-4.4l-1.3-7.9c-0.2-1.1 0-2 0.6-2.8 0.5-0.7 1.4-1 2.4-1z"/>
							<path class="s3" d="m334.7 134l-1.3-8.2z"/>
							<path class="s4" d="m335.7 139.7l-1-5.7-1.3-8.2c-7.2-6.4-26.3-6.8-26.3-6.8l3.2 18.6c6.4 0.3 25.4 2.1 25.4 2.1z"/>
							<path class="s5" d="m225.8 46c1.5-18.9 18-32.9 36.8-31.3 18.8 1.5 32.8 18 31.2 36.8q-0.3 3.6-1.2 6.9-1.2 4.1-3.4 7.8c-4.9 10.7-15.1 31-29.4 49.5-12.2-14.6-23.4-36.8-29-48.9-1.6-2.6-2.8-5.4-3.7-8.4q0 0 0 0c-1.2-3.9-1.7-8.1-1.3-12.4zm34 21.8c10.7 0 19.3-8.7 19.3-19.3 0-10.7-8.6-19.3-19.3-19.3-10.6 0-19.3 8.6-19.3 19.3 0 10.6 8.7 19.3 19.3 19.3z"/>
							<path class="s2" d="m226.3 42.2c3.1-16 17.1-27.6 33.5-27.6q0.8 0 1.7 0-0.9 0-1.7 0c-16.4 0-30.4 11.6-33.5 27.6zm37.5-27.4q0 0 0 0 0 0 0 0zm0 0q0 0 0 0 0 0 0 0zm-0.1 0q-0.1 0-0.1 0 0 0 0.1 0zm-0.1 0q0 0 0 0 0 0 0 0zm0 0q0 0-0.1 0 0.1 0 0.1 0zm-0.1 0q0 0 0 0 0 0 0 0zm0-0.1q0 0-0.1 0 0.1 0 0.1 0zm-0.1 0q0 0 0 0 0 0 0 0zm-0.1 0q0 0 0 0 0 0 0 0zm0 0q0 0 0 0 0 0 0 0zm-0.1 0q0 0 0 0 0 0 0 0zm0 0q0 0-0.1 0 0.1 0 0.1 0zm-0.1 0q0 0 0 0 0 0 0 0zm0 0q0 0-0.1 0 0.1 0 0.1 0zm-0.1 0q0 0 0 0 0 0 0 0zm0 0q0 0-0.1 0 0.1 0 0.1 0zm-0.1 0q0 0-0.1 0 0.1 0 0.1 0zm-0.1 0q0 0 0 0 0 0 0 0zm0 0q-0.1 0-0.1 0 0 0 0.1 0zm-0.1 0q0 0 0 0 0 0 0 0zm-0.1 0q0 0 0 0 0 0 0 0z"/>
							<path class="s6" d="m230.9 66.9q0 0 0 0 0 0 0 0zm-5.1-20.9q0.1-2 0.5-3.8-0.4 1.8-0.5 3.8z"/>
							<path class="s7" d="m246.7 96.9c22.1-11.5 37.2-34.5 37.2-61.2q0-6.3-1.1-12.2c-5.1-4.7-11.6-7.8-18.9-8.7q-0.1 0-0.1 0 0 0 0 0 0 0 0 0 0 0 0 0-0.1 0-0.1 0-0.1 0-0.1 0 0 0 0 0 0 0 0 0 0 0 0 0 0 0-0.1 0 0 0 0 0 0 0 0 0 0 0 0-0.1 0 0-0.1 0 0 0 0 0 0 0 0 0 0 0-0.1 0 0 0 0 0 0 0 0 0 0 0 0 0 0 0-0.1 0 0 0 0 0 0 0 0 0 0 0-0.1 0 0.1 0 0 0 0 0 0 0 0 0 0 0 0 0-0.1 0 0 0 0 0 0 0 0 0 0 0 0 0 0 0-0.1 0 0 0 0 0 0 0-0.1 0 0 0 0 0 0 0 0 0 0 0 0 0-0.1 0-0.1 0 0 0 0 0 0 0 0 0 0 0-0.1 0 0 0 0 0-0.6-0.1-1.1-0.1-0.9 0-1.7 0c-16.4 0-30.4 11.6-33.5 27.6q-0.4 1.8-0.5 3.8-0.1 1.4-0.1 2.8c0 3.3 0.5 6.5 1.4 9.6q0 0 0 0c0.9 3 2.1 5.8 3.7 8.4q0.1 0.1 0.1 0.1 0 0 0 0c3.5 7.5 9.1 18.9 15.8 30zm32.4-48.4c0 10.6-8.6 19.3-19.3 19.3-10.6 0-19.3-8.7-19.3-19.3 0-10.7 8.7-19.3 19.3-19.3 10.7 0 19.3 8.6 19.3 19.3z"/>
							<g id="Clip-Path" clip-path="url(#cp7)">
								<g>
									<g id="Clip-Path" clip-path="url(#cp8)">
										<g>
											<path class="s8" d="m544.5 259.4v-20.9c0 0-3-23-36.9-37l-42.9-12c0 0-20-28-85.8-43.9 0 0-68.8-15-195.5 0 0 0 2 7.9 7 11.9 0 0-20.9 33-25.9 46v17c0 0 0 13-6 20v40.9c0 0-2 7 24.9 8h344.1l19-1.5c0 0 9-30.5-2-28.5z"/>
										</g>
									</g>
								</g>
							</g>
							<g id="Clip-Path" clip-path="url(#cp9)">
								<g>
									<g id="Clip-Path" clip-path="url(#cp10)">
										<g>
											<path class="s9" d="m261.2 277.7h170.6c7.5 0 7-3.5 7-3.5 4-43.9 42.9-47.4 42.9-47.4q0 0-0.2 0c-2.1 0-34.9 0.2-73.3 12.9q-1 0.3-2.1 0.7l-0.5 9.4c-0.1 0.2-0.5 16.5-23.4 17.5h-111.4q-0.1 0-0.4 0c-0.5 0-1.3-0.1-2.1-0.6-1.6-1.1-2.6-3.4-3-6.8-0.5-3.7-4.2-12.8-12.2-21.4-4.7-5.1-11.8-11.1-21.9-14.8q1.8 5.3 3.8 10.5c26.2 14.4 26.2 43.5 26.2 43.5zm9.1-11.4c0.2 0 0.3 0 0.3 0h0.1 46.9q-1.6-9.7-2.7-18.1c-26.1-2.2-50.2-8.2-64.1-19.6 0 0-8.3-5-20.2-6.6q0.1 0.2 0.2 0.5c24.2 8.5 34.6 30.5 35.5 37.2 0.5 3.9 1.7 5.5 2.6 6.1 0.6 0.5 1.1 0.5 1.4 0.5zm111.9 0c21.9-1 22.3-15.9 22.4-16.5l0.5-9.1c-17.4 5.2-42.3 8.4-67.5 8.4-7.2 0-14.6-0.3-21.7-0.9q1.1 8.5 2.7 18.1z"/>
										</g>
									</g>
								</g>
							</g>
							<g id="Clip-Path" clip-path="url(#cp11)">
								<g>
									<g id="Clip-Path" clip-path="url(#cp12)">
										<g>
											<path class="s10" d="m313.4 154c0.4-5 7.7-4 7.7-4h21.9c18 0 30 6.3 30.7 6.7h0.1c17.5 9.3 29.9 23 36.4 31.3q1.6 2.1 2.7 3.7c0.1 1.8-2.4 3.6-12.7 3.6h-88.8c-1.6-15.3 1.7-36.3 2-41.3z"/>
										</g>
									</g>
								</g>
							</g>
							<g id="Clip-Path" clip-path="url(#cp13)">
								<g>
									<g id="Clip-Path" clip-path="url(#cp14)">
										<g>
											<path class="s10" d="m309.1 149.9c0 0-5 33.1-4 45.4l-99.1 1.4c0 0-2-0.7-1.6-6.7 0 0-5.7-35.1 42.9-40.1z"/>
										</g>
									</g>
								</g>
							</g>
							<g id="Clip-Path" clip-path="url(#cp15)">
								<g>
									<g id="Clip-Path" clip-path="url(#cp16)">
										<g>
											<path class="s10" d="m466.7 189.5c0 0-9.4 4.8-31.6 3.5 0 0-8-0.7-12.3-6.3-4.3-5.7-24.6-29-36.9-34.3 0 0-8.3-5.1 0-5.1 0 0 49.9 7.1 80.8 42.2z"/>
										</g>
									</g>
								</g>
							</g>
							<g id="Clip-Path" clip-path="url(#cp17)">
								<g>
									<g id="Clip-Path" clip-path="url(#cp18)">
										<g>
											<g id="Clip-Path" clip-path="url(#cp19)">
												<g>
													<path class="s11" d="m544.5 259.4h-9.5c0 0-11-31.1-53.3-32.6 0 0-38.9 3.5-42.9 47.4 0 0 0.5 3.5-7 3.5h-170.6c0 0 0-45.9-51.8-50.9 0 0-35.4 2.5-42.9 35.5 0 0-5 4-8-1 0 0-14.5 36.4-12 40.4 2.5 4 58.4 26 65.4 26 6.9 0 85.7-5.5 87.7-8.5 2-3 168.6 18 188.5 22 20 4 57.4 0 66.9-7.5 9.4-7.5 11.9-7.5 11.9-7.5v-67.9c0 0-11.9-16.7-22.4 1.1z"/>
												</g>
											</g>
										</g>
									</g>
								</g>
							</g>
							<g id="Clip-Path" clip-path="url(#cp20)">
								<g>
									<g id="Clip-Path" clip-path="url(#cp21)">
										<g>
											<g id="Clip-Path" clip-path="url(#cp22)">
												<g>
													<path class="s12" d="m449.1 281.4c0 21.1 17.1 38.2 38.1 38.2 21.1 0 38.2-17.1 38.2-38.2 0-21-17.1-38.1-38.2-38.1-21 0-38.1 17.1-38.1 38.1z"/>
												</g>
											</g>
										</g>
									</g>
								</g>
							</g>
							<g id="Clip-Path" clip-path="url(#cp23)">
								<g>
									<g id="Clip-Path" clip-path="url(#cp24)">
										<g>
											<g id="Clip-Path" clip-path="url(#cp25)">
												<g>
													<path class="s12" d="m173.3 281.4c0 21.1 17.1 38.2 38.1 38.2 21.1 0 38.1-17.1 38.1-38.2 0-21-17-38.1-38.1-38.1-21 0-38.1 17.1-38.1 38.1z"/>
												</g>
											</g>
										</g>
									</g>
								</g>
							</g>
							<g id="Clip-Path" clip-path="url(#cp26)">
								<g>
									<g id="Clip-Path" clip-path="url(#cp27)">
										<g>
											<path class="s13" d="m453.1 284c0 18.9 15.3 34.2 34.1 34.2 18.9 0 34.2-15.3 34.2-34.2 0-18.9-15.3-34.2-34.2-34.2-18.8 0-34.1 15.3-34.1 34.2z"/>
										</g>
									</g>
								</g>
							</g>
							<g id="Clip-Path" clip-path="url(#cp28)">
								<g>
									<g id="Clip-Path" clip-path="url(#cp29)">
										<g>
											<path class="s14" d="m460.6 284c0 14.7 11.9 26.7 26.6 26.7 14.7 0 26.7-12 26.7-26.7 0-14.7-12-26.7-26.7-26.7-14.7 0-26.6 12-26.6 26.7z"/>
										</g>
									</g>
								</g>
							</g>
							<g id="Clip-Path" clip-path="url(#cp30)">
								<g>
									<g id="Clip-Path" clip-path="url(#cp31)">
										<g>
											<path class="s15" d="m465.6 284c0 12 9.7 21.7 21.6 21.7 12 0 21.7-9.7 21.7-21.7 0-12-9.7-21.7-21.7-21.7-11.9 0-21.6 9.7-21.6 21.7z"/>
										</g>
									</g>
								</g>
							</g>
							<g id="Clip-Path" clip-path="url(#cp32)">
								<g>
									<g id="Clip-Path" clip-path="url(#cp33)">
										<g>
											<path class="s14" d="m474.8 284c0 6.9 5.6 12.5 12.4 12.5 6.9 0 12.5-5.6 12.5-12.5 0-6.9-5.6-12.4-12.5-12.4-6.8 0-12.4 5.5-12.4 12.4z"/>
										</g>
									</g>
								</g>
							</g>
							<g id="Clip-Path" clip-path="url(#cp34)">
								<g>
									<g id="Clip-Path" clip-path="url(#cp35)">
										<g>
											<path class="s13" d="m176.3 284c0 18.9 15.3 34.2 34.2 34.2 18.8 0 34.1-15.3 34.1-34.2 0-18.9-15.3-34.2-34.1-34.2-18.9 0-34.2 15.3-34.2 34.2z"/>
										</g>
									</g>
								</g>
							</g>
							<g id="Clip-Path" clip-path="url(#cp36)">
								<g>
									<g id="Clip-Path" clip-path="url(#cp37)">
										<g>
											<path class="s14" d="m183.8 284c0 14.7 12 26.7 26.7 26.7 14.7 0 26.6-12 26.6-26.7 0-14.7-11.9-26.7-26.6-26.7-14.7 0-26.7 12-26.7 26.7z"/>
										</g>
									</g>
								</g>
							</g>
							<g id="Clip-Path" clip-path="url(#cp38)">
								<g>
									<g id="Clip-Path" clip-path="url(#cp39)">
										<g>
											<path class="s15" d="m188.8 284c0 12 9.7 21.7 21.7 21.7 11.9 0 21.6-9.7 21.6-21.7 0-12-9.7-21.7-21.6-21.7-12 0-21.7 9.7-21.7 21.7z"/>
										</g>
									</g>
								</g>
							</g>
							<g id="Clip-Path" clip-path="url(#cp40)">
								<g>
									<g id="Clip-Path" clip-path="url(#cp41)">
										<g>
											<path class="s14" d="m198 284c0 6.9 5.6 12.5 12.5 12.5 6.8 0 12.4-5.6 12.4-12.5 0-6.9-5.6-12.4-12.4-12.4-6.9 0-12.5 5.5-12.5 12.4z"/>
										</g>
									</g>
								</g>
							</g>
							<g id="Clip-Path" clip-path="url(#cp42)">
								<g>
									<g id="Clip-Path" clip-path="url(#cp43)">
										<g>
											<path class="s16" d="m340.4 150c0 0-12.7 2.2-14.2 17.2v12.7c0 0-3.7 15.4 7.1 15.4h-21.9c0 0-2.5-26.6 2-41.3 0 0-2.7-4.6 7.7-4z"/>
										</g>
									</g>
								</g>
							</g>
							<g id="Clip-Path" clip-path="url(#cp44)">
								<g>
									<g id="Clip-Path" clip-path="url(#cp45)">
										<g>
											<path class="s16" d="m454.1 177.9c0 0-30.5 6.1-45.9-7.6l16.3 18.2c0 0 7.2 8.2 23.7 4.6 0 0 13.8 0.3 17.5-4.1z"/>
										</g>
									</g>
								</g>
							</g>
							<g id="Clip-Path" clip-path="url(#cp46)">
								<g>
									<g id="Clip-Path" clip-path="url(#cp47)">
										<g>
											<path class="s16" d="m405.3 182.1c0 0-76.8 14.7-93.9-9.5v22.7h88.8c0 0 22.4 3 5.1-13.2z"/>
										</g>
									</g>
								</g>
							</g>
							<g id="Clip-Path" clip-path="url(#cp48)">
								<g>
									<g id="Clip-Path" clip-path="url(#cp49)">
										<g>
											<path class="s16" d="m305.4 182.1c0 0-98.6 9.8-94.9-15 0 0-11.8 14.9-4.5 29.6l99.1-1.4z"/>
										</g>
									</g>
								</g>
							</g>
							<g id="Clip-Path" clip-path="url(#cp50)">
								<g>
									<g id="Clip-Path" clip-path="url(#cp51)">
										<g>
											<path class="s10" d="m190.4 157.5c0 0 11.2-1.1 7.6 6.4-3.5 7.5-14.4 32.6-30.4 32.8 0 0 15.8-34 22.8-39.2z"/>
										</g>
									</g>
								</g>
							</g>
							<g id="Clip-Path" clip-path="url(#cp52)">
								<g>
									<g id="Clip-Path" clip-path="url(#cp53)">
										<g>
											<path class="s17" d="m405.1 167.1c0 0-23.5-17.7-69.2-17.1l-95-0.1c0 0-50.7 0.3-57.5-4.3 0 0 128.1-16.8 202.5 1.7z"/>
										</g>
									</g>
								</g>
							</g>
							<g id="Clip-Path" clip-path="url(#cp54)">
								<g>
									<g id="Clip-Path" clip-path="url(#cp55)">
										<g>
											<path class="s17" d="m537.8 223.8c0 0-15.7-3.9-28.9-9.7-13.2-5.7-60.7-21-60.7-21 0 0 12.4 0.1 18.5-4l40.9 12.4c0 0 18 5.8 30.2 22.3z"/>
										</g>
									</g>
								</g>
							</g>
							<g id="Clip-Path" clip-path="url(#cp56)">
								<g>
									<g id="Clip-Path" clip-path="url(#cp57)">
										<g>
											<path class="s17" d="m460.6 197.1c0 0-24.1 5.4-36.1-8.6 0 0 19.9 8 28.6 4.2 0 0 22.3 3.6 7.5 4.4z"/>
										</g>
									</g>
								</g>
							</g>
							<g id="Clip-Path" clip-path="url(#cp58)">
								<g>
									<g id="Clip-Path" clip-path="url(#cp59)">
										<g>
											<path class="s12" d="m195.7 219.8c9.2-1.5 16.8-0.9 19.9-0.6-1.3-1.4-3.5-4.4-5.6-9.1-3-7-5-14.6-5.1-14.6l1-0.3c0 0.1 2 7.6 5 14.5 2.7 6.1 5.6 9.1 6.2 9.7 34 3.6 48.2 32.5 49.2 40.3 0.5 3.9 1.7 5.5 2.6 6.1 0.9 0.7 1.7 0.5 1.7 0.5h0.1 46.9c-7.3-44.6-6.7-70.7-6.7-71h1c0 0.3-0.6 26.4 6.7 71h63.6c21.9-1 22.3-15.9 22.4-16.5l3.1-54.6h1l-3.1 54.6c-0.1 0.2-0.5 16.5-23.4 17.5h-111.4q-0.1 0-0.4 0c-0.5 0-1.3-0.1-2.1-0.6-1.6-1.1-2.6-3.4-3-6.8-0.5-3.7-4.2-12.8-12.2-21.4-6.7-7.3-18.4-16.3-36.2-18.2h-0.2c-2.5-0.3-37.4-4.5-57.8 20.5l-0.8-0.7c11.2-13.7 26.6-18.6 37.6-20.3z"/>
										</g>
									</g>
								</g>
							</g>
							<g id="Clip-Path" clip-path="url(#cp60)">
								<g>
									<g id="Clip-Path" clip-path="url(#cp61)">
										<g>
											<path class="s17" d="m407.7 195.2c0 0 0.7 6.7-8.8 5.9-9.4-0.7-78.8 0.1-78.8 0.1 0 0-7.7-0.7-8.2-5.9z"/>
										</g>
									</g>
								</g>
							</g>
							<g id="Clip-Path" clip-path="url(#cp62)">
								<g>
									<g id="Clip-Path" clip-path="url(#cp63)">
										<g>
											<path class="s17" d="m305.1 195.3c0 0 0.6 5.9-4.7 5.9-5.4 0-1.4 0-1.4 0l-77.4 1.3c0 0-13.3 0.9-15.3-5.8z"/>
										</g>
									</g>
								</g>
							</g>
							<g id="Clip-Path" clip-path="url(#cp64)">
								<g>
									<g id="Clip-Path" clip-path="url(#cp65)">
										<g>
											<path class="s18" d="m537.8 233.8c0 0-4.3-14.3-20-16.1-15.6-1.8 0.3 13.1 5.8 16.1 5.5 3 19.8 11.6 14.2 0z"/>
										</g>
									</g>
								</g>
							</g>
							<g id="Clip-Path" clip-path="url(#cp66)">
								<g>
									<g id="Clip-Path" clip-path="url(#cp67)">
										<g>
											<path class="s18" d="m540.8 228.6c0 0-4.4 1.6-9.5-4.8l5 9.9c0 0 5.4 2.1 7.7 1.5z"/>
										</g>
									</g>
								</g>
							</g>
							<g id="Clip-Path" clip-path="url(#cp68)">
								<g>
									<g id="Clip-Path" clip-path="url(#cp69)">
										<g>
											<path class="s19" d="m535 259.4h9.5v-6.6c0 0-0.9 0.4-2.6 0.4-3.2 0-8.9-1.3-16.7-8.5 7.3 7.6 9.8 14.7 9.8 14.7z"/>
										</g>
									</g>
								</g>
							</g>
							<g id="Clip-Path" clip-path="url(#cp70)">
								<g>
									<g id="Clip-Path" clip-path="url(#cp71)">
										<g>
											<path class="s20" d="m535 259.4h9.5-9.5c0 0-2.5-7.1-9.8-14.7q-1-1-2.2-2.2c0 0 8.3 9.8 12 16.9z"/>
										</g>
									</g>
								</g>
							</g>
							<g id="Clip-Path" clip-path="url(#cp72)">
								<g>
									<g id="Clip-Path" clip-path="url(#cp73)">
										<g>
											<path class="s17" d="m403.8 241.1c0 0-84.3 12.9-88.8 0 0 0 0.6 5.3 0.9 7.1 0 0 60.4 3.3 89.2-7.5z"/>
										</g>
									</g>
								</g>
							</g>
							<g id="Clip-Path" clip-path="url(#cp74)">
								<g>
									<g id="Clip-Path" clip-path="url(#cp75)">
										<g>
											<path class="s17" d="m479.6 226.8c0 0-42.5 1.3-70.9 10.4l-2.1-5.9v9.4c0 0 21.6-8.9 73-13.9z"/>
										</g>
									</g>
								</g>
							</g>
							<path class="s4" d="m221.3 289.4h64.6q-0.6 0-1.1 0h-61.9l-0.4-2.2-0.5-2.6h-0.5l-5.7-34.7-1.2-6.5-2.9-16.3-0.7-4-0.6-3.2-0.2-1-1.6-9z"/>
							<path class="s3" d="m221.5 284.6h0.5l-1.4-7.7-2.3-13.1-1-5.6-1.4-8-0.1-0.3z"/>
							<path class="s21" d="m211 223.1c4.2-1.2 8.4-1.7 12.4-1.7q0.1 0 0.2 0-3.2-0.7-6.7-1.1h-0.2c-0.6-0.1-2.9-0.3-6.3-0.4zm19.7-1.1c-2.2-6.5-4.1-13.1-5.9-19.5h-3.2c0 0-0.5 0.1-1.4 0.1-3.3 0-11.4-0.5-13.6-5.1l0.1 0.5c0.9 2.8 2.4 7.3 4.2 11.7 2.7 6.1 5.6 9.1 6.3 9.7 4 0.4 7.8 1.2 11.4 2.3q1 0.1 2.1 0.3zm-15.1-2.8c-1.3-1.4-3.5-4.4-5.6-9.1-0.8-2-1.6-4.1-2.3-6l0.9 5.8 1.6 9c2.4 0 4.2 0.2 5.4 0.3zm-9.1-22.5l16.8-0.2q-0.1-0.1-0.1-0.1l-16.7 0.3zm-2.4-15.2c1.4-7.6 5.7-13.4 6.3-14.3 1.4-2 3.2-3.9 5.3-5.7-0.8-5-1.5-9.2-1.9-12.1-5.1-0.2-10.3-0.5-15-0.9z"/>
							<path class="s22" d="m235 234.2q-2-5.2-3.8-10.5-3.5-1.3-7.6-2.3-0.1 0-0.2 0c-4 0-8.2 0.5-12.4 1.7l0.7 4c9.5 1.1 17.1 3.7 23.3 7.1zm-4.2-11.7q-0.1-0.3-0.2-0.5-1-0.2-2-0.3 1.1 0.4 2.2 0.8z"/>
							<path class="s23" d="m219 178.2c-1.3-6.2-2.4-11.9-3.3-16.7-2.1 1.8-3.9 3.8-5.3 5.7q0.1-0.1 0.1-0.1c-0.8 5 2.6 8.6 8.5 11.1z"/>
							<path class="s24" d="m248.7 289.4h36.1c-22.3-0.8-38.5-26-49.8-55.2-6.2-3.4-13.8-6-23.3-7.1l2.9 16.3c19.6 1.6 34.9 18 34.9 38q0 4.1-0.8 8z"/>
							<path class="s25" d="m244.2 289.4h4.5q0.8-3.9 0.8-8c0-20-15.3-36.4-34.9-38l1.2 6.5 0.1 0.3c16.2 2.6 28.7 16.8 28.7 33.8q0 2.8-0.4 5.4z"/>
							<path class="s26" d="m236.5 289.4h7.7q0.4-2.6 0.4-5.4c0-17-12.5-31.2-28.7-33.8l1.4 8c11.4 3 19.8 13.4 19.8 25.8q0 2.8-0.6 5.4z"/>
							<path class="s27" d="m231.4 289.4h5.1q0.6-2.6 0.6-5.4c0-12.4-8.4-22.8-19.8-25.8l1 5.6c8.1 3.1 13.8 11 13.8 20.2q0 2.8-0.7 5.4z"/>
							<path class="s28" d="m222.9 289.4h8.5q0.7-2.6 0.7-5.4c0-9.2-5.7-17.1-13.8-20.2l2.3 13.1c1.5 2 2.3 4.4 2.3 7.1q0 1.6-0.4 3.2z"/>
							<path class="s27" d="m222.5 287.2q0.4-1.6 0.4-3.2c0-2.7-0.8-5.1-2.3-7.1l1.4 7.7z"/>
							<path class="s29" d="m206.5 196.7l16.7-0.3c-1.6-6.3-3-12.5-4.2-18.2-5.9-2.5-9.3-6.1-8.5-11.1q0 0-0.1 0.1c-0.7 0.9-4.9 6.7-6.3 14.3z"/>
							<path class="s30" d="m213.7 149.4c-0.4-3.2-0.7-5-0.7-5-7.3 1.4-14.3 3.2-14.3 3.2l0.1 0.9c4.6 0.4 9.8 0.7 14.9 0.9z"/>
							<path class="s25" d="m231.2 223.7q-0.2-0.6-0.4-1.2-1.1-0.4-2.2-0.8c-3.6-1.1-7.4-1.9-11.5-2.3-0.6-0.6-3.5-3.6-6.2-9.7-1.9-4.4-3.3-8.9-4.2-11.7l1 6.1c0.7 1.9 1.4 4 2.3 6 2.1 4.7 4.3 7.7 5.6 9.1-1.2-0.1-3-0.3-5.4-0.3l0.2 1c3.4 0.1 5.7 0.3 6.3 0.4h0.2q3.5 0.4 6.7 1.1 4.1 1 7.6 2.3z"/>
							<path class="s30" d="m220.2 202.6c0.8 0 1.4-0.1 1.4-0.1h3.2q-0.8-3.1-1.6-6l-16.7 0.2 0.1 0.8c2.2 4.6 10.3 5.1 13.6 5.1z"/>
						</g>
					</g>
				</g>
			</g>
		</g>
	</g>
</svg>