<svg version="1.2" xmlns="http://www.w3.org/2000/svg" viewBox="0 0 843 512" width="843" height="512">
	<title>file</title>
	<defs>
		<clipPath clipPathUnits="userSpaceOnUse" id="cp1">
			<path d="m561.87 246.59h76.79v54.65h-76.79z"/>
		</clipPath>
		<clipPath clipPathUnits="userSpaceOnUse" id="cp2">
			<path d="m202.89 243.92h77.74v57.32h-77.74z"/>
		</clipPath>
		<clipPath clipPathUnits="userSpaceOnUse" id="cp3">
			<path d="m312.62 30.7h221.26v31.95h-221.26z"/>
		</clipPath>
		<clipPath clipPathUnits="userSpaceOnUse" id="cp4">
			<path d="m202.89 53.32h435.77v414.14h-435.77z"/>
		</clipPath>
		<clipPath clipPathUnits="userSpaceOnUse" id="cp5">
			<path d="m487.23 225.26h5.33v47.99h-5.33z"/>
		</clipPath>
		<clipPath clipPathUnits="userSpaceOnUse" id="cp6">
			<path d="m490.95 226.1c0.19 0.47 0.38 0.98 0.66 1.45-2.99 16.05-3.22 27.62-2.1 43.81-0.14 0.56-0.19 0.98-0.56 1.49-1.41-16.75-1.78-30.28 2-46.75z"/>
		</clipPath>
		<linearGradient id="g1" x2="1" gradientUnits="userSpaceOnUse" gradientTransform="matrix(-10.682,-1.469,6.402,-46.573,494.745,250.11)">
			<stop offset="0" stop-color="#ffdf83"/>
			<stop offset=".408" stop-color="#ffdf83"/>
			<stop offset=".5" stop-color="#ffdf83"/>
			<stop offset=".504" stop-color="#ffdf83"/>
			<stop offset=".508" stop-color="#ffdf84"/>
			<stop offset=".512" stop-color="#ffdf85"/>
			<stop offset=".516" stop-color="#ffdf85"/>
			<stop offset=".52" stop-color="#ffde86"/>
			<stop offset=".523" stop-color="#ffde87"/>
			<stop offset=".527" stop-color="#ffde87"/>
			<stop offset=".531" stop-color="#ffde88"/>
			<stop offset=".535" stop-color="#ffde89"/>
			<stop offset=".539" stop-color="#ffde89"/>
			<stop offset=".543" stop-color="#ffde8a"/>
			<stop offset=".547" stop-color="#ffde8b"/>
			<stop offset=".551" stop-color="#ffdd8b"/>
			<stop offset=".555" stop-color="#ffdd8c"/>
			<stop offset=".559" stop-color="#ffdd8d"/>
			<stop offset=".563" stop-color="#ffdd8d"/>
			<stop offset=".566" stop-color="#ffdd8e"/>
			<stop offset=".57" stop-color="#ffdd8f"/>
			<stop offset=".574" stop-color="#ffdd8f"/>
			<stop offset=".578" stop-color="#ffdd90"/>
			<stop offset=".582" stop-color="#ffdc91"/>
			<stop offset=".586" stop-color="#ffdc91"/>
			<stop offset=".59" stop-color="#ffdc92"/>
			<stop offset=".594" stop-color="#ffdc93"/>
			<stop offset=".598" stop-color="#ffdc93"/>
			<stop offset=".602" stop-color="#ffdc94"/>
			<stop offset=".605" stop-color="#ffdc95"/>
			<stop offset=".609" stop-color="#ffdc95"/>
			<stop offset=".613" stop-color="#ffdb96"/>
			<stop offset=".617" stop-color="#ffdb97"/>
			<stop offset=".621" stop-color="#ffdb97"/>
			<stop offset=".625" stop-color="#ffdb98"/>
			<stop offset=".629" stop-color="#ffdb99"/>
			<stop offset=".633" stop-color="#ffdb99"/>
			<stop offset=".637" stop-color="#ffdb9a"/>
			<stop offset=".641" stop-color="#ffdb9b"/>
			<stop offset=".645" stop-color="#ffda9b"/>
			<stop offset=".648" stop-color="#ffda9c"/>
			<stop offset=".652" stop-color="#ffda9d"/>
			<stop offset=".656" stop-color="#ffda9d"/>
			<stop offset=".66" stop-color="#ffda9e"/>
			<stop offset=".664" stop-color="#ffda9f"/>
			<stop offset=".668" stop-color="#ffda9f"/>
			<stop offset=".672" stop-color="#ffdaa0"/>
			<stop offset=".676" stop-color="#ffd9a1"/>
			<stop offset=".68" stop-color="#ffd9a2"/>
			<stop offset=".684" stop-color="#ffd9a2"/>
			<stop offset=".688" stop-color="#ffd9a3"/>
			<stop offset=".75" stop-color="#ffd9a3"/>
			<stop offset="1" stop-color="#ffd9a3"/>
		</linearGradient>
		<clipPath clipPathUnits="userSpaceOnUse" id="cp7">
			<path d="m515.22 339.89h16v17.33h-16z"/>
		</clipPath>
		<clipPath clipPathUnits="userSpaceOnUse" id="cp8">
			<path d="m528.48 341.58c0.47 0.05 0.56 0.19 0.93-0.05 0.61-0.42 1.03-0.74 1.78-0.88-0.28 1.07-1.64 1.63-1.97 2.75 0.47 0 0.66-0.33 0.99-0.61 0.32-0.32 0.18-0.19 0.37-0.37l0.19 0.28c-0.75 1.02-1.55 1.91-2.43 2.8-1.64 0.42-9.68 9.52-11.22 11.43l-0.14 0.18-0.33-0.09c-0.46-0.51-0.65-0.74-0.74-1.44 1.49-3.78 9.44-11.2 12.57-14z"/>
		</clipPath>
		<linearGradient id="g2" x2="1" gradientUnits="userSpaceOnUse" gradientTransform="matrix(8.495,-19.428,18.865,8.249,519.212,358.557)">
			<stop offset="0" stop-color="#272628"/>
			<stop offset=".063" stop-color="#272628"/>
			<stop offset=".078" stop-color="#272629"/>
			<stop offset=".094" stop-color="#282729"/>
			<stop offset=".109" stop-color="#28272a"/>
			<stop offset=".125" stop-color="#29282a"/>
			<stop offset=".141" stop-color="#29282b"/>
			<stop offset=".156" stop-color="#2a292b"/>
			<stop offset=".172" stop-color="#2b292c"/>
			<stop offset=".188" stop-color="#2b292c"/>
			<stop offset=".203" stop-color="#2c2a2d"/>
			<stop offset=".219" stop-color="#2c2a2e"/>
			<stop offset=".234" stop-color="#2d2b2e"/>
			<stop offset=".25" stop-color="#2d2b2f"/>
			<stop offset=".266" stop-color="#2e2c2f"/>
			<stop offset=".281" stop-color="#2e2c30"/>
			<stop offset=".288" stop-color="#2f2d30"/>
			<stop offset=".297" stop-color="#2f2d31"/>
			<stop offset=".313" stop-color="#2f2d31"/>
			<stop offset=".328" stop-color="#302d32"/>
			<stop offset=".344" stop-color="#302e32"/>
			<stop offset=".359" stop-color="#312e33"/>
			<stop offset=".375" stop-color="#312f33"/>
			<stop offset=".391" stop-color="#322f34"/>
			<stop offset=".406" stop-color="#323034"/>
			<stop offset=".422" stop-color="#333035"/>
			<stop offset=".438" stop-color="#333035"/>
			<stop offset=".453" stop-color="#343136"/>
			<stop offset=".469" stop-color="#343137"/>
			<stop offset=".484" stop-color="#353237"/>
			<stop offset=".5" stop-color="#353238"/>
			<stop offset=".516" stop-color="#363338"/>
			<stop offset=".531" stop-color="#363339"/>
			<stop offset=".547" stop-color="#373339"/>
			<stop offset=".563" stop-color="#37343a"/>
			<stop offset=".578" stop-color="#38343b"/>
			<stop offset=".594" stop-color="#38353b"/>
			<stop offset=".609" stop-color="#39353c"/>
			<stop offset=".625" stop-color="#39363c"/>
			<stop offset=".641" stop-color="#3a363d"/>
			<stop offset=".656" stop-color="#3a373d"/>
			<stop offset=".672" stop-color="#3b373e"/>
			<stop offset=".688" stop-color="#3b373f"/>
			<stop offset=".703" stop-color="#3c383f"/>
			<stop offset=".712" stop-color="#3c3840"/>
			<stop offset=".719" stop-color="#3d3940"/>
			<stop offset=".734" stop-color="#3d3940"/>
			<stop offset=".75" stop-color="#3d3941"/>
			<stop offset=".766" stop-color="#3e3a41"/>
			<stop offset=".781" stop-color="#3e3a42"/>
			<stop offset=".797" stop-color="#3f3a42"/>
			<stop offset=".813" stop-color="#3f3b43"/>
			<stop offset=".828" stop-color="#403b44"/>
			<stop offset=".844" stop-color="#403c44"/>
			<stop offset=".859" stop-color="#413c45"/>
			<stop offset=".875" stop-color="#413d45"/>
			<stop offset=".891" stop-color="#423d46"/>
			<stop offset=".906" stop-color="#423e46"/>
			<stop offset=".938" stop-color="#433e47"/>
			<stop offset="1" stop-color="#433e47"/>
		</linearGradient>
		<clipPath clipPathUnits="userSpaceOnUse" id="cp9">
			<path d="m202.89 203.93h51.08v42.66h-51.08z"/>
		</clipPath>
		<clipPath clipPathUnits="userSpaceOnUse" id="cp10">
			<path d="m564.54 202.6h74.12v43.99h-74.12z"/>
		</clipPath>
		<clipPath clipPathUnits="userSpaceOnUse" id="cp11">
			<path d="m316.62 339.89h218.6v62.65h-218.6z"/>
		</clipPath>
		<clipPath clipPathUnits="userSpaceOnUse" id="cp12">
			<path d="m478.48 343.77c1.31-1.91 3.23-2.89 5.47-3.31 2.61-0.51 5.56-0.51 8.17-0.19 2.3 2.52 5.1 4.3 7.86 6.25 3.22 2.15 16.91 10.23 17.61 13.82 0.19 1.02-0.19 1.91-0.8 2.7-0.51 0.66-1.3 0.75-2.05 0.84l0.04 0.51c-1.02 0.38-2.09 0.66-2.66 1.64-0.23 0.42-0.32 0.93-0.42 1.4 0.28 0.23 0.56 0.56 0.89 0.74 1.45-1.35 3.55-1.58 4.86-3.03l0.37 0.05c-0.74 1.63-2.43 4.94-3.69 6.11l-0.28 0.28c1.64 1.02 4.53 0.84 6.45 0.84 5.1-7.65 10.28-15.21 14.39-23.47h0.23l0.14-0.47c-2.47 6.91-7.19 13.49-11.35 19.51-1.03 1.49-1.82 3.22-2.94 4.66-0.79 1.03-1.97 1.78-2.9 2.71-1.22 1.21-2.2 2.47-3.55 3.59-2.9 2.47-6.4 5.32-9.77 7.09-0.42 0.24-1.82 0.85-1.58 1.4-2.39 2.06-6.17 3.55-9.02 4.86-14.49 6.58-29.91 10.45-45.94 9.28-12.61-0.93-25.18-3.87-37.33-7.19-3.74-1.02-7.76-1.91-11.31-3.49l-0.09-0.29c-3.74-1.72-7.9-2.84-11.78-4.24-4.43-1.59-8.69-3.45-13.04-5.23 0.71-0.51 23.51 8.87 26.13 8.59 0.09 0 0.23-0.05 0.32-0.05 1.36 0.14 2.95 0.8 4.31 1.17 2.42 0.7 4.9 1.31 7.38 1.87 13.97 3.31 27.84 6.9 42.28 6.9-2.66-3.4-3.5-7.23-4.39-11.34-1.82 0.24-3.6 0.7-5.37 1.22l-0.28 3.08c-6.17-11.62-9.68-17.73-19.16-27.3-2.48-2.52-5.09-5.18-8.46-6.48-2.99-1.17-6.26-1.22-9.2 0.14-4.53 2.05-16.87 18.34-18.79 23.14-6.07-2.1-12.15-3.97-18.13-6.44-1.17-0.47-2.43-0.74-3.5-1.4-0.56-0.14-1.08-0.38-1.59-0.56l0.37-0.93c-0.89-0.23-1.87-0.15-2.85-0.42-3.46-1.03-6.87-2.57-10.18-3.87-3.46-1.36-7.29-2.48-10.52-4.35-4.67-2.7-9.53-7.46-13.69-11-3.78-3.23-7.66-6.3-11.49-9.48l83.12-0.28h26.03c4.58 0 9.25-0.18 13.83 0.1 0.61 0.04 1.03 0.18 1.59 0.41 0.98-1.3 30.19 0.43 35.09-0.69l0.33-0.33 0.14-0.56c0.38 0.56 0.65 0.89 0.7 1.49z"/>
		</clipPath>
		<linearGradient id="g3" x2="1" gradientUnits="userSpaceOnUse" gradientTransform="matrix(18.739,99.944,-221.183,41.471,421.601,320.513)">
			<stop offset="0" stop-color="#f7e4ca"/>
			<stop offset=".063" stop-color="#f7e4ca"/>
			<stop offset=".078" stop-color="#f7e5cb"/>
			<stop offset=".094" stop-color="#f7e5cc"/>
			<stop offset=".109" stop-color="#f8e6cd"/>
			<stop offset=".125" stop-color="#f8e6cd"/>
			<stop offset=".141" stop-color="#f8e6ce"/>
			<stop offset=".156" stop-color="#f8e7cf"/>
			<stop offset=".172" stop-color="#f8e7d0"/>
			<stop offset=".188" stop-color="#f8e8d0"/>
			<stop offset=".203" stop-color="#f8e8d1"/>
			<stop offset=".219" stop-color="#f9e9d2"/>
			<stop offset=".234" stop-color="#f9e9d3"/>
			<stop offset=".25" stop-color="#f9e9d3"/>
			<stop offset=".266" stop-color="#f9ead4"/>
			<stop offset=".281" stop-color="#f9ead5"/>
			<stop offset=".297" stop-color="#f9ebd6"/>
			<stop offset=".313" stop-color="#faebd6"/>
			<stop offset=".328" stop-color="#faecd7"/>
			<stop offset=".344" stop-color="#faecd8"/>
			<stop offset=".359" stop-color="#faecd8"/>
			<stop offset=".375" stop-color="#faedd9"/>
			<stop offset=".391" stop-color="#faedda"/>
			<stop offset=".393" stop-color="#faeedb"/>
			<stop offset=".406" stop-color="#fbeedb"/>
			<stop offset=".422" stop-color="#fbeedb"/>
			<stop offset=".438" stop-color="#fbeedc"/>
			<stop offset=".453" stop-color="#fbefdd"/>
			<stop offset=".469" stop-color="#fbefde"/>
			<stop offset=".484" stop-color="#fbf0de"/>
			<stop offset=".5" stop-color="#fbf0df"/>
			<stop offset=".516" stop-color="#fcf1e0"/>
			<stop offset=".531" stop-color="#fcf1e1"/>
			<stop offset=".547" stop-color="#fcf1e1"/>
			<stop offset=".563" stop-color="#fcf2e2"/>
			<stop offset=".578" stop-color="#fcf2e3"/>
			<stop offset=".594" stop-color="#fcf3e3"/>
			<stop offset=".607" stop-color="#fdf3e4"/>
			<stop offset=".609" stop-color="#fdf3e5"/>
			<stop offset=".625" stop-color="#fdf4e5"/>
			<stop offset=".641" stop-color="#fdf4e6"/>
			<stop offset=".656" stop-color="#fdf4e6"/>
			<stop offset=".672" stop-color="#fdf5e7"/>
			<stop offset=".688" stop-color="#fdf5e8"/>
			<stop offset=".703" stop-color="#fdf6e9"/>
			<stop offset=".719" stop-color="#fef6e9"/>
			<stop offset=".734" stop-color="#fef7ea"/>
			<stop offset=".75" stop-color="#fef7eb"/>
			<stop offset=".766" stop-color="#fef7eb"/>
			<stop offset=".781" stop-color="#fef8ec"/>
			<stop offset=".797" stop-color="#fef8ed"/>
			<stop offset=".813" stop-color="#fff9ee"/>
			<stop offset=".828" stop-color="#fff9ee"/>
			<stop offset=".844" stop-color="#fffaef"/>
			<stop offset=".875" stop-color="#fffaf0"/>
			<stop offset="1" stop-color="#fffaf0"/>
		</linearGradient>
	</defs>
	<style>
		.s0 { fill: #2b2529 } 
		.s1 { fill: #6fa5a5 } 
		.s2 { fill: #322931 } 
		.s3 { fill: #f7f2e6 } 
		.s4 { fill: #92b8b9 } 
		.s5 { fill: #fdfcf6 } 
		.s6 { fill: #fdba6e } 
		.s7 { fill: #fda86c } 
		.s8 { fill: #ffe2b2 } 
		.s9 { fill: #0b0607 } 
		.s10 { fill: #ffe9ba } 
		.s11 { fill: #fbc392 } 
		.s12 { fill: #381311 } 
		.s13 { fill: #6b6d70 } 
		.s14 { fill: #f5d4bc } 
		.s15 { fill: #f0805e } 
		.s16 { fill: url(#g1) } 
		.s17 { fill: url(#g2) } 
		.s18 { fill: url(#g3) } 
	</style>
	<g id="5ef798b5d5">
		<path class="s0" d="m326 132.6c0.6-0.1 0.7-0.2 1.1-0.7 0.2 0.8 0.5 1.6 0.7 2.5-0.1-0.1-0.1-0.1-0.1-0.1-0.4-0.2-0.8-0.3-1.2-0.6z"/>
		<path class="s0" d="m295.2 145.5c1.7-0.4 3.3-0.7 4.9-1.1-0.1 0.1-0.2 0.2-0.2 0.3-0.3 0.2-0.5 0.4-0.8 0.5l-0.1 0.5c0.3 0.1 0.7 0.4 1 0.5l-0.1 0.2c-1.6-0.2-3.1-0.6-4.7-0.9z"/>
		<path class="s1" d="m273.4 88.8c1.4 0.1 2.9 0.1 4.4 0.4 0.4 0.2 0.6 0.5 0.9 0.8l-0.1 0.5c-0.4 0.2-0.8 0.6-1.2 0.9l-0.8 0.3c0 0.5-0.1 0.3 0.2 0.7 0.8 0.7 2 1.2 3 1.7 2.8 1.3 4.9 2 8 2.2 1.2 0.1 2.4 0 3.5 0.3-1.5 0.6-3 1.1-4.3 2.1q-1.1-0.1-2.1 0c-2.4 0.7-18.4 0.1-22 0 3.5-3 6.7-7.7 10.5-9.9z"/>
		<path class="s2" d="m239.5 73.4c9.4-2.7 18.2-2.7 27.6-0.2 2 0.6 4.3 1 6.2 2q0.2 0.1 0.2 0.2l-2.6-0.7c4.7 2 9.6 3.9 14.1 6.3 17.2 9.6 31.8 25.7 39.3 43.9 0.9 2.3 1.9 4.7 2.8 7-0.4 0.5-0.5 0.6-1.1 0.7-3.4-3.2-7.3-6.2-11.3-8.6-3.5-2.1-16.1-6.2-17.5-9.3l0.2-0.3c1.7-0.6 5 0.6 6.8 1-2.3-1-10.3-4.2-11.5-6l1.5-0.2c-0.7-0.8-1.5-1.1-2.3-1.7l0.1-0.2c-1.2-0.5-2-0.8-3-1.8 2.6-0.4 5.3-0.5 7.9-0.7 1.8-1.2 9.2 1.1 10.4 0.6-2.1-1.4-7.6-1.4-10.3-2.3-0.1-0.1-0.1-0.1-0.2-0.1-0.8-0.4-2-0.4-2.8-0.5-3.7-0.6-6.1-1.4-9.1-3.8 0.7 0 1.4 0 2.1 0.1 1.3-1 2.8-1.6 4.3-2.2-1-0.3-2.3-0.2-3.4-0.3-3.1-0.2-5.2-0.8-8.1-2.1-0.9-0.5-2.2-1-2.9-1.8-0.4-0.3-0.3-0.2-0.3-0.7l0.9-0.3c0.3-0.3 0.8-0.6 1.2-0.9v-0.4c-0.3-0.3-0.5-0.6-0.8-0.9-1.5-0.2-3-0.2-4.5-0.4-5-0.7-9.9-0.3-14.8-1 8.1-2.3 16.3-3.5 24.7-3.5-2.1-0.6-4.1-1.1-6.3-1.3-2.9-0.2-22.5-0.5-23.6-1.4 1.6-1.7 12.7-2.3 15.4-2.6-4.7-1.7-9.9-1.9-14.9-2.6-4.7-0.7-9.8-1.7-14.4-3z"/>
		<path class="s3" d="m298 108.7l2.4 0.6-0.6 0.9-2.1-0.5z"/>
		<path class="s3" d="m292 107.3c2 0.5 4 1 6 1.4l-0.2 1c-1.2-0.2-2.4-0.4-3.6-0.5-0.7-0.8-1.5-1.1-2.3-1.7z"/>
		<path class="s4" d="m277.8 89.2c1.5 0.1 4-0.1 5.2 0.4l-0.3 0.3c0.1 0.3 0.3 0.6 0.6 0.9-2 0.2-4 0.3-5.9 0.6 0.4-0.3 0.8-0.6 1.2-0.9l0.1-0.5q-0.4-0.4-0.9-0.8z"/>
		<path class="s5" d="m296.8 102.9c5.2 0.3 11.1 1.7 15.6 4.4-3.2-0.8-6.3-1.7-9.5-2.1-2-0.2-3.9-0.2-6-0.4 1.8-1.3 9.2 1.1 10.4 0.6-2.1-1.4-7.6-1.5-10.3-2.4-0.1 0-0.1 0-0.2-0.1z"/>
		<path class="s5" d="m283.1 89.6c2 0.1 4 0.3 6.1 0.6 3.2 0.5 6.1 1.1 9 2.6-3.4-0.8-6.7-1.4-10.1-1.8-1.6-0.2-3.2-0.2-4.8-0.2-0.2-0.3-0.4-0.6-0.6-0.9z"/>
		<path class="s3" d="m300.4 109.3c6.1 1.4 12.7 3.8 17.6 7.9-6.1-2.8-11.6-5.6-18.2-7z"/>
		<path class="s5" d="m291.3 96.6c2.2 0.1 4.3 0.2 6.4 0.5 2.1 0.3 4.2 0.6 6.3 1.1-2.5 0.3-5 0.2-7.6 0.3-3.1 0.1-6.2 0.4-9.4 0.2 1.3-1 2.9-1.5 4.3-2.1z"/>
		<g id="Clip-Path" clip-path="url(#cp1)">
			<g>
				<path class="s6" d="m585.9 246.9l0.2-0.1c2.4 5.3 2.9 11.5 5.7 16.6 0-1.9 0-3.8-0.2-5.7l46.9-0.1c-0.8 14-2.5 29.5-6.1 43-5.6 0-50.8-0.5-52.8 0.2-4.2-15.1-10.1-29-16.7-43.1 8.5-0.1 17.2 0.4 25.6-0.2l0.2-0.3c0.1-3.2-1.6-7.3-2.8-10.3z"/>
			</g>
		</g>
		<g id="Clip-Path" clip-path="url(#cp2)">
			<g>
				<path class="s6" d="m227.2 257.6c1.6-4.4 3.4-9.3 6-13.3l0.5 0.1-0.3-0.3 0.1-0.1c0 0.4 0 0.5-0.1 0.9-0.2 0.4-0.3 0.6-0.3 1l0.4 0.3c9.6-0.3 19.3-0.2 28.9-0.2 5.8 0 11.7-0.3 17.4 0.1-1.3 3.8-2.7 7.6-3.7 11.5-4.1 14.1-6.9 28.3-8.9 42.8-6.2-0.4-12.6-0.1-18.8-0.1q-19.4 0-38.8 0.1c-4-13.7-6-28.6-6.5-42.9l14.6 0.1c2.9 0 6 0.1 8.9-0.1z"/>
			</g>
		</g>
		<path class="s3" d="m227.2 257.6c1.6-4.4 3.4-9.3 6-13.3l0.5 0.1-0.3-0.3 0.1-0.1c0 0.4 0 0.5-0.1 0.9-0.2 0.4-0.3 0.6-0.3 1l0.4 0.3c9.6-0.3 19.3-0.2 28.9-0.2 5.8 0 11.7-0.3 17.4 0.1-1.3 3.8-2.7 7.6-3.7 11.5-11.2-0.2-22.5-0.1-33.6-0.1-5 0.2-10.4 0.6-15.3 0.1z"/>
		<g id="Clip-Path" clip-path="url(#cp3)">
			<g>
				<path class="s1" d="m312.7 59.9c11.5-6.1 22.9-11.9 35.2-16.5q2-0.7 4-1.4c1.4-0.5 2.8-0.9 4.2-1.4q2-0.6 4.1-1.2c1.4-0.4 2.8-0.8 4.2-1.2q2.1-0.6 4.2-1.1 2.1-0.5 4.2-1 2.1-0.5 4.2-0.9 2.1-0.4 4.2-0.9c1.4-0.2 2.9-0.5 4.3-0.7 1.4-0.2 2.8-0.5 4.2-0.7 1.5-0.2 2.9-0.4 4.3-0.5 1.5-0.2 2.9-0.3 4.3-0.5 1.5-0.2 2.9-0.3 4.3-0.5q2.2-0.2 4.3-0.3c1.5-0.1 2.9-0.2 4.3-0.2q2.2-0.1 4.4-0.2 2.2 0 4.3 0 2.2 0 4.4 0c1.4 0.1 2.9 0.1 4.3 0.2 1.5 0 2.9 0.1 4.3 0.2q2.2 0.1 4.3 0.2c1.5 0.1 2.9 0.3 4.3 0.4 1.5 0.2 2.9 0.3 4.3 0.5 1.5 0.2 2.9 0.4 4.3 0.5 1.5 0.2 2.9 0.5 4.3 0.7 1.4 0.2 2.9 0.5 4.3 0.8 1.4 0.2 2.8 0.5 4.2 0.8 1.4 0.3 2.8 0.6 4.3 0.9q2.1 0.5 4.2 1 2.1 0.5 4.2 1 2.1 0.6 4.1 1.2c1.4 0.4 2.8 0.8 4.2 1.3q5.3 1.6 10.5 3.5c3.5 1.4 6.9 2.7 10.3 4.2q5.1 2.1 10.2 4.6c3.3 1.6 6.6 3.3 9.9 5.1 2.6 1.5 5.5 2.9 7.9 4.6l-146.6-0.1h-62.2c-2.5 0-5.1-0.1-7.6 0.1-0.4-0.2-0.9-0.5-1.3-0.8-0.3-0.6-1.4-1.1-2-1.6z"/>
			</g>
		</g>
		<path class="s1" d="m324.7 69.2l120.3-0.1h67.5c9.7 0 19.3-0.1 29 0 12.7 7.6 26.2 19.4 36.8 29.8h-126.2-44.7c-8.6 0-17.3 0.2-25.9-0.2 1.8-1 4.9-1.8 6.3-3.4l-0.1-0.4-0.8-0.1c-0.5-0.2-0.7-0.2-1-0.6l0.1-0.7c3.5-1 8.1-3.4 10.9-5.6-0.7 0.1-7.6 0.8-7.9 0.8 1.9-0.9 4.1-1.2 6.1-1.8 2.5-0.8 4.9-1.9 7.3-3.1-1.5 0.1-2.9 0-4.4 0 2.9-1.2 5.7-2.6 8.5-4 4.3-2 8.6-4 12.8-6.2-2.7 0.4-5.4 0.3-8.1 0.6-6.1 0.7-18.7 3.3-23.8 6.2-1.3 0.7-2.3 1.9-3.3 2.9l2.1-2.9c-4.8 1.5-6.5 3.2-9.7 6.8 0.6-1.2 1.3-2.4 2-3.5-3.5 1.4-5.7 3.6-8 6.5l1.4-3.6c-5.1 3-4.8 5.2-7.6 9.6-0.1 0-0.1 0.1-0.2 0.1 0.6-2.3 1.2-4.5 2-6.8-1.5 1.1-2.8 2.5-4.3 3.7-0.9 0.3-1.5 1-2.3 1.6-1.6 0.8-2.5 2.3-3.7 3.6-4.1 0-8.2 0-12.3 0-0.1-0.7-0.2-1.4-0.4-2.1-0.2-0.8-0.3-1.8-0.8-2.5l-0.3 0.1c-0.1 0.7 0 1.4-0.3 2l-0.1-1c-0.3-2.3-1-4.3-1.8-6.5-0.1 1.4-0.5 4.2-0.2 5.5 0 0.2 0.1 0.3 0.2 0.4l-0.3-0.1v0.7c-0.9-1.3-0.6-5.6-1.1-7.5-0.4-1.9-1.3-3.5-2.3-5.1-0.1 0.7-0.1 3.2-0.6 3.6-0.1-1.3 0-2.6 0.1-4-0.5-1-1.2-1.9-1.8-2.8-0.2 1.2-0.3 2.5-0.5 3.7-0.6-4.9-2-7.5-5.4-11 0.4 1.8 1 3.4 1.2 5.3-1.5-2.8-1.8-5.7-4.4-7.9z"/>
		<g id="Clip-Path" clip-path="url(#cp4)">
			<g>
				<path class="s2" d="m284.2 54.2c11.3 0.2 17.6 2.2 26.6 8.8l0.1-0.3c-1.1-3.4-4.1-5.3-6.4-7.7 3.1 1.1 5.6 3.1 8.2 4.9l0.2 0.2c0.6 0.4 1.7 1 2.1 1.6 0.4 0.2 0.8 0.6 1.2 0.7 2.3 1.4 4.8 3.3 6.4 5.5 0.3 0.5 1.3 3.1 1.5 3.2 0-0.5-0.1-1.1-0.2-1.6 0.5-0.4 0.2-0.3 0.8-0.3 2.6 2.2 2.9 5.1 4.3 8-0.1-1.8-0.8-3.4-1.2-5.3 3.4 3.5 4.8 6.2 5.5 11.1 0.1-1.3 0.3-2.5 0.4-3.7 0.7 0.9 1.4 1.8 1.9 2.8-0.1 1.3-0.2 2.6-0.1 4 0.5-0.5 0.5-3 0.5-3.7 1 1.7 1.9 3.3 2.4 5.2 0.4 1.8 0.1 6.2 1.1 7.5v-0.7h0.2c0-0.1-0.1-0.2-0.2-0.3-0.3-1.4 0.1-4.2 0.3-5.6 0.8 2.2 1.4 4.2 1.7 6.5l0.2 1c0.2-0.6 0.2-1.3 0.2-1.9l0.3-0.2c0.5 0.8 0.6 1.7 0.9 2.6 0.1 0.6 0.3 1.3 0.3 2 4.2 0 8.2 0 12.3 0 1.3-1.2 2.1-2.8 3.8-3.6 0.7-0.7 1.3-1.3 2.3-1.6 1.4-1.2 2.7-2.6 4.3-3.6-0.9 2.2-1.4 4.5-2 6.8 0-0.1 0.1-0.2 0.1-0.2 2.9-4.4 2.6-6.5 7.6-9.6l-1.3 3.6c2.3-2.9 4.4-5.1 7.9-6.5-0.6 1.2-1.3 2.3-2 3.5 3.3-3.6 5-5.2 9.8-6.8l-2.2 2.9c1.1-1 2.1-2.1 3.3-2.8 5.2-2.9 17.8-5.5 23.8-6.2 2.7-0.4 5.4-0.3 8.1-0.6-4.2 2.2-8.5 4.2-12.8 6.2-2.8 1.3-5.6 2.8-8.5 3.9 1.5 0 3 0.1 4.5 0-2.4 1.2-4.8 2.4-7.4 3.2-1.9 0.6-4.1 0.8-6 1.7 0.2 0.1 7.1-0.7 7.8-0.8-2.7 2.3-7.4 4.7-10.8 5.6l-0.2 0.7c0.3 0.4 0.6 0.4 1.1 0.6l0.7 0.2 0.1 0.3c-1.3 1.6-4.4 2.5-6.3 3.5-4.3 1.3-9.6 2.5-13.5 4.7 3.6-1 7-1.7 10.7-1.7-2.2 1.5-4.6 2.7-7 3.9 4.1 0.3 8.3 0.2 12.4 0.2h22.3c16.7 0 33.5 0.4 50.2 0.1 0.4 0 0.8-0.1 1.2-0.2l-0.4-0.4c0.4-0.3 0.7-0.2 1.1-0.1 1.4 0.1 2.8 0.6 4.1 0.9 5-0.5 10.3-0.2 15.3-0.2h29.3 28.1c4.7 0 10-0.5 14.6 0.3l1.4-0.2c3.3-0.4 6.9-0.2 10.2-0.2 7.4 0 14.8 0.2 22.2 0 6.9 7.2 13.8 15.3 19.1 23.7 0 0.1 0.1 0.1 0.2 0.2 1.9 2.2 6.8 2.3 7.8 4.1-0.8 1-3.7 1.1-5 1.3 0.9 1.4 1.8 2.8 2.5 4.4-5.3-0.1-11.6 0.3-16.7-0.3-2.1 0.9-4.2 1.6-6.4 1.9-0.1 0-0.2 0-0.3 0.1-1.1 0.1-2.2-0.5-3.4-0.3h0.2c0.8 0.2 2.1 0.4 2.8 0.9l-0.4 0.1c-1.8 1.2-3.5 1.9-5.6 2.4-0.1 0.1-0.2 0.1-0.3 0.1-0.6 0.2-1.5 0-2.2-0.2l0.5 0.3-0.5-0.3c0.2 0.4 0.5 0.7 0.9 0.9l-0.2 0.2-0.1-0.1c-2.2 1.4-4.1 0.7-6.4 0.9l-0.2 0.1c-0.7 0.1-1.2 0.1-1.9 0.1l-0.2 0.2 0.3 0.1-0.1 0.2 3 1.5c3.8-1.4 34.8-0.7 41.5-0.8 7.7 14.4 14.2 29.2 18.5 45-5.8-0.4-11.6-0.2-17.4-0.2-4.1 0-8.3-0.3-12.4 0q2.1 2.2 4.2 4.3c-2.8-1.2-5.1-2.6-7.5-4.3 1.9 1.9 3.9 3.8 5.8 5.9 1.8 2.2 3.4 4.5 5.2 6.6 2.2-0.8 20.7-0.2 24.9-0.3 0.8 5.9 2.1 11.7 2.9 17.6q1.6 11.9 1.8 23.9c-5.4 0-47.2-0.3-48.9 0.4 0.9 3.8 1.6 7.4 2 11.3 0.2 1.8 0.1 3.8 0.2 5.7-2.8-5.2-3.3-11.3-5.7-16.6l-0.2-0.1c1.2 3 2.9 7.1 2.8 10.3l-0.2 0.3c-8.4 0.6-17.1 0.2-25.6 0.2 6.7 14.1 12.5 28 16.7 43.1 0.9 3 1.7 6.1 2.6 9.1 5.3 0 46.4-0.3 47.4 0.1 0.4 0.6 0.2 0.8 0 1.5-3.3 10.3-6.7 20.9-11.5 30.7-0.3 0.5-0.5 1.1-0.9 1.5-0.6 0.4-26.5 0.3-29.4 0.3 0.2 5 0.5 9.9 0.7 14.9 0.1 5.3 0.1 10.5 0 15.7 3.3 0.1 6.7 0 10.1 0-0.3 0.7-0.7 1.4-1.1 2.1-3 0-6.1 0-9.2 0.1-1.3 21.4-6 38.3-11.9 58.6q0.7-0.4 1.4-0.8c3-1.6 7-2.8 10.4-1.8 0 0.4-1.1 0.7-1.5 0.8-4.1 1.8-7.5 3.5-10.7 6.8 2.9-0.2 5.4-0.6 8.1 0.8 0.6 0.8 1 1.7 1.4 2.6 1.2-0.5 2.5-1.1 3.9-1.2 2.4-0.3 3.9 0.9 5.6 2.4 2.1 0 4.2-0.3 6.3-0.4 1.4-1 3.2-2 5-2.1 2.3-0.2 3.5 0.7 5 2.1 4-0.7 8.6 1.9 12.3 3.3-6.8 0.4-13.8 0.1-20.6 0.1-21.8 0-43.7-0.8-65.4 1.7-13 1.6-26.3 4.1-39.1 7.1-10.4 2.4-20.7 5.2-31.1 7.1-3.8 0.6-7.5 1.2-11.3 1.7-3.8 0.5-7.5 0.9-11.3 1.2q-5.7 0.4-11.4 0.6-5.6 0.1-11.4 0c-12.3-0.4-24.4-1.5-36.6-3.3-23-3.6-45.7-9.4-68.8-12.7-9.6-1.3-19.3-2.5-28.9-3-19.5-1-39.1-0.3-58.6-0.4 2.9-1.7 5-2.4 8.1-2.9 0.7-0.1 1.8-0.1 2.3-0.4 1.1-0.4 1.1-2.2 3.2-2.6 2.1-0.3 4.1 1 5.7 2.2 2.1-1.3 3.9-3.3 6.3-4.1 2.5-0.8 4.7 0.2 7 1.3 1.7-1 3.1-2.3 5.1-2.6 3.2-0.5 5.7 2.7 8 4.4 1.8-0.5 3.5-0.8 5.3-0.9-3.4-5.5-6.8-8.4-13-10.2l-0.1-0.2c0.3-0.3 0.6-0.4 1-0.5 5.5-1.4 10 0.8 14.7 3.6-3.9-6-9.3-12.6-15.7-16.1-1.3-0.7-5.3-1.6-6-2.5 0.2-0.2 0.2-0.2 0.5-0.3 0.6-0.2 1.5 0 2.1 0.1 6.2 0.5 12.7 5 17.7 8.5-4.1-8.3-5.2-15.3-14.3-19.9-1.6-0.8-3.3-1.2-4.9-1.9 0.2-0.3 0.3-0.3 0.6-0.3 4.6-0.7 9.1 2.4 12.6 4.9-0.5-2.2-1.2-4.4-1.8-6.7-0.9-3.8-1.7-7.6-2.6-11.4-0.8-3.6-1.2-9.1-2.5-12.3-3.3 0-22 0.5-23.6-0.3 0-0.5-0.1-0.8 0.1-1.3 0.4-0.3 0.8-0.5 1.3-0.5 1.9-0.2 4.1 0.1 6 0.1h16c-0.5-4.4-1.3-8.8-1.8-13.2-0.7-6.1-1.1-12-1.3-18l-29.5-0.1c-2.3 0-8.9 0.4-10.8-0.1-0.7-0.1-0.8-1-1.1-1.5-0.3-1.9-1.8-4.3-2.6-6.2-1.6-3.8-3.2-7.7-4.7-11.6-1.6-4.1-2.6-8.5-4-12.8-0.2-0.5-0.3-0.9-0.2-1.4 1.3-0.5 48-0.2 54.2 0q0.5-4.8 1-9.5c2-14.6 4.8-28.8 8.9-42.9 1.1-3.9 2.4-7.7 3.8-11.5-5.8-0.4-11.7-0.1-17.4-0.1-9.7 0-19.3 0-29 0.2l-0.6-0.5c0.1-0.4 0.1-0.6 0.3-1 0.2-0.4 0.2-0.5 0.1-0.9l-0.1 0.1 0.3 0.3-0.5-0.1c-2.6 4-4.4 8.8-6 13.3h-0.5c0-3.8 0.8-7.6 1.7-11.2-1.9-0.7-21.7-0.2-25.4-0.2 0.2-10.2 1.2-20.4 2.8-30.5 0.5-3.7 1-7.4 1.9-11l12.2 0.1c1-2.1 2.4-4 3.4-6l-0.5-0.4c0.4-3.3 4.5-7.9 7-10l-0.1-0.2-0.2 0.2h-0.4c-1.3 0.9-2.5 2.3-3.5 3.5l-0.3 0.5c-2.1 0.9-11.9 0.4-14.9 0.4 1.7-4.5 3-9.2 4.5-13.7 3.6-10.3 9-22.2 14.8-31.4 17 0.1 34 0.1 51-0.3 5.8-0.1 11.6 0.3 17.4 0 2.2-0.5 5 0.6 7.2 1.1l0.3 0.3 0.6-0.2-0.1-0.1c-1.8-0.8-3.8-1-5.6-1.7l-0.4-0.2 0.1-0.2q-0.6-0.2-1.1-0.5l0.1-0.5c0.3-0.2 0.6-0.3 0.8-0.5 0.1 0 0.2-0.1 0.3-0.2 3.1-1.5 7.6-1.6 11.1-1.9-7.2-1.9-14.2 0.7-21.4 0.7-2.6 0-4.9-0.7-7.3-1.2-1-0.2-2.1-0.3-3-0.6-0.8-0.1-1.4-0.1-2.1-0.4-1.9 0.3-6.3-1.2-8.3-1.7-3.3 1.5-29.2 0.7-35.2 0.8 1-1.2 2.1-2.4 3.1-3.6 1.3-1.9 3.5-3.6 5.4-5 0.8-0.6 1.7-1.1 2.3-1.8-2.7 0.6-6.6 4.9-8.9 6.7-2.4 0.4-5 0.4-7.5 0.6-6.2 0.5-11.9 1.5-17.8 3.6 3.5-5.1 8.4-9.4 13.4-13 5.1-3.8 15.8-9.5 22.4-8.4 0.6 0.1 1.2 0.2 1.9 0.2-1-0.5-2.2-0.6-3.3-0.8l1.8-1.1c3.5-3.9 6.8-8.1 10.6-11.8l31.8-0.2c0.9 0.9 1.8 1.3 3 1.7l-0.1 0.3c0.8 0.6 1.6 0.9 2.3 1.6l-1.5 0.2c1.2 1.9 9.2 5.1 11.5 6.1-1.9-0.4-5.1-1.7-6.8-1.1l-0.2 0.4c1.4 2.9 14 7.1 17.5 9.2 4 2.4 7.8 5.5 11.2 8.7l0.6 1c0.4 0.3 0.8 0.4 1.2 0.6 0.1 0 0.1 0 0.1 0.1 2 4.6 2.5 9.7 4.1 14.4q-0.2-2.8-0.7-5.5c-1.1-5.6-3-11.1-5.2-16.4-7.3-18.3-19-32.7-35.5-43.5-3.2-2-6.5-3.5-9.9-5.1-1.9-0.9-4.1-1.7-5.9-2.9-1.2-0.8-2-2.2-3.1-3.2-2.7-2.1-5.7-4.1-8.6-6 1.8 0.4 3.5 1.2 5.2 1.9 6.2 2.7 11.5 5.9 17 9.8-2.5-4.9-5.3-7.5-9.6-10.8 4.8 1.3 9.6 3.3 12.7 7.5 1.2 1.8 2.2 3.7 3.3 5.4-0.7-2.7-1.8-4.5-3.6-6.6l0.1-0.2 0.6 0.3c2.7-0.6 5.5-3.3 7.9-4.6 1.1-0.7 2.3-1.2 3.6-1.6-1.2-1.3-2.5-2.3-3.7-3.5 1.7 0.5 3.8 1.3 5.6 1.4-1.8-1.3-4.5-1.3-6.4-2.4-4.4-2.5-8.2-6.1-11.8-8.9z"/>
			</g>
		</g>
		<path class="s7" d="m384.2 121.9l0.9 1.5-0.9 0.3c-0.2-0.5-0.4-0.7-0.9-1.1z"/>
		<path class="s8" d="m330.5 235.7l1 0.2-0.2 1.4-1 0.3z"/>
		<path class="s7" d="m376.6 147.7l1.6 0.4-0.6 1c-0.5-0.2-1.1-0.4-1.6-0.5 0.2-0.2 0.4-0.6 0.6-0.9z"/>
		<path class="s8" d="m505.7 146.9l1.1 0.1c0 0.2 0.2 0.6 0.3 0.9l-0.8 1.4z"/>
		<path class="s9" d="m341.9 94.1l0.3-0.2c0.5 0.8 0.6 1.7 0.9 2.6l-0.7 0.1-0.3-0.3c0-0.8-0.1-1.5-0.2-2.2z"/>
		<path class="s7" d="m350.4 163.9h0.8c0.5 0.5 0.6 0.5 0.5 1.2 0 0.2 0 0.4-0.1 0.6l-1.8-0.8z"/>
		<path class="s7" d="m378.1 148.2l1.9 0.3-0.2 1.3-2.2-0.7z"/>
		<path class="s10" d="m507.1 147.9c0.5 1.4 0.2 3.2 0.1 4.8l-0.9-3.4z"/>
		<path class="s0" d="m350.8 105.7l0.8-1.7c0 0.1 0.1 0.2 0.1 0.3 0.5 0.6 1.1 0.6 1.5 1.4-0.2 0.5-0.2 0.6-0.6 1l-0.1-0.5q-0.1-0.3-0.1-0.5c-0.6-0.3-1-0.1-1.6 0z"/>
		<path class="s0" d="m261.2 155.6h-0.6l-0.1-0.3c1-0.8 2.4-1.1 3.6-1.3v0.2c-0.6 0.4-1 0.5-1.7 0.5l0.1 0.2c0.6 0.1 1.3 0.2 1.9 0.2-0.7 0.1-1.5 0.1-2.2 0.3z"/>
		<path class="s8" d="m379.8 248.8c0-0.6 0-1.1 0.1-1.7l0.5-0.2c0.1 1.1 0.3 2.2 0.3 3.3l-0.7 0.6c-0.2-0.6-0.2-1.4-0.2-2z"/>
		<path class="s10" d="m373.5 214.2l0.9 2.8-0.9 0.7c-0.2-1-0.6-1.9-0.9-2.8z"/>
		<path class="s3" d="m536.6 202.7l1.9 1.2-0.7 0.4c0 0.1-0.1 0.2-0.1 0.3 0 0.4-0.1 0.6-0.2 0.9-0.5-0.9-1.1-1.5-1.8-2.2z"/>
		<path class="s6" d="m598.2 213.4l0.5 2.3-0.2 0.4-0.4 0.1-0.7-0.5-0.3-1.9z"/>
		<path class="s11" d="m449.3 207.7l2.7-0.9c0.2 0.5 0.3 0.7 0.6 1.1-0.8 0.3-1.6 0.6-2.4 0.9z"/>
		<path class="s11" d="m383.3 122.6c0.5 0.4 0.7 0.6 0.9 1.1l-0.8 0.4q-1.7 0.7-3.4 1.5 1.3-1.3 2.6-2.5z"/>
		<path class="s11" d="m534.9 205.6c1.1 1 2.1 2 3.2 3-0.4 0.3-0.7 0.8-1.2 1.1-0.5-1.4-1.4-2.8-2-4.1z"/>
		<path class="s10" d="m560.9 219.8c0.5 1 0.8 2 1 3-0.2 0-0.3-0.1-0.5-0.2-0.7-0.5-1.4-0.7-1.9-1.2v-1.1c0.5 0.3 0.5 0.4 1.2 0.3z"/>
		<path class="s5" d="m562.8 145.6q3.7 0.2 7.5 0.6h-0.3c-0.6 0.2-1.2 0.2-1.9 0.1l-0.1 0.3 0.2 0.1-0.1 0.2c-1.8-0.4-3.5-0.9-5.3-1.3z"/>
		<path class="s7" d="m385.9 120.8l0.2 0.3-0.1 0.2c0.2 0.5 0.5 0.7 0.9 0.9-0.5 0.4-1.3 0.7-1.8 1.2l-0.9-1.5c0.5-0.4 1.2-0.7 1.7-1.1z"/>
		<path class="s11" d="m373 147.1c0.8 0 1.4 0.1 2.2 0.3l1.4 0.4c-0.2 0.3-0.4 0.6-0.6 0.9l-1.5-0.5-2-0.5z"/>
		<path class="s7" d="m344.4 163.1c2 0.1 4 0.5 6 0.8l-0.6 1c-1.8-0.6-3.6-1.1-5.4-1.8z"/>
		<path class="s5" d="m572 143.2c2.1 0.3 4.4 0.6 6.5 1.2-0.1 0-0.2 0-0.3 0-0.6 0.2-1.6 0-2.2-0.1l0.5 0.2-0.5-0.2c0.2 0.3 0.5 0.6 0.9 0.9l-0.2 0.1-0.1-0.1c-1.4-0.8-3.1-1.4-4.6-2z"/>
		<path class="s10" d="m330.5 235.7c0.2-1.4 0.4-2.9 0.6-4.4 0.2 0.6 0.3 0.8 0.8 1.1l-0.4 3.5z"/>
		<path class="s3" d="m383.3 166.4c0.8 2.2 1.7 4.4 2.1 6.6-0.5 0.3-0.5 0.5-0.7 1-0.4-2.6-0.9-5.1-1.4-7.6z"/>
		<path class="s8" d="m324.9 107.8c0.1 0.6 0.1 0.8 0.5 1.3-0.1 1.3-0.5 2.8-0.7 4.1-0.4-1.4-0.6-2.7-0.7-4.2 0.5-0.3 0.7-0.7 0.9-1.2z"/>
		<path class="s8" d="m326.2 287.7l0.1 0.3c0.3 0.9 0.4 1.6 0.4 2.5 0.2-0.4 0.2-0.8 0.3-1.2 0 1.4-0.1 2.9-0.1 4.3-0.2 0.1-0.5 0.2-0.7 0.2-0.1-0.5-0.1-1.1-0.1-1.7 0-1.4 0.1-2.9 0.1-4.4z"/>
		<path class="s5" d="m334.6 253.1l-1.9-6.9c1.1 2 2 4.1 2.8 6.3l-0.3-0.2-0.3-0.3c-0.1 0.5 0 0.7-0.3 1.1z"/>
		<path class="s8" d="m597.1 213.8c-0.1-2.3-0.3-4.7-0.1-7.1q0.7 3.3 1.1 6.7z"/>
		<path class="s10" d="m318.7 270.8l1.1-2.5c0.4 0.3 0.7 0.6 1.2 0.7l-0.7 2.5c-0.5-0.1-1.1-0.5-1.6-0.7z"/>
		<path class="s7" d="m523.4 151.8c0.3 0.5 0.5 0.9 0.6 1.4-2.1 0.8-4.1 2.1-6 3.3 1.7-1.6 3.7-3.1 5.4-4.7z"/>
		<path class="s6" d="m480.7 242.6c0.3 0.5 0.4 1 1 1.3l-0.7 2.4-0.8-0.1c-0.1-0.7-0.3-1.3-0.5-2z"/>
		<path class="s8" d="m321.1 283.9c0.2 0.5 0.5 0.9 0.9 1.3l-0.2 3c-0.2-0.6-0.5-0.9-0.7-1.4l-0.3 0.1q-0.3 0.3-0.6 0.6c-0.1 0-0.2 0.1-0.2 0.1 0.2-1.2 0.7-2.5 1.1-3.7z"/>
		<path class="s3" d="m397.3 191.5c0.1-1-0.1-2.4 0.4-3.2l0.5-0.2c0.1 1.7 0.3 3.3 0.3 5-0.4-0.3-0.8-0.5-1.2-0.8z"/>
		<path class="s12" d="m551.2 106.1l1.1 0.1v0.3l-2 1.1c-1.2-0.7-2.3-0.2-3.7-0.6 1-0.3 2.1-0.5 3.2-0.7z"/>
		<path class="s10" d="m476.7 204.7l1 0.5-0.2 4.2c-0.1-0.7-0.2-1.4-0.8-1.9-0.4 0.3-0.3 0.7-0.4 1.2l-0.4 0.1c0.2-1.4 0.5-2.8 0.8-4.1z"/>
		<path class="s11" d="m506.7 218.7l-1.1-5.1c0.8 1.5 1.4 3 2 4.6l0.4 0.8c-0.3 0.7-0.4 1.3-1 1.7-0.1-0.6-0.2-1.3-0.3-2z"/>
		<path class="s7" d="m262.2 155.4c1.6 0.1 3.2 0.1 4.7 0.2-1.8 0.7-3.7 1-5.6 1.2-0.5-0.3-0.4-0.2-0.5-0.7l0.4-0.5z"/>
		<path class="s4" d="m379 94.6c2.3-0.4 4.7-0.4 7-1.1l-0.1 0.7c0.3 0.4 0.5 0.4 1 0.6-2.6 0-5.3 0.1-7.9-0.2z"/>
		<path class="s8" d="m380 250.8l0.7-0.6c0.2 1.9 0.4 3.8 0.3 5.8l-0.1-0.2c0-0.4 0-0.7-0.2-1-0.1 0.6-0.3 1.3-0.4 1.9-0.2-2-0.2-4-0.3-5.9z"/>
		<path class="s3" d="m533.9 200.8l2.7 1.9-0.9 0.6c-0.8-0.4-1.7-0.8-2.5-1.1-0.4-0.1-0.7-0.1-1.1-0.4l0.7-0.2z"/>
		<path class="s5" d="m354 446.7c1.8-1.2 3.6-2.4 5.8-2.2v0.2l-0.7 0.1c0.5 0.1 0.9 0.1 1.4 0.1l0.4 0.4c-2.4 0.1-4.6 0.7-6.9 1.4z"/>
		<path class="s13" d="m312.9 60.1c0.6 0.5 1.7 1 2.1 1.6 0.6 0.9 1.1 1.5 1.3 2.5-0.5-0.2-0.9-0.4-1.5-0.5-0.7-0.9-1.4-2-2-3z"/>
		<path class="s8" d="m476.7 204.7c0.4-2.2 0.9-4.3 1.7-6.4 0.1 2.3-0.3 4.6-0.6 6.9z"/>
		<path class="s10" d="m345.5 217.4c0.5 0.8 0.9 1.5 1.3 2.3-0.5 0.7-0.9 0.7-1.6 0.9-0.3-0.9-0.7-1.9-1.1-2.9z"/>
		<path class="s5" d="m334.6 253.1c0.3-0.4 0.2-0.6 0.3-1.1l0.3 0.3 0.3 0.2q0.7 1.4 1.3 3c-0.6 0.2-1.1 0.4-1.7 0.5z"/>
		<path class="s12" d="m372.7 146.9c1.8-0.8 3.5-0.3 5.2 0.4 0.3 0.1 0.6 0.3 0.9 0.4 0.4 0.3 0.9 0.5 1.2 0.8l-1.9-0.3-1.5-0.4-1.4-0.4c-0.8-0.2-1.4-0.3-2.2-0.3z"/>
		<path class="s10" d="m356.4 172.1c-1.9-0.5-4.1-0.9-5.9-1.8 1.4-0.5 5.4 0.5 6.8 1.1q-0.4 0.2-0.8 0.3z"/>
		<path class="s6" d="m310.5 181.4l1.2 0.8-0.4 0.7-0.7 1.1c-0.7-0.2-1.1-0.3-1.8-0.1-0.4 0.1-0.7 0.1-1.1 0.2 0.7-0.8 1.5-1.5 2.3-2.2z"/>
		<path class="s6" d="m484.9 271.4c-0.2-2.5 0.3-4.4 1-6.8 0 2.1 0 4.3 0.1 6.4l-0.3 0.6c-0.3-0.1-0.5-0.1-0.8-0.2z"/>
		<path class="s10" d="m452 206.8c2.3-0.7 4.3-1 6.7-1-1.9 0.9-4.1 1.2-6.1 2.1-0.3-0.4-0.4-0.6-0.6-1.1z"/>
		<path class="s10" d="m321.1 283.9c0.7-1.9 1.5-3.9 2.3-5.7l0.1 0.1c-0.4 2.3-1.1 4.5-1.5 6.8-0.5-0.3-0.7-0.7-0.9-1.2z"/>
		<path class="s8" d="m547.9 204.5c1.2 2.1 2 4.4 2.7 6.7-0.5 0-0.9 0-1.4-0.1-0.5-2.1-0.9-4.3-1.3-6.6z"/>
		<path class="s8" d="m336.8 255.5l0.9 2.8-2.1 0.5-0.5-2.8c0.6-0.1 1.1-0.3 1.7-0.5z"/>
		<path class="s6" d="m345.7 205.2c0.3 0.6 0.7 1.3 1 1.9 0.1 0.9 0.4 2.2-0.3 3 0 0.1-0.1 0.2-0.2 0.2q-0.7-2.1-1.4-4.2z"/>
		<path class="s14" d="m362.2 146.6c1-0.3 2.2-0.2 3.2-0.3 2.2 0.3 4.2 0 6.4 0.5 0.3 0.1 0.6 0.1 0.9 0.1l0.3 0.2-0.5 0.6c-3.5-0.6-6.9-0.9-10.3-1.1z"/>
		<path class="s14" d="m496 160.8c1.1 0 2.1 0 3.1 0.4-1.3 0.6-5.1 0.4-7.1 0.9-0.1-0.6-0.1-0.6 0.3-1 1.2-0.5 2.4-0.3 3.7-0.3z"/>
		<path class="s8" d="m334.4 204.7c0.1 0 0.1 0.1 0.1 0.2 0.6 1.5-0.2 3 0.2 4.4 0.1-1.1-0.1-3.1 0.4-4.1h0.3c-0.2 2.3-0.4 4.6-0.7 7-0.4-0.5-0.5-0.8-0.7-1.3 0.1-2 0.3-4.1 0.4-6.2z"/>
		<path class="s8" d="m480.7 242.6c1.1-2.1 2.1-3.9 3.7-5.7-1.1 2.3-1.9 4.6-2.7 7-0.5-0.2-0.7-0.8-1-1.3z"/>
		<path class="s8" d="m374.4 217q0.7 2.6 1.4 5.3l-0.9 0.8c-0.4-1.8-0.9-3.6-1.4-5.4z"/>
		<path class="s8" d="m340.9 198.9c1.8 1.9 3.3 4.1 4.8 6.3l-0.9 0.9c-1.1-2.4-2.7-4.7-3.9-7.2z"/>
		<path class="s6" d="m570.7 234.5c0.1-2.8-0.7-5.7-0.6-8.6 0.9 2.4 1.1 5.3 2 7.8z"/>
		<path class="s3" d="m269.4 207.5l0.9 0.7-1.5 4.3-1.1 0.6-0.4-0.1c0.8-1.8 1.4-3.7 2.1-5.5z"/>
		<path class="s10" d="m376.8 230.5q0.1 0.2 0.2 0.3c0.4 0.5 0.5 1 0.6 1.6l0.1-1.7c0.6 2.1 1 4.2 1.4 6.4l-0.8 0.5z"/>
		<path class="s5" d="m332.3 120.1c0.8 1.4 1.6 2.7 2.7 4l0.1 0.5c-0.6 0.3-1.3 0.4-1.8 0.8h-0.4c0-1.8-0.3-3.5-0.6-5.3z"/>
		<path class="s8" d="m316.8 176.1c-1.7 2-3.5 4-5.1 6.1l-1.2-0.8c2-1.8 4.1-3.6 6.3-5.3z"/>
		<path class="s8" d="m316.3 233.8l1.9-2.4c0.4 0.3 0.8 0.7 1.3 1l-1.3 2.8z"/>
		<path class="s7" d="m268.1 152.1c2.8 0.1 5.4 0.4 8.1 1-2.2 0.3-4.7-0.2-7.1 0.1-0.5-0.1-0.7-0.1-1.2-0.3l0.3 0.1c-0.3-0.2-0.2-0.1-0.3-0.5z"/>
		<path class="s3" d="m314.8 63.6c0.6 0.1 0.9 0.3 1.4 0.6 0.2 0.2 0.4 0.4 0.5 0.6 1.4 1.9 2.3 3.5 3 5.7-1.7-2.2-3.4-4.4-4.9-6.9z"/>
		<path class="s8" d="m254.3 218.7l0.4-1.6c0.2 0.2 0.4 0.5 0.8 0.6l-0.2 1.3c-0.2 1.5-0.4 3-0.8 4.5-0.5-0.4-0.7-0.7-1-1.3 0.4-1.1 0.6-2.3 0.8-3.5z"/>
		<path class="s8" d="m357.3 171.4c1.7 0.6 3.2 1.4 4.7 2.2l-0.7 0.9-4.9-2.4 0.1-0.3v-0.1c0.3 0 0.5-0.2 0.8-0.3z"/>
		<path class="s3" d="m477.3 187.5c0.1-0.4 0.2-0.7 0.4-1 0.7-0.8 2-0.9 3-0.8l4.7 0.2q-4 0.8-8.1 1.6z"/>
		<path class="s5" d="m457.8 199.4c3.3-0.5 6.6-1.2 9.8-1.2-2.9 1-6 1.7-9 2.6-0.1-0.2-0.1 0 0-0.4 1.2-0.5 2.3-0.8 3.5-1-0.5-0.6-3 0.2-3.9 0.1-0.1 0-0.2-0.1-0.4-0.1z"/>
		<path class="s8" d="m343.8 216.9c-1.1-2.2-2.4-4.4-3.3-6.7 1.5 2 2.9 4 4.3 6.1l0.7 1.1-1.4 0.3z"/>
		<path class="s5" d="m299.8 81.6c0.7 0.4 1.6 1.1 2.4 1.1 1.1 2.1 1.8 4.6 2 7-1-3.1-2.2-5.6-4.4-8.1z"/>
		<path class="s8" d="m344.8 230.1l0.6 1.5c0.5 0.8 0.8 1.5 1.1 2.3-0.5-0.1-1.1 0.3-1.6 0.6-0.1 0-0.1 0-0.1 0.1l-0.6-2.4-0.6-1.6z"/>
		<path class="s5" d="m365.8 159.7c2 2.8 3.5 5.7 4.9 8.9-0.7 0-0.9 0-1.5-0.3-0.9-3-2-5.8-3.4-8.6z"/>
		<path class="s10" d="m380.3 256.6c0.1-0.6 0.3-1.2 0.4-1.9 0.2 0.4 0.1 0.7 0.2 1l0.1 0.2q0.2 4.3-0.3 8.5l-0.7-0.6c0.1-2.4 0.2-4.8 0.3-7.2z"/>
		<path class="s8" d="m423 215.5l0.4 2.3c0.2 0.9 0.4 1.9 0.4 2.8l-0.1 0.2c-0.9-0.5-1.5-0.8-2-1.7l0.1-1.1 0.1-1.5c0.6-0.3 0.8-0.4 1.1-1z"/>
		<path class="s8" d="m327.2 112l0.3-0.5c0.6 0 0.6 0.1 1 0.6l0.2 0.7c-0.5 1.2-0.4 5.7-0.6 7.2-0.6-2.7-0.7-5.3-0.9-8z"/>
		<path class="s6" d="m435 242.2c1.4-2.2 3.3-5.2 5.4-6.7-1.2 1.7-2.4 3.4-3.4 5.2-0.6 1.1-1 2.2-1.6 3.2 0-0.8 0-1.1-0.4-1.7z"/>
		<path class="s8" d="m254.7 217.1c0.2-1.4 0.7-7.9 1.4-8.6 0.4 2.9-0.2 6.3-0.7 9.2-0.3-0.1-0.5-0.3-0.7-0.6z"/>
		<path class="s5" d="m359.5 94.9c0.7-0.7 1.3-1.4 2.3-1.6-1.7 2.6-3 5.4-4.2 8.3 0.2-2.6 0.6-4.4 1.9-6.7z"/>
		<path class="s8" d="m317.3 274.2q0.7-1.7 1.4-3.4c0.5 0.2 1.1 0.5 1.6 0.7-0.3 1-0.6 2.1-0.8 3.1l-0.3-0.2c-0.1 0-0.2 0.1-0.3 0.1-0.6 0.2-1.1-0.1-1.6-0.3z"/>
		<path class="s8" d="m481.5 257.4c0.8-2.6 2.1-4.4 3.7-6.5-0.7 2-1.5 4.1-1.8 6.2 0 0 0 0 0 0.1-0.7 0.1-1.3 0.2-1.9 0.2z"/>
		<path class="s3" d="m320.5 139.2c2.3 1.9 4 3.8 5.4 6.4-1.6-1.5-3.2-2.8-5-3.9-0.2-0.8-0.3-1.7-0.4-2.5z"/>
		<path class="s5" d="m574.3 138.4c3.7 0.5 7.4 1.6 10.9 2.7-0.1 0.1-0.2 0.1-0.3 0.1-1.1 0.2-2.3-0.4-3.5-0.3l0.2 0.1c0.9 0.1 2.1 0.3 2.9 0.9l-0.4 0.1c-3.3-0.7-6.7-2.4-9.8-3.6z"/>
		<path class="s5" d="m306.8 87.2c0.6 0 1 0.3 1.6 0.7 0.3 0.1 0.2 0.1 0.5 0.1 1.6 2.3 1.9 4.7 2.2 7.4-1.3-3-2.3-5.6-4.3-8.2z"/>
		<path class="s10" d="m339.5 220.6c2.3 2.6 3.8 6.4 5.3 9.5l-1.2 0.5c-1.1-3.5-2.6-6.7-4.1-10z"/>
		<path class="s8" d="m491.5 254.8c2.3 2.9 3.8 5.8 5.4 9.1l-0.4 0.1-0.4-0.2-0.3 0.5c-1.3-3.3-2.8-6.3-4.3-9.5z"/>
		<path class="s3" d="m406.8 202.3c-0.5-2.9 0.1-6.3 0.8-9.1 0.4 3.2-0.2 6.6 0.1 9.9l-0.2 0.2c-0.6-0.2-0.5-0.4-0.7-1z"/>
		<path class="s10" d="m454.9 227.7c-0.1-3.2-0.1-6.1 0.5-9.2 0 4 0.3 7.8 0.7 11.8l-0.2 0.8c-0.2-0.3-0.3-0.5-0.2-0.8 0-0.5 0-0.2-0.1-0.7l-0.2 1.4-0.2-0.1c-0.2-1.1-0.2-2.2-0.3-3.2z"/>
		<path class="s8" d="m565.9 226.4c-0.6-2.5-0.6-5.8 0-8.3 0.1 2.4 0.4 4.9 0.7 7.3 0.4 1.2 0.7 2.2 1 3.4-0.4 0.1-0.8 0.1-1.3 0.1z"/>
		<path class="s10" d="m541.3 180.7c2.4 2.9 4.6 5.9 7.9 7.8l-1.4 0.1c-1-0.3-1.8-0.9-2.7-1.4-1.2-2.2-2.6-4.3-3.8-6.5z"/>
		<path class="s8" d="m558 210.9c1.2 2.8 2.2 6 2.9 8.9l-0.2 0.8c-0.7 0.2-0.6 0-1.2-0.3z"/>
		<path class="s5" d="m344 432.7q0.1 0.2 0 0.3c-0.3 1.1-1.6 1.9-2.1 2.9 0.6-0.4 2-2.1 2.5-2.2l0.2 0.3c-2.4 2.6-4.1 5.3-5.9 8.3 0.8-3.5 2.5-7.2 5.3-9.6z"/>
		<path class="s5" d="m384.7 174c0.2-0.5 0.2-0.7 0.7-1 0.8 2.9 1.2 5.8 2 8.6-0.9-0.6-1.2-1.1-1.7-2.1-0.5-1.8-0.7-3.7-1-5.5z"/>
		<path class="s3" d="m524 193.6c3.3 1.4 5.5 4.6 8.1 5.7l-0.1 1.6-0.7-0.1c-2.3-2.6-4.6-4.9-7.3-7.2z"/>
		<path class="s3" d="m389.7 168.4c2.2 3.8 3 8.4 3 12.8 0-0.2 0-0.3-0.1-0.4 0-0.1-0.1-0.2-0.2-0.3h0.2l-0.2-0.5-0.2 0.8-0.3 0.2c-0.2-4.4-1-8.4-2.2-12.6z"/>
		<path class="s10" d="m371.4 228.2c-1.1 4.3-3.1 8.3-4 12.5-0.5-0.6-0.6-1-0.7-1.8 1.5-3.6 2.9-7.2 4.7-10.7z"/>
		<path class="s7" d="m481.4 137.8c3.6 1.5 7.4 3 10.4 5.6-3.6-1.6-7.2-3.2-10.9-4.3 0.8-0.4 2.5 0.3 3.4 0.5l0.1-0.1c-1.1-0.4-2.2-0.9-3.3-1.5z"/>
		<path class="s10" d="m321.1 265.7c0.8-2.3 1.9-4.3 3.4-6.2-0.8 2.2-1.5 4.7-2.6 6.8l-0.8 2.8c-0.6-0.1-0.8-0.5-1.2-0.8 0.3-0.9 0.7-1.7 1.2-2.6z"/>
		<path class="s8" d="m330.1 114.6c0.2 0.1 0.1 0.1 0.3 0.3 2.2 2.5 1.3 7.2 1 10.4l-0.1 0.2c-0.5-0.8-0.8-9.2-1.2-10.9z"/>
		<path class="s6" d="m321.1 183.2c1.8-3.1 3.7-6.8 6.3-9.3-1.8 3.2-3.5 6.2-4.6 9.7h-0.3v-0.4l-0.6-0.4-0.4 0.5z"/>
		<path class="s7" d="m327.8 108.6l0.2 0.3c0.7 1.3 1.7 2.3 2.3 3.6l-0.1 0.4c-0.6 0.1-1 0.1-1.5-0.1l-0.3-0.7c-0.4-0.5-0.3-0.6-1-0.6l-0.3 0.5c-0.3-0.9-0.7-1.8-1-2.7 0.5-0.5 1.1-0.6 1.7-0.7z"/>
		<path class="s8" d="m391.8 181l0.4-0.2 0.2-0.8 0.2 0.5h-0.2q0.1 0.2 0.2 0.3c0 0.1 0 0.2 0.1 0.4 0.5 2.3 0.2 4.8 0.6 7.1-0.5-0.1-0.8-0.4-1.1-0.8-0.5-0.6-0.6-1.2-0.5-1.9 0.1-1.5 0.1-3.1 0.1-4.6z"/>
		<path class="s8" d="m375.8 222.3c0.2 0.7 0.3 1.5 0.5 2.3 0.5 1.9 1.3 4.1 1.4 6.1l-0.1 1.7c-0.1-0.6-0.2-1.2-0.6-1.6-0.1-0.1-0.2-0.2-0.2-0.3-0.6-1.7-1-3.6-1.4-5.4l-0.5-2z"/>
		<path class="s3" d="m532.1 199.3v-0.4l0.2 0.3c0.5 0.7 0.8 1.1 1.5 1.6l-1.1 0.8-0.7 0.2c0.4 0.3 0.6 0.3 1.1 0.4-1.1 0.1-2.1 0.2-3.1 0.4-0.8-1.6-1.9-2.7-3.1-4 1.4 0.9 2.8 1.7 4.4 2.2l0.7 0.1z"/>
		<path class="s0" d="m429.1 227.9l-0.4-0.2c-0.9-1.7-1.6-5.2-1.3-7.2l0.1 0.1c0 0.6 0 1.2 0.3 1.7 0.9-0.8 0.2-1.6 0.2-2.5 0-0.7 0.2-1.3 0.3-1.9 0.8 3 0.9 6.8 0.8 10z"/>
		<path class="s8" d="m467.8 215.8c0.6-3.3 0.6-8.6 2.6-11.5-0.8 4.1-1.3 7.9-1 12z"/>
		<path class="s3" d="m370.8 256.9c0.6-1 1.1-2 1.7-2.9 0.8 0.2 1.8 0.4 2.7 0.6l-0.6 2.4c-1.3 0-2.6-0.1-3.8-0.1z"/>
		<path class="s5" d="m561.8 154.1c-2.1-0.8-4.4-1.7-6.5-2.3-1.4-0.3-2.9-0.3-4.1-0.9-0.1 0-0.2-0.1-0.3-0.1l-0.2 0.1 0.2-0.2c3.9 0.5 8.3 1 12.1 2.1-0.3 0.5-0.7 1-1.2 1.3z"/>
		<path class="s10" d="m379.1 237l0.8 4.9c0.1 1 0.4 2.2 0.4 3.3l0.2 1.7-0.5 0.2c-0.2 0.6-0.2 1.1-0.2 1.7-0.2-1-0.2-2-0.2-2.9-0.5-1.2-0.5-2.9-0.6-4.2l-0.7-4.1z"/>
		<path class="s5" d="m354.1 154.4c4 2.8 6.4 7 8.4 11.3-0.8-0.1-1.2-0.5-1.7-1-1.9-3.9-3.7-7-6.7-10.3z"/>
		<path class="s10" d="m337.7 258.3l1.2 3.6c-0.9 0.5-1.9 0.5-2.9 0.6-0.1-1.2-0.3-2.5-0.4-3.7z"/>
		<path class="s10" d="m397.3 191.5c-0.6-4.2-0.2-11.7-0.1-16.1 0.8 4 1 8.6 1 12.7l-0.5 0.2c-0.5 0.8-0.3 2.2-0.4 3.2z"/>
		<path class="s15" d="m324.2 104.9l2.9 0.7q0.3 1.5 0.7 3c-0.6 0.1-1.2 0.2-1.6 0.7l-0.4-0.6-0.4 0.4c-0.4-0.5-0.4-0.7-0.5-1.3-0.3-1-0.5-1.9-0.7-2.9z"/>
		<path class="s7" d="m378.7 145.5c0.9 0.4 1.7 0.7 2.6 0.8-0.9 0-1.4-0.1-2.1 0.4l-0.4 1c-0.3-0.2-0.6-0.3-0.9-0.5-1.7-0.7-3.4-1.2-5.2-0.4-0.3 0.1-0.6 0.1-0.9 0-2.2-0.5-4.3-0.2-6.4-0.5 0.9-0.3 11.1-0.6 13.3-0.8z"/>
		<path class="s7" d="m299.4 148.3c3.7 1.2 7.4 2.7 11.2 3.6v0.2c-3.2-0.3-6.5-1.4-9.7-1.7l-2.3-0.3c0.5-0.7 0.6-1.2 0.8-1.8z"/>
		<path class="s8" d="m509.1 213.5c-0.2-2.6-1.2-4.8-2-7.2-0.4-1.4-0.6-2.8-0.9-4.3 0.9 1.6 1.1 3.3 1.8 4.9 0.9 1.9 2.3 3.5 2.9 5.6-0.5 0.6-0.7 1.1-1.4 1.4q-0.2-0.2-0.4-0.4z"/>
		<path class="s3" d="m333.7 183.3c-0.5-3.5-1.6-6.9-1.9-10.4 1.3 2.9 2.2 6.7 2.7 9.9 0.2 1.3 0.4 2.6 0.6 3.9-0.1 0.5-0.1 1-0.3 1.5-0.1-0.6-0.2-1.2-0.1-1.9-0.5 0.5 0 2-0.5 2.1-0.1-1.7-0.3-3.4-0.5-5.1z"/>
		<path class="s5" d="m366.9 453.9c1.4-2 2.5-2.9 4.9-3.7l0.1 0.3-0.4 0.2c-1.4 0.7-2.8 1.4-3.8 2.7 0.3 0.3 0 0.1 0.6 0.2 1.6 0.1 5.4 0.9 6.8 1.6 0.8 0.5 1.9 0.5 2.8 0.3q-0.2 0-0.4 0c-1-0.1-2-0.7-2.9-1-0.5-0.2-0.7-0.3-1.2-0.7v-0.4l0.1 0.3c3.1 1 5.8 2 8.6 3.6-5.2-0.9-10-3-15.2-3.4z"/>
		<path class="s8" d="m379.6 228.3c3.8 3 7 7.3 9.8 11.3l-1.5 0.4c-2-4.4-5.5-7.8-8.3-11.7z"/>
		<path class="s3" d="m584.4 193.4c1.1 3.5 2.3 6.9 3.6 10.4l-2.2-0.1c-0.6-3.4-1.4-6.8-1.4-10.3z"/>
		<path class="s3" d="m376.8 171.8c-0.7-2.2-1.4-4.3-2.3-6.4-0.8-1.9-2.4-4.1-2.6-6 3.1 4.1 4.9 9.4 6.7 14.2l-0.4-0.1c-0.7-0.5-1.1-1-1.4-1.7z"/>
		<path class="s3" d="m317.2 96.9l0.8 0.8c2.1 3.2 3 5.1 2.3 9-1.1-3.3-2.7-6.2-3.1-9.8z"/>
		<path class="s3" d="m332.9 125.4h0.4c0.9 2 3.3 5.5 3.3 7.7l-0.4 0.2c-0.7-0.2-1-0.3-1.5-0.7-0.1-0.7-0.7-1.2-1.2-1.7-0.5-1.8-0.6-3.6-0.6-5.5z"/>
		<path class="s8" d="m370.1 215.9c-0.4 3.2-2 6.1-3.2 9.2-0.8 2.3-1.3 4.5-1.6 6.9-0.8-0.6-0.8-1.7-1-2.6 1.3-4.7 4.1-8.9 5.8-13.5z"/>
		<path class="s5" d="m559.9 191.5c-3.7-3.7-7.2-8.7-9.3-13.5 1.5 1.8 2.7 3.8 4.1 5.6 1.8 2.4 3.7 4.6 5.6 6.9z"/>
		<path class="s8" d="m378.4 218.2c4.9 3 9.3 7.5 12.5 12.3l-1.3 0.5c-2.7-5.1-7.1-8.8-11.2-12.8z"/>
		<path class="s3" d="m442.7 178.4c2.6-0.2 5.1-0.3 7.6-1.1 3.2-1 6.2-2.8 9.6-3.6-3.8 1.9-7.7 4-11.7 5.4 0 0 0 0-0.1 0-1.4 0.4-4.2 0.3-5.5-0.4z"/>
		<path class="s10" d="m380 263.8l0.7 0.6c-0.6 7-1.7 14.3-3.8 21l-0.1 0.1c0.8-4.7 1.6-9.4 2.3-14 0.4-2.6 0.5-5.2 0.9-7.7z"/>
		<path class="s6" d="m389.4 239.6c1.2 1.7 2.2 3.4 3.1 5.2 0 0.4-0.1 0.8-0.1 1.2h-2.1l-2.4-5.9z"/>
		<path class="s10" d="m318.2 231.4c2.9-3.7 7.6-10.5 11.5-12.8-3.7 4.3-7.5 8.7-10.2 13.7-0.5-0.2-0.9-0.6-1.3-0.9z"/>
		<path class="s5" d="m372.5 254c1.6-3.2 3.2-6.5 5.1-9.5-0.5 3.4-1.6 6.7-2.4 10.1-1-0.2-1.9-0.4-2.7-0.6z"/>
		<path class="s10" d="m361.2 219.8c0.1-2.6 0.9-5 1.4-7.6 0.4-2.7 0.5-5.4 1.1-8.1h0.1c0.2 5.6-0.5 12.3-1.4 17.9l-0.7-0.3c-0.6-0.6-0.5-1.1-0.5-1.9z"/>
		<path class="s5" d="m415.2 195.9l0.6 0.4c-1 5.4-1 11-1.2 16.5-0.5-0.1-1-0.1-1.4-0.2 0.1-5.5 1.1-11.2 2-16.7z"/>
		<path class="s10" d="m334.3 188.4c0.5-0.1 0-1.6 0.4-2.1-0.1 0.7 0 1.3 0.2 2 0.1-0.6 0.2-1 0.2-1.5 0.6 6.1 0.8 12.3 0.3 18.4l-0.3 0.1c-0.5 1-0.3 3-0.4 4.1-0.4-1.4 0.4-2.9-0.2-4.4 0-0.1 0-0.2-0.1-0.2 0.5-5.5 0.2-11-0.1-16.4z"/>
		<path class="s5" d="m543.8 193.3c2.8 1.7 9.4 5.7 11.1 8 0.1 0.1 0.1 0.2 0.1 0.3 0.2 0.3 0.3 0.6 0.6 0.9l-0.2 0.5c-4.1-3.2-8.4-6.1-12.7-9.1l0.4-0.1-0.4-0.3c0.5-0.2 0.7-0.2 1.1-0.2z"/>
		<path class="s5" d="m282.2 128.8c-0.1 0.1-16.3 9.5-16.8 9.8h-2.1c5.8-3.8 12.3-7.9 18.9-9.8z"/>
		<path class="s7" d="m311.2 134c0.9-0.2 2-0.1 2.9-0.1l6.4 5.3q0.1 1.2 0.3 2.5c-2-1.4-3.9-3.2-5.8-4.7-1.2-1-2.6-1.9-3.8-3z"/>
		<path class="s3" d="m298.6 191.4c1.7-6 4.8-15.2 8.3-20.4-2.3 6.5-4.8 12.8-6.9 19.4-0.2 0.4-0.5 0.9-0.7 1.4-0.4 0-0.4-0.1-0.7-0.4z"/>
		<path class="s8" d="m331.3 237.3c-0.8 7.6-1.8 15.2-2.5 22.9-0.7-1.6 0.1-3.1 0.2-4.7 0-0.7-0.2-1.2-0.1-1.9 0.1-1.4 0.7-2.8 0.7-4.3 0-0.4 0-0.6 0.1-1 0.1-0.4 0.1-0.6 0.1-1-0.9 0.9-1.3 10.3-1.6 12.4l-0.3-0.1c0.3-7.3 1.5-14.8 2.4-22z"/>
		<path class="s5" d="m558.9 300.4c1.3 0 2.6-0.1 3.8 0-2.4 3.2-5.3 6.3-7.9 9.3 1.2-3.2 2.5-6.3 4.1-9.3z"/>
		<path class="s8" d="m334 211c0.2 0.4 0.3 0.8 0.7 1.2-0.4 6.7-1.8 13.6-2.8 20.3-0.5-0.4-0.6-0.6-0.8-1.1 0.7-6.9 2.2-13.6 2.9-20.4z"/>
		<path class="s10" d="m386.7 216.5c-4.8-6.4-10.3-10.8-16.2-16 6 3.7 11.7 8.4 16.3 13.7 0.3 0.6 0.6 1.1 1 1.6z"/>
		<path class="s5" d="m323.7 209.4c2.1-2.8 4.2-5.7 6.7-8.3-1.6 3.3-3.8 6.2-5.9 9-0.3 0.3-0.5 0.7-0.8 0.9-1.5 2.3-3.1 4.5-4.3 6.9-0.4-0.4-0.7-1-1-1.6q1.3-2.1 2.9-4c0.7-1 1.6-1.9 2.4-2.9z"/>
		<path class="s10" d="m367.8 248.8l0.1-0.2c1.8-3.3 5.3-13.5 7.8-15.2h0.3c-2.5 5.5-5 10.6-6.4 16.5l-0.2-0.3c-0.6-0.3-1.1-0.5-1.6-0.8z"/>
		<path class="s5" d="m277.3 141.1c5.3-2.8 14-6.4 20-6.9-6 2.5-12 4.7-17.9 7.3-0.7 0-1.4-0.1-2.1-0.4z"/>
		<path class="s6" d="m384.2 203.9c-3.9-5-8.4-9.1-13.9-12.4-2.3-1.4-4.9-2.7-7-4.4 6 2.6 11.3 6.2 16.3 10.4 1.6 1.4 3.1 3.3 4.9 4.4l0.4-0.1 0.6 0.9c-0.7 0.4-0.9 0.5-1.3 1.2z"/>
		<path class="s5" d="m387.5 257.6c-0.8-4-2.3-11.1-4.5-14.5l0.1-0.2-0.2-0.2c2.8 4.8 5.4 9.9 7.8 15-1 0.2-2.2 0-3.2-0.1z"/>
		<path class="s3" d="m269.4 207.5c2.9-7.4 6.2-15 10.2-21.9l0.4 0.4c-3.4 7.3-6.9 14.6-9.7 22.2z"/>
		<path class="s15" d="m346 106.3l4.6-0.3c-1.1 2.5-2.2 5.1-3.1 7.7-0.5 1.4-0.4 2.9-1 4.2l0.1-0.4-0.2-0.1c0-0.1 0.1-0.2 0.1-0.2 0.2-1.2 0.9-5.4 0.6-6.3-0.1 0-0.1 0.1-0.2 0.1-0.4 0.2-0.2 0.2-0.6 0.2-0.6-1.6 0-3.3-0.3-4.9z"/>
		<path class="s5" d="m357.2 193.7c0.3 2.7 0.5 5.3 0.4 8 0 4.1-0.3 8.3 0.1 12.4-0.4-0.3-0.9-0.5-1.2-0.8-0.9-0.9-0.7-2.1-0.8-3.2 0.4-2.8 0.8-5.6 1-8.5 0.2-2.6 0.1-5.3 0.5-7.9z"/>
		<path class="s5" d="m542.7 193.9c-2.4-1.2-4.6-3-7.2-4.1-2.6-1-5.4-1.9-8.1-2.6-1.4-0.4-2.8-0.6-4.2-1.2 0 0 0.1 0 0.2 0 3-0.6 12.1 2.5 15 3.9 1.9 1 3.7 2.3 5.4 3.5-0.4 0-0.7 0-1.1 0.1l0.4 0.4z"/>
		<path class="s8" d="m336.2 230.2c3 5.1 5.2 10.5 6.9 16.2q-1 0.3-2.2 0.5c-0.9-5.8-3-11.2-4.7-16.7z"/>
		<path class="s5" d="m356.4 450.5c3.3-2.2 6.1-2.3 9.9-2.6l0.1 0.5c-1.9 1.2-3 2.7-4.4 4.6-1.7-1.3-3.4-2-5.6-2.5z"/>
		<path class="s15" d="m309.3 129.4c-1.3-1.1-4.4-4-4.5-5.7 2.8 3.5 5.9 7.2 9.3 10.2-0.9 0-2.1 0-2.9 0.2-3.5-2.9-7.6-5-10.5-7.7 0.3-0.1 0.1-0.1 0.5-0.1 3.2 2.7 4.7 1.8 8.1 3.1z"/>
		<path class="s3" d="m333.5 130.9c0.5 0.5 1.1 1 1.2 1.7-0.4 2.9 2 5.2 3.3 7.5l-0.2 0.2c-0.8-0.7-1.7-1.7-2.7-2l-0.2 0.5c0.5 2.1 2.6 3.5 4.1 5-1.4-0.3-2.7-0.4-4-0.6q0.1 2.6-0.1 5.2c-1.1-5.7-0.9-11.7-1.4-17.5z"/>
		<path class="s3" d="m278.9 302.8c0 0 0.1 0.1 0.2 0.1 0.9 0.8 5.7 6.2 5.7 7.2h-6.5c0-2.4 0.3-4.9 0.6-7.3z"/>
		<path class="s5" d="m416.6 146.7c-4.5-7.5-11.3-10.7-19.1-14 6.8 1.5 11.4 4.1 16.5 8.7 2 1.7 3.8 3.5 6.2 4.9-1.2 0.5-2.4 0.1-3.6 0.4z"/>
		<path class="s5" d="m315 257.4c3-4.7 6.8-9.9 11-13.5-2.5 4.6-5.5 8.8-7.5 13.8-1 0-2.5 0.1-3.5-0.3z"/>
		<path class="s3" d="m413.3 381c1.2 2.8 2 6 2.9 9l-4-1c-1.2-0.2-2.4-0.4-3.7-0.6 1.9-2.3 3.3-4.9 4.8-7.4z"/>
		<path class="s6" d="m558.9 300.4c1.7-3.3 3.5-6.6 4.8-10.1q1 3.4 1.9 6.9c-0.9 1-1.9 2.2-2.9 3.2-1.2-0.1-2.5 0-3.8 0z"/>
		<path class="s3" d="m516.3 194.1c1 1.6 4.3 6 4 7.9 0 0.4-0.3 0.9-0.5 1.3h-5.2c-0.1-2.9 1.2-6.4 1.7-9.2z"/>
		<path class="s3" d="m320.4 99.7c1 0.1 2.2 0.3 3.2 0.2 1.8 0.8 5.9 5.1 7.8 6.7l-4.3-0.9-2.9-0.7c0.3 1 0.5 1.9 0.7 2.9-0.2 0.5-0.4 0.9-0.8 1.3-0.8-3.6-1.9-6.5-3.7-9.5z"/>
		<path class="s5" d="m272.4 124.1c12.5 1.1 25.9 7.6 36.2 14.5 1.9 1.2 3.9 2.3 5.4 3.9l0.1 0.3c-4-2.1-7.7-5.1-11.5-7.4-9.5-5.5-20-8.8-30.8-10.6z"/>
		<path class="s10" d="m327.9 259.6l0.3 0.1c0.3-2.1 0.7-11.5 1.6-12.4 0 0.4 0 0.6-0.1 1-0.1 0.3-0.1 0.6-0.1 1 0 1.5-0.6 2.8-0.7 4.3-0.1 0.7 0.1 1.3 0.1 1.9-0.1 1.6-0.9 3.2-0.2 4.7-0.5 5.9-1 11.8-1.2 17.7-0.2 3.7 0.1 7.7-0.5 11.4-0.1 0.4-0.2 0.8-0.3 1.2-0.1-0.9-0.2-1.6-0.4-2.5l-0.1-0.3q0.1-11 1-22c0.1-1.9 0.1-4.3 0.6-6.1z"/>
		<path class="s3" d="m502.2 139.8c1.7-0.6 6.1-0.2 8.1-0.1 0 0.1 0 0.1 0 0.2-0.1 0.9 0.7 4.3 0.6 4.5-0.5-1.2-0.9-2.4-1.3-3.6l-0.2 0.3c-1.1 2.5-1.2 4.5-0.7 7.1l-0.2-0.2c-0.5-0.4-1-0.8-1.7-1h-1.1c-0.6-2.4-1.8-5.5-3.5-7.2z"/>
		<path class="s8" d="m491 226.1l0.1-0.5c2.8-10.7 11.6-31.5 21.3-37.1-6 6.6-10.3 12.9-14.4 20.8q-1.1 2.2-2 4.4c-0.7 1.5-1.3 3-1.8 4.5-0.5 1.6-1 3-1.4 4.6-0.4 1.6-0.9 3.2-1.2 4.7-0.3-0.4-0.4-0.9-0.6-1.4z"/>
		<path class="s5" d="m357.8 373.9l-0.6-0.9c0.5-0.1 0.8-0.1 1.3 0.4 2 1.8 5.1 2.6 7.6 3.6 6.5 2.7 12.9 5.4 19.5 7.6 5.1 1.8 10.4 3.3 15.4 5.2-0.1 0-0.3 0-0.4 0-2.6 0.3-25.4-9.1-26.1-8.6 4.4 1.8 8.7 3.7 13 5.3 3.9 1.4 8.1 2.5 11.8 4.2l0.1 0.3c-1.8-0.2-3.9-1.3-5.6-1.9-6.2-2.2-12.2-4.8-18.4-7-4.3-1.8-8.8-3.7-13-5.6-1.6-0.8-2.9-2-4.6-2.6z"/>
		<path class="s7" d="m307.7 184.1q0.6-0.1 1.2-0.2c0.7-0.2 1-0.1 1.7 0.1-1.6 2.5-3.1 5.6-5 7.9-2-0.2-4.2-0.1-6.3-0.1 0.2-0.5 0.5-1 0.8-1.4 0.6-0.3 1.1-0.9 1.5-1.4 1.7-1.9 4.1-3.3 6.1-4.9z"/>
		<path class="s5" d="m554.9 201.3c2.8 1.8 5.3 4.6 7.5 7 8.7 9.4 14.5 18.5 20.1 30 1.3 2.7 2.9 5.6 3.6 8.5l-0.2 0.1c-5.7-13.2-12.9-25.9-22.8-36.5-2.4-2.6-5.1-4.9-7.7-7.4l0.2-0.5c-0.3-0.3-0.4-0.6-0.6-0.9q0-0.2-0.1-0.3z"/>
		<path class="s7" d="m321.1 183.2l0.4 0.1 0.4-0.5 0.6 0.4v0.4h0.3c-0.3 1.6-0.7 3.3-0.9 4.9q1.9-2.4 3.5-5.1c-0.8 3-3.4 6.3-3.3 9.5 0 0.1 0 0.2 0 0.4 0 0 0 0.1 0 0.2q-0.1-0.6-0.3-1.3c-1.4-0.9-4.9-0.4-6.6-0.3 1.9-2.9 3.7-6 5.9-8.7z"/>
		<g id="Clip-Path" clip-path="url(#cp5)">
			<g>
				<g id="Clip-Path" clip-path="url(#cp6)">
					<g>
						<path class="s16" d="m487.2 272.9v-46.8h4.4v46.8z"/>
					</g>
				</g>
			</g>
		</g>
		<path class="s5" d="m291 176.7c6.9-3.9 24.4-12.3 31.9-12l0.1 0.1c-0.8 0.5-7.4 2-9 2.6-3.6 1.2-17.7 6.4-19.8 9-2.4 3.2-5.4 12.1-7.4 16.2l-0.6-0.9q1.7-4.2 3.6-8.2c0.9-2.1 2.3-4.3 2.9-6.5h-0.1l-1.3 0.6z"/>
		<path class="s15" d="m595.5 137.8c3.4-1.1 6.7-2 10.2-2.7 0.9 1.5 1.9 2.9 2.5 4.4-5.2 0-11.6 0.4-16.7-0.2-0.8-0.5-1.8-0.6-2.7-0.9v-0.2c1.2-0.3 3.1 0.4 4.4 0.4 0.7 0 1 0 1.5-0.5-0.1-0.6-0.4-0.7-0.8-1.2l0.1-0.1z"/>
		<path class="s3" d="m486.9 203c1.4-2 3.4-3.5 4.8-5.5 1-1.5 1.6-3.2 2.8-4.7 0 1.5-1.3 3.6-1.9 4.9 3.7-1.9 7.3-3.7 11.2-5.2-3.6 2.3-7 4.7-10.3 7.3 1.9-0.9 3.8-1.8 5.9-2.3-2.7 1.9-5.3 3.9-7.9 6l-1.2-0.1c-1.2-0.1-2.4 0-3.4-0.4z"/>
		<path class="s5" d="m216.7 136.4q1.8-1.8 3.8-3.2c14.3-10.2 34.9-12.1 51.9-9.2l-0.5 0.8c-15.7-1.9-31.9-1.3-46.2 6-3.1 1.7-6 3.7-9 5.6z"/>
		<path class="s5" d="m524.7 179c2.2-1 4.3-1.8 6.6-2.5 11.7-3.1 29.2-2.1 39.9 4.1-0.2 0.4-0.3 0.5-0.6 0.8-10.9-5.1-23.2-6.6-35.1-4.7-3.5 0.6-6.9 1.8-10.5 2.3z"/>
		<path class="s5" d="m372.6 214.9c-4.5-14-11.6-27.9-21.9-38.5-2.1-2.2-4.5-4.2-6.8-6.2-1.1-0.9-2.6-2-3.5-3.1h0.4c2.1 1.3 4 3.1 6 4.7 13.5 11.2 20.8 26.3 26.7 42.4z"/>
		<path class="s5" d="m571.2 180.6c5 2.6 9.9 5.3 14.4 8.7 8.7 6.6 18.3 17.8 23 27.6-7.9-11.4-16.2-21.7-27.9-29.5-3.3-2.2-6.7-4.1-10.1-6 0.3-0.3 0.4-0.5 0.6-0.8z"/>
		<path class="s3" d="m566.4 300.1c1.3 2.1 2 7.1 2.6 9.8h-8.2l-2.8-0.1c2.7-3.4 5.5-6.7 8.4-9.7z"/>
		<path class="s5" d="m366.8 140.6c6.8 0.3 8.3 2.4 13.8 4.2 3.8 1.3 8.6 1.3 12.5 1.3 1.2 0 3.3 0.3 4.3-0.2 0-0.8-0.9-1.5-1.5-2.1-0.5-0.5-1.1-1-1.6-1.5-0.6-0.5-1.2-0.9-1.7-1.4q-1-0.6-1.9-1.2-0.9-0.5-1.9-1.1-1-0.5-2-1-1-0.4-2.1-0.8-1-0.4-2.1-0.7c-0.7-0.2-1.4-0.4-2.1-0.5-0.2-0.1-0.2-0.2-0.3-0.4 0.8-0.5 5.4 1.2 6.6 1.5 6.5 2.1 11.1 7.5 17.5 9.6-3.6 0.9-18.6 0.1-23 0-0.9-0.2-1.7-0.5-2.5-0.8-4.1-1.8-7.7-3.6-12-4.9z"/>
		<path class="s5" d="m539.4 337.8c-2.7 10.4-7.8 19.2-13.6 28.1-1.9 2.9-3.7 5.9-6 8.4-4.5 5.1-10.4 9.7-16.3 13-0.2 0.1-0.3 0.1-0.4 0.2-0.3-0.6 1.1-1.2 1.5-1.4 3.4-1.8 6.9-4.6 9.8-7.1 1.4-1.2 2.3-2.4 3.6-3.6 0.9-0.9 2.1-1.7 2.9-2.7 1.1-1.4 1.9-3.2 2.9-4.7 4.1-6 8.8-12.6 11.4-19.5l-0.2 0.5h-0.2c-4.1 8.3-9.3 15.8-14.4 23.5-1.9 0-4.8 0.2-6.5-0.9l0.3-0.3c0.8 0.4 1.4 0.7 2.3 0.7 1.2-0.7 11.3-16.7 12.7-18.9 0.5-0.9 3.1-5.8 3.7-6.2l0.1-0.1h-0.1l0.2-0.3-0.3 0.6 0.3-0.6c-0.4 0.4-0.1 0.1-0.3 0.7-0.8 3-10.6 18.2-13.1 21.7-0.5 0.8-1.3 1.4-1.8 2.1-0.3 0.4-0.3 0.5-0.3 1h0.5q1 0 1.9 0.2c4.9-7.2 9.7-14.4 13.8-22.2 2-4 3.6-8.2 5.6-12.2z"/>
		<path class="s3" d="m343.4 98.4c4.2 0.1 8.2 0.1 12.3 0-1.5 1.8-3 3.5-4.1 5.6l-0.8 1.7-0.2 0.3-4.6 0.3c-1.1-2.8-2.2-4.8-2.6-7.9z"/>
		<path class="s5" d="m459.5 167.5c0 0 0 0 0.1 0 14.3-1.1 38 4.5 49.2 13.6-2.9-1.3-5.7-2.9-8.6-4.2-3.4-1.6-7-2.8-10.5-4-19.7-6.1-32.9-6.3-52.4 0.9l0.6-0.4c6.2-3.8 14.4-5.3 21.6-5.9z"/>
		<path class="s8" d="m347.1 199.9l-0.2-1.7c-0.4-5.7-4.6-10.5-6.7-15.7l-0.1-0.3c1.9 2.8 3.3 6.9 5.7 9.2 0.4 0.5 0.7 0.6 1.2 0.5 0.6-1.1-0.2-3.9-0.4-5.2 1.1 1.4 1.3 4.4 1.8 6.1 0.7 2.5 2 4.6 3.3 6.8-0.4-3-0.7-6.6-0.2-9.7 0.9 1.3 0.2 10.2 1.1 13.2-1.8 0.1-4.1-0.1-5.8 0.4-0.7-2.5-1.8-4.9-3.1-7.2-0.6-1.2-1.5-2.4-1.9-3.7 1 0.2 4.4 6.2 5.3 7.3z"/>
		<path class="s5" d="m566.7 410l0.2 0.3c-0.9 4.4-4.9 13.6-7.3 17.3-1.3 1.9-3 3.6-4.5 5.3l-0.1-0.1c-0.1-0.2-0.1-0.4 0-0.7 1.6-6.9 5.6-18.2 11.7-22.1z"/>
		<path class="s5" d="m266.3 196.5c-7.1 5.4-19 20-23.6 27.9-2.9 5-5.8 11.6-9.3 16.1 3.6-6.7 6.7-13.6 10.9-20 10.3-16.1 30-34.7 46.7-43.8l0.3 0.9c-2.8 1.7-10.1 5.4-11.3 8.4l-0.4-0.4c-0.2-0.2-0.2-0.2-0.5-0.1-2 0.7-10.6 8.8-11.7 10.7-1.5 2.4-2.1 5.4-3.4 7.9l-0.2 0.4c0.5-2.8 1.5-5.4 2.5-8z"/>
		<path class="s3" d="m415.2 195.9q0-0.1 0-0.2c0-2.2-1.5-4.7-2.6-6.6-4-7.4-8.7-14.2-14.7-20.2q-0.9-1-2-1.9-1-0.9-2.1-1.8c-0.7-0.6-1.4-1.2-2.1-1.8q-1.2-0.8-2.3-1.6c-0.7-0.5-1.5-1.1-2.3-1.5q-1.2-0.8-2.4-1.5c-0.7-0.4-1.5-0.9-2.4-1.3-0.8-0.5-1.6-0.9-2.5-1.3q-1.2-0.6-2.5-1.2c-0.8-0.3-1.7-0.7-2.6-1-0.8-0.3-1.7-0.6-2.6-0.9q-1.3-0.5-2.6-0.8-1.4-0.4-2.7-0.7c-0.9-0.2-1.9-0.4-2.8-0.6-0.8-0.2-1.8-0.3-2.7-0.5-0.9-0.1-1.8-0.3-2.8-0.4-3.5-0.3-7-0.2-10.5-0.4-0.4 0-0.2 0-0.7 0.1l0.2-0.4-0.7 0.1 0.1 0.1-0.3-0.1c1.1-0.9 9.5-0.4 11.3-0.2 18.3 1.6 34.4 11.2 46 25.1 7.8 9.6 16.4 27 18.6 39.1l-0.8 0.7c-0.8-4.6-3.4-13.9-6-18z"/>
		<path class="s5" d="m565.3 136.1c9.2-3.5 26.2-7 35.7-4.8-13.6 0.2-21.4 0.8-34.4 5.4-16.3 6.8-28.5 16.5-39.7 30.1-2.2 2.6-4.2 5.4-6.2 8-1 1.3-1.9 2.8-3 3.9-0.1 0.1-0.2 0.3-0.3 0.4l0.6-0.6-0.5 0.2c11.4-18.8 27.4-34.1 47.8-42.6z"/>
		<path class="s5" d="m293.9 154.9c7-0.7 19.3-0.1 25.7 2.8-14.1-2.2-25.5-3.4-39.6-0.2-22.9 5.1-39.1 20.2-51.3 39.4-2.7 4.5-7.2 11.9-8.8 16.8-0.1 0.1-0.1 0.2-0.1 0.2l-0.2-0.1v0.6c0-0.1-0.1-0.2-0.1-0.3-0.1-1.1 1.3-3.3 1.8-4.4 4.5-10.1 10.1-19.1 17.4-27.5 15.4-17.6 31.7-25.8 55.2-27.3z"/>
		<path class="s5" d="m362.8 135c2-1 4.6-1.7 6.8-2.4 10.4-3.2 22.7-5.8 33.5-3.5 4.8 0.8 9.4 2.1 13.8 4 7.6 3.3 17.9 10.9 23.6 16.8-0.1 0-0.1-0.1-0.2-0.1-2.8-1.6-5.1-4-7.7-5.9-10.5-7.8-16.6-11.1-29.6-14-2.8-0.5-5.7-0.9-8.6-0.9-10.1 0-22.1 3.1-31.4 6.9-5.4 2-10.9 5-15.8 8-2 1.3-3.9 2.7-6 3.9 6.2-5.8 13.7-9.8 21.6-12.8z"/>
		<path class="s15" d="m249.7 136.9l0.1-0.1c4.2-2.6 7.9-6.3 12.5-8.1l0.6 0.3-0.2-0.3 0.2 0.2c-1.4 1-3.1 1.7-4.6 2.7-2.6 1.7-5.1 3.6-7.6 5.5 1.9 0 3.8 0.1 5.7 0.4 2.1 0.4 4.8 1.3 6.9 1.2h2.1c1.2 0.4 2.4 0.6 3.7 0.8-3.3 1.5-29.2 0.8-35.2 0.9 1-1.2 2.1-2.4 3.1-3.6 4.3-0.8 8.3-0.2 12.7 0.1z"/>
		<path class="s3" d="m527.1 140.7c0.2-0.1 0.3-0.1 0.6-0.1 5.2-1 10.9-0.6 16.1-0.6-1.8 2.4-3.1 5.1-4.7 7.7 0.6-2 1.5-3.8 2.4-5.7-3.5 2.2-4.5 5-6 8.6 0-0.8 0.2-2.1-0.2-2.8-0.2 0-0.4-0.1-0.6 0-2.6 0.5-5.9 0.1-8.7 0 0.1-0.6 0.2-1.1 0-1.6-1.8-0.3-3 1.7-4.7 2.1 0.1-0.6 5.9-4.7 6.5-5.9 0.3-0.6 0.3-0.7 0.1-1.3-1.3 0-2.8 1.7-3.9 1.5 0.8-0.7 2.1-1.4 3.1-1.9z"/>
		<path class="s3" d="m326.2 187.8c-1.8 5.5-5.9 10.4-6.4 16.3-3-0.8-8-0.3-11.3-0.3 2-4.1 4.1-8.1 6.7-11.9 1.7-0.1 5.2-0.6 6.6 0.3 0.1 0.4 0.2 0.8 0.3 1.3 1.6-1.7 2.6-3.9 4.1-5.7z"/>
		<path class="s6" d="m278.3 311.3c2.7-0.1 5.3 0 8 0 1.4 1.3 2.8 2.8 4.1 4.3 3.7 4.4 7.1 9.1 10.9 13.4 1.1 1.2 5 5.1 5.6 6.4l-0.2 0.3c-5.6-5.2-12.4-10-18.4-14.8-2.8-2.2-8.3-6.2-10.2-9z"/>
		<path class="s2" d="m415.8 196.3c2.6 4 5.2 13.4 5.9 18l0.8-0.7 0.5 1.9c-0.3 0.5-0.5 0.7-1.1 1l-0.1 1.5-0.1 1.1c-0.2 2.7-0.6 5.4-0.5 8.2-1.5-2.7-6.1-11.8-6.6-14.5 0.2-5.5 0.2-11.1 1.2-16.5z"/>
		<path class="s8" d="m422.5 213.6l0.5 1.9c-0.3 0.5-0.5 0.7-1.1 1l-0.2-2.2z"/>
		<path class="s15" d="m526 147.8c2.7 0.1 6.1 0.5 8.7 0-1.6 3-2.6 4.7-2.2 8.3q-0.6-1.7-1-3.3c-1.9 2.3-3.3 5-4.8 7.6-3.5 5.6-7.2 10.9-10.1 16.8 0.6-2.8 1.6-5.5 2.3-8.4q-1.1 1.2-2.1 2.4c1.4-3.1 2.9-6.1 3.9-9.4-1.1 1.2-2.1 2.3-3.3 3.3q-0.1 0-0.2 0.1c2.4-3.6 5.9-7.6 6.8-12-0.1-0.5-0.3-0.9-0.6-1.4 1.2-1.2 2-2.5 2.6-4z"/>
		<path class="s3" d="m294.5 193.6c0.2-0.9 0.3-2.3 1-3 0 1-0.2 1.8-0.3 2.7 0.8-0.2 1.9-0.4 2.7-0.8 0.6-0.3 0.5-0.5 0.7-1.1 0.3 0.3 0.3 0.4 0.7 0.4 2 0 4.2-0.1 6.2 0.1-2.4 3.8-4.7 7.8-6.8 11.8-6.1 0-12.2 0.2-18.2 0 1.5-1.7 2.3-3.7 3.1-5.8l0.8 0.7v0.3q5-2.8 10.1-5.3z"/>
		<path class="s3" d="m569.5 184.2c1.5 1.8 3.2 3.5 4.3 5.6 3.2 6.1 2.9 10.1 9.5 13.7-0.2-1.1-0.5-2.1-0.5-3.2 0.7 0.5 1.1 2.5 1.4 3.4-2 0.9-12.4 0.8-14.7 0.3-0.2-0.1-0.3-0.1-0.4-0.1-0.1 0-0.2-0.1-0.2-0.1-3.7-2.9-4.1-3.5-8.8-5l0.1 0.1v-0.4c1.2 0 2.9 0.6 4 1-3.2-2.2-6.4-5.2-10.1-6.5-1-0.3-2.4-0.3-3.2-0.9 0.9-0.3 2.4 0.1 3.4 0.2-1.9-1.9-4-2.8-6.5-3.8h1.4c2.3 0.7 8.6 3.3 10.6 3l0.5-1c0.4 0.5 0.7 0.9 1.3 1.2-0.1-0.7-0.5-1.3-0.8-2 4.1 3 5.3 5.5 10.5 7.6-1.8-1.6-1.8-3.1-2.7-5.1 2.1 3 5 4.8 8 6.9-1.1-3-2-6.3-3.6-9.1-1.1-2-2.5-3.7-3.5-5.8z"/>
		<path class="s5" d="m511.7 338.7c1.4 1.2 2.8 2.3 4.2 3.5l0.3 1.4c-0.1 0.6-0.1 0.9 0.2 1.4 0.6 0.4 1.2 0.6 1.9 0.8 2.9-2 5.6-4.3 8.6-6.2-3.2 3.6-8 5.9-10.9 9.8-0.5 0.7-0.7 1.2-0.6 2.2 0.4 0.3 0.5 0.4 0.9 0.5 0.4 0.1 0.6 0 1-0.2 1.2-0.8 2.5-2.5 3.5-3.6 2.3-2.5 6.5-7.2 9.4-8.8 0-0.1 0.1-0.1 0.1-0.1l-1.8 2.2c0.4 0 0.5 0.2 0.9-0.1 0.6-0.4 1-0.7 1.8-0.9-0.3 1.1-1.6 1.7-2 2.8 0.5 0 0.7-0.3 1-0.6 0.3-0.3 0.2-0.2 0.4-0.4l0.2 0.3c-0.8 1-1.6 1.9-2.5 2.8-1.5 1.7-10.5 10.7-10.6 12.2 0 0.4 0.3 0.7 0.5 1 0.5 0.3 0.7 0.4 1.3 0.3 2.9-0.7 12.8-17.5 14-17.7-1.6 3-14 22.7-15.7 23.9l-0.3-0.1c-1.4 1.5-3.5 1.8-4.9 3.1-0.3-0.2-0.6-0.5-0.9-0.8 0.1-0.4 0.2-0.9 0.4-1.4 0.6-1 1.7-1.2 2.7-1.6l-0.1-0.5c0.8-0.1 1.6-0.2 2.1-0.9 0.6-0.8 1-1.6 0.8-2.7-0.7-3.6-14.4-11.6-17.6-13.8l0.1-1c3.5 2.4 7 5.1 10.7 7.2 0.5 0.3 0.7 0.6 1.3 0.4 1.6-2.1 2.6-7.5 2.7-10.3-1-1.2-2.2-2.3-3.4-3.5z"/>
		<path class="s0" d="m514.8 364.4c0.5-0.1 1.1-0.3 1.6-0.1-0.5 0.9-1.8 1.4-2.5 2.1 1.1-0.4 2.3-0.9 3.6-1.2-1.4 1.4-3.5 1.7-4.9 3-0.3-0.2-0.6-0.4-0.9-0.7 0.1-0.5 0.2-1 0.4-1.4 0.6-1.1 1.7-1.3 2.7-1.7z"/>
		<g id="Clip-Path" clip-path="url(#cp7)">
			<g>
				<g id="Clip-Path" clip-path="url(#cp8)">
					<g>
						<path class="s17" d="m515.9 357.1v-16.5h15.3v16.5z"/>
					</g>
				</g>
			</g>
		</g>
		<path class="s5" d="m357.8 373.9c1.6 0.6 3 1.8 4.6 2.5 4.3 2 8.7 3.8 13 5.7-0.6 0.1-0.6 0.2-1.1-0.1-0.4-0.2-0.6-0.3-1-0.2-0.1-0.1-0.1-0.2-0.2-0.2-0.7-0.5-2-1.2-2.8-1.2 0.4 0.6 0.7 0.7 1.5 0.9 0.6 0.2 2.4 1.1 2.8 1.6l-0.4 0.1c2.7 1.9 6.3 3.2 9.3 4.5 3.6 1.6 7.2 3.1 10.9 4.5 3.7 1.4 7.4 2.8 11.2 4q5.6 1.8 11.3 3.3c3.9 1.1 7.7 2 11.6 2.8 24.3 5.1 46.5 3.8 68.5-8.4 3.6-2 6.8-4.4 10.3-6.6h0.2c-0.7 1-2.1 1.9-3.1 2.7-7.9 6.2-17.4 10.4-26.9 13.2-10.8 3.2-22.1 3.9-33.4 3.1-6.3-0.6-12.7-1.9-18.8-3.3-2.3-0.5-4.6-1-7-1.6-2.2-0.6-4.6-1.3-6.9-2-2.3-0.7-4.5-1.4-6.8-2.1-2.2-0.8-4.5-1.6-6.7-2.4-2.3-0.9-4.5-1.7-6.7-2.6q-3.3-1.4-6.6-2.9c-2.1-1-4.3-2-6.4-3.1-2.2-1-4.3-2.1-6.4-3.3l-0.4 0.7c-5.1-2.7-9.3-6-13.8-9.5z"/>
		<path class="s0" d="m357.8 373.9c1.6 0.6 3 1.8 4.6 2.5 4.3 2 8.7 3.8 13 5.7-0.6 0.1-0.6 0.2-1.1-0.1-0.4-0.2-0.6-0.3-1-0.2-0.1-0.1-0.1-0.2-0.2-0.2-0.7-0.5-2-1.2-2.8-1.2 0.4 0.6 0.7 0.7 1.5 0.9 0.6 0.2 2.4 1.1 2.8 1.6l-0.4 0.1c-2.1-0.5-8.6-4.6-11.2-5.7 2.4 2.3 5.9 3.8 8.9 5.5l-0.4 0.7c-5.1-2.7-9.3-6-13.8-9.5z"/>
		<path class="s3" d="m401.9 197.5c0-3.4 0.5-6.7 0.7-10.1 0.1-1.4-0.1-3.2 0.3-4.6 1 3.6 0.4 11.7 0.5 15.9 1.1 1.3 2.2 2.6 3.2 4-1.6 1-18 0.3-21.1 0.1l-0.6-1c-1.1-1.7-1.9-3.7-3.1-5.5-1.4-2-3.7-3.3-5.7-4.8 1.1 0.5 2.3 1 3.5 1.4h0.1c1.1-1.1 15.1-0.7 17.4-0.7l0.3 0.1c0.4 0.3 0.8 0.6 1.2 0.8l-0.2 0.3c1.1 1.5 2.5 2.7 3.5 4.1z"/>
		<path class="s3" d="m257.9 192.4c2.3-0.7 4.5-1.5 6.9-1.9-7.6 3.5-9.9 4.1-15.1 10.9 2.3-1.7 4.9-3.6 7.7-4.2l0.3 0.1c-3.4 1.7-7.3 3.5-9.3 6.8-6.5 0.1-12.9 0.3-19.4 0.3 2.2-4.1 3.7-8.8 5.3-13.2 0.3 0.8-2.2 8.1-2.5 9.5 3-2.3 4.7-5.3 7.1-8.1 0.1 0.5 0 0.2 0.2 0.7 0.7-0.1 0.8-0.3 1.3-0.7l0.2-0.1c1.5 0.8 15.1 0.3 17.3-0.1z"/>
		<path class="s2" d="m291.3 177.6l1.2-0.6h0.2c-0.7 2.2-2 4.4-3 6.5-1.3 2.7-2.4 5.4-3.5 8.2l0.6 0.9c-0.6 2.1-1.5 4.1-2.4 6l-0.8-0.6c-0.8 2-1.6 4-3.1 5.7-4.3 2.2-7.6 6.3-11.8 8.8l1.5-4.2c2.8-7.7 6.3-14.9 9.8-22.3 1.2-3 8.5-6.7 11.3-8.4z"/>
		<path class="s3" d="m286.2 191.7l0.6 0.9c-0.6 2.1-1.5 4.1-2.4 6l-0.8-0.6q1.4-3.2 2.6-6.3z"/>
		<path class="s3" d="m581.5 246.3l3.1 5-0.7-3.8c1.5 2.8 2.8 7.6 4.6 10-8.4 0.6-17.1 0.2-25.6 0.2l-5.9-11.4c8.2-0.1 16.3 0 24.5 0z"/>
		<path class="s3" d="m344.4 246.4l0.3-0.3c2.3-0.4 5-0.1 7.4-0.1l15.2 0.1c0.1 0.9 0.2 1.8 0.6 2.7 0.5 0.3 0.9 0.6 1.5 0.8l0.2 0.3c-0.6 2.6-1.1 5.2-1.3 7.8-8.8-0.2-17.7 0-26.6-0.1q0-5.4-0.7-10.7c0.7-0.1 1.4-0.3 2.2-0.5 0.3 1.1 0.7 2.3 1.1 3.4z"/>
		<path class="s3" d="m316.5 245.5c2.5-3.1 6.9-9.2 10.4-10.9-1.4 1.9-3.3 3.6-4.9 5.3-4.7 5-7.3 10.3-7.4 17.2-0.1 0.3 0 0.2-0.4 0.4-4.5 0.3-9.1 0.1-13.7 0.1-4.3 0-8.7 0.2-13-0.1q1.6-5.8 3.5-11.6c3.3 0.1 23.9 0.5 25.4-0.2l-0.1-0.2 0.2 0.2z"/>
		<path class="s1" d="m300.2 67.2c1.9 1.9 4.3 2.6 6.7 3.5-1.4-0.1-2.8-0.2-4.3-0.4 1.6 1.6 3.2 3.2 4.9 4.6 1.9 0.3 3.7 0.5 5.6 1.1v0.1c-1.7-0.1-3.3-0.3-4.9-0.4 2.1 2.7 4.6 5.9 7.7 7.6l-0.8 0.2c-0.2 0.5-0.2 0.3 0 0.8 1.4 2.5 4.6 4.6 6.9 6.3l-3.5-0.2c3.1 3.8 5.9 7.3 9.6 10.6-1.3-0.7-2.6-1.8-4-2.2l-0.4 0.2-0.2 1c-1 0.1-2.2-0.1-3.2-0.2-0.7-0.7-1.4-1.8-2.3-2l-0.9-0.8c-0.8-1.1-1.7-2.2-2.6-3.1 0.2 1.2 0.1 2.4 0.2 3.7 0.1 0.5 0.1 0.7 0 1.2-0.2-0.2-1.4-7.4-4-9.9-0.6-0.6-1-0.8-1.8-0.7-0.4-0.1-0.2 0-0.5-0.2-0.6-0.3-1-0.6-1.6-0.7-1.2-1.2-3-4.6-4.3-5l-0.3 0.5c-0.9 0.1-1.7-0.6-2.4-1-1.5-1.1-2.8-2.9-4-4.3 0.4 2.7 1.9 5 2.4 7.6-2.6-4.6-5.5-8.1-9.5-11.6 2.6-0.5 5.5-3.2 7.8-4.6 1.2-0.8 2.5-1.2 3.7-1.7z"/>
		<path class="s3" d="m423.6 192.1c3.8 0 38.2-0.3 39.2 0.2 4.2 0.1 8.4 0 12.5 1.1-6.7-0.2-9.9 0-16 3-1.1 0.5-2.7 1.1-3.5 1.9-0.3 0.3-0.3 0.3-0.4 0.6l0.1 0.3c0.8 0.4 1.5 0.3 2.4 0.2 0.1 0.1 0.3 0.1 0.4 0.1 0.9 0.2 3.4-0.7 3.9 0-1.3 0.2-2.4 0.5-3.5 1-0.1 0.3-0.1 0.2 0 0.4-1.9 0.9-4 1.6-5.9 2.5-2.9-0.6-6.3-0.3-9.3-0.3l-16.5-0.1c-1.3-4.1-3.7-6.8-6-10.3 1.9 1.7 3.4 3.5 4.9 5.5-0.5-2.2-1.4-4.1-2.3-6.1z"/>
		<path class="s6" d="m278 315.5c8.2 7.7 18.4 15.3 27.4 22.2 2.6 2 5.5 3.6 7.9 5.8l-0.5 0.3c-0.1-0.1-0.2-0.3-0.3-0.4-0.4-0.3-0.8-0.8-1.3-0.9-2.7-0.9-27.7-0.4-32.7-0.5-0.2-3.5-0.2-7-0.3-10.4-0.1-5.4-0.2-10.7-0.2-16.1z"/>
		<path class="s3" d="m442.7 242.2c0.5 3.5 0.3 7 0.2 10.5 1.1-2.2 2.1-4.3 3.2-6.5 11.3 0.1 22.8-0.4 34.1 0.1l0.8 0.1c-0.7 3.8-0.8 7.3-0.4 11.1-4.5 0.2-9.1 0-13.6 0h-27.8c1.9-5.5 2.9-9.6 3.5-15.3z"/>
		<path class="s15" d="m347.1 160.5c2.5 0.7 12 4.5 13.6 4.3l0.1-0.1c0.6 0.6 1 0.9 1.8 1 1.1 0.8 5 3 6.4 2.7 0.1 0 0.2-0.1 0.3-0.1 0.6 0.3 0.8 0.3 1.4 0.3 2.3 0.7 4.1 1.9 6.1 3.2 0.4 0.7 0.7 1.2 1.4 1.7l0.4 0.1c1.2 1.4 5.4 4.4 7.2 5.9 0.4 1 0.7 1.5 1.7 2.1 1.5 1.2 2.7 2.3 3.8 3.9l0.4 0.1c-0.1 0.7 0 1.3 0.5 1.9 0.4 0.4 0.7 0.7 1.2 0.8 1.3 1.1 2.8 2.4 3.7 3.8-2.4 0-16.3-0.3-17.5 0.8h-0.1c0-0.1 0-0.2 0-0.2-0.1-1-1.4-2.6-2.1-3.5-1.1-1.5-2.4-3.3-3.9-4.5-2-1.6-7.5-2.8-10.1-3.6-0.8-0.3-2.2-0.6-2.8-1.1 5 0.8 7.8 1.6 12.5 3.6-3.2-3.6-7.7-6.6-11.8-9.2l0.7-0.8c0.8 0.4 1.5 0.8 2.3 1.2q-1.4-1.4-2.9-2.6-1.6-1.3-3.1-2.5c-1.1-0.7-2.1-1.5-3.3-2.2q-1.6-1-3.4-1.9c0.1-0.2 0.1-0.5 0.1-0.6 0.1-0.7 0-0.7-0.5-1.2-0.7-1.2-2.9-2.4-4.1-3.3z"/>
		<path class="s15" d="m300.6 160.4h0.4c1.9 0 12.5 0.8 13.7 2.2-2.1 0.1-6.5-1.1-8.4 0.1v0.4c0.4 0.3 0.7 0.5 1 0.8-3.4 0.6-6.2-0.6-9.6 0.9l-0.3 0.2c2.7 0.2 5 0.8 7.5 1.7-7.4-0.6-11.5-0.2-18.4 2.7 1.8 0.4 3.5 0.9 5.3 1.4-5.3 0.2-7.9 0.5-12.6 2.8 2.1 0.1 4.2-0.1 6.3 0.3-7.7 0.7-10 2-16.2 6.6 2.7-0.8 4.9-1.4 7.6-1.1l-0.5 0.1 0.3 0.3 0.2-0.4c-5.5 1.4-9.3 2.9-13.5 6.7 2.5-0.8 4.8-1.2 7.4-1.3-5.2 1.4-9.6 2.8-13.1 7.2l0.1 0.4c-2.2 0.3-15.8 0.9-17.3 0.1 1.1-1.5 3.4-2.4 4.8-3.8 2.9-3 4.4-7.3 6.4-11-0.5 2.8-2.1 5.7-3.4 8.3 2.1-1.3 4.4-2.5 6.1-4.2 1.8-1.8 2.8-3.9 4-6.1 2.2-4.2 4.7-9 8.4-12.3-2.2 3.2-4.2 6.6-6.2 9.9-1.4 2.5-2.6 5.2-4.3 7.5 5.9-3 13.4-6.5 17.7-11.5 2.4-2.8 4.6-6.3 7.5-8.6l-0.4 0.4 0.1 0.2c-2.2 3.3-4.8 6.6-7.3 9.5 0.7-0.2 1.4-0.4 2.2-0.6 3.8-1.3 9.3-3.4 12-6.6 0.6-0.8 1-1.7 1.4-2.5l0.1 0.2c-0.2 1.1-0.7 2-1.2 3 4.2-0.8 8.8-1.9 12.2-3.9z"/>
		<path class="s3" d="m492.5 241.7l0.1 0.2q0.1 0.1 0.2 0.3c2.1 4.2 3 8.9 5.3 13.2 1.1-2.8 2.1-6.2 2.2-9.2h45.3c2 3.7 3.6 7.6 5.3 11.4-17.8 0.4-35.7 0-53.5 0-0.6-2.9-1.8-5.7-2.8-8.6-0.8-2.4-1.4-4.9-2.1-7.3z"/>
		<path class="s6" d="m352.6 203.1c0.8 2.3 1.7 5.1 3.1 7 0.1 1.2-0.1 2.4 0.8 3.2 0.3 0.3 0.8 0.6 1.2 0.8 0.9 2 1.6 4.5 2.8 6.4h0.4l0.3-0.7c0 0.8 0 1.3 0.4 1.9l0.8 0.2c0 2.4 0.4 5.1 1.5 7.2l0.4 0.3c0.1 0.9 0.1 2 0.9 2.5-0.1 2.3 0.6 5 1.5 7 0.2 0.8 0.2 1.2 0.7 1.8-0.1 1.8-0.2 3.6-0.2 5.4l-15.2-0.1c-2.3 0-5-0.3-7.4 0.1l-0.3 0.2c0.3-3.9 0.7-7.8 0.4-11.8 0 0 0.1-0.1 0.1-0.1 0.5-0.3 1.1-0.6 1.6-0.6l0.2 0.2 0.3-0.2-0.3 0.1-0.2-0.1 0.5-0.4c-0.1-4.5-0.6-8.5-1.8-12.8 0.8-0.3 1.1-0.3 1.6-1l0.4 0.6 0.3-0.2c0.6-2.5-0.6-7.2-1.2-9.8 0 0 0.1-0.1 0.2-0.1 0.6-0.8 0.4-2.1 0.3-3.1 0.2-1.2 0.1-2.4 0.1-3.6 1.8-0.4 4-0.2 5.8-0.3z"/>
		<path class="s15" d="m257.2 105.8l31.9-0.3c0.9 1 1.7 1.3 3 1.8l-0.1 0.2c0.8 0.6 1.6 0.9 2.2 1.7l-1.4 0.2c1.2 1.9 9.1 5.1 11.4 6-1.8-0.3-5-1.6-6.7-1l-0.2 0.3c1.3 3 13.9 7.2 17.4 9.3 4.1 2.4 7.9 5.4 11.3 8.6l0.6 1.1c-2.7-1.3-5.2-3.9-7.6-5.8-4.1-3-10.6-7.8-16-7v0.3c1 0.9 2.4 0.9 3.2 1.8-0.4 0.5-0.8 0.5-1.4 0.7 0.1 1.7 3.3 4.5 4.5 5.7-3.3-1.3-4.8-0.4-8-3.1-0.4 0-0.2-0.1-0.6 0.1-0.6-0.4-1.2-1-1.9-1.5-2.6-2-5-3.4-8.2-4.2 2 2.4 5.6 4.5 8.1 7.5-6.1-4-11-8.9-18.2-11 2.5 2.3 5.4 3.9 7.8 6.4-3.3-1.8-6.2-4.7-9.8-5.8-1 0.4-1.6-0.6-2.4 0.1 0.1 0 0.2 0 0.2 0.1 0.3 0.2 0.5 0.4 0.7 0.6l-0.4 0.1c1.4 1.4 3.3 2.4 4.8 3.8-5.9-3.1-8.5-6-15.6-6.4v-0.2l0.3 0.2h-0.6c1.1 1 2.6 1.5 3.7 2.4-1.9-0.3-3.6-1.6-5.5-2-5.6-1.3-11.5 0-17.1 1.1 3.6-3.9 6.9-8.1 10.6-11.8z"/>
		<path class="s12" d="m272.1 116.2c2.3 0.3 4.3 0.7 6.4 1.6-1 0.4-1.6-0.6-2.4 0.1 0.1 0 0.2 0.1 0.2 0.2 0.3 0.2 0.5 0.3 0.7 0.5l-0.4 0.2c-1.5-0.8-2.9-1.9-4.5-2.6z"/>
		<path class="s6" d="m535.7 194.4c1.4 2 6.8 11.8 8.7 12.1 0.3-0.4 0.3-0.7 0.2-1.3-0.1-1.4-1.2-2.6-1.2-3.9 2.3 2.7 1.2 6.7 4.3 9 0.4 0.4 1 0.8 1.6 0.9 0.4 0.1 0.9 0.1 1.3 0.1 1.3 3.3 2.7 5.7 5.8 7.7-1-2.4-1-5.1-1.8-7.6-0.1-0.2-0.1-0.1-0.1-0.6 1.4 2.8 1.7 9.3 4.8 10.7 0 0 0.1 0 0.2 0l0.1-0.1c0.6 0.5 1.3 0.7 1.9 1.2 0.2 0.1 0.3 0.2 0.6 0.2 1 2.5 2.2 4.5 4.4 6.1 0.5 0 0.8 0 1.3-0.1 0.4 1.2 1.8 5.2 3 5.8l0.1-0.1 1.3-0.8c0.9 1.9 1.6 3.9 2.9 5.6-0.1-2.7 0-5.4-0.3-8l0.4-0.3-0.2-0.4h0.1c0.7 2.8 0.5 8.5 2.7 10.4l0.5 0.1c0.5-1-0.1-2.2 0.4-3.2 0.7 1 0.1 2.7 0.5 3.8 0.5 1.6 1.6 3.2 2.4 4.6-8.2-0.1-16.3-0.1-24.5-0.1-8.1-13.7-15.8-27.9-25.8-40.4 1.6 1.2 3.9 3.4 5.7 3.9 0.4-0.4 0.8-0.8 1.2-1.2 0 0 0-0.1 0-0.2 0.4-1-0.2-1.9-0.6-2.8q0.1-0.4 0.2-0.9c0-0.1 0-0.1 0-0.3l0.7-0.4c0.8 0.5 1.6 1 2.4 1.4-1.6-3.7-3.6-7.2-5.2-10.9z"/>
		<path class="s6" d="m324.3 198.1c-0.1 0.1-0.1 0.1-0.1 0.2-2.5 6.8-5.8 10-6.4 17.9l0.2 0.3 0.4-0.2c0.3 0.6 0.5 1.2 1 1.7-1.5 3.6-4.3 11.9-3.3 15.7l0.2 0.1 1.9 1.4c-1.4 3.4-2 6.7-1.7 10.3v0.2l-0.2-0.2 0.1 0.3c-1.5 0.7-22.2 0.2-25.4 0.2 5.1-14.4 10.3-28.6 17.5-42.2 3.3 0 8.3-0.5 11.3 0.3l0.3 0.2c1.5-2 2.8-4.2 4.2-6.2z"/>
		<path class="s6" d="m555.9 311.6c4.4 0 8.9 0 13.3-0.2 2.4 10.2 3.9 20.9 4.4 31.3-5.4 0.2-10.9 0.1-16.2 0.1l-17.3 0.1c1.6-5.9 2.4-12.5 5.6-17.8 1.5-2.5 3.4-4.8 5-7.2 1.5-2.1 3-4.9 5.2-6.3z"/>
		<path class="s6" d="m486.9 203c1.1 0.4 2.2 0.4 3.3 0.4l1.3 0.1-3.3 3.3c2.8-1.3 5.5-2.8 8.4-3.8-4.4 2.9-7.7 5.7-10.3 10.4 1.9-1.4 4-3.6 6.3-4.2l0.1 0.1c-5.7 3.8-7.9 8.1-10.3 14.3 1.8-1.6 3.5-3.3 5.6-4.5-3.8 4.4-6.6 7.8-8.3 13.5 2.4-1.8 4.3-4.1 6.8-5.8-3.9 4.7-7.6 10.5-6.9 16.9 0 0.2 0.1 0.5 0.1 0.6 0.3 0.7 0.4 1.3 0.5 2-11.3-0.4-22.7 0.1-34.1 0 1.8-5.1 1.4-10.4 2.5-15.5 1.2 3.8 1 7.5 2.4 11.6 2.6-4.9 3.9-9.1 3.9-14.7 0.1 1 0.1 2.2 0.3 3.1l0.2 0.2 0.3-1.4c0.1 0.4 0 0.1 0 0.6 0 0.4 0.1 0.6 0.2 0.9l0.2-0.9 0.6 5c2.2-3.9 3.4-7.4 3.8-11.8 0.4-4.5 0.2-8.2 2-12.5-1.2 6.5 0.1 10.4 0.1 16.7 2.7-3.3 4.5-7.7 5.2-11.8l1.6 0.5q0.3 2 0.7 3.9c3.1-3.3 4.5-7.2 5.8-11.5l0.4-0.1c0.1-0.5 0.1-0.9 0.4-1.2 0.7 0.5 0.7 1.2 0.8 1.9l0.2 2.9c2.7-2.4 5.3-5.1 7.9-7.7z"/>
		<path class="s7" d="m486.9 203c1.1 0.4 2.2 0.4 3.3 0.4-0.7 1-1.5 2.3-2.5 2.9-0.6 0-0.9 0-1.3-0.5-0.3-0.4-0.5-0.9-0.8-1.3z"/>
		<path class="s3" d="m324.9 300.4h48.8c3.9 0 16.5-0.8 19.4 0.1l0.1 0.3c-0.2 0-0.3 0-0.4 0-0.1 0-0.6 0-0.6 0-3.5-0.4-6.4 0.9-9.1 3.1-2.2 1.8-4.1 3.9-5.9 6l-59.1 0.1c-9.8 0-19.8-0.2-29.6 0.1-2.6-3-5.3-6-8.1-9 0.4-0.2 0.7-0.3 1.1-0.4 4-0.6 8.4-0.2 12.5-0.2h28.5q0.5 2.1 1.2 4.2c0.5-1.4 1-2.8 1.2-4.3z"/>
		<path class="s5" d="m516.4 381.5c-3.9 4.8-8.6 9.2-13.1 13.4-16.5 15.4-37 25.6-59.9 24.6-8.8-0.3-17.2-2.1-25.5-4.8-21.9-7.2-37.6-19.4-55.3-33.7l-10.9-8.8c-2-1.6-4.1-3-5.8-4.7 1.6 0.9 3.4 2.2 5.2 2.7l0.4 0.2c0.9 0.4 5.1 1.8 5.4 2.4-0.1 0.1-0.2 0.1-0.3 0.2-0.1 0.1-0.1 0.2-0.2 0.3l0.1 0.2 1.2 0.6c4.5 3.5 8.7 6.8 13.8 9.5 2.3 1.4 6 3.1 7.9 4.8 19.5 10.7 41.8 18.9 64.1 21.1 21.6 2 42.4-4.1 59.8-16.9 4.6-3.3 8.7-7.4 13.1-11.1z"/>
		<path class="s0" d="m368.9 385.1c-3.8-2.8-7.4-5.9-11-8.8-2.1-1.7-4.6-3.3-6.5-5.3 1.6 0.4 3.5 1.9 4.8 2.9 5.5 5 11.6 9 18 12.7 1.3 0.7 2.8 1.7 4.2 2.2l1.4 1 0.2 0.1c2.6 1.1 5.2 2.5 7.7 3.8 4.2 2.1 8.4 4.1 12.7 5.9 24.9 10.3 54.9 16.4 80.8 6.1 2.2-0.9 5-2.5 7.2-3 5-2.7 9.6-5.7 14.3-9-2.4 2.8-10 9-13.1 10.3 0-0.4 0-0.2 0.1-0.6-7 4.2-15.1 7.1-23.1 8.7-22.6 4.3-44.6-0.6-65.3-9.6-7.8-3.4-15.7-7.4-22.6-12.2-2.3-1.3-8.4-5.9-10.4-6.3l0.8 0.8c8.6 6 17.2 11.7 26.6 16.5 5.6 2.8 11.6 5.1 17.5 7.2 16.6 5.8 33.2 8.3 50.7 5.2 5.4-1 11-2.5 16.1-4.7 1.8-0.7 6.8-3.8 8.3-4.1-13.8 11.1-33.9 14.5-51.2 12.6-24.6-2.7-49.6-16.7-68.2-32.4z"/>
		<path class="s6" d="m582.6 311.4c15.6-0.2 31.3 0.1 47 0.1-3.4 10.3-6.7 20.9-11.6 30.7q-15.2-0.1-30.4 0.1c-0.4-10.4-2.8-20.8-5-30.9z"/>
		<path class="s6" d="m514.6 203.3h5.2q-0.8 2.6-1 5.3c0.7 1.8 1.5 3.1 2.8 4.4 0.2-3.2 0.5-6.2 1.5-9.3-0.1 2.5-0.4 5 0 7.5l1.7-3.5c6.7 12.9 14.7 25.3 20.7 38.5h-45.3c-1.2-5.6-3.5-11.1-5.8-16.4 2.6 3.2 4.4 7.5 6.4 11.1 0.4-1.1 1-2.4 1.3-3.6 1.2-6.1-4-11.5-5.8-17 0-0.1 0-0.2-0.1-0.3 2.9 4.3 5.3 8.9 7.5 13.6 0.7-2.6 1.4-5.4 1.4-8-0.1-4.5-3.8-11-5.8-15 2.1 1.4 5.5 11.6 7.5 11.6 0.3-0.5 0.2-0.8 0.2-1.4 0.5-0.4 0.7-1 0.9-1.7 1.2-1.7 1.1-3.5 1.1-5.5 0.1 0.1 0.3 0.3 0.5 0.4 0.7-0.3 0.9-0.8 1.3-1.4 0.6-1.4 0.5-3.1 0.9-4.5h0.1c0.2 0.4 0.3 0.8 0.5 1.2l0.3-0.1c1.4-1.8 2.1-3.8 2-5.9z"/>
		<path class="s15" d="m462.5 106.2c5-0.6 10.3-0.2 15.3-0.2h29.3 28.1c4.7 0 10-0.5 14.6 0.2-1.1 0.3-2.2 0.5-3.2 0.8-4.9 1-10.5 4.1-14.4 7.2-0.8 0.7-1.5 1.8-2.5 2.2l0.5-1.4-0.1-0.1c-1.4 0.5-3.2 2-3.9 3.4-0.2 0.6-0.2 1.1-0.3 1.7 0 0.4 0 0.3-0.2 0.7l-0.3 0.1c-0.1-0.5-0.2-1-0.5-1.5-0.7 0.3-1.6 1.7-1.8 2.5-0.2 0.6-0.2 3.2-0.5 3.5-0.6-0.9-0.1-3.2 0.1-4.3-1.6 1.3-2.9 2.7-4.3 4.2l0.1-0.1c0.2 1.9 0.6 4.1 0.2 5.9-0.2-1.2-0.1-3.9-0.9-4.8-1.2 0.3-2 2.2-2.6 3.3q0.3 2.5 0.8 5c-0.6-1.3-1.2-2.7-1.8-4.1-0.7 1.2-1.3 2.4-1.9 3.7 0.2 1.8 0.4 3.5 0.7 5.3-0.7-1.4-1.2-2.9-1.6-4.4-0.6 1.5-1 3-1.2 4.6-2-0.1-6.4-0.5-8.1 0.1 0.1 1.7 0.6 3.4 1 5.1-0.9-2-1.4-4-2.1-6-1.2-3.3-3.1-6.2-5.5-8.8 0.3 1.9 0.6 3.9 0.7 5.8-0.4-1.4-0.7-2.8-1.1-4.1-1.6-5.1-5.3-9.6-10-12-0.4-0.2-0.4-0.3-0.8-0.2 0.3 0.5 0.7 1.1 0.7 1.7-0.7-0.8-1.1-1.7-1.8-2.4-0.8-1-2.1-1.8-3.2-2.7-5.5-4.4-11-7-17.5-9.9z"/>
		<path class="s15" d="m229.5 147.6c17 0.1 34.1 0 51.1-0.3 5.7-0.1 11.6 0.3 17.3-0.1q0.7 0.6 1.5 1.1c-0.2 0.7-0.3 1.2-0.7 1.8l2.2 0.3-0.1 0.3c-1.1 0-2.5-0.1-3.5-0.4-0.6-0.2-1.2 0-1.8 0.1 0.7 0.5 3 0.7 3.9 1l-0.3 0.3 0.9 0.4v0.2c-2.2 0-4.5-0.6-6.7-0.9-5.3-0.7-21.3-2.8-25 0.7q-0.1 0-0.2 0.1l-0.2 0.4c0.1 0.4 0 0.2 0.3 0.5l-0.3-0.1c0.5 0.2 0.8 0.2 1.2 0.3-1.5 0.2-3.6 0.2-4.9 0.8-1.3 0.1-2.6 0.4-3.7 1.3l0.2 0.2 0.5 0.1-0.4 0.5c0.2 0.4 0.1 0.3 0.6 0.7-3.6 0.8-6.8 1.9-9.9 3.9 1.6-0.1 4.6-0.8 6 0-1.1 0.6-2.5 0.5-3.6 0.8-0.5 0.1-0.9 0.3-1.3 0.4q-0.7 0.2-1.3 0.5c-0.4 0.1-0.8 0.3-1.3 0.5-0.4 0.2-0.8 0.4-1.2 0.6-0.4 0.3-0.8 0.5-1.1 0.7-0.4 0.3-0.8 0.5-1.2 0.8-0.3 0.3-0.7 0.5-1 0.8-0.4 0.3-0.7 0.6-1.1 0.9 1.9-0.6 3.7-1.4 5.7-1.2l0.2 0.2c-4.8 1.3-9 3.8-12.3 7.6 2.3-1 4.5-1.7 6.9-2.2-6.3 2.8-10.1 5-13.8 11 1.6-0.9 3.1-1.7 4.9-2.4-3.3 2.4-9.5 7.3-10.4 11.5-0.1 0.2-0.1 0.3-0.1 0.6l-0.3 0.4c-2.1 1-11.9 0.4-14.8 0.4 1.6-4.5 2.9-9.1 4.5-13.7 3.5-10.2 8.9-22.3 14.6-31.4z"/>
		<path class="s0" d="m299.1 151.6c-0.9-0.2-4.8-0.7-5.2-1.2q0.2-0.3 0.6-0.5c1-0.6 3 0 4.2 0.1l2.2 0.3-0.1 0.3c-1.1 0.1-2.5 0-3.5-0.4-0.6-0.1-1.2 0-1.8 0.1 0.7 0.5 3 0.8 3.9 1.1z"/>
		<g id="Clip-Path" clip-path="url(#cp9)">
			<g>
				<path class="s6" d="m229 204.5c6.5-0.1 12.9-0.3 19.4-0.4l-1.7 2.6c2-1.3 4.1-2 6.5-2.6-0.1 0-0.2 0.1-0.3 0.1-1.3 1-2.8 1.5-4.2 2.3-2.9 1.4-4.9 3.7-6.7 6.5 1.1-0.6 2.3-1.5 3.5-1.8l0.3 0.2c-3.9 2.5-6.3 4.7-8.5 8.9 1.4-0.8 2.7-1.3 4.1-1.8-3 2-5 3.9-6.8 7 1.4-0.7 2.9-1.5 4.4-2.1-2.2 2-4.4 3.8-5.5 6.7l0.1 0.3 1-0.2c-0.1 1.4-3.7 5.5-4.3 7.9 0.5 0 0.7-0.2 1.1-0.5-1.4 2.8-2.5 5.8-3 8.8-2-0.7-21.8-0.2-25.5-0.1 0.2-10.3 1.2-20.5 2.8-30.6 0.6-3.7 1-7.4 1.9-11l12.2 0.1v1.1l0.1 0.1 1.1-0.8c0.2 0.8-1.8 4.3-2.1 5.4-1.2 3.6-1.9 7.3-2 11 3.5-5.3 6.9-10.8 10.6-15.8 0.6-0.2 0.9-0.6 1.3-1.1z"/>
			</g>
		</g>
		<path class="s15" d="m551.2 106.1c3.3-0.5 6.9-0.2 10.2-0.2 7.4 0 14.8 0.1 22.2 0 6.9 7.1 13.8 15.3 19.1 23.7l-0.6 0.4c-1.9-0.4-4.2-0.6-5.9-1.3 0.1-0.3 0.3-0.5 0.4-0.7-1.4-1.3-6.5-0.9-8.3-0.8q-2.5 0.2-5 0.5c1.8-0.7 3.4-1.2 5.3-1.4-4.2-0.9-7.8-0.8-11.6 1.6-1.3 0.8-2.4 1.9-3.5 2.9 1.7-2.4 3.5-3.8 6.1-5.2-7.1 0.7-10.8 2.6-16.2 7.1 0.1-0.8 2.3-2.5 3-3.1q1.4-1.1 3-2c-5.2 1.1-11.3 3-14.4 7.7-0.4 0.7-0.8 1.5-1.2 2.2 0-1.4 1.5-3.5 2.3-4.6-4.4 1.6-6.3 3.5-9 7.3 0.6-1.3 1.1-2.5 1.8-3.6-2 0.9-3.5 1.9-5 3.4-5.3 0.1-11-0.4-16.2 0.6-0.2 0.1-0.3 0.1-0.6 0.1 2-1.4 2.9-3.5 4-5.5-1.7 1.2-3.6 2.3-5.4 3.3l-0.2-0.2c2-1.3 4.4-2.7 6-4.5 0.5-0.6 1-1.3 1-2.1-1.4-0.2-3.2 1.3-4.5 1.9l-0.2-0.1c3.6-1.9 6-4 7.6-7.7-1.7 1.2-3.7 2.2-5.5 3.3 3.2-3.1 5.4-2.8 7.8-7.2-1.2 0.6-2.4 1.2-3.6 1.6 0.7-1 2.8-1.8 3.9-2.7 1.2-1 2.3-2.4 3.3-3.7q-1.6 0.6-3.1 1.1c0.9-0.5 2-1.1 2.8-1.8 3.4-2.7 5.7-6.2 9.4-8.8l1.9-1.1v-0.3z"/>
		<path class="s6" d="m268.8 212.5c4.1-2.5 7.4-6.6 11.7-8.8 6.1 0.2 12.2 0 18.2 0-1.8 3.4-3.7 6.8-5.4 10.3q-2.6 5.2-4.9 10.5c-1.6 3.5-3.1 7.1-4.5 10.7-1.4 3.6-2.8 7.2-4 10.9-5.8-0.4-11.7-0.1-17.4-0.1-9.7 0.1-19.3 0-29 0.3 3.2-4 4.8-8.2 6.7-12.8-0.3 3.1-0.9 6.1-1.2 9.1 1.1-1.8 2-3.6 2.8-5.5 0.9-2.1 3.6-11 4.8-11.7 0.7 2.4-0.7 7.7-1.2 10.4 3-4.2 6.3-8.8 8.1-13.6 0.3 0.5 0.6 0.9 1 1.2l-0.5 2.4c5.4-4.2 5.9-7.4 8.1-13.6q-0.5 3.9-1.3 7.7c2.4-2 4.7-4.3 6.5-7l0.4 0.1z"/>
		<path class="s6" d="m212.2 311.5h53.9c-1 10.2-1.3 20.5-1.3 30.6h-27.5c-4.6 0-9.2-0.2-13.8 0-0.2-1.9-1.8-4.3-2.6-6.2-1.6-3.8-3.2-7.7-4.7-11.5-1.5-4.2-2.6-8.6-4-12.9z"/>
		<path class="s3" d="m402.3 300.2c6 0.6 12.2 0.3 18.3 0.3h100.6c11.7 0 23.4-0.1 35.1 0-1.5 3.2-3 6.4-4.7 9.4l-119.2-0.1c-17.8 0-35.6 0.2-53.5 0.1 2.9-2.6 6.5-5.2 10.4-6 3.3-0.6 5.3 0.4 7.9 2.1 3.8-1.8 7.5-1.4 11.6-1.2-2.6-1.4-5.2-1.9-8.1-2.4 0.5-0.7 1.1-1.4 1.6-2.2z"/>
		<path class="s6" d="m314.6 257.2l0.4 0.2c1 0.5 2.5 0.3 3.5 0.3-1.4 5.3-2.7 11.3-1.7 16.8l0.1 0.2 0.4-0.5c0.5 0.2 1 0.5 1.6 0.4 0.1-0.1 0.2-0.1 0.3-0.2l0.3 0.3c-0.5 2.2-1.4 12.2-0.2 13.9q0.1 0.1 0.1 0.2c0.3-0.4 0.4-0.7 0.5-1.2 0.1 0 0.2-0.1 0.2-0.1q0.4-0.3 0.6-0.6l0.3-0.1c0.3 0.5 0.6 0.8 0.7 1.4-0.1 4-0.2 8.2 0.7 12.2l-28.4 0.1c-4.1 0-8.5-0.4-12.6 0.2-0.4 0-0.7 0.1-1 0.4-0.4-0.3-0.7-0.6-0.9-1-0.6-1.3 0.2-4.9 0.4-6.4 1.7-12.2 4.4-24.2 7.5-36.1 4.4 0.2 8.8 0 13.1 0 4.5 0 9.2 0.2 13.7-0.1 0.4-0.2 0.3-0.1 0.4-0.3z"/>
		<g id="Clip-Path" clip-path="url(#cp10)">
			<g>
				<path class="s6" d="m588 203.8c0.8 1.9 2.2 5.7 4.1 6.8h0.4l0.1-0.3v0.1-0.4c0-2.1-0.4-4.5-0.7-6.6l0.2 0.1c1.7 5.2 0.1 8.5 5.3 12.2l0.7 0.5 0.4-0.1 0.2-0.4c0.4 1 0.7 1.9 1.5 2.7h0.2c0.3-1.8-0.3-4.2-0.6-5.9 2.2 4.4 4.4 9 7.5 12.8q-0.4-3.1-1.1-6.2c1.6 3.8 2.9 7.2 5.3 10.6-0.4-1.4-0.7-2.8-0.9-4.2 1.4 2.2 1.9 5.1 3.5 7.3l0.4-0.1 0.5 1 0.2-0.1c0.3-0.7 0.1-0.9-0.1-1.6l0.5-0.1c-0.4-2.2-0.8-4.3-1.4-6.5-0.6-1.8-1.5-3.8-1.8-5.7l0.4-0.5c-0.6-3.3-3.2-6.5-3.7-9.9l-0.1-0.6 0.7 0.2 0.2-0.3-0.6-1 0.2-0.3c-1-1.5-2.3-2.7-3.7-4 1 0.7 2 1.4 3 1.9l0.2-0.4c2.2-0.8 20.8-0.2 24.9-0.3 0.8 5.9 2.1 11.7 2.9 17.6q1.7 11.9 1.8 23.9c-5.4 0-47.1-0.3-48.8 0.4-0.7-3.9-2.3-7.3-4.2-10.7l2 1.9c-1.6-4.5-3-8.5-7-11.4 1.2 0.5 2.3 1 3.5 1.6-1.3-3.9-3.8-5.7-6.8-8.2 1.4 0.6 2.6 1.4 3.9 2.1-1.8-4.1-4.3-7.2-8.4-9.1 1 0.2 2.1 0.5 3.2 0.8-3.2-4.3-6.1-6.6-10.7-9.2 1.8 0.5 3.6 1.4 5.3 2.2l-1.6-2.6c0.1 0 0.1 0.1 0.2 0.1 0.2 0 0.3 0 0.4 0.1 2.4 0.5 12.7 0.6 14.7-0.3 0.4 0.6 0.9 1.4 1.5 1.7 0.3-0.6 0.1-1.1 0.1-1.7z"/>
			</g>
		</g>
		<path class="s0" d="m614.1 232.7h0.4l0.5 0.9h0.2c0.3-0.7 0.1-0.9-0.1-1.6l0.5-0.1 0.8 5.3c-0.8-1.5-1.6-3-2.3-4.5z"/>
		<path class="s0" d="m609.1 209.3l-0.1-0.6 0.7 0.2 0.2-0.3-0.6-1 0.2-0.3c1.5 1.8 2.5 3.7 3.2 5.9-1.2-1.3-2.4-2.7-3.6-3.9z"/>
		<path class="s15" d="m571.1 148.4c3.8-1.4 34.8-0.7 41.6-0.8 7.6 14.4 14.1 29.2 18.4 45-5.7-0.4-11.6-0.2-17.3-0.2-4.2 0-8.4-0.3-12.4 0-1.6-1.5-3.2-3.2-4.9-4.5-0.5-0.3-1-0.7-1.6-0.6l0.1 0.4c-0.7-0.2-1.3-0.6-2-0.9 1.1 0 2.2 0 3.3-0.1-1.9-2-5.3-4.5-8.1-4.9-1.9-0.3-3.9-0.3-5.7-0.9l0.2-0.2-0.2 0.3c1.5-0.9 5.6 0.1 7.4 0.3-6.1-5-9.8-4.4-17.1-4.8l7.2-1.3c-3.5-2.2-7.5-2.8-11.5-1.8-1.3 0.3-2.5 0.8-3.8 0.8v-0.3c3.3-0.9 6.3-1.5 9.7-1.8-3.2-1.4-8.2-3-11.7-3.1-1.6-0.1-4.4 1.4-5.8 1l0.7-0.2h-0.2c1.6-0.6 3.3-1 4.9-1.6-3.2-1.1-6.8-1.5-10.1-0.2-1.5 0.6-3 1.4-4.5 1.8 1.7-1.2 3.3-2 5.4-2.6-1.2-0.3-2.3-0.6-3.6-0.5-1.5 0.1-3.1 0.3-4.6 0.8-1.1 0.3-4.6 2.1-5.6 1.8 1.4-1.2 2.8-1.5 4.5-1.9-4.2-0.8-6.2 0-10 1.5 5-3.5 11-5.2 16.4-8.3l-7-1.4c2.7-0.1 5-0.1 7.6 0.8 3.6-2.2 7.4-3.9 11.1-5.9 0.5-0.3 0.8-0.8 1.2-1.3 1.9-0.4 6-3.3 8-4.4z"/>
		<path class="s6" d="m406.8 202.3c0.2 0.6 0.1 0.8 0.7 1.1l0.2-0.3c0.7 1.5 4.3 9.1 5.4 9.5 0.5 0.1 1 0.1 1.5 0.2 0.5 2.7 5 11.8 6.5 14.5 0-2.8 0.4-5.4 0.6-8.2 0.4 0.9 1 1.2 1.9 1.7l0.2-0.2c0.5 2.4 0.7 4.9 1.1 7.4 0.8 4.2 1.8 8.4 2.7 12.6 0.6-4.1 1.7-8.7 1.5-12.8 0.1-3.1-0.1-6.9-0.8-10-0.3-2.5-2-5.3-2.9-7.7 1.2 1.4 2.2 3 3.3 4.5-1.1-4.4-2.3-7.8-4.5-11.7 1.3 1.3 2.5 2.9 3.7 4.4-0.3-1.4-0.7-2.8-1.1-4.3h16.6c3 0 6.4-0.2 9.3 0.3-1.6 1.1-3.1 2.2-4.3 3.8l-0.1 0.5c0.3 0.1 0.6 0.1 0.9 0.1l0.9 1.1c-3.3 1.6-5.1 3.2-7 6.3 3-1.3 5.9-2.5 9.1-3.2-7.4 3.6-10.9 5.4-14.4 13.2 1.7-1.4 6.9-5.3 9-5.1l0.2 0.3h-0.5l0.5 0.2-0.1-0.2c-4.4 2.2-8.9 4.2-10.9 9.1 1.4-1.2 4.7-3.7 6.4-4.1-0.4 1.3-2.9 2.7-3.8 3.7-0.3 0.3-0.5 0.6-0.8 1-0.3 0.3-0.5 0.6-0.7 1-0.2 0.4-0.5 0.7-0.7 1-0.2 0.4-0.4 0.7-0.6 1.1q-0.3 0.6-0.5 1.1-0.3 0.6-0.5 1.2c-0.1 0.4-0.2 0.8-0.3 1.2-0.2 0.3-0.3 0.7-0.4 1.2 2.1-2.3 4.2-4.5 6.8-6.3-4 4.4-6.9 6.5-7.3 12.9l1.4-2.1c0.4 0.7 0.4 1 0.4 1.8-0.3 0.8-0.6 1.5-0.9 2.2-1.2 3.7-1.8 7.5-2.1 11.4l-39.7-0.1c-0.5-3.9-1.1-7.7-2.4-11.5h2.1c0-0.4 0.1-0.8 0.1-1.2 0.3-3.2-1.6-10.9-2.9-13.8l1.3-0.5 0.7 0.7c0.3-4.5-2.8-10.9-4.8-14.8l1-0.6c-0.3-0.5-0.7-1.1-1-1.7l0.1-0.3h0.1l0.9 1.2c0.3-0.6 0.1-1.8 0.1-2.5-0.6-3.2-2.2-6-3.8-8.7 0.5-0.6 0.7-0.7 1.4-1.1 3 0.2 19.5 1 21.1 0z"/>
		<path class="s0" d="m386.8 214.2v-0.3l0.2-0.1 0.8 1.3c0.3-0.7 0.2-1.8 0.2-2.6 0.6 1.9 1.1 3.7 1.6 5.6l-1.8-2.3c-0.4-0.5-0.7-1.1-1-1.6z"/>
		<path class="s3" d="m392.4 246h31.1c2.3 0 9.4-0.3 11 0.2-1.3 3.7-1.8 7.5-2.1 11.4l-39.7-0.1c-0.6-4-1.2-7.7-2.5-11.6z"/>
		<path class="s15" d="m420.2 146.3q0.2 0.1 0.5 0.2c2.3 0.7 5.2 0.3 7.6 0.9 8.1 1.8 15.2 6.5 21.8 11.4-2.8-4.2-5.7-8-9.1-11.7 8.2 0.1 16.4 0.1 24.6 0.1 5.2 0 10.6 0.3 15.8 0.1 0.1 0 0.1 0.1 0.1 0.2 1.6 2.6 5.6 6.2 8.6 6.9q0.2 0.1 0.5 0.1v-0.1l-0.1 0.3c-2.6-0.7-4.9-1.1-7.6-1.1 3 2.5 5.8 5.1 9.2 7.1 1.3 0 2.6-0.1 3.9 0.1-1.3 0-2.6-0.1-3.7 0.3-0.4 0.4-0.5 0.4-0.4 1q0 0 0 0c0 0.1 0 0.3 0 0.4 1.8 1.2 3.6 2.4 5.6 3.6 1.7 1.1 4.1 2 5.6 3.5q-2.4-1-4.8-1.9c1.8 1.4 3.3 3.1 4.8 4.7-1.4-0.8-2.7-2.1-4-3.1-3.5-2.8-7-4.8-11.3-6.1 1.4 1.9 3.3 3.5 4.7 5.5-5.1-4.1-9.6-6.1-16-7.4 2.5 1.4 4.6 2.6 6.1 5.1-4.3-3.8-8.5-5.5-14.1-6.3q3.5 2.2 6.8 4.7c-2-0.8-3.9-2.1-6-2.7-1.3 0.4-3.8-0.7-5.1-1v0.2l1.3 0.7c-0.2 0.3-0.1 0.2-0.4 0.3 1.2 0.9 2.6 1.7 3.7 2.7-6.2-2.7-9.4-4.8-16.3-3.1l0.3 0.2c1.5 0.6 3.3 0.9 4.7 1.7-0.7 0.3-2.1 0-3 0-4.1-0.2-7.7 0.4-11.6 1.7 2 0.1 3.9 0 5.9 0.2-7.7 2.5-19.4 10.1-24.9 16.1 3.7-0.7 7.2-2.4 10.6-4 1.8-0.9 3.7-2.1 5.8-2.4-2.5 1.5-5.1 2.7-7.6 4.2 3.3-0.6 6.6-1 9.9-1.3l-0.1 0.4c1.4 0.6 4.2 0.8 5.6 0.4 0 0 0-0.1 0.1-0.1 6.2 1.1 10.3 1.3 16.3-1.3 0.9-0.4 2.3-1.3 3.3-1.3v0.1c-2.8 1.5-5.4 3-8.4 4 2.7 0.5 6 1.1 8.8 0.7 4.7-0.6 8.3-4.6 13.6-5.3-0.7 0.5-2.1 0.8-2.9 1.1-2.4 1-4.7 2.2-6.6 3.9 3.2 0.7 6.2 0.6 9.4 1 3.7 0.3 7.4 1.1 11.2 1.8l-0.3 0.4 0.6-0.1v-0.2l0.2 0.2c-3.9 0.4-9.4-1.1-12.9 1.1v0.4l0.3 0.2c-1-0.1-2.2 0-2.9 0.8-0.3 0.3-0.4 0.6-0.5 1l0.2 0.4c1.5 0.5 3.1 0.6 4.6 1-5.9 0.3-14-0.2-19.2 3.1l-0.1 0.3c-1-0.5-35.4-0.2-39.2-0.2-2.8-4.8-5.7-7.8-10.1-11.1 3.2 1.2 5.5 3.2 8.1 5.4-1.8-4.4-4.8-7.5-8.5-10.2l0.3-0.1-0.1-0.1c0.7 0.3 1.5 0.4 2.3 0.5-3.1-3.8-7.2-5.7-11.6-7.8 3.2 0.7 6 2.4 9.3 2.9-7.2-5.8-8.7-6.9-17.5-10.1 3.6 0.5 7.2 1.6 10.7 2.5-3.5-2.5-6.3-3.6-10.4-4.4-1.5-0.4-3-0.6-4.4-1.2 3.8 0.1 7.2 1.1 10.9 2-3.3-2-6.9-3.9-10.5-5.2-1.1-0.4-4.2-0.5-4.7-1.2l1.1-0.2c-0.9-1.1-7.1-3.4-8.6-3.9l0.2-1.3c-0.4-0.3-0.8-0.6-1.2-0.8l0.3-0.9c0.7-0.6 1.2-0.4 2.1-0.4 4.4 0.1 19.4 0.9 23 0 3.3 0.2 9.1 0.8 12.3 0.3 1.1-0.4 2.3 0 3.5-0.5z"/>
		<path class="s0" d="m460.3 160.2c3.3 0 5.9 0.9 9 1.9-1.3 0.4-3.7-0.6-5.1-1l0.1 0.3 1.2 0.7c-0.1 0.2-0.1 0.1-0.3 0.2-1.6-0.8-3.3-1.4-4.9-2.1z"/>
		<path class="s15" d="m361.3 109.4c3.9-1.3 6.3-1.7 10.3-3.7 4.1 0.3 8.3 0.1 12.4 0.1h22.3c16.7 0 33.5 0.4 50.2 0.2 0.4 0 0.8-0.1 1.2-0.3 2.8 1.5 7 5.6 9.1 8.1-1.3-0.6-2.6-1.1-4-1.6 2.1 2 4.3 4.1 6.6 5.7 2.5 1.8 5.3 3.4 7.8 5.3-3.4-1.6-7.5-3-10.5-5 2.9 3.5 6.1 6.3 9.4 9.3-2.5-1.3-5-2.3-7.8-3 4.8 4 7.9 9.8 13.1 13.3l-0.3 0.1c1.1 0.7 2.2 1.1 3.3 1.6l-0.1 0.1c-0.9-0.2-2.6-0.9-3.4-0.5-1.5-0.1-3-0.3-4.4-0.1-0.1 0.2-0.3 0.3-0.3 0.4 4.7 1.8 8.3 7.1 11.8 8.6 0.2 0.1 0.5 0.3 0.8 0.4v0.2c-2.8 0.1-4.7-1.2-7.4-1.4-5.2 0.1-10.6 0-15.8-0.1-8.2 0-16.4 0-24.6-0.1-2.8-2.6-5.6-5.2-8.6-7.5-2.7-1.4-5-3.5-7.9-5 3.3 0.8 6.4 2.1 9.6 2.9-6.9-6.7-15.9-9.5-25.4-9.7 3.9-1.1 7.4-1.3 11.5-1.3-6.9-2.4-13.3-2.5-20.3-0.4 3.3-1.7 6.4-2.6 10.2-3.1-7.4-1.6-12.3 1.3-19.2 2.1l-0.4 0.1c4.3-2.7 9.2-3.8 14-5.1-6.3-1.6-11.7 0-17.6 2.1-0.5-0.2-0.8-0.4-1-0.9l0.2-0.2-0.3-0.3c0.4-0.3 0.8-0.6 1.1-1-0.2-0.1-0.4-0.4-0.5-0.6-4 0.8-8.6 3.7-11.7 6.5-1.2 1-2.6 2.8-4.1 3.4 2-3.8 7.6-6.8 11.2-8.7-6.3 0.8-9.6 3.5-14.5 7.1l-0.1-0.4c1.3-1.2 2.7-2.5 4-3.8-6 2.8-9.9 6.6-13.9 11.7 0.9-2.6 3.4-5.7 5.7-7.3 0.8-0.6 2.4-1.3 2.9-2.1-0.1 0-0.2 0-0.3-0.1-0.4 0-1.3 0.3-1.7 0.5-5.6 2.1-8.8 7.9-12.8 11.9-0.1 0.1-0.2 0.2-0.3 0.2 1.1-1.9 2.4-3.8 3.6-5.7-4.8 3.5-9 7.9-13.2 12 3.1-7.2 4.5-12.2 10.7-17.5 2.1-1.9 4.4-3.4 6.5-5.3-2.3 0.6-4.2 1.8-6.4 2.7 3.9-2.8 7.5-5.7 10.8-9.4-1.4 0.4-8.7 2.1-9.5 1.8 1.2-0.7 2.9-0.8 4.3-1.3 4.5-1.4 7.8-3.1 11.5-6-2.5-0.1-5.1-0.1-7.8 0.1z"/>
		<path class="s3" d="m476.2 139.5c4.7 1.8 8.3 7.1 11.8 8.6 0.2 0.1 0.5 0.2 0.8 0.3v0.2c-2.8 0.2-4.7-1.2-7.4-1.4-5.2 0.2-10.6 0-15.8 0-8.2 0-16.4-0.1-24.6-0.2-2.8-2.6-5.6-5.1-8.6-7.5 3.7-0.2 7.7 0.1 11.4 0.1l22.6 0.1c2.9 0 7.1 0.5 9.8-0.2z"/>
		<g id="Clip-Path" clip-path="url(#cp11)">
			<g>
				<g id="Clip-Path" clip-path="url(#cp12)">
					<g>
						<path class="s18" d="m317.6 402.7v-62.8h217.5v62.8z"/>
					</g>
				</g>
			</g>
		</g>
		<path class="s0" d="m449.2 379.7c0.7 0.8 0.9 5.8 1 7.1q-1.9 0.5-3.8 1l-0.4 0.1-0.2-0.3c0.3-1.8 2.5-6 3.4-7.9z"/>
		<path class="s9" d="m366.5 372.8c2.6-0.1 19.3-0.7 20.7 0.1l0.1 0.4c-0.5 0.5-0.9 0.6-1.6 0.7-2 0.3-4.4 0.1-6.5 0.1-3.8-0.1-7.7-0.1-11.5 0.1-0.6-0.1-1.1-0.3-1.6-0.5z"/>
		<path class="s2" d="m478.5 343.8c1.3-1.9 3.2-2.9 5.4-3.3 2.7-0.6 5.6-0.6 8.2-0.2 2.3 2.5 5.1 4.3 7.9 6.2 3.2 2.2 16.9 10.2 17.6 13.8 0.2 1.1-0.2 1.9-0.8 2.7-0.5 0.7-1.3 0.8-2.1 0.9l0.1 0.5c-1 0.4-2.1 0.6-2.7 1.6-0.2 0.5-0.3 1-0.4 1.4 0.3 0.3 0.6 0.6 0.9 0.8 1.4-1.4 3.5-1.6 4.9-3.1l0.3 0.1c-0.7 1.6-2.4 4.9-3.7 6.1l-0.2 0.3c0.4 1.1 2.1 3.2 2 4.2h-0.1c-0.6 1.1-1.6 2-2.5 2.8-2.7 2.5-5.9 4.5-9 6.3-13.2 8-31.6 15.2-47.1 14.7-5.7-5.3-5.9-16.9-7.6-24.1-0.4-1.6-0.7-3.6-1.7-5-0.6-0.9-2.3-0.3-3.1-1.4-0.6-0.8-0.1-2-0.8-2.9-0.2-0.3-0.4-0.5-0.6-0.8l0.2-0.7c0 0 0 0-0.1-0.1-0.5-0.9-0.8-1.2-0.9-2.3l0.2-0.1-0.2 0.3 0.7-0.4c0-1.4-1.7-2.3-1.5-3.8 0-0.8 1-1.4 1.5-1.9l0.3-0.2c-0.3-2.7-3.3-7.5-2.5-10.1 0.1-0.6 0.6-0.8 1.1-1.1l-0.4-0.5c0.1-0.4 0-0.2 0.3-0.6 1-1.3 30.2 0.4 35.1-0.7l0.3-0.3 0.2-0.6c0.5 0.5 0.7 0.9 0.8 1.5z"/>
		<path class="s3" d="m443.7 358.1c0.4 0.3 0.6 0.5 0.9 0.9-0.2 0.6-0.3 0.6-0.8 0.9l-0.6-0.2-0.2-0.4z"/>
		<path class="s5" d="m488.8 350.4c1 0.2 2.1 0.4 3.1 0.7l-2.3 2.3c0.4 0.5 1 1.1 1 1.7-0.7-0.1-1.1-0.2-1.7-0.4 0-0.1 0.1-0.2 0.1-0.3 0.7-1.4 1-2.1 2.1-3.3-0.8-0.1-1.5-0.3-2.3-0.5z"/>
		<path class="s5" d="m507.1 361.9c0.5 0.7 1 1.5 1.5 2.1 1.3 1.6 3.9-0.3 5.9-0.2 0 0 0.1 0 0.2 0.1v0.5c-1 0.4-2.1 0.6-2.6 1.6-0.3 0.5-0.4 1-0.4 1.4-0.9-0.2-1.9-0.9-2.7-1.3q-1-2.1-1.9-4.2z"/>
		<path class="s3" d="m517.5 365.1l0.3 0.1c-0.7 1.6-2.4 4.9-3.7 6.1l-0.2 0.3c0.4 1.1 2.1 3.2 2 4.2h-0.1c-1-1.3-1.9-2.8-2.6-4.3-0.5-1.1-1.1-2.1-0.6-3.3 1.4-1.3 3.5-1.6 4.9-3.1z"/>
		<path class="s5" d="m497.6 369.4c-4.2 2.6-9.6 4-14 6.7-5.4 3.2-9.8 7.8-15.3 10.8 0.9 1.5 1.8 2.9 2.3 4.6-0.2 0.8-0.4 1.7-1 2.4h-0.4c-0.2-1.2-0.2-2.7-0.7-3.9-1-2.6-4.4-5.6-6.1-8l0.5-0.1c0.4 0.8 1 1.3 1.6 2 2.5 2.8 4.5 5 4.8 8.9l0.1-0.1v0.7q0.3-0.5 0.5-1c0.7-1.9-1.5-4-2.2-5.7 0.3-0.4 0.4-0.5 0.9-0.7 3.4-1 6.5-4.6 9.4-6.8 3.1-2.3 6.6-4.5 10.2-5.9 0.3-0.1 0.4-0.2 0.7-0.5-5.3 0.4-16.1 10.6-21.5 13.5-1.2-0.5-3.3-3.6-4-4.7v-0.3c1.4 1.4 2.6 3 3.9 4.6 3.3-1.9 6.1-4.4 9.2-6.7 0.8-0.5 1.6-1.1 2.4-1.6q1.2-0.9 2.4-1.6 1.3-0.7 2.6-1.4c0.8-0.5 1.7-0.9 2.6-1.3q1.3-0.7 2.7-1.2 1.3-0.6 2.7-1 1.4-0.5 2.8-0.9c1-0.3 2-0.6 2.9-0.8z"/>
		<path class="s3" d="m477.4 343.2l0.3-0.3 0.1-0.6c0.4 0.5 0.6 0.9 0.7 1.5 2 3.8 6.4 5.3 10.3 6.6v0.3c0.8 0.2 1.5 0.3 2.3 0.5-1.1 1.2-1.5 1.8-2.1 3.3-0.1 0-0.1 0.1-0.2 0.3 0 0.4-0.2 0.8 0 1.1 0.3 0.4 0.8 0.6 1.3 0.8 0.1 0.3 0.3 0.5 0.2 0.8-0.2 0.7-1.7 1.5-1.4 2.3 0.3 0.5 1 0.9 1.4 1.2 0 1.3-1.7 1.3 0 2.8 2 1.8 5.2 0.9 6.6 2-0.1 0.5-0.2 0.6-0.6 0.8-2.3 1.2-5.5 1.9-8 2.7-8 2.6-18.6 6.2-24.7 12l-0.1 0.4c0.7 1 2.8 4.2 4 4.6 5.5-2.9 16.2-13 21.6-13.4-0.3 0.3-0.4 0.3-0.8 0.5-3.5 1.4-7.1 3.6-10.1 5.9-2.9 2.2-6 5.8-9.5 6.8-0.5 0.1-0.6 0.3-0.9 0.7 0.7 1.6 3 3.8 2.3 5.6-0.2 0.4-0.4 0.7-0.6 1l0.1-0.6-0.1 0.1c-0.4-3.9-2.3-6.1-4.9-9-0.5-0.6-1.2-1.2-1.6-1.9l-0.5 0.1c-2.4-2.5-6.2-9-7.2-12.4-1.2-3.8-0.7-7.5-3.2-10.8-1.6-2.1-3.4-3-5.9-3.3-0.5-1.6-2.4-9.4-3.1-10.1-0.2-0.2-0.5-0.3-0.7-0.5l-0.4-0.4c0.1-0.5 0-0.3 0.3-0.6 0.9-1.4 30.2 0.3 35.1-0.8z"/>
		<path class="s6" d="m289.6 311.5h261c-7.2 13.8-9.4 15-21.7 24-3.4 2.5-7 5.5-10.8 7.4l-1.9 0.8-0.4-1.5c-1.3-1.2-2.7-2.3-4.2-3.4l-0.2 0.6c1.2 1.2 2.4 2.3 3.4 3.5-0.1 2.8-1.1 8.1-2.7 10.3-0.6 0.1-0.9-0.1-1.3-0.4-3.7-2.1-7.2-4.8-10.7-7.2l-0.1 1c-2.8-1.9-5.6-3.7-7.9-6.2-2.6-0.4-5.6-0.4-8.2 0.2-2.2 0.4-4.2 1.4-5.4 3.3-0.1-0.6-0.3-1-0.7-1.5l-0.1 0.6-0.3 0.3c0-0.5 0.1-0.9 0.3-1.3-4.5-0.4-9-0.2-13.5-0.2l-26.3 0.2h-86.3c-11.8 0-23.7 0.4-35.4 0.2-6-6.8-12-13.6-17.9-20.5-2.9-3.5-5.7-6.9-8.7-10.2z"/>
		<path class="s5" d="m492.5 339.2c1.8-1.3 5.4-5.8 6.9-6.1 3.1-0.5 9.8 3.8 12.3 5.6l-0.2 0.6c-2.7-1.5-9.2-5.7-12.3-5-1.8 0.5-4.6 4.4-6 5.8 2.1 2 4.6 3.7 6.9 5.4l-0.1 1c-2.8-1.9-5.6-3.7-7.9-6.2-2.6-0.4-5.6-0.4-8.2 0.2-2.2 0.4-4.2 1.4-5.4 3.3-0.1-0.6-0.3-1-0.7-1.5l-0.1 0.6-0.3 0.3c0-0.5 0.1-0.9 0.3-1.3 4.7-3 9.3-3.3 14.8-2.7z"/>
		<path class="s2" d="m493.3 340.1c1.3-1.4 4.1-5.3 6-5.8 3-0.7 9.6 3.5 12.2 5 1.2 1.2 2.4 2.3 3.4 3.5-0.1 2.8-1.1 8.1-2.7 10.3-0.6 0.1-0.9-0.1-1.3-0.4-3.7-2.1-7.2-4.8-10.7-7.2-2.4-1.7-4.9-3.4-6.9-5.4z"/>
		<path class="s6" d="m433.4 271.2c0.8-3.9 2-7.6 2.8-11.4 1-4.4 1.2-8.8 2.3-13.1 2.9-11.7 10.9-25.3 18.7-34.5 11.5-13.7 27.2-24.2 45.3-25.9-2.1 1.2-5.1 1.4-7.5 2.1-5.8 1.5-11.2 3.7-16.4 6.8-15.9 9.5-27.2 22.6-34.7 39.4-1.9 4.2-3.7 8.5-4.9 13-1 4.1-1 7.8-0.7 12 0.3-0.7 0.7-1.5 0.9-2.2l27.8 0.1c4.6 0 9.1 0.1 13.6 0 0.1 0.5 0.2 1 0.5 1.5 0.4-0.3 0.3-1.1 0.4-1.6 0.6-0.1 1.3-0.1 1.9-0.2-0.1 3.2-0.7 11.5 1.6 14.2 0.3 0.1 0.5 0.1 0.8 0.1l0.2-0.6c0.4 2.7 0.8 5.9 2.2 8.2 0.6-0.3 0.5 0.7 1 0.8l0.4-1.4c0-1.9-0.5-3.9-0.7-5.7 0.4-0.5 0.5-0.9 0.6-1.5 1.1 8.1 1.7 16.7 6.2 23.8-1.9-8.3-0.8-17.1-3-25.4 1.3 2.5 2.8 5.1 4.3 7.6 0.5-4.8 0.4-8.5-1.2-13l0.3-0.5 0.4 0.2 0.4-0.1 0.5 0.1c0.7-1.2 0.1-4.9 0-6.4 17.8 0 35.6 0.3 53.4 0 4.6 9.5 8.8 19.7 11.8 29.8-2.4 4.3-4.1 8.8-6.3 13.1-11.7-0.1-23.4 0-35.2 0h-100.6c-6 0-12.2 0.3-18.2-0.3 0-0.1 0.1-0.1 0.2-0.2 1.1-1.5 1.6-3.4 2.7-4.9 3.3-4.6 8.2-5 13.1-6.8-5.3-0.2-11.1 0.7-15.2 4.4-2.8 2.5-4.1 5.4-4.2 9.1-0.5-0.1-0.7-0.2-1.1-0.3-1.5-0.7-3.1-0.7-4.6-0.7l-0.1-0.3c-2.9-0.9-15.5-0.1-19.4-0.1h-48.8c0.5-2.7 0.8-5.5 1.2-8.3 0 0.6 0 1.1 0.1 1.7 0.2 0 0.5-0.1 0.7-0.2 1.6-2.8 1.5-6.1 1.7-9.3q0.6 3.9 0.9 7.8c0.2-1.1 0.3-2.3 0.6-3.5 0.5-1.9 1.2-3.8 1.5-5.7 0.6-5.1-0.3-10.6-0.3-15.7 1.7 5.7 2.1 11.6 3.4 17.3 0.4-3.3 1.1-6.5 1.5-9.8 0.4-4.1 0.1-8.1-0.2-12.3 0.9 0 2-0.1 2.9-0.6l1.5 5.4c0.8-3.2 0.9-6.4 1.3-9.7 8.8 0.1 17.7-0.1 26.6 0.1 0 0.9 0 1.9 0 2.8 0.8-1.2 1.5-2.5 2.5-3.6q1.9 0.1 3.8 0.2c-1.5 6.1-2.9 12.7-2.3 19 2.2-5.2 3.9-10.8 6-16-0.5 7-2.5 13.8-3.1 20.8-0.3 2.7 0.4 5.3 0.6 8 0.2 2.2-0.2 4.4-0.3 6.7 6.3-9 7.4-19.7 7.4-30.3 1.8 4.8 2.5 10.1 2.6 15.3 2.8-7.6 2.4-15.1 2-23 1 0.1 2.2 0.3 3.3 0 0.9 1.5 1.4 3.4 1.9 5.1l0.1-5.2 39.7 0.1c-0.1 4.7 0.3 9.1 0.9 13.7z"/>
		<path class="s0" d="m488.2 279.2c0.6-0.3 0.4 0.7 1 0.8l0.4-1.5q0.6 3.5 1.5 7c-1.3-1.9-2.1-4.2-2.9-6.3z"/>
		<path class="s3" d="m312.9 343.7l0.5-0.2c5 3.8 9.8 8.2 14.6 12.3l27.1 23c5.3 4.4 10.7 8.8 16.1 13.1 2.7 2 5.7 4 8.1 6.3-2.1 2.5-5.1 4.7-6 7.9l-0.3 0.1c-3.6 1.4-8.4 2.8-12.2 3-2.4 0.1-4.9-0.2-7.2 0.2-0.9 0.2-1.6 0.4-2.2 1.1-0.1 0.6-0.2 0.9 0.1 1.5 0.9 1.9 6.1 4.6 8.1 5.1 3.4 0.9 6.5-0.6 9.8 0 4.3 0.9 4.8 3.7 10.6 4.2 1.8-0.8 3-1.7 3.8-3.7 0.6-1.6 0.8-3.4 0.9-5.1q3.4-3.1 6.6-6.4c22.3 13.1 47.4 21 73.1 14.4 19.1-5 35.6-17 48.7-31.5 3.3-3.7 6.3-7.8 9.4-11.7 3.5-4.4 7.3-8.3 10.1-13.1 3.5-5.9 5.6-13.2 7.2-19.8l34.1-0.3c0.7 9.6 0.7 21-0.5 30.5-4.5 0.2-33.4-0.3-34.6 0.3-0.3 0.5-0.4 0.6-0.4 1.2 0.5 0.6 1.5 0.5 2.3 0.5 10.8 0.5 21.7-0.1 32.5 0-0.7 10.9-2.5 22-5.8 32.5-4 0.6-7.8 4.4-10.2 7.6-1.7 2.3-3 4.7-4.1 7.3-1.8-5.7-4.2-10.1-8.7-14.1 2.1 0 9.4 0.5 10.8-0.6 0.5-0.4 0.5-0.7 0.5-1.2-3-1.1-8.9 0.2-12.4-0.4-2.7-0.3-5.4-2.1-8.1-2.9 1.1 1 2.1 2.1 3.2 3-4.3 0-31.6-0.4-33.2 0.6 0 0.6 0 0.6 0.3 1.2 0.6 0.3 1.2 0.4 1.9 0.5 2.5 0.2 5.1-0.2 7.7-0.2 8.5 0.1 17.1-0.1 25.6 0.1 6.3 8.2 7.9 13 7.7 23.4-4.6-7.5-8.4-13.7-17.4-15.9-0.6-0.1-1-0.2-1.5-0.1l-0.1 0.2c1.4 0.8 3 1.4 4.3 2.4 4.5 3 7.4 8.5 8.6 13.6 0.3 1.6 0.5 3.2 0.7 4.8-4-5.1-7.7-11.5-12.9-15.5 1.4 4.6 3.5 8.9 4.8 13.5-3.3-4.2-7.4-6.8-12.7-7.5 3.4 2.3 6.2 4.6 8.8 7.8-2.2-1.6-6-4-8.9-3.5-0.4 0.1-0.6 0.2-1 0.5l-0.1 0.4h0.4v0.1c2.8 1.2 6.5 2.1 7.6 5.3 0.4 1 0.6 2.1 0.7 3.2-2.2-1.5-4.7-3.7-7.6-3.1-0.6 0.1-1 0.3-1.5 0.7l0.1 0.2c1.1 0.5 2.7 0.5 3.8 1.1-0.5 0.5-1.1 0.7-1.7 1 0.4 1 2.9 0.8 2.9 2.2-1.5 0.3-4.7-1.5-5.6-0.1 0.2 0.9 0.9 1.2 1.6 1.6 0.3 0.2 0.7 0.3 1 0.5l-0.4-0.1c-1.6-0.2-4.6-2-5.9-1-0.5 0.4-1.3 1.4-1.9 1.4-0.9-2.5 0.6-6.5-0.8-8.5l-0.4-0.1c-1.1 2.3-1.4 5.8-1.6 8.3-0.1 0-0.2 0-0.3-0.1-1.2-0.4-2.8-0.3-3.9-0.8-1.9-1-1.6-1.7-4.1-2.3-0.7 0.5-1.5 1-2.1 1.5-1.8-5.6-2-10.7 0-16.3-3.5 4.1-4.5 9.5-4.1 14.8 0.2 1.5 0.3 3 0.6 4.5-5.1-6.8-6.2-12.9-14.9-16 3.8 2.9 5.5 5.2 7.1 9.7l-0.2-0.2c-1.1-1.3-2-3.3-3.6-3.8l-0.3 0.2c0.1 1 1.3 2.4 1.8 3.4 1 2.2 1.8 4.7 2.1 7.1-1.6 0.3-0.8-1.7-2.9 0.9l-0.2-0.2v-0.2c-0.2-0.8-0.3-1.2-0.7-1.8l-0.5-0.2c-1.4 1.1-0.4 4.1-1.7 5.5-0.1-0.9 0.1-1.9 0-2.9-0.2-1.7-1.2-3.5-1.7-5.1l-0.2 0.1c-0.4 3.8-1.2 7-2.6 10.4 0.3-5.7-0.8-9.5-4.7-13.7-0.3-0.4-0.7-0.8-1-1.1 2.8 6.1 3 8.8 1.8 15.3-0.9-6.4-2.3-12.6-7.8-16.6-1.7-1.3-3.5-2-5.4-2.7 4.8 4.7 6.5 9.1 7.8 15.7-1.9-2.3-4.9-5.3-8.2-5.5-0.5-0.1-1.2 0.1-1.6 0.4q-0.2 0.1-0.3 0.3 0.6 0.4 1.2 0.8c2.1 1.3 5 5.3 5.7 7.7-2.2 0.3-3.1-0.1-4.5 1.8-0.4 0.5-0.7 1.1-1 1.6 0-1.1 0.1-2.7-0.8-3.4-0.2-0.3-0.4-0.2-0.8-0.1-1.5 1.2-2.1 3.1-2.7 4.9-0.7-3-1.5-6-1.6-9 0-2.3 0.3-4.6 0.1-6.8-2.4 5.5-3.9 10.2-3.1 16.4-2.1-1.9-4-3.8-6.6-5.2q1.5 2.3 2.8 4.8c-2.3-2-4.4-3.8-7.6-3.6-1.9 0.1-3.5 0.8-5.2 1.5 2.2 0.1 3.9 0.6 5.9 1.5-2.3 0.5-4.5 0.9-6.7 1.5-3-1.5-5-1.9-8.3-1.5l0.2-0.3c1.3-0.9 3.8-1.5 4.7-2.5l-0.4-0.3c-1.5-0.9-4.5-0.9-6.2-0.4-0.9 0.2-1.8 0.5-2.7 0.8 1.3-1.4 2.8-2.8 4.4-3.9 1.5-1.1 3.8-1.8 5-3.1l-0.2-0.2c-1.8-0.2-3.7 0.2-5.4 0.9-1.6 0.6-9.2 5.2-10.1 4.1 1.8-3.5 5.7-8.6 8.5-11.4-6.1 1.9-10.6 6.4-14.4 11.2 1.8-5.8 3.7-10.9 7.7-15.5 1.3-1.4 2.7-2.6 4-4-8 3.8-12.5 10.4-15.7 18.4 0-0.5 0.1-1 0.1-1.5 0.1-0.5 0.2-1 0.3-1.4 0.1-0.5 0.3-1 0.4-1.5q0.2-0.7 0.4-1.4c0.1-0.5 0.3-1 0.4-1.4q0.3-0.7 0.6-1.4c0.2-0.5 0.4-0.9 0.6-1.4q0.4-0.7 0.7-1.3c0.2-0.4 0.5-0.9 0.8-1.3 0.2-0.4 0.5-0.8 0.7-1.3 0.3-0.4 0.6-0.8 0.9-1.2 0.3-0.4 0.6-0.8 1-1.1q0.5-0.6 1-1.2c0.3-0.3 0.6-0.7 1-1 0.4-0.4 0.7-0.7 1.1-1.1q0.5-0.5 1.1-0.9c1.3-1.1 2.7-2.1 4.2-2.9 1.1-0.6 3.5-1.4 4.1-2.3-2-0.6-7 2.1-8.7 3.1-6.6 3.5-11.8 8.6-14.7 15.5-1.7-6.4-4.6-11.6-10.5-15.1-2.7-1.6-5.6-2.3-8.7-2.6 7.3 4.4 12.2 6.4 14.5 15.3 0.7 2.9 0.8 6.1 1.2 9.1-2.7-6.6-6-11.9-12.7-14.6q-0.6-0.2-1.2-0.5c5.4 5.2 7.9 8.7 9.5 16.1-3.2-3.4-6.7-5.7-11-7.5 1.5 2.6 2.6 5.1 3.6 8-4-1.4-9.3-3.1-13.4-1.2l-0.1-0.3v0.3c0.4 0.4 0.7 0.5 1.2 0.7 1 0.3 1.9 0.9 2.9 1 0.2 0 0.3 0 0.4 0.1-0.9 0.1-2 0.1-2.8-0.3-1.4-0.8-5.2-1.6-6.8-1.7-0.6 0-0.4 0.1-0.6-0.2 0.9-1.3 2.3-2 3.8-2.7l0.4-0.1-0.1-0.3c1.9-0.8 4.7-0.6 6.7-0.7-2.7-1.5-4.7-1.9-7.8-1.8 2-2.8 4.1-5.2 6.4-7.6-3.4 1-5.9 2.9-8.1 5.7-1 1.1-1.2 1.9-2.6 2.5l-0.2-0.5c0.6-0.2 0.4 0 0.7-0.5-0.1 0-0.1-0.1-0.1-0.2-1-1.2-4.4-1.8-6-2l-0.3-0.3c-0.6 0-0.9 0-1.4-0.1l0.6-0.1 0.1-0.2 0.9-0.3v-0.4c-0.7-0.8-1.4-1.1-2.3-1.3-3.8-0.7-6.9 1-9.9 3.1 1-2.3 1.6-3.9 3.4-5.8l-0.2-0.2c-2.8 0.1-5.5 3-7.6 4.7 1.1-4.8 4.2-9.8 7.8-13.1 0.8-0.7 2.5-1.6 3-2.5l-0.3-0.1c-3.7 0.5-7.2 3.3-10.1 5.5l-0.2-0.3c-0.4 0.1-1.8 1.8-2.4 2.2 0.4-1.1 1.8-1.8 2.1-2.9q0-0.1 0-0.3l-0.1-0.3c-0.1 0-0.2-0.1-0.3-0.1-0.9 0-2.1 0.7-2.9 1.1-3.9 2.2-6 5.7-8 9.5-0.6 1.3-1.2 2.6-2.2 3.5l-0.4-0.2c-0.4-1.7 2.2-7.3 3-9.1-3.2 2.5-4.5 4.9-5.7 8.6-1-1-1.9-2.1-3.3-2.6l-0.3 0.3c-0.1 1.3 0.7 2.4 1.2 3.5-3-0.6-4.7-2.2-6.9-4.1 2.6-4.2 7.2-7.8 12.1-8.7 1.2-0.2 2.9 0 4-0.5-0.3-0.5-0.7-0.6-1.2-0.8-4.7-1.5-8.7-0.3-12.9 1.8 5.1-7 10.5-9.3 18.7-11l0.2-0.5c-0.4-0.4-0.7-0.5-1.3-0.6-5.8-1.2-13.1 2-17.7 5.5-1.6 1.3-3 3-4.8 4.1l-0.3-0.1c0.5-2.1 2.5-4.3 3.8-6 6-7.5 12.4-13.9 19.7-19.9-11.3 4.1-20.2 12.1-27.7 21.3l0.1-0.2c3.4-12.9 12.7-28.1 24.3-34.9-13.4 4.1-19.5 11.2-27.8 21.8 4.3-13.2 10.3-26.8 20.4-36.8 2.5-2.6 5.6-4.4 8.3-6.9 0 0 0.1-0.1 0.2-0.2-1.6 0.6-3.2 1.3-4.7 2.1-10.5 5.6-22 18.1-27.5 28.8-1.7 3.2-2.8 6.4-3.8 9.9-0.6-7.8-2.8-16-7.6-22.3 0.7 2.1 1.5 4.2 2 6.4 2.1 7.8 2.6 15.9 2.9 23.9-2.3-4.5-3.9-9.5-5.6-14.3-1.3-3.5-2.5-7-3.6-10.5-1.1-3.5-2.1-7.1-3.1-10.7q-1.4-5.4-2.5-10.8c-0.8-3.6-1.5-7.2-2.1-10.9-0.9-6-1.3-12.2-2.1-18.3h23.6c3.6 0.2 7.7 0.7 10.9 0.1z"/>
		<path class="s2" d="m337.7 375.1c2.2 0 7.2-0.3 9 0.6 0.2 0.5 0.2 0.4 0.1 0.9l-0.6 0.3c-2.5 0-5.8 0.5-8.3 0-0.6-0.1-0.6-0.2-0.9-0.7 0.2-0.5 0.3-0.7 0.7-1.1z"/>
		<path class="s0" d="m288.8 375.2c4.4-0.1 8.8-0.1 13.2-0.1 2.8 0 5.7-0.2 8.4 0.2 0.4 0.5 0.3 1.2 0.3 1.8l-13.4-0.1c-2.6 0-5.4 0.1-8.1-0.1-0.4-0.6-0.3-1.1-0.4-1.7z"/>
	</g>
</svg>