<svg version="1.2" xmlns="http://www.w3.org/2000/svg" viewBox="0 0 606 372" width="606" height="372">
	<title>file</title>
	<defs>
		<clipPath clipPathUnits="userSpaceOnUse" id="cp1">
			<path d="m86.5 80.62h261.07v277.25h-261.07z"/>
		</clipPath>
		<clipPath clipPathUnits="userSpaceOnUse" id="cp2">
			<path d="m224.94 16.23h288.36v313.64h-288.36z"/>
		</clipPath>
	</defs>
	<style>
		.s0 { fill: #e91e63 } 
		.s1 { fill: #2238af } 
		.s2 { fill: #00bcd4 } 
		.s3 { fill: #25d3ea } 
		.s4 { fill: #ff4182 } 
	</style>
	<g id="6b18599117">
		<g id="Clip-Path" clip-path="url(#cp1)">
			<g>
				<path class="s0" d="m176.7 81.6q0.9 0 4.8 0.5 0.9 0 1.2 0.5 0.2 0.2 0.3 0.3 0.8 2.1 1.1 2.5 0 0.3 2.3 1.5 1.5 2.9 2.6 3.7l2.4 5.1 0.2 0.4q0.1 0.6 0.3 1.7v3.3q0.5 1.4 0.8 5 0.1 1.9-0.3 4.2l-0.1 0.7q-0.1 0-0.2-0.2-0.2-0.1-0.4-2-0.1-0.1-0.2-0.1 0 0-0.1 0.2-0.3 0.3-0.4 1.1 0.4 2.8 0 3.3-0.1 0.3-1.5 1.9-0.4 1.2-0.9 1.9-0.6 0.7-1.7 1-2 0-3.9 0.3-0.5 0.1-1 0.2l-6.3-3.7q-0.8-0.4-2.3-2.7l-1.2-2q-0.2-0.4-0.7-2.1l-0.2-0.6-0.6-4.7 0.1-4.7-1.1-7.3q-0.1-2 0-2.8 0.3-1 1-1.1 0.5-0.1 1.1 0.2 0.2-0.1 0.1-0.9 0.1-0.3 0.2-0.4l4.1-4.1zm-38.1 28.2h0.2q1-0.2 2.2-0.1 1 0.3 2.6 1.5l1.8 1.4q0.8 1 2.8 2.7 0.3 0.2 1.8 2.6 0.2 0.3 1 2.8 0.2 3.7 0.5 4.8l1.2 3q0.3 0.7 0.6 2 0.3 1.5 0.5 4.4 0.3 1.6 1.3 4.6l0.3 1.7q0 0.5-1.7 1.2-0.1 0.3-1.3 1.4l-1.3 0.7q-2.4 1.1-8.5 2.9-0.8 0.1-0.9-0.1l-5.9-10.1q-0.3 0-0.7-0.9 0-0.1-0.4-1.2l-0.4-2.8-1.2-3.9-1.1-7.4q-0.1-0.6 0.5-2.7 0.5-1.3 0.8-2.5 0.3-0.9 0.6-2.9 0-0.2 0.2-0.4 1.3-2.1 4.5-2.7zm43.2 10.3h0.2q0.6 0 2.1 0.3l1.7-0.4q0.3 0.1 1.4 0.7 0.1 0.1 0.6 0 0.7-0.1 1.9-0.5 1.5-1.1 2.1-1.2 0.3-0.1 0.4 0 0.3 0.1 0.5 1 0.1 0.5 0 1.5 0 0.2 0 0.4 1.2 2 1.4 2.7 0.2 0.2 0.2 0.9 0 0.3 0 1.4-0.3 2-0.4 4.5l-0.2 1.7-0.2 10.3q-0.4 2-0.5 2.3 0 1.4-6.5 2.5-1 0.1-2.2 0.3l-3.8-17.5q-0.1-0.3-0.7-3 0-0.3-1.5-2.7-0.2-0.4-0.2-0.8-0.1-0.8 0.2-1.1 1.8-0.8 1.8-1 0.3 0 0.9-1.7 0.3-0.5 0.8-0.6zm48.6-28.8q0 0 0 0h0.1q4.9-0.2 5.5 0.4 0.4 0 2.3 3.2 1.7 1.7 2.5 2.7 0.2 0.2 0.5 0.8 0.7 2.3 1.1 3.1l1.6 3q0.2 2.5 0.3 2.7 0.2 0.7 1.3 3 0.1 0.3 0.1 0.6 0 0.4 0 1.1 0 0.2-0.5 3.2-0.2 3-0.4 4.3-0.8 2.8-1.5 3.7-0.9 1.2-1.7 1.5-1.2 0.1-1.9 0.2-0.4 0.1-0.6 0.2-0.6 0.4-1.1 1.4-0.1 0.2-0.3 0.3-0.1 0-0.1 0 0.3 0.2 0.4 0.3 2.6 0.5 3.6 1.4 1.5 0.8 2 3.3l0.4 4.6q0.4 2.1 0.5 2.7 0.1 1 0 2.4-0.7 3.1-1 5.4-0.9 2.3-1 3 0 0.8 0 1 0.3 2.6 0.2 3-0.2 0.9-0.9 1-0.2 0-0.4-0.1-0.3 0-0.6-0.2l-3.5-2.3q-0.2 0-0.6 0-0.7 0.1-2 0.7 0 0 0 0-0.5 0-1.1-0.2-1.5-1-3.3-2.9-0.8-0.9-1.1-2-0.1-0.4-0.1-0.8 0.7-3.1 0.7-4-0.4-4-1.1-7.8-0.2-0.8-1.1-3.7-0.1-0.9 0-1.6 0.4-1.4 1-1.9 0.2-0.3 2.8-0.8 0.6-0.2 0.9-0.4 0.4-0.1 0.8-0.5l-2.8-2.1q-1.3-0.4-2.1-1-0.9-0.6-1.3-1.2-0.3-0.4-0.4-1.5-0.4-1.9-0.9-6.3-1.8-5-1.9-6.2 0-0.4 0-1.1 1.2-5.3 1.4-8.3 0.1-0.2 0.3-0.5 0.9-0.8 1.1-1 0.3-0.4 0.6-0.9 0.1-0.1 0.2-0.6 0-1.5 0.1-2-0.1-0.1 0.4-0.7 1-1.3 2.6-1.6zm-78.8 55.1q0.1 0 0.2 0 0.1-0.1 0.1-0.1 1-0.1 1.3 0.1 1.1 1.1 1.3 1.2 0.4 0.3 0.6 0.4 0.2 0.1 0.6 0.9 0.7 0.2 0.7 0.3 0.2 0.3 0.3 0.6l0.1 0.3q0 0.2 0.1 1.2 0 1.1-0.1 2-0.1 0.2 0.1 1 0.1 0.9 1 2.5l0.4 3.4q0.1 0.6 0.6 1.3l0.1 0.6q0.1 0.7-0.6 2.3-0.1 0.5 0 1.2 0.4 1.2 1.2 3.7l2.7 7.5h-2.8q-0.4 0.1-0.6 0.3-1.1 1.2-1.6 1.3l-3.4 0.5q-1.1 0.8-2.5 1.4-0.2 0.5-0.2 2.2-0.2 0.5-0.4 0.5 0 0-0.1 0-0.1 0-0.2-0.1l-2.4-3q-0.4-0.5-0.7-1.4-0.4-1.1-0.4-1.4-0.4-4.3-0.6-4.7l-0.5-1.9q-0.2-0.6-0.5-1.2-0.5-1.3-1.1-2.5l-0.7-4q-0.5-0.8-1.1-2-0.2-0.5-0.4-1-0.3-0.9-0.9-4.6-0.3-1-0.4-1.2-0.5-0.7-0.6-1.1-0.1-0.1-0.2-0.7-0.1-0.4 0.3-0.8 1.4-1 1.8-1.2l4.7-1.4q3.7-2.3 4.8-2.4zm38.7 17.3q0.9-0.1 1.2 0 1.8 1.1 2.3 1.1 1.1 0.2 3.4-0.1l0.7 0.1q1.3 0.3 1.8 1.2 0.5 0.9 0.6 2.6-0.1 3.1-0.5 6.4 0 0.9 0 1.3 0.5 3 0.6 3.6 0.1 0.5 1.5 4.2 0.1 0.4 0.1 0.7 0.1 0.5-0.3 1.4-0.3 0.6-0.9 0.7-0.9 0-1.6-0.6-0.2-0.4-0.5-1.3-0.2-0.4-0.6-2.1-0.1-0.6-0.4-1-0.8-1.5-2-1.4-0.2 0-0.3 0-2.2 0.4-4.1 1.7-0.5 0.6-0.5 0.9 0 0.3 0 0.5l-0.5 3.6q-0.5-1.4-0.9-3.3-1-2.3-1.3-3.2l-1-3.9q-0.1-0.5-0.1-1.1 0.1-2.6 0-4.1 0-1.7 0.2-3l0.3-1.2q0.2-1.1 0.6-1.9 0.8-1.6 2.2-1.8zm48.4-5l0.8 0.3q3.1 0.9 3.4 2 0 0.5-0.6 1-0.1 0.2-2 0.7-0.2 0.1-0.2 0.4 0.1 0.3 0.3 0.4 1.5 0.3 1.8 0.5 0.9 0.6 1.1 1.1 0.1 0.2 0.2 0.8-0.3 1.9-0.1 3l1.4 4q0.4 1.5 0.7 2.9 0.2 1.1 0.1 2.4-1.1 3.6-1.2 4.7l0.5 3.1q0.1 1 0.2 1.9 0.1 1.9 0.2 3.8l0.4 2.2q-0.1 0.5-0.4 0.8-1.5 1.2-1.7 1.7-0.4 0.5-0.5 2-0.2 0.4-0.4 0.7-2.3 2.3-3.4 2.5-0.3 0.1-0.5 0-1.3-0.5-1.9-1.8l2-5.7q-0.3-1-0.5-4.8l-0.5-2.8q-0.3-1.4-0.6-2.2-0.2-0.4-0.6-1 0-0.2-1.5-0.9-0.7-0.4-4.7-0.6l-0.4-0.2q-0.4-0.3-0.5-1.3-0.1-0.5 0-0.7 0.1-0.5 0.4-1.2 0-0.2 0-0.4 0-0.1-0.4-0.4-0.7-0.4-1-0.7-0.4-0.4-0.4-0.9 0.3-1.3 0.8-1.8 1.9-1.6 4.6-3.3 0.4-0.4 0.5-0.6 0-0.6-0.3-0.8-3.4-1.5-3.7-2.6 0-0.6 1.2-1.2l3.3-0.7q0.5-0.1 0.6-0.4 0-0.3-0.2-0.7-1.5-1.6-2-2.5-0.4-0.7-0.2-1.2 0.1-0.2 0.2-0.2 0 0 0 0zm-145.8 20.7h0.1q0.1-0.1 0.1 0 0.1 0 0.2 0 0.6-0.1 1.7 0 0.7 0 1.5 0.4 0.5 0.2 1.9 1.5 3.4 1.6 3.7 2.3 0.7 0.8 1.8 3.4 1.7 5.1 2 5.7-0.1 0.1 3.2 4.3l0.3 0.5 0.7 2.4q0.6 2 0.6 3.1-0.2 3.7-1 5-0.1 1-7 4.3l-5.7-6.1q-1.9 0.1-2.5-0.9-0.7-0.9-2.5-4.3-1.9-1.8-2.9-3.1-1.3-2.2-1.9-4-0.5-1.3-0.7-5.7 0-1 0.5-2.3 0.2-0.5 0.7-1.2l2.6-3q2.1-2.3 2.6-2.3zm137.1 11.2l1.3 1.2-0.4 0.7q-0.2-0.5-0.4-1-0.1-0.2-0.2-0.4l-0.1-0.2q-0.1-0.1-0.2-0.3zm-36.2 5.3h0.1q0.4 0 0.8 0.3 0.2 0.2 0.9 1.2 0.6 1 1.9 3.5 0.1 0.2 0.2 0.7l0.1 0.3q0 0.5-0.2 1-0.2 0.4-0.7 0.8-0.5 0.4-3 0.9l0.9-2.9q-1-0.7-1.4-1.4-0.1-0.2-0.4-1.5-0.2-1-0.3-1.5 0-1.1 1.1-1.4zm-34.2-16.8q0.1-0.1 0.2-0.1h0.4q1.1-0.1 2.2 0.2 0.4 0.1 0.7 0.2 0.3 0.3 0.3 0.4 0.3 0.8-0.2 2.2-0.3 1.2-1.2 2.2-0.1 0.1 0.1 0.4 0.6 1.1 0.9 1.5l1.2 0.7q1.8 0.3 1.9 0.4 0.9 1.2 2.8 2.6 0.4 0.5 0.6 1.1 0.3 2.7 0.1 4 0.6 3.8 0.6 4-0.1 1.2-0.8 4.1 0.4 3 0.3 3.4l-0.9 1.9q0 0.7-0.3 1.4-0.1 0.4-0.8 0.4 0 0.1 0 0.1-1.4 0.1-3.3-0.4-0.1-0.1-0.1-0.3 0.3-0.6 0.5-1.3l0.1-1.6q0-1 0-1-0.1-0.3-0.4-0.4 0 0.1 0 0.1-0.7 0.1-1.4 1.1-0.1 0.2-0.1 0.5 0.2 1.8 0.1 2-0.4 1-0.8 1.3-0.1 0.1-0.1 0.1-0.1 0-0.2 0-2.1-1.5-2.1-1.5-0.2 0-1.1-2.3l-1.2-1.2-0.2-0.2q-0.1-0.2-0.2-0.6-0.3-1.8-0.4-2-0.1-0.5-0.2-0.7-0.2-0.3-2.3-1.9-0.1-0.2-0.3-0.5l-0.1-0.2q-0.5-2.5-0.8-3.5-0.3-1.4-0.8-2.7-0.2-1.6 0.3-2.3 0.3-0.3 0.9-0.8 0-0.1 0-0.2 0.2-0.5 1.1-1.7 0.1-0.2 0.4-0.3l0.8-0.3 0.1-0.1q0-0.3 0-0.7 0-0.3-0.2-0.7-0.9-1.9-0.9-2.3-0.2-0.8 0.2-1.6 2.6-2.6 4.6-2.9zm71.3 13.4v0.1q0.1 0.2 0.3 1.4 0.1 0.9 0.1 1.6-0.2 1.2-0.8 2.1-0.9 1.4-3.1 3.5-0.4 0.5-1 1.5 0 0.1-0.1 0.2-0.2 0.2-0.4 0.2-0.2 0-0.5 0-0.4-0.1-0.7-0.3-0.1-0.1-0.2-0.3 0-0.2 0-0.6 0-0.1 0.1-0.2 0.2-0.7 0.9-1.8 0.7-1.2 3.8-5 0.2-0.3 1.6-2.4zm-1.5-2.5q0 0 0.1 0.1l0.1 0.1q0.1 0 0.1 0.1 0.2 0.1 0.3 0.3c0 0-0.6-0.6-0.6-0.6zm-120.2 21.9q0.7-0.1 2.5 0.7 0.2 0.1 0.4 0 0.3 0 0.7-0.2 0.2 0 0.4 0.1 0.1 0.2 0.2 0.3 0.6 2.1 1 2.8 0.3 0.9 1.2 2.7 0.7 2 1.1 2.9l7.5 6.7q-1.9 1.8-3.4 2.8-0.8 0.6-1.5 0.9-1.3 0.6-1.7 0.7 0 0-0.1 0 0 0-0.1 0-0.8 0.1-1.5-0.4-1.5-2.4-2.7-3.7-3.2-2.9-5.4-4.3-0.9-0.9-1.3-1.8-0.3-0.5-0.8-4.1l-0.3-2.5 0.2-0.6q0.6-2.5 3.4-2.9 0 0 0 0 0.1-0.1 0.2-0.1zm14.8 20.4h0.1q0.2 0 0.5 0.2 2.1 2.2 3.6 3.4l2.1 2.7q2.1 1.1 3 2.3 0.5 0.6 0.7 1.8 0 0.6 0 1l-0.1 1.7q0 0.9 0.2 1.6 0.2 0.9 0.9 2.6 0.1 0.3 0.2 0.8l4.9 6.5q-1.9-0.7-3.3-1.1-0.5-0.1-1.2-0.7-0.5-0.3-2.3-3.6-0.5-0.7-2.2-2.3-1.5-2.3-1.6-2.4-1.1-0.8-3.3-3.5-0.4-0.5-2.7-2-0.8-0.6-1.2-1.3-0.9-1.4-0.5-3 0.6-2.4 1.1-3.6l0.6-0.8q0.1-0.2 0.5-0.3zm91.4-26l1.1 0.3q4.4 1.2 13.1 0.5l7.6 2.2 4.6 5.5q0.5-0.2 1-0.3 2-0.3 3.7 1.7 1.1 1.4 0.7 3.8-3.5 5.3-2.8 6.4 0.7 1.8 3.3 5.1v6.2q7 11 11.4 14.4l1.7 3.2q6.1 12.6 4.9 18.7 0.6 0.8 1.1 1.6 0.6 0.3 1.4 0.7 3.2-0.1 7.2 1.3l8.7-4.2q0 0 0 0 0.5-0.1 0.9 0.1 1.2 1 2.1 1.2 0.7 0.2 1.5 0.1 0.4-0.1 0.8-0.2 1.1-0.9 5.4-6.5 0.9-0.9 2-1.2l1.2-0.1q3.4-0.2 3.6 0.3 0.3 0.3 0.4 0.7-0.1 0.2 0 0.5h0.5q0.2-0.5 4.1-4.4 0.6-0.6 2.4-1.2 0.4-0.3 0.6-0.7 0.2-0.7 0.1-2-0.8-4.8-0.7-5.5 0.1-1.1 0.2-1.9-4.3-2.1-5-2.9-1.8-1.4-2.1-2.6 3.6-2.9 3.2-4.4 0.2-1.1-2.2-5.1-0.4-1.6-0.2-2.1 0-0.3 0.7-1 3.7-2.5 3.8-3 1.4-2.5 1.7-7.3l3.9-6.2q3.2-2.5 8.3-5.5 2.6-1.5 4.9-2 0.5-0.1 1.1-0.2 2.3-0.4 6.9-0.5 4.1-1.6 5.8-1.9 0.2 0 0.3 0h0.3q2.3-0.3 3.8 0.2 0.3 0 1.4 0.9 0.3 0.3 0.9 1.3l0.1 0.5q0.3 0.9-2.1 8.5l-4 7.9q-3.6 3.4-3.9 3.9-1.6 2.3-2.2 4.5-1.9 3.1-2.5 3.7-4.9 4.1-9.1 5.6l-1 2.6-0.7 3.5q-0.8 2.1-2.1 6.3-0.4 0.8-0.6 1.2-1 2.2-1.9 3.9-1.6 1.5-2.5 2.1-2.1 1.4-9.1 3.4-0.4 0.1-1.6 1-0.1 0-0.2 0-0.6 0.1-1.2-0.1 0.1 0.7-0.1 2-0.6 4.2-3.5 14.6l-1 1.9q-2.3 6.8-4.2 10.9-0.8 1.7-1.4 2.6-1.3 1.6-3.5 3.6-0.6 0.8-1.3 2.1l-0.3 0.6q-1.2 5.6-1.9 7.7-0.2 0.7-1.5 2.4-1.1 1.6-4.6 5l-5 7.5q-2.5 4.8-2.5 6.3-0.4 0.7-1.7 1.4-3.3 2.1-15.9 4.8-0.2 0.1-0.4 0.1-2.2 0.4-7.1-0.3l-4.5 4.8-11.3 4.5-35.2 6.6q-8.2 0.1-11.7-1.3-7.2-2.4-13.8-6.8-1.7-1.2-7.3-7.8l-3.4-6.5q-2-4.4-1.8-5.2l0.8-12.7q-2-1.7-4.1-5.8-1.6-2.4-5.3-14.2l-2.1-4.1q-2.6-5.1-7-10.5l1.3-16.1 14-14.8 5.6-9.7q1.8-0.3 5.7-4.8 7.7-9.3 13.4-17.8 2.9-1.6 8.3-2.5 0.3-0.1 0.6-0.1l7.1-5.3q4.4-1.7 9-2.4 2.7-0.5 5.5-0.6z"/>
			</g>
		</g>
		<g id="Clip-Path" clip-path="url(#cp2)">
			<g>
				<path class="s1" d="m392.8 16.5h-0.1q-1 0.1-5.2 1.4-1 0.2-1.3 0.8-0.2 0.3-0.3 0.4-0.5 2.5-0.8 2.9 0.1 0.4-2.2 2.2-1.2 3.5-2.3 4.6l-1.8 6.1-0.1 0.5q-0.1 0.7 0 2l0.5 3.6q-0.3 1.7 0.1 5.8 0.2 2.2 1 4.6l0.3 0.8q0.1-0.1 0.2-0.2 0.1-0.2 0-2.3 0.1-0.2 0.2-0.2 0.1 0 0.2 0.1 0.4 0.4 0.7 1.3 0 3.1 0.6 3.7 0.1 0.3 2 1.8 0.6 1.3 1.4 2 0.8 0.7 2 0.8 2.2-0.4 4.4-0.4 0.6 0 1.1 0.1l6.4-5.4q0.8-0.5 2.1-3.3l1-2.5q0.2-0.5 0.5-2.5v-0.6l-0.2-5.4-0.9-5.3-0.1-8.3q-0.2-2.3-0.5-3.1-0.5-1.2-1.3-1.2-0.5 0-1.2 0.5-0.2-0.1-0.3-1.1-0.1-0.2-0.2-0.3l-5.3-3.8zm47.7 24.6h-0.3q-1.2 0-2.5 0.3-1 0.5-2.6 2.2l-1.8 1.9q-0.7 1.2-2.7 3.5-0.2 0.3-1.5 3.3-0.2 0.3-0.5 3.2 0.3 4.2 0.2 5.5l-0.8 3.5q-0.2 1-0.3 2.4-0.1 1.7 0.3 5-0.1 1.9-0.7 5.5v1.8q0.1 0.6 2.1 1.1 0.2 0.3 1.7 1.3l1.6 0.6q2.9 0.7 10.1 1.7 0.8 0 0.9-0.3l4.8-12.4q0.3 0 0.6-1.1 0-0.1 0.2-1.3v-3.3l0.7-4.5-0.2-8.5q0-0.7-1-3-0.8-1.3-1.4-2.6-0.5-0.9-1.1-3.2-0.1-0.2-0.3-0.4-1.9-2.1-5.5-2.2zm-46.6 19.3h-0.1q-0.8 0.1-2.4 0.8l-1.9-0.1q-0.4 0.1-1.4 1-0.2 0.1-0.8 0.1-0.8 0-2.2-0.2-1.8-1.1-2.6-1.1-0.2 0-0.4 0.2-0.3 0.1-0.4 1.2 0 0.5 0.3 1.6 0.1 0.3 0 0.5-0.9 2.5-1 3.3-0.1 0.2-0.1 1.1 0.1 0.3 0.3 1.5 0.7 2.2 1.2 4.9l0.6 1.9 2 11.5q0.9 2.2 1.1 2.4 0.2 1.7 7.6 1.7 1.2 0 2.6-0.1l1-20.2q0.2-0.4 0.3-3.5 0-0.3 1.2-3.2 0.1-0.6 0.1-1.1-0.1-0.8-0.5-1.1-2.1-0.6-2.1-0.8-0.4 0-1.3-1.7-0.5-0.5-1.1-0.6zm-59.5-23.4q0 0 0 0h-0.1q-5.5 0.6-6.1 1.4-0.4 0-2 3.9-1.7 2.3-2.3 3.5-0.2 0.3-0.5 1.1-0.3 2.6-0.6 3.6l-1.2 3.7q0.2 2.8 0.1 3-0.1 0.8-0.9 3.7 0 0.3 0 0.6 0 0.5 0.2 1.2 0 0.3 1.1 3.6 0.8 3.3 1.3 4.6 1.4 3.1 2.3 3.9 1.2 1.2 2.2 1.5 1.4-0.2 2.1-0.2 0.5 0 0.7 0.1 0.7 0.3 1.5 1.4 0.2 0.2 0.4 0.3 0.1 0 0.1 0-0.3 0.3-0.4 0.4-2.7 1-3.8 2.2-1.4 1.2-1.6 4l0.4 5.3q-0.1 2.4-0.1 3 0.1 1.2 0.5 2.8 1.3 3.3 2.1 5.8 1.3 2.4 1.6 3.2 0.2 0.9 0.2 1.1 0.1 3 0.3 3.4 0.4 0.9 1.2 0.9 0.2 0 0.5-0.1 0.3-0.1 0.6-0.4l3.4-3.1q0.3-0.2 0.7-0.2 0.9 0 2.4 0.4 0 0 0 0 0.6 0 1.2-0.4 1.5-1.4 3.1-3.8 0.8-1.2 0.9-2.4 0.1-0.5-0.1-1-1.3-3.3-1.4-4.3-0.3-4.6-0.2-9 0.1-0.9 0.6-4.3-0.1-1-0.3-1.7-0.7-1.5-1.5-2.1-0.3-0.2-3.2-0.3-0.7-0.1-1.2-0.2-0.4-0.2-0.9-0.5l2.7-2.8q1.4-0.8 2.2-1.6 0.9-0.8 1.2-1.6 0.3-0.5 0.3-1.7 0-2.2-0.2-7.3 1.1-5.8 1-7.2 0-0.5-0.2-1.2-2.3-5.7-3.1-9.1-0.1-0.1-0.4-0.4-1.2-0.7-1.4-1-0.5-0.3-0.8-0.8-0.1-0.2-0.3-0.7-0.3-1.7-0.5-2.2 0.1-0.1-0.6-0.8-1.4-1.2-3.2-1.2zm98.1 47.4q-0.1 0-0.2 0h-0.1q0 0-0.1 0-1.1 0-1.4 0.3-1 1.4-1.3 1.6-0.3 0.4-0.6 0.5-0.1 0.1-0.4 1.2-0.8 0.3-0.8 0.4-0.2 0.4-0.2 0.7l-0.1 0.3q0.1 0.3 0.2 1.4 0.1 1.3 0.5 2.2 0 0.3 0 1.3 0 0.9-0.7 2.8l0.2 4q0 0.6-0.5 1.5v0.7q0.1 0.8 1.1 2.4 0.2 0.6 0.2 1.4-0.1 1.4-0.6 4.3l-1.7 9 3.1-0.5q0.5 0 0.8 0.2 1.4 1.1 2 1.2l3.9-0.2q1.3 0.8 3 1.2 0.4 0.5 0.7 2.4 0.3 0.5 0.5 0.5 0 0 0.1 0 0.1 0 0.2-0.1l2.2-3.8q0.3-0.6 0.5-1.7 0.2-1.3 0.2-1.7-0.3-4.9-0.2-5.4l0.3-2.2q0.1-0.7 0.2-1.4 0.3-1.5 0.8-3l0.1-4.6q0.4-1 0.9-2.4 0.1-0.6 0.2-1.2 0.2-1 0.2-5.4 0.2-1 0.2-1.4 0.4-0.8 0.5-1.3 0.1-0.1 0.1-0.8 0-0.4-0.5-0.9-1.7-0.8-2.2-0.9l-5.5-0.8q-4.6-1.8-5.8-1.8zm-40.1 26.4h-0.1q-1 0-1.3 0.2-1.8 1.5-2.4 1.6-1.2 0.4-3.8 0.5l-0.8 0.2q-1.4 0.6-1.8 1.7-0.4 1.1-0.2 3.1 0.7 3.4 1.7 7 0.2 1 0.2 1.5 0.1 3.3 0 4.1 0 0.5-0.9 5 0 0.4 0 0.7 0 0.6 0.6 1.5 0.5 0.7 1.1 0.7 1.1-0.2 1.7-1 0.2-0.5 0.4-1.5 0.1-0.6 0.2-2.5 0.1-0.7 0.3-1.2 0.7-1.8 2-1.9 0.2 0 0.4 0 2.5 0 4.9 1.1 0.6 0.6 0.6 1 0.1 0.2 0.2 0.5l1.2 3.9q0.3-1.7 0.3-3.8 0.8-2.8 0.9-3.8l0.5-4.5q0-0.7-0.1-1.3-0.6-2.9-0.7-4.7-0.4-1.8-0.9-3.2l-0.4-1.3q-0.5-1.2-1.1-2-1.2-1.6-2.7-1.6zm-39.1 36.4q0 0.1-0.1 0.1l-0.1 0.1q0 0.1-0.1 0.2-0.1 0.2-0.2 0.4c0 0 0.5-0.8 0.5-0.8zm150.7-36.5v0.1q-0.1 0-0.1 0-0.1 0-0.3 0-0.7 0-1.9 0.3-0.7 0.2-1.5 0.7-0.6 0.4-1.9 2.1-3.5 2.4-3.7 3.2-0.7 1.1-1.5 4.2-0.9 6-1.2 6.7 0.2 0.1-2.8 5.4l-0.2 0.6-0.4 2.8q-0.3 2.4-0.1 3.5 0.9 4.2 2.1 5.5 0.3 1.1 8.6 3.5l5.2-7.8q2.2-0.2 2.7-1.5 0.7-1.1 1.9-5.3 1.9-2.3 2.8-3.9 1.1-2.7 1.4-4.9 0.3-1.5-0.3-6.4-0.1-1.1-0.9-2.5-0.3-0.6-1-1.2l-3.5-2.9q-2.7-2.2-3.4-2.2zm-151.3 37.3l-1.2 1.6 0.6 0.7q0.1-0.7 0.2-1.2 0.1-0.2 0.2-0.5l0.1-0.2q0.1-0.2 0.1-0.4zm41.5-0.6l-0.1 0.1q-0.5 0-0.9 0.4-0.2 0.3-0.7 1.5-0.6 1.2-1.6 4.3-0.1 0.2-0.1 0.8v0.3q0.1 0.6 0.4 1.1 0.3 0.4 1 0.8 0.5 0.3 3.5 0.4l-1.5-3q0.9-0.9 1.2-1.9 0.1-0.2 0.2-1.7 0.1-1.1 0-1.7-0.1-1.3-1.4-1.4zm35.2-25q-0.1 0-0.2 0h-0.4q-1.3 0.1-2.5 0.6-0.4 0.2-0.8 0.4-0.2 0.4-0.2 0.5-0.2 0.9 0.6 2.4 0.6 1.4 1.8 2.3 0 0.1-0.1 0.5-0.5 1.3-0.7 1.8l-1.2 1q-2 0.6-2.1 0.8-0.8 1.5-2.6 3.4-0.4 0.7-0.5 1.3 0.1 3.1 0.6 4.5 0 4.4 0.1 4.6 0.3 1.3 1.6 4.4 0.1 3.5 0.2 3.9l1.4 1.9q0.1 0.9 0.5 1.5 0.3 0.5 1 0.5 0.1 0 0.1 0 1.5-0.1 3.6-1 0.1-0.1 0-0.4-0.4-0.6-0.7-1.4l-0.4-1.8q-0.2-1-0.2-1 0-0.4 0.4-0.5 0.8 0 1.7 1 0.2 0.3 0.3 0.6 0.1 2 0.2 2.2 0.6 1.1 1.1 1.4 0.1 0 0.2 0 0.1 0 0.1 0 2.1-2.1 2.1-2.1 0.3 0 0.8-2.7l1.2-1.6 0.1-0.2q0.1-0.3 0.2-0.7 0-2.1 0-2.4 0.1-0.5 0.2-0.8 0.1-0.4 2.1-2.5 0.2-0.3 0.3-0.7l0.1-0.1q0.1-2.9 0.2-4.1 0.2-1.6 0.5-3.2-0.1-1.9-0.7-2.5-0.4-0.3-1.2-0.8 0-0.1-0.1-0.2-0.3-0.5-1.5-1.7-0.1-0.1-0.4-0.3l-1.1-0.2q-0.1-0.4-0.2-0.8 0-0.4 0.1-0.8 0.6-2.3 0.6-2.8 0.1-0.9-0.5-1.7-3.4-2.5-5.7-2.5zm-77.3 27.9q-0.1 0.3-0.1 1.7 0 1 0.2 1.8 0.4 1.3 1.3 2.2 1.2 1.4 4.1 3.4 0.5 0.4 1.3 1.5 0.1 0.1 0.2 0.2 0.3 0.1 0.5 0.1 0.2 0 0.5-0.1 0.4-0.2 0.7-0.5 0.2-0.1 0.2-0.3 0-0.2-0.1-0.6 0-0.1-0.1-0.3-0.4-0.7-1.3-1.8-1.1-1.3-5.2-4.9-0.3-0.3-2.2-2.4zm-14.8-36.4l-0.9 0.4q-3.2 1.6-3.4 2.9 0.1 0.6 0.9 1 0.1 0.1 2.3 0.4 0.3 0 0.3 0.4 0 0.4-0.3 0.6-1.6 0.5-1.9 0.8-0.9 0.9-1 1.4-0.1 0.3-0.1 0.9 0.7 2.1 0.6 3.4l-0.7 4.8q-0.3 1.7-0.4 3.3 0 1.3 0.3 2.7 2 3.8 2.2 5.1l0.1 3.5q0 1.1 0.1 2.2 0.2 2.1 0.5 4.2l-0.1 2.6q0.2 0.5 0.6 0.8 1.9 1.1 2.2 1.6 0.5 0.5 1 2.2 0.1 0.3 0.5 0.7 3 2.2 4.3 2.2 0.3 0 0.5-0.2 1.4-0.8 1.8-2.3l-3.3-6q0.2-1.2-0.3-5.5v-3.2q0.2-1.6 0.4-2.6 0.1-0.4 0.4-1.2 0-0.2 1.5-1.2 0.8-0.7 5.3-1.6l0.3-0.3q0.4-0.4 0.4-1.5-0.1-0.6-0.2-0.8-0.2-0.6-0.6-1.3-0.1-0.2-0.1-0.5 0-0.1 0.3-0.5 0.8-0.5 1.1-0.9 0.3-0.6 0.2-1-0.5-1.5-1.2-1.9-2.4-1.5-5.7-2.9-0.6-0.3-0.6-0.6-0.2-0.6 0.1-1 3.6-2.2 3.7-3.5-0.1-0.7-1.6-1.2l-3.8-0.1q-0.5-0.1-0.7-0.3-0.1-0.5 0.1-0.9 1.3-2.1 1.7-3.2 0.3-0.8 0.1-1.3-0.2-0.2-0.3-0.2 0 0 0 0zm154.5 36.2q-0.8 0-2.8 1.3-0.1 0-0.3 0-0.4 0-0.9-0.1-0.2 0-0.4 0.2-0.1 0.2-0.1 0.4-0.4 2.4-0.6 3.3-0.3 1.1-1 3.3-0.3 2.3-0.7 3.3l-7.2 8.8q2.5 1.7 4.4 2.6 1 0.5 1.8 0.8 1.6 0.4 2 0.4 0.1 0 0.1 0 0.1 0 0.2 0 0.8 0 1.6-0.7 1.2-3 2.4-4.7 3-3.8 5.2-5.8 0.9-1.1 1.1-2.2 0.3-0.6 0.2-4.7l-0.2-2.9-0.2-0.6q-1.2-2.7-4.4-2.7 0 0 0 0h-0.1q0 0-0.1 0zm-12.9 25.5h-0.1q-0.3 0-0.5 0.3-2 2.8-3.5 4.4l-1.8 3.4q-2.2 1.6-3 3.2-0.4 0.7-0.4 2 0 0.8 0.1 1.2l0.5 2q0.1 0.9 0.1 1.7-0.1 1.1-0.6 3.1-0.1 0.4-0.1 0.9l-4.2 8.2q1.9-1.1 3.4-1.8 0.5-0.3 1.2-1 0.5-0.5 1.9-4.5 0.5-0.8 2.1-2.9 1.2-2.9 1.4-3 1-1.2 3-4.6 0.4-0.5 2.7-2.6 0.7-0.9 1.1-1.7 0.8-1.8 0-3.5-1.1-2.6-1.9-3.9l-0.8-0.7q-0.2-0.2-0.6-0.2zm-107-12.7l-1.1 0.6q-4.7 2.1-14.7 2.8l-8 3.9-4.2 7q-0.6-0.1-1.1-0.1-2.3 0-3.9 2.5-1 1.7-0.1 4.3 4.9 5.3 4.4 6.7-0.5 2.1-2.8 6.4l1.1 6.8q-5.8 13.6-10.3 18.2l-1.2 3.9q-4.6 15.2-2.1 21.8-0.5 1.1-1 2-0.6 0.4-1.4 1.1-3.6 0.4-7.8 2.7l-10.5-3.1q0 0 0 0-0.6 0-0.9 0.2-1.3 1.4-2.2 1.8-0.8 0.3-1.7 0.3-0.5 0-0.9 0-1.4-0.8-7.2-6.3-1.3-0.9-2.5-1l-1.3 0.1q-3.9 0.3-4 1-0.3 0.3-0.3 0.8 0.1 0.2 0.1 0.6l-0.6 0.1q-0.4-0.5-5.4-4.2-0.8-0.5-2.9-0.9-0.5-0.3-0.8-0.7-0.4-0.8-0.5-2.2 0-5.6-0.2-6.3-0.3-1.2-0.5-2 4.4-3.2 5.1-4.2 1.7-1.9 1.8-3.3-4.5-2.6-4.4-4.3-0.4-1.2 1.5-6.2 0.2-1.8-0.1-2.4-0.1-0.3-1-0.9-4.5-2.2-4.7-2.7-2.1-2.6-3.2-7.8l-5.5-6.3q-4-2.2-10.3-4.7-3.2-1.2-5.9-1.3-0.5-0.1-1.2-0.1-2.6 0-7.8 0.8-4.9-1.1-6.9-1.1-0.2 0-0.4 0h-0.2q-2.7 0.1-4.3 1-0.3 0.1-1.3 1.3-0.3 0.3-0.8 1.6v0.5q-0.3 1.1 3.8 9.1l5.9 8.2q4.6 3.1 5.1 3.7 2.2 2.2 3.2 4.6 2.7 3.2 3.5 3.6 6.3 3.7 11.2 4.7l1.6 2.7 1.5 3.8q1.2 2.2 3.4 6.6 0.6 0.9 0.9 1.3 1.5 2.3 2.8 4 2 1.4 3.2 2 2.6 1.1 10.8 2.1 0.4 0 1.9 0.8 0.2 0 0.3 0 0.7 0 1.3-0.3 0.1 0.7 0.5 2.2 1.4 4.6 6.5 15.7l1.5 2q3.9 7.1 6.7 11.4 1.1 1.7 2.1 2.6 1.6 1.6 4.5 3.5 0.8 0.7 1.8 2.1l0.5 0.6q2.3 6 3.5 8.2 0.3 0.8 2.1 2.5 1.5 1.6 6 4.7l7 7.5q3.7 5 3.9 6.6 0.6 0.7 2.1 1.3 4.1 1.7 18.7 2.5 0.2 0 0.5 0 2.5 0 7.9-1.6l5.9 4.5 13.5 3.1 40.4 1q9.3-1.3 13-3.6 7.6-3.9 14.2-10.1 1.7-1.5 6.7-10l2.7-7.9q1.3-5.3 1-6.2l-3.2-14q2-2.2 3.6-7.2 1.3-3 3.3-16.9l1.6-4.9q2.1-6.2 6-13l-4.4-17.8-18.3-14.1-8-9.8q-2.1 0-7.3-4.3-10.3-9-18.2-17.5-3.5-1.3-9.7-1.3-0.4 0-0.7 0l-8.9-4.7q-5.2-1.1-10.5-1.1-3.1 0-6.3 0.4z"/>
			</g>
		</g>
		<path class="s2" d="m312.9 178.9q0.5 0.1 2.4 1 0.5 0.1 0.6 0.4 0.1 0.1 0.1 0.2 0.1 1.2 0.2 1.5 0 0.1 1 1.1 0.4 1.7 0.9 2.3l0.5 3 0.1 0.3q0 0.3-0.1 0.9l-0.5 1.7q0.1 0.9-0.3 2.8-0.2 1-0.7 2.2l-0.2 0.3q0 0 0-0.1-0.1-0.1 0-1.1 0-0.1 0-0.1-0.1 0-0.1 0.1-0.3 0.1-0.4 0.5-0.2 1.5-0.5 1.8-0.1 0.1-1 0.7-0.4 0.6-0.8 0.9-0.4 0.3-1 0.3-1.1-0.3-2.1-0.4-0.3 0-0.5 0l-2.8-2.9q-0.4-0.3-0.9-1.7l-0.3-1.2q-0.1-0.3-0.1-1.3v-0.3l0.3-2.5 0.7-2.5 0.5-4q0.2-1.1 0.4-1.5 0.3-0.5 0.7-0.4 0.2 0 0.5 0.2 0.1 0 0.2-0.4 0.1-0.2 0.1-0.2l2.8-1.6zm-24.1 9.5h0.1q0.6 0.1 1.2 0.3 0.5 0.2 1.2 1.1l0.7 1.1q0.3 0.6 1.1 1.7 0.1 0.2 0.6 1.7 0.1 0.2 0.1 1.6-0.4 2-0.4 2.6l0.2 1.7q0.1 0.5 0 1.2 0 0.8-0.3 2.3-0.1 1 0 2.7l-0.1 0.9q0 0.3-1 0.4-0.1 0.2-0.9 0.6l-0.8 0.2q-1.4 0.2-4.9 0.3-0.4-0.1-0.5-0.2l-1.6-6.2q-0.2 0-0.3-0.5 0-0.1 0-0.7l0.2-1.5-0.1-2.3 0.5-4q0-0.3 0.6-1.4 0.4-0.6 0.8-1.2 0.3-0.4 0.7-1.4 0-0.1 0.2-0.2 1-0.9 2.7-0.8zm21.4 11.5q0.4 0.1 1.1 0.5h0.9q0.2 0.1 0.7 0.6 0.1 0.1 0.3 0.1 0.4 0 1.1 0 0.9-0.4 1.3-0.4 0.1 0 0.2 0.1 0.1 0.1 0.1 0.6 0 0.3-0.2 0.8-0.1 0.1 0 0.2 0.3 1.2 0.3 1.6 0 0.1 0 0.6-0.1 0.1-0.2 0.7-0.5 1-0.9 2.3l-0.4 0.8-1.5 5.4q-0.5 1.1-0.6 1.2-0.2 0.8-3.7 0.4-0.6-0.1-1.3-0.2l0.5-9.7q0-0.2 0.1-1.7 0-0.2-0.5-1.6 0-0.3 0.1-0.5 0-0.4 0.2-0.5 1.1-0.2 1.1-0.3 0.2 0 0.7-0.8 0.3-0.2 0.6-0.2zm29.6-8.3q0 0 0 0h0.1q2.6 0.6 2.8 1 0 0 0 0 0.2 0 0.8 2 0.7 1.1 0.9 1.8 0.1 0.1 0.2 0.5 0 1.3 0.1 1.8l0.4 1.8q-0.2 1.3-0.2 1.4 0 0.4 0.2 1.8 0 0.2 0 0.3 0 0.3-0.1 0.6 0 0.1-0.8 1.6-0.5 1.6-0.8 2.2-0.8 1.4-1.3 1.8-0.6 0.5-1.1 0.6-0.6-0.2-1-0.2-0.2-0.1-0.3 0-0.4 0.1-0.8 0.6-0.1 0.1-0.3 0.1 0 0 0 0 0.1 0.1 0.2 0.2 1.3 0.6 1.7 1.2 0.6 0.7 0.6 2l-0.5 2.5q0 1.2-0.1 1.5-0.1 0.6-0.3 1.3-0.8 1.5-1.3 2.7-0.8 1.1-1 1.5-0.1 0.4-0.1 0.5-0.2 1.4-0.3 1.6-0.3 0.4-0.6 0.3-0.1 0-0.3 0-0.1-0.1-0.2-0.2l-1.5-1.7q-0.2-0.1-0.4-0.1-0.4 0-1.1 0.1 0 0 0 0-0.3-0.1-0.6-0.3-0.6-0.7-1.3-2-0.3-0.6-0.3-1.2 0-0.2 0.1-0.4 0.8-1.6 0.9-2 0.3-2.2 0.5-4.3 0-0.5 0-2.1 0-0.5 0.2-0.8 0.4-0.7 0.8-0.9 0.1-0.1 1.5 0 0.4-0.1 0.6-0.1 0.2 0 0.5-0.2l-1.2-1.5q-0.6-0.4-1-0.8-0.3-0.4-0.5-0.8-0.1-0.3 0-0.9 0.1-1 0.5-3.4-0.3-2.9-0.2-3.5 0.1-0.3 0.2-0.6 1.4-2.6 1.9-4.2 0.1-0.1 0.2-0.2 0.6-0.3 0.8-0.4 0.2-0.1 0.4-0.4 0 0 0.2-0.3 0.2-0.8 0.3-1 0-0.1 0.3-0.4 0.7-0.5 1.6-0.4zm-49.3 17.9q0.1 0 0.1 0 0.1 0 0.1 0 0.5 0.1 0.6 0.2 0.5 0.8 0.6 0.9 0.1 0.2 0.2 0.2 0.1 0.1 0.2 0.6 0.3 0.2 0.3 0.3 0.1 0.2 0.1 0.3v0.2q0 0.1-0.1 0.6-0.2 0.6-0.4 1.1 0 0.1 0 0.6-0.1 0.4 0.2 1.4l-0.3 1.8q-0.1 0.3 0.1 0.8v0.4q-0.1 0.3-0.6 1.1-0.2 0.2-0.2 0.6 0 0.7 0.1 2.1l0.3 4.4-1.4-0.4q-0.2 0-0.4 0-0.7 0.5-1 0.5l-1.9-0.2q-0.7 0.3-1.5 0.4-0.2 0.2-0.4 1.1-0.2 0.2-0.3 0.2 0 0 0 0-0.1 0-0.1-0.1l-0.9-1.9q-0.1-0.3-0.2-0.8 0-0.7 0-0.8 0.4-2.4 0.4-2.6v-1.1q0-0.3-0.1-0.7-0.1-0.7-0.2-1.5l0.2-2.2q-0.2-0.5-0.3-1.1-0.1-0.3-0.1-0.7 0-0.5 0.2-2.5 0-0.5-0.1-0.7-0.1-0.4-0.1-0.7-0.1 0 0-0.4 0-0.2 0.3-0.3 0.8-0.4 1-0.4l2.7-0.1q2.3-0.6 2.9-0.6zm17.9 14.6h0.1q0.4 0.1 0.6 0.2 0.8 0.8 1 0.9 0.6 0.2 1.8 0.4l0.4 0.1q0.6 0.4 0.8 1 0.1 0.5-0.1 1.4-0.5 1.6-1.2 3.3-0.1 0.5-0.1 0.7-0.2 1.6-0.2 2 0 0.2 0.2 2.4 0 0.2 0 0.4-0.1 0.2-0.4 0.6-0.3 0.3-0.6 0.3-0.5-0.1-0.7-0.5-0.1-0.3-0.2-0.8 0-0.2 0.1-1.2 0-0.3-0.1-0.6-0.3-0.9-0.9-1-0.1 0-0.2 0-1.2-0.2-2.4 0.3-0.3 0.2-0.3 0.4-0.1 0.1-0.1 0.3l-0.8 1.8q0-0.8 0-1.9-0.2-1.4-0.2-1.8v-2.2q0-0.3 0.1-0.6 0.4-1.4 0.6-2.2 0.2-0.9 0.5-1.5l0.3-0.6q0.3-0.6 0.6-0.9 0.7-0.8 1.4-0.7zm16.9 19.4q0.1 0 0.1 0.1 0 0 0.1 0.1 0 0.1 0.1 0.2zm-70.4-24.9q0 0 0.1 0.1 0 0 0.1 0 0.3 0 0.9 0.2 0.3 0.2 0.7 0.4 0.2 0.2 0.8 1.1 1.5 1.4 1.6 1.8 0.2 0.5 0.5 2 0.1 2.9 0.2 3.3 0 0 1.1 2.7l0.1 0.3v1.4q0.1 1.1-0.1 1.7-0.6 1.9-1.3 2.5-0.1 0.5-4.2 1.3l-2.2-4.1q-1-0.1-1.2-0.8-0.2-0.5-0.7-2.6-0.7-1.2-1.1-2-0.4-1.4-0.4-2.4-0.1-0.8 0.4-3.1 0.1-0.5 0.6-1.2 0.2-0.2 0.5-0.5l1.8-1.2q1.5-0.9 1.8-0.9zm70.6 25.3l0.5 0.8-0.3 0.3q0-0.3-0.1-0.6 0-0.1 0-0.2v-0.1q-0.1-0.1-0.1-0.2zm-19.8-2.3q0.3 0 0.4 0.3 0.1 0.1 0.3 0.7 0.2 0.6 0.6 2.1 0 0.1 0 0.4l-0.1 0.2q0 0.3-0.2 0.5-0.1 0.2-0.5 0.3-0.3 0.2-1.7 0l0.9-1.3q-0.4-0.5-0.5-1-0.1-0.1 0-0.8 0-0.6 0-0.8 0.2-0.6 0.8-0.6zm-15.7-13.7q0.1 0 0.2 0h0.2q0.6 0.1 1.1 0.4 0.2 0.1 0.4 0.3 0 0.1 0 0.2 0.1 0.5-0.4 1.1-0.3 0.6-0.9 1-0.1 0.1 0 0.3 0.1 0.6 0.2 0.9l0.6 0.5q0.9 0.4 0.9 0.5 0.3 0.7 1.1 1.7 0.2 0.4 0.2 0.7-0.2 1.5-0.5 2.1-0.2 2.1-0.3 2.2-0.2 0.6-1 2.1-0.2 1.6-0.3 1.8l-0.7 0.9q-0.1 0.4-0.4 0.7-0.1 0.1-0.5 0.1 0 0 0 0-0.7-0.1-1.7-0.6 0-0.1 0-0.2 0.3-0.3 0.5-0.6l0.2-0.9q0.2-0.5 0.2-0.5 0-0.1-0.2-0.2-0.4-0.1-0.9 0.4-0.1 0.1-0.1 0.2-0.2 1-0.2 1.1-0.4 0.5-0.6 0.6-0.1 0-0.1 0-0.1 0-0.1 0-0.9-1.1-0.9-1.1-0.1 0-0.2-1.4l-0.5-0.8-0.1-0.1q0-0.1 0-0.3 0.1-1 0.1-1.2 0-0.2-0.1-0.3 0-0.3-0.9-1.4 0-0.1-0.1-0.3v-0.1q0.1-1.4 0.1-2 0-0.7-0.1-1.5 0.2-0.9 0.5-1.2 0.2-0.1 0.6-0.3 0 0 0.1-0.1 0.1-0.2 0.7-0.7 0.1-0.1 0.3-0.1l0.5-0.1q0.1-0.2 0.1-0.4 0-0.1 0-0.3-0.2-1.2-0.1-1.4 0-0.5 0.3-0.8 1.7-1 2.8-0.9zm35.7 17.1q0 0.2 0 0.8-0.1 0.5-0.2 0.9-0.3 0.6-0.7 1-0.7 0.6-2.2 1.4-0.2 0.2-0.7 0.7 0 0-0.1 0-0.1 0.1-0.2 0.1-0.1 0-0.2-0.1-0.2-0.1-0.4-0.2 0-0.1 0-0.2 0-0.1 0-0.3 0-0.1 0.1-0.1 0.2-0.3 0.7-0.8 0.6-0.6 2.7-2.1 0.2-0.2 1.2-1.1zm8.9-16.7l0.4 0.2q1.5 1 1.5 1.6-0.1 0.3-0.5 0.4 0 0.1-1.1 0.1-0.1 0-0.2 0.2 0 0.2 0.1 0.3 0.8 0.3 0.9 0.5 0.4 0.4 0.4 0.7 0.1 0.1 0 0.4-0.4 1-0.5 1.6l0.2 2.4q0 0.8 0 1.6-0.1 0.6-0.3 1.2-1.1 1.8-1.3 2.4l-0.2 1.7q-0.1 0.5-0.2 1-0.2 1-0.4 2l-0.1 1.2q-0.1 0.3-0.3 0.4-1 0.4-1.2 0.7-0.2 0.2-0.5 0.9-0.1 0.2-0.3 0.4-1.6 0.9-2.2 0.8-0.1 0-0.2-0.1-0.6-0.4-0.8-1.2l1.9-2.7q0-0.6 0.4-2.6l0.2-1.6q0-0.8-0.1-1.2 0-0.2-0.1-0.6 0-0.1-0.7-0.7-0.3-0.3-2.4-1l-0.2-0.2q-0.1-0.2-0.1-0.7 0.1-0.3 0.1-0.4 0.2-0.2 0.4-0.6 0.1-0.1 0.1-0.2 0 0-0.1-0.2-0.4-0.3-0.5-0.5-0.1-0.3-0.1-0.5 0.3-0.7 0.7-0.9 1.2-0.6 2.9-1.1 0.3-0.1 0.3-0.3 0.1-0.2 0-0.4-1.6-1.3-1.6-1.9 0.1-0.3 0.8-0.5l1.8 0.2q0.3-0.1 0.4-0.2 0.1-0.2 0-0.4-0.5-1-0.7-1.6-0.1-0.4 0.1-0.7 0.1 0 0.1 0 0 0 0 0zm-75.8 9.8q0.4 0 1.3 0.7 0.1 0 0.1 0 0.2 0.1 0.5 0 0.1 0 0.1 0.2 0.1 0.1 0.1 0.1 0.1 1.2 0.1 1.6 0.1 0.6 0.3 1.6 0.1 1.2 0.2 1.7l3 4.6q-1.3 0.7-2.2 1-0.5 0.2-0.9 0.3-0.8 0.1-1 0.1 0 0 0 0-0.1 0-0.1 0-0.4-0.1-0.8-0.5-0.4-1.4-0.9-2.3-1.2-2-2.2-3-0.4-0.6-0.4-1.2-0.1-0.2 0.1-2.2l0.3-1.4 0.1-0.3q0.7-1.2 2.2-1 0 0 0 0h0.1q0 0 0 0zm5 12.8q0.1 0 0.2 0.2 0.8 1.4 1.5 2.3l0.7 1.7q1 0.9 1.2 1.6 0.2 0.4 0.1 1 0 0.4-0.1 0.6l-0.3 0.9q-0.1 0.5-0.1 0.8 0 0.6 0.1 1.6 0 0.1 0 0.4l1.6 4.1q-0.8-0.6-1.5-1-0.3-0.2-0.6-0.6-0.1-0.2-0.6-2.2-0.2-0.4-0.9-1.5-0.5-1.4-0.5-1.5-0.5-0.6-1.2-2.3-0.2-0.3-1.2-1.4-0.3-0.5-0.4-0.9-0.3-0.9 0.1-1.6 0.7-1.2 1.1-1.8l0.4-0.3q0.2-0.1 0.4-0.1zm51.8-0.8l0.5 0.3q2.2 1.2 6.9 2.1l3.6 2.2 1.7 3.6q0.3 0 0.6 0 1.1 0.1 1.7 1.4 0.4 0.9-0.2 2.1-2.6 2.3-2.4 2.9 0.1 1.1 1 3.2l-0.8 3.3q2.1 6.7 4 9.2l0.4 1.9q1.4 7.5 0 10.5 0.1 0.6 0.3 1.1 0.3 0.2 0.7 0.5 1.6 0.4 3.6 1.7l5.1-1q0 0 0 0 0.3 0.1 0.5 0.2 0.5 0.7 0.9 1 0.4 0.1 0.8 0.2 0.2 0 0.4 0 0.8-0.3 3.8-2.7 0.6-0.3 1.2-0.3l0.7 0.1q1.8 0.4 1.8 0.7 0.2 0.2 0.1 0.4 0 0.1 0 0.3h0.2q0.2-0.2 2.8-1.7 0.4-0.2 1.5-0.3 0.2-0.1 0.4-0.3 0.2-0.3 0.3-1 0.3-2.7 0.4-3 0.2-0.6 0.4-1-2-1.7-2.3-2.2-0.7-1-0.7-1.7 2.3-1 2.3-1.8 0.3-0.6-0.4-3.1 0-0.8 0.2-1.1 0.1-0.2 0.5-0.4 2.3-0.9 2.4-1 1.1-1.2 1.9-3.7l3-2.7q2-0.9 5.1-1.7 1.6-0.4 2.9-0.4 0.3 0 0.6 0 1.3 0.2 3.7 0.8 2.4-0.3 3.4-0.2 0 0 0.1 0l0.1 0.1q1.3 0.1 2 0.6 0.2 0.1 0.6 0.7 0.2 0.2 0.3 0.8v0.3q0.1 0.5-2.3 4.1l-3.2 3.7q-2.4 1.2-2.6 1.5-1.2 1-1.8 2-1.5 1.4-1.8 1.6-3.2 1.5-5.6 1.7l-0.9 1.2-0.9 1.8q-0.7 0.9-2 3-0.3 0.4-0.5 0.5-0.8 1-1.5 1.8-1.1 0.6-1.7 0.8-1.2 0.4-5.2 0.5-0.2 0-1 0.3-0.1 0-0.1 0-0.4-0.1-0.6-0.3-0.1 0.4-0.4 1.1-0.9 2.1-3.9 7.2l-0.8 0.8q-2.2 3.3-3.7 5.2-0.7 0.8-1.2 1.1-0.8 0.7-2.3 1.5-0.4 0.3-1 0.9l-0.2 0.3q-1.5 2.8-2.1 3.7-0.2 0.4-1.2 1.1-0.7 0.7-3.1 2l-3.7 3.2q-2 2.2-2.2 3-0.3 0.3-1.1 0.5-2 0.6-9 0.3-0.1 0-0.3 0-1.2-0.1-3.6-1.1l-3.1 1.8-6.6 0.8-19.4-1.5q-4.4-1.1-6.1-2.3-3.4-2.3-6.3-5.6-0.7-0.8-2.7-5.1l-0.9-3.9q-0.4-2.6-0.2-3l2.2-6.6q-0.8-1.1-1.3-3.6-0.5-1.5-0.8-8.2l-0.5-2.5q-0.7-3-2.3-6.5l3-8.3 9.5-5.9 4.3-4.3q1 0.1 3.7-1.7 5.4-3.8 9.6-7.5 1.7-0.4 4.7-0.1 0.2 0 0.4 0l4.4-1.8q2.6-0.3 5.1 0 1.5 0.2 3 0.5z"/>
		<path class="s3" d="m312.2 182.4h-0.1q-0.5 0-0.9 0.3-1.4 1.8-2 3.5-0.6 1.8-0.3 4.8l1.6-1.4q0.6-0.2 1.2-0.2 0.1 0 0.1 0 0.7 0 1.3 0.4 0.2 0.1 0.4 0.3 0.8 0.8 1.1 1.1 0.3 0.2 0.5 0.2 0 0 0 0 0.4 0 1-0.9 0.4-0.6 0.4-1.2 0-0.5-0.3-0.9-0.1-0.4-0.6-1.2-0.3-0.5-0.3-0.7-0.2-0.4-0.2-0.6 0-1.4-0.1-1.7-0.2-0.8-0.9-1.2-0.8-0.5-1.9-0.6zm-23.6 9.1h-0.1q-0.6 0.1-1.1 0.6-1.2 1.5-1.6 2.1-0.4 0.7-0.6 1.3-0.4 1.1-0.3 1.9 0 0.4 0.3 3.2l1.2-2.4q0.7-0.9 1.3-1.3 0.5-0.4 1.2-0.4 0.1 0 0.1 0 0.5 0 0.9 0.1l1.4 0.2q0.3 0 0.5-0.3 0.1-0.4 0-0.6-0.1-0.7-0.4-1.8-0.2-0.6-0.4-0.8-0.6-0.9-1.3-1.4-0.5-0.3-0.7-0.3 0 0 0 0-0.2-0.1-0.4-0.1zm51.2 2.7q0 0 0 0h-0.1q-0.5 0-0.9 0.5l-2.4 3.4q-0.4 0.5-0.7 1.1-0.9 1.7-0.5 3.8l2.5-1.7q0.7-0.8 1.8-1.4 0.5-0.3 1.3-0.6 0.5-0.3 2.2-0.8 0.3-0.1 0.5-0.4 0 0 0.1-0.2 0-0.3-0.1-0.5-0.3-0.6-1-1.3-0.9-0.9-1.8-1.5-0.3-0.2-0.5-0.3-0.3-0.1-0.4-0.1zm-84.1 26.3h-0.1q-1.4 0.1-2.3 1-0.5 0.7-0.8 1.5l-0.1 0.4q-0.1 0.4-0.2 0.7-0.1 0.4-0.1 0.8 0 0.6 0.1 1.1l0.7 1.9 0.7 2.5q0.6 1.5 1 2l-0.2-7.8q0.4-0.8 0.9-1.4 0.2-0.4 0.4-0.7 0.1-0.1 0.8-0.8 0.2-0.3 0.2-0.5 0-0.3-0.2-0.5 0-0.1-0.8-0.2zm51.4 34q-6.3 0-14.7 5.3l-1.9 1.2-18.5 14.2q-1 0.2-1.1 0.4-0.5 0.2-1 2-0.4 1.6 0.9 4.4-0.5 4.4 1.4 13.3 0 6.3-1.2 15.1 0.1 1.6 1.3 4.2 1.5 2.9 5.2 4.5l16.6 4.3 22.2-1.1q6.5-0.8 7.7-2.9 0.1-0.7-0.1-0.7-0.4-0.5-1.7-0.7l-13-1q-2.3-0.4-4.2-1.8l-1.9-1.9q-1.9-1.9-3.4-3.8-1.5-2-2.6-4-2.4-4-3.4-8.3-0.1-4.8 0.7-10.8 0.4-2.7 1.9-4.4 1-1.1 1.6-1.5 5.5-2.9 7.7-4.6l5.8-5.6q6-3.1 6.4-3.6 1-0.9 1.6-2.6 2.4-9.4-11-9.5h-0.4q-0.5-0.1-0.9-0.1z"/>
		<path class="s4" d="m181.2 85.1q0 0-0.1 0h-0.2q-1.3 0.1-3.9 0.2-0.6 0-1 0.1-0.7 0.2-1.2 0.7-0.5 0.5-0.5 0.7-0.2 0.3-0.2 0.6l-0.6 8.8q-0.1 1.2 0.2 8.5l4.2-6.9q0.4-0.2 0.8-0.4 1.7-0.6 3.1-0.6 0.5 0 1 0.1 0.6 0 1.7 0.4 0.8 0.2 2.9 1.1 0.9 0.3 1.1 0.3 0.1 0 0.1 0 0.1 0 0.2 0 0.8 0 1.1-0.9 0.4-1.2-0.2-2.7-0.5-0.8-2.5-3.4l-2-4-0.2-0.4q-0.7-1-1.7-1.7-0.6-0.5-2.1-0.5zm51.9 9.5q0 0 0 0h-0.2q-0.1 0-0.1 0-0.5 0-1.5 0.6-0.4 0.4-0.7 1-0.3 0.5-0.5 1.2-0.7 3-1 4.4-0.6 3-0.7 4.3-0.1 0.6-0.2 2.1 0 1.4 0.2 4.3 0.1 2.1 0.3 2.6l1.6-4.9q0.1-0.6 0.3-1.1 0.5-1.1 1.4-2.2 2-2 3.2-2.3 0.2-0.2 1.6-0.2 0.8 0 1.9 0 0.5 0 0.5-0.2 0.1-0.2-0.1-0.6l-2.6-5.5q-0.3-0.6-0.8-1.5-1.3-2-2.6-2zm-92.9 19.7q-0.2 0-0.3 0h-0.7q-1.2 0.2-2 0.8-0.4 0.3-0.7 0.8l-0.2 0.4q-0.5 1.4-0.7 3.6-0.1 1 0 2l0.1 1q0.3 2.6 2.1 6.4 1.5 2.9 3.3 3.3l-1.8-7.5q0-0.8 0.1-1.5 0.1-1.5 0.3-1.7l0.1-0.5q0.2-0.4 0.5-0.7 0.5-0.6 1.3-1.2 1.8-1 4.3-1 0 0 0 0 0.4-0.1 0.3-0.7-0.5-1.1-3-2.7-1.5-0.8-3-0.8zm43.8 13l-0.1 0.1q-0.4 0.3-0.4 0.5-0.1 0.2-0.1 0.3 0 0 0 0.2 0 0 0 0.1 0.1 1.4 0.2 2.5 0 0.9 0.2 2.3 0.1 0.9 0.2 1.4 0.4 2.4 0.4 2.7zm50.6 5.1l-0.3 0.5q-0.7 0.8-1 1.9l-0.2 0.5-0.1 0.6-0.1 0.6-0.1 0.6v0.2q-0.1 0.7 0 1.4 0.2 1.6 0.3 2.3 0.1 0.6 0.4 1.9 0 0.3 0 0.7c0 0 1.1-11.2 1.1-11.2zm-1.1 11.2l-0.1 0.7h0.1v-0.2-0.1-0.1-0.2c0 0 0-0.1 0-0.1zm-83.8 9q-0.1 0-0.1 0h-0.3q-0.8 0.1-2.3 0.5-1.2 0.5-1.4 0.6-0.7 0.5-1 1.2-0.2 0.3-0.2 0.7-0.1 0.2-0.1 0.4 0 0.5 0.1 1 0.2 0.6 0.2 0.7l1.2 3.1q0.5 1.2 0.7 1.7 0.6 1.2 1.1 1.8 0.1 0.2 0.9 0.8 0.3 0.2 0.6 0.4l1.5-12q-0.4-0.9-0.9-0.9zm-55 30.5q-0.9 0.1-1.2 0.4-0.5 0.2-1 0.6-0.4 0.4-0.8 0.9-0.2 0.2-1.1 1.8-0.3 0.8-0.2 1.4 0.1 4.9 0.3 6.1 0.2 1.2 1 2.2 0.4 0.4 2 1.9 2 2.4 2.4 2.8 0.8 0.7 2 1.6l-1.4-9.8q0.4-2 0.9-2.7 0.2-0.4 0.9-1.1l2.1-2q0.3-0.5 0.2-1.4-0.1-0.4-0.4-0.7-0.1-0.3-1-0.8l-4-1.2q-0.4 0-0.7 0zm16 34.2v0.2q0 0.7 0 1 0.1 0.7 0.2 0.9 0.1 0.3 0.2 0.4 0.1 0.4 0.3 0.6 0.4 0.6 0.7 0.9zm111.7-5.9h-0.4q-1.9 0.1-4.5 0.9-9.1 4.4-21.9 8.4-3.7 1.6-11.7 8.2-2.1 1.7-3.9 4.3-6.4 11-10.2 15.8-2.5 3.6-15.3 16.7-2.4 2.9-3 4.5-1.2 3.5-1.3 7.7-0.1 2.1 0.1 4.4l1.2 7.5q0.5 2.2 12.1 23.8 1 2.3 4.8 17.4 1 3.2 5.7 10l26-58.1q0.8-4 3.6-9.9 1.4-3.5 10.3-18.3 1.7-3 10.7-7.9 1.1-1.1 5.2-8.9 0.8-0.7 1.6-1.1 0.8-0.5 1.8-0.5 0.6 0 1.3 0.3 3.8 3.7 5.7 4.9 1.1 0.7 1.6 0.7 0.3 0 0.3-0.3 0-5.6-0.7-7.6l-6.4-11.9q-7.5-10.1-12.7-11z"/>
	</g>
</svg>