<svg version="1.2" xmlns="http://www.w3.org/2000/svg" viewBox="0 0 715 438" width="715" height="438">
	<title>file</title>
	<defs>
		<clipPath clipPathUnits="userSpaceOnUse" id="cp1">
			<path d="m180.31 259.58h346.55v156.2h-346.55z"/>
		</clipPath>
	</defs>
	<style>
		.s0 { fill: #efc7a4 } 
		.s1 { fill: #d5a889 } 
		.s2 { fill: #e4e8eb } 
		.s3 { fill: #a4d4ff } 
		.s4 { fill: #66d4f1 } 
	</style>
	<g id="b108f1b2ec">
		<g id="Clip-Path" clip-path="url(#cp1)">
			<g>
				<path fill-rule="evenodd" class="s0" d="m180.6 259.8h346.2v104.3c0 28.5-77.5 51.6-173.1 51.6-95.6 0-173.1-23.1-173.1-51.6z"/>
			</g>
		</g>
		<path class="s1" d="m526.8 259.8q0 1.2-0.2 2.5-0.2 1.3-0.7 2.5-0.4 1.3-1 2.5-0.6 1.3-1.5 2.5-0.8 1.3-1.8 2.5-1.1 1.2-2.3 2.4-1.2 1.2-2.7 2.4-1.4 1.2-3 2.4-1.6 1.2-3.5 2.3-1.8 1.1-3.8 2.3-2 1.1-4.2 2.2-2.1 1-4.5 2.1-2.4 1.1-4.9 2.1-2.5 1-5.2 2-2.7 0.9-5.6 1.9-2.8 0.9-5.8 1.8-3 0.9-6.2 1.8-3.1 0.8-6.4 1.6-3.3 0.8-6.7 1.6-3.4 0.7-6.9 1.4-3.6 0.7-7.2 1.4-3.7 0.6-7.4 1.2-3.8 0.6-7.6 1.2-3.8 0.5-7.8 1-3.9 0.5-7.9 0.9-4 0.4-8.1 0.8-4 0.3-8.1 0.7-4.2 0.3-8.3 0.5-4.2 0.3-8.4 0.4-4.2 0.2-8.4 0.4-4.3 0.1-8.5 0.1-4.2 0.1-8.5 0.1-4.2 0-8.5-0.1-4.2 0-8.5-0.1-4.2-0.2-8.4-0.4-4.2-0.1-8.4-0.4-4.1-0.2-8.2-0.5-4.2-0.4-8.2-0.7-4.1-0.4-8.1-0.8-4-0.4-7.9-0.9-3.9-0.5-7.8-1-3.8-0.6-7.6-1.2-3.7-0.6-7.4-1.2-3.6-0.7-7.1-1.4-3.6-0.7-7-1.4-3.4-0.8-6.7-1.6-3.3-0.8-6.4-1.6-3.2-0.9-6.2-1.8-3-0.9-5.8-1.8-2.9-1-5.6-1.9-2.7-1-5.2-2-2.5-1-4.9-2.1-2.3-1.1-4.5-2.1-2.2-1.1-4.2-2.2-2-1.2-3.8-2.3-1.9-1.1-3.5-2.3-1.6-1.2-3-2.4-1.5-1.2-2.7-2.4-1.2-1.2-2.3-2.4-1-1.2-1.8-2.5-0.9-1.2-1.5-2.5-0.6-1.2-1-2.5-0.4-1.2-0.6-2.5-0.3-1.3-0.3-2.5 0-1.3 0.3-2.6 0.2-1.2 0.6-2.5 0.4-1.2 1-2.5 0.6-1.2 1.5-2.5 0.8-1.2 1.8-2.4 1.1-1.3 2.3-2.5 1.2-1.2 2.7-2.4 1.4-1.2 3-2.3 1.6-1.2 3.5-2.4 1.8-1.1 3.8-2.2 2-1.1 4.2-2.2 2.2-1.1 4.5-2.1 2.4-1.1 4.9-2.1 2.5-1 5.2-2 2.7-1 5.6-1.9 2.8-1 5.8-1.9 3-0.8 6.2-1.7 3.1-0.8 6.4-1.6 3.3-0.9 6.7-1.6 3.4-0.8 7-1.5 3.5-0.7 7.1-1.3 3.7-0.7 7.4-1.3 3.8-0.6 7.6-1.1 3.9-0.5 7.8-1 3.9-0.5 7.9-0.9 4-0.5 8.1-0.8 4-0.4 8.2-0.7 4.1-0.3 8.2-0.6 4.2-0.2 8.4-0.4 4.2-0.2 8.4-0.3 4.3-0.1 8.5-0.2 4.3 0 8.5 0 4.3 0 8.5 0 4.2 0.1 8.5 0.2 4.2 0.1 8.4 0.3 4.2 0.2 8.4 0.4 4.1 0.3 8.3 0.6 4.1 0.3 8.1 0.7 4.1 0.3 8.1 0.8 4 0.4 7.9 0.9 4 0.5 7.8 1 3.8 0.5 7.6 1.1 3.7 0.6 7.4 1.3 3.6 0.6 7.2 1.3 3.5 0.7 6.9 1.5 3.4 0.7 6.7 1.6 3.3 0.8 6.4 1.6 3.2 0.9 6.2 1.7 3 0.9 5.8 1.9 2.9 0.9 5.6 1.9 2.7 1 5.2 2 2.5 1 4.9 2.1 2.4 1 4.5 2.1 2.2 1.1 4.2 2.2 2 1.1 3.8 2.2 1.9 1.2 3.5 2.4 1.6 1.1 3 2.3 1.5 1.2 2.7 2.4 1.2 1.2 2.3 2.5 1 1.2 1.8 2.4 0.9 1.3 1.5 2.5 0.6 1.3 1 2.5 0.5 1.3 0.7 2.5 0.2 1.3 0.2 2.6z"/>
		<path fill-rule="evenodd" class="s2" d="m218.6 264.8c39.1 17.2 93.2 21.3 135.1 21.3 41.9 0 96-4.1 135.1-21.3 4.3-1.9 4.3-8.1 0-10-39.1-17.2-93.2-21.4-135.1-21.4-41.9 0-96 4.2-135.1 21.4-4.3 1.9-4.3 8.1 0 10z"/>
		<path fill-rule="evenodd" class="s3" d="m170.6 88.6c-8.2 14.9-16.3 29.9 0.2 54.8 1.7 2.5 5.1 3.2 7.6 1.5 2.5-1.6 3.2-5 1.5-7.5-12.9-19.5-6.3-31.5 0.3-43.6 8.1-14.9 16.3-29.8-0.3-54.7-1.6-2.5-5-3.2-7.5-1.6-2.5 1.7-3.2 5.1-1.6 7.6 13 19.4 6.4 31.5-0.2 43.5zm303.1-0.8c-8.2 14.9-16.4 29.8 0.2 54.7 1.7 2.5 5 3.2 7.5 1.6 2.6-1.7 3.2-5.1 1.6-7.6-13-19.5-6.4-31.5 0.2-43.5 8.2-15 16.4-29.9-0.2-54.8-1.7-2.5-5.1-3.2-7.6-1.5-2.5 1.6-3.2 5-1.5 7.5 12.9 19.5 6.3 31.5-0.2 43.6zm53.5 0c-8.1 14.9-16.3 29.8 0.3 54.7 1.6 2.5 5 3.2 7.5 1.6 2.5-1.7 3.2-5.1 1.6-7.6-13-19.5-6.4-31.5 0.2-43.5 8.2-15 16.3-29.9-0.2-54.8-1.7-2.5-5.1-3.2-7.6-1.5-2.5 1.6-3.2 5-1.5 7.5 12.9 19.5 6.3 31.5-0.3 43.6zm-249.4 0.8c-8.2 14.9-16.4 29.9 0.2 54.8 1.7 2.5 5.1 3.2 7.6 1.5 2.5-1.6 3.2-5 1.5-7.5-12.9-19.5-6.3-31.5 0.2-43.6 8.2-14.9 16.4-29.8-0.2-54.7-1.7-2.5-5-3.2-7.5-1.6-2.6 1.7-3.2 5.1-1.6 7.6 13 19.4 6.4 31.5-0.2 43.5zm-53.6-0.8c-8.2 14.9-16.3 29.8 0.2 54.7 1.7 2.5 5.1 3.2 7.6 1.6 2.5-1.7 3.2-5.1 1.5-7.6-12.9-19.5-6.3-31.5 0.3-43.5 8.1-15 16.3-29.9-0.3-54.8-1.6-2.5-5-3.2-7.5-1.5-2.5 1.6-3.2 5-1.6 7.5 13 19.5 6.4 31.5-0.2 43.6z"/>
		<path class="s0" d="m383.5 119.4q1 1 1.9 2.1 0.9 1.1 1.7 2.3 0.8 1.2 1.5 2.5 0.6 1.2 1.2 2.6 0.5 1.3 1 2.7 0.4 1.3 0.6 2.7 0.3 1.4 0.5 2.9 0.1 1.4 0.1 2.8 0 1.5-0.1 2.9-0.2 1.4-0.5 2.8-0.2 1.4-0.6 2.8-0.5 1.4-1 2.7-0.6 1.3-1.2 2.6-0.7 1.2-1.5 2.4-0.8 1.2-1.7 2.3-0.9 1.1-1.9 2.1-1.1 1.1-2.2 2-1.1 0.9-2.3 1.7-1.1 0.8-2.4 1.4-1.3 0.7-2.6 1.3-1.3 0.5-2.7 0.9-1.4 0.5-2.8 0.7-1.4 0.3-2.8 0.5-1.4 0.1-2.9 0.1-1.4 0-2.8-0.1-1.4-0.2-2.8-0.5-1.4-0.2-2.8-0.7-1.4-0.4-2.7-0.9-1.3-0.6-2.6-1.3-1.3-0.6-2.5-1.4-1.1-0.8-2.3-1.7-1.1-0.9-2.1-2-1-1-1.9-2.1-0.9-1.1-1.7-2.3-0.8-1.2-1.5-2.4-0.6-1.3-1.2-2.6-0.5-1.3-1-2.7-0.4-1.4-0.7-2.8-0.2-1.4-0.4-2.8-0.1-1.4-0.1-2.9 0-1.4 0.1-2.8 0.2-1.5 0.4-2.9 0.3-1.4 0.7-2.7 0.5-1.4 1-2.7 0.5-1.4 1.2-2.6 0.7-1.3 1.5-2.5 0.8-1.2 1.7-2.3 0.9-1.1 1.9-2.1 1-1 2.1-1.9 1.1-0.9 2.3-1.7 1.2-0.8 2.5-1.5 1.3-0.7 2.6-1.2 1.3-0.6 2.7-1 1.3-0.4 2.8-0.7 1.4-0.3 2.8-0.4 1.4-0.1 2.8-0.1 1.5 0 2.9 0.1 1.4 0.1 2.8 0.4 1.4 0.3 2.8 0.7 1.4 0.4 2.7 1 1.3 0.5 2.6 1.2 1.3 0.7 2.4 1.5 1.2 0.8 2.3 1.7 1.2 0.9 2.2 1.9z"/>
		<path fill-rule="evenodd" class="s4" d="m401.5 187.1l42.4 11c3.9 1 6.9 3.9 8.2 7.4l15.9 42c2.3 6.3-0.8 13.2-7.1 15.6-6.2 2.3-13.2-0.8-15.5-7.1l-13.6-36.1-34.4-8.9q-2.6 30-5.2 60c-25.2 1.7-50.9 1.4-76.1-0.8q2.8-31.9 5.5-63.8l-39.4 11.1-44.8 33.1c-5.3 4-12.9 2.9-16.8-2.5-4-5.3-2.9-12.9 2.5-16.8l46.5-34.5c4.7-3.5 41.8-12.5 50.1-14.9 8.5-2.3 74.5 3.4 81.8 5.2z"/>
	</g>
</svg>