<svg version="1.2" xmlns="http://www.w3.org/2000/svg" viewBox="0 0 777 466" width="777" height="466">
	<title>file</title>
	<defs>
		<clipPath clipPathUnits="userSpaceOnUse" id="cp1">
			<path d="m180.23 34.86h188.69v188.73h-188.69z"/>
		</clipPath>
		<clipPath clipPathUnits="userSpaceOnUse" id="cp2">
			<path d="m391.58 34.86h187.52v188.73h-187.52z"/>
		</clipPath>
		<clipPath clipPathUnits="userSpaceOnUse" id="cp3">
			<path d="m180.23 243.58h188.69v188.16h-188.69z"/>
		</clipPath>
		<clipPath clipPathUnits="userSpaceOnUse" id="cp4">
			<path d="m391.58 243.58h187.52v188.16h-187.52z"/>
		</clipPath>
	</defs>
	<style>
		.s0 { fill: #58b59f } 
		.s1 { fill: #c0253b } 
		.s2 { fill: #f68722 } 
		.s3 { fill: #1a8a84 } 
		.s4 { fill: #ffffff } 
		.s5 { fill: #000000 } 
	</style>
	<g id="2d4eadb73b">
		<g id="Clip-Path" clip-path="url(#cp1)">
			<g>
				<path class="s0" d="m367.8 128.8c0 51.9-42 93.9-93.8 93.9-51.7 0-93.7-42-93.7-93.9 0-51.8 42-93.9 93.7-93.9 51.8 0 93.8 42.1 93.8 93.9z"/>
			</g>
		</g>
		<g id="Clip-Path" clip-path="url(#cp2)">
			<g>
				<path class="s1" d="m579.1 128.8c0 51.9-42 93.9-93.7 93.9-51.8 0-93.8-42-93.8-93.9 0-51.8 42-93.9 93.8-93.9 51.7 0 93.7 42.1 93.7 93.9z"/>
			</g>
		</g>
		<g id="Clip-Path" clip-path="url(#cp3)">
			<g>
				<path class="s2" d="m367.8 337.8c0 51.8-42 93.9-93.8 93.9-51.7 0-93.7-42.1-93.7-93.9 0-51.9 42-93.9 93.7-93.9 51.8 0 93.8 42 93.8 93.9z"/>
			</g>
		</g>
		<g id="Clip-Path" clip-path="url(#cp4)">
			<g>
				<path class="s3" d="m579.1 337.8c0 51.8-42 93.9-93.7 93.9-51.8 0-93.8-42.1-93.8-93.9 0-51.9 42-93.9 93.8-93.9 51.7 0 93.7 42 93.7 93.9z"/>
			</g>
		</g>
		<path class="s4" d="m283.7 76.1h-24.1c0 0 2.9-7.8 5.6-7.8h13.9c2.5 0 4.6 7.8 4.6 7.8z"/>
		<path class="s4" d="m228 170.9v8.7c0 2.2 1.8 3.9 3.9 3.9h12.1c2.2 0 5.1-1.8 5.1-3.9v-8.7z"/>
		<path class="s4" d="m293.9 170.9v8.7c0 2.2 1.8 3.9 3.9 3.9h12.1c2.2 0 5.1-1.8 5.1-3.9v-8.7z"/>
		<path class="s4" d="m246.9 105.4c0 0 0.7-0.4 1.9-0.9 1.2-0.6 3-1.4 5.1-2.3 2.1-0.9 4.5-1.9 7.1-3 2.7-1.1 5.5-2.2 8.4-3.3q2.1-0.8 4.2-1.6 2.1-0.8 4.1-1.5c2.7-0.9 5.2-1.8 7.4-2.5 2.2-0.7 4-1.3 5.3-1.7 1.2-0.4 2-0.6 2-0.6 0 0-0.7 0.4-1.9 0.9-1.2 0.6-3 1.4-5.1 2.3-2.1 0.9-4.5 1.9-7.1 3-1.4 0.5-2.7 1.1-4.1 1.6q-2.1 0.8-4.3 1.7c-2.8 1-5.6 2.1-8.3 3.1-2.7 0.9-5.2 1.8-7.4 2.5-2.2 0.7-4 1.3-5.3 1.7-1.2 0.4-2 0.6-2 0.6z"/>
		<path class="s4" d="m245.6 115.1l24.2-5c0.5-0.1 0.8-0.6 0.7-1-0.1-0.5-0.6-0.8-1-0.7l-24.2 5c-0.5 0.1-0.7 0.6-0.7 1 0.1 0.5 0.6 0.8 1 0.7z"/>
		<path class="s4" d="m261.5 105.4c0 0 1.6-0.9 4-2.1 1.3-0.5 2.7-1.2 4.2-1.8 1.6-0.7 3.3-1.3 4.9-2q1.3-0.4 2.5-0.9c0.9-0.3 1.7-0.6 2.5-0.8 1.6-0.6 3.1-1 4.4-1.4 2.6-0.8 4.3-1.1 4.3-1.1 0 0-1.5 0.8-4 2-1.2 0.6-2.6 1.2-4.2 1.8-0.8 0.4-1.6 0.7-2.4 1q-1.2 0.5-2.5 1c-1.7 0.6-3.3 1.2-4.9 1.8-1.6 0.5-3.1 1-4.4 1.3-2.6 0.8-4.4 1.2-4.4 1.2z"/>
		<path class="s4" d="m250 114.1c0 0.9-0.7 1.6-1.6 1.6h-4.6c-0.9 0-1.6-0.7-1.6-1.6 0-0.9 0.7-1.6 1.6-1.6h4.6c0.9 0 1.6 0.7 1.6 1.6z"/>
		<path class="s4" d="m275.6 115.3l24.2-5c0.4-0.1 0.7-0.5 0.6-1-0.1-0.4-0.5-0.7-1-0.6l-24.2 5c-0.4 0.1-0.7 0.5-0.6 1 0.1 0.4 0.5 0.7 1 0.6z"/>
		<path class="s4" d="m279.9 114.3c0 0.9-0.7 1.6-1.5 1.6h-4.7c-0.8 0-1.5-0.7-1.5-1.6 0-0.8 0.7-1.5 1.5-1.5h4.7c0.8 0 1.5 0.7 1.5 1.5z"/>
		<path class="s4" d="m327.1 102.8l-7.4 1.2c-2.2 0.3-3.4 1.3-3.3 4.5 0.1 1-0.3 2-0.7 2.9-2.8-6.5-8-18.3-10.5-23.5-3.4-7.2-6.6-10.3-14.6-10.3-5.4 0-25.5 0-38.4 0-6.6 0-11.8 2.8-14.9 11.1-1.3 3.6-6.6 15.5-9.8 22.7-0.4-0.9-0.7-1.9-0.7-2.9 0.1-3.2-1.1-4.2-3.2-4.5l-7.5-1.2c-2.1-0.4-3.4 7.3-1.2 7.7l7.4 1.2c1.2 0.2 2.6 1.6 3.9 2.6q-0.1 0.4-0.3 0.7c0 0-7 10.7-8.1 18-0.6 4.5-2.7 22.1-2.2 23.6 1.8 5.2 9 11.8 12.8 11.8 2.8 0 13.7 0 26.8 0v-7.6h34.2v7.6c11.5 0 20.7 0 23.1 0 7.3 0 13.3-7 14.9-11.8 0.5-1.4-1.1-16.3-1.9-23.6-0.6-6.1-6.1-14.6-7.9-17.2 0 0-0.2-0.5-0.6-1.5 1.3-1 2.7-2.4 3.9-2.6l7.5-1.2c2.1-0.4 0.8-8.1-1.3-7.7zm-4.8 32.9c1.3-0.1 2.6 0.9 2.7 2.3 0.1 1.4-1 2.6-2.4 2.7-4.6 0.3-12.1 0.9-20.1 1.3l-1.3 10.2-1.4-10c-9.4 0.5-19.2 1-25.6 1-7.8 0-22.1-0.7-34.3-1.4l-1.4 10.4-1.3-10.5c-5.6-0.3-10.6-0.7-14-0.9-1.4-0.1-2.5-1.3-2.4-2.6 0.1-1.4 1.3-2.5 2.7-2.4 11.3 0.7 38.8 2.3 50.7 2.3 12.3 0 37.7-1.7 48.1-2.4zm-5.1 9c-1.3 1-3 2.1-4.8 3.2-1.8 1.1-3.7 2-5.1 2.7-1.5 0.6-2.5 0.9-2.5 0.9 0 0 0.8-0.7 2.1-1.6 1.2-1 3-2.1 4.8-3.2 1.8-1.1 3.6-2 5.1-2.7 1.4-0.6 2.4-1 2.4-1 0 0-0.8 0.8-2 1.7zm-24.8 6v1.6h-45.5v-1.6zm-45.4-4.6v-1.5h45.4v1.5zm45.5 1.6v1.6h-45.5v-1.6zm33.5 6c0 0-1.7 0.2-4.6 0.5-2.8 0.3-7 0.8-11.9 1.2-5 0.3-10.8 0.9-17 1.2-3.1 0.2-6.3 0.3-9.6 0.5-1.6 0.1-3.3 0.1-4.9 0.1-1.7 0.1-3.3 0.2-5 0.1-6.7-0.1-13.3-0.5-19.5-0.8-3.1-0.2-6.1-0.4-9-0.6q-4.2-0.3-8-0.6c-4.9-0.4-9.1-0.8-11.9-1.1-2.9-0.3-4.6-0.5-4.6-0.5 0 0 6.6 0.3 16.6 0.7 5 0.2 10.8 0.4 17 0.6 6.2 0.3 12.8 0.6 19.4 0.6 3.3 0 6.6 0 9.9-0.1 3.2-0.1 6.4-0.2 9.5-0.4 6.2-0.2 12-0.5 17-0.7 10-0.4 16.6-0.7 16.6-0.7zm-105.5-4.3c1.3-0.9 3-1.9 4.9-2.9 1.8-0.9 3.7-1.7 5.2-2.3 1.4-0.5 2.4-0.8 2.4-0.8 0 0-0.8 0.6-2.1 1.5-1.3 0.9-3.1 1.9-4.9 2.8-1.9 1-3.7 1.8-5.2 2.4-1.5 0.5-2.5 0.8-2.5 0.8 0 0 0.9-0.7 2.2-1.5zm12.5-3.6c0 0-0.4 0.5-1.2 1.2-0.8 0.6-1.9 1.3-3 1.9-1.2 0.7-2.4 1.2-3.3 1.5-1 0.4-1.6 0.5-1.6 0.5 0 0 0.4-0.5 1.2-1.1 0.8-0.6 1.9-1.4 3-2 1.2-0.6 2.4-1.2 3.3-1.5 1-0.3 1.6-0.5 1.6-0.5zm-0.6-32c3-8.4 6.6-19.5 8.7-24.2 3.4-7.6 8.1-8.2 13.8-8.2 11.2 0 28.7 0 33.3 0 7 0 11.1 3 13.9 9.1 2.5 5.3 6.9 16 9.4 23.8 1 3.2-80.7 4.1-79.1-0.5zm87 32c0 0-0.4 0.6-1.2 1.3-0.7 0.6-1.8 1.5-2.9 2.2-1.2 0.7-2.3 1.3-3.3 1.7-0.9 0.4-1.6 0.5-1.6 0.5 0 0 0.4-0.5 1.2-1.2 0.7-0.7 1.8-1.5 2.9-2.2 1.2-0.7 2.3-1.3 3.3-1.7 0.9-0.4 1.6-0.6 1.6-0.6z"/>
		<path class="s4" d="m257.6 171.8h29.4v-9.3h-29.4z"/>
		<path class="s4" d="m447.9 180.5v9c0 2.5 2 4.5 4.5 4.5h13.8c2.4 0 5.7-2.1 5.7-4.5v-9z"/>
		<path class="s4" d="m502 180.5v9c0 2.5 2 4.5 4.4 4.5h13.8c2.5 0 5.8-2.1 5.8-4.5v-9z"/>
		<path class="s4" d="m439.2 130.8q-1.4 0.3-2.4 0.3c-1.4 0-2.6-0.2-3.3-3.5l-4-27.2c-0.4-3.1 2.5-4.1 9.7-6.3v-2 0.1c-7.7 2.2-12.3 3.6-11.6 8.5l4 27.3c0.7 3.5 2.3 5 5.2 5q1.1 0 2.4-0.2z"/>
		<path class="s4" d="m436.9 105l0.7 17c0 2.4 0.7 4-5.1 5.2-4.9 1.1-5.8-1.4-6.4-4.4l-1.9-17.8c0-2.5 5.6-4 8.3-4.5 2.7-0.5 4.4 2 4.4 4.5z"/>
		<path class="s4" d="m532 92.2v2c7.1 2.1 10 3.2 9.6 6.2l-4 27.2c-0.6 3.3-1.9 3.5-3.3 3.5q-1 0-2.3-0.3v2q1.3 0.2 2.3 0.2c2.9 0 4.5-1.5 5.2-5.1l4-27.2c0.7-4.9-3.9-6.3-11.5-8.5z"/>
		<path class="s4" d="m534.2 105l-0.7 17c0 2.4-0.7 4 5.1 5.2 5 1.1 5.8-1.4 6.4-4.4l1.9-17.8c0-2.5-5.6-4-8.3-4.5-2.7-0.5-4.4 2-4.4 4.5z"/>
		<path class="s4" d="m494.9 83.1c0 1.8-2 3.4-4.5 3.4h-8.6c-2.4 0-4.4-1.6-4.4-3.4 0-1.9 2-3.4 4.4-3.4h8.6c2.5 0 4.5 1.5 4.5 3.4z"/>
		<path class="s4" d="m531.4 161.4v-85c0-11.2-6.1-18.6-16.6-18.6h-58.3c-8.7 0-16.7 6.9-16.7 18.6v85c0 1-2.7 2.3-2.5 3.5 1.3 5.9 0 13.2 13.4 13.2h69.9c14.4 0 12.8-7.5 14.3-13.2 0.5-1.6-3.5-2.2-3.5-3.5zm-15.2-6.2c-4.1 0-5.8-0.2-7.6-5.1-1.4-3.9-0.9-6.9 5-7.5 5.7-0.6 13.6 0.1 13.6 4.3 0 4.1-8.2 8.3-11 8.3zm-48.3 2.7v-21.4h34.6v21.4zm-24.6-11c0-4.2 8-4.9 13.6-4.3 5.9 0.6 6.4 3.6 5 7.5-1.8 4.9-3.5 5.1-7.6 5.1-2.8 0-11-4.2-11-8.3zm69.5 13.7c-3.8 0.1-8.2 0.2-12.9 0.3-4.7 0-9.7 0-14.7 0.1-5-0.1-10.1-0.1-14.8-0.1-4.7-0.1-9.1-0.2-12.8-0.3-3.8 0-6.9-0.2-9.1-0.3-2.2-0.1-3.5-0.1-3.5-0.1 0 0 1.3-0.1 3.5-0.2 2.2 0 5.3-0.2 9.1-0.3 3.7 0 8.1-0.2 12.8-0.2 4.7-0.1 9.8-0.1 14.8-0.1 5 0 10 0 14.7 0.1 4.7 0 9.1 0.2 12.9 0.2 7.5 0.2 12.6 0.5 12.6 0.5 0 0-5.1 0.2-12.6 0.4zm-43.9-99.9h34.5v10.5h-34.5zm59.6 70.1h-84.7v-53.2h84.7z"/>
		<path class="s4" d="m458.3 120c0 0 0.8-0.6 2.3-1.6 1.5-1 3.6-2.5 6.1-4.2 2.6-1.7 5.5-3.7 8.8-5.8 3.2-2.1 6.7-4.3 10.1-6.5 3.5-2.1 7-4.3 10.3-6.2 3.3-2 6.4-3.8 9.1-5.3 2.6-1.6 4.9-2.7 6.5-3.6 1.6-0.9 2.5-1.3 2.5-1.3 0 0-0.9 0.6-2.3 1.6-1.5 1-3.6 2.5-6.1 4.2-2.6 1.7-5.6 3.7-8.8 5.8-3.2 2.1-6.7 4.3-10.2 6.5-3.4 2.1-6.9 4.3-10.2 6.2-3.3 2-6.5 3.7-9.1 5.3-2.7 1.5-4.9 2.7-6.5 3.6-1.6 0.9-2.5 1.3-2.5 1.3z"/>
		<path class="s4" d="m460.2 128.6c-0.5 0-0.9-0.3-1-0.8-0.1-0.5 0.3-1 0.8-1.1l27.6-5.7c0.5-0.1 1 0.2 1.1 0.7 0.1 0.5-0.2 1-0.7 1.1l-27.6 5.8z"/>
		<path class="s4" d="m481.3 115.2c0 0 1.3-1.2 3.3-2.8 2.1-1.7 4.9-3.8 7.8-5.7 2.9-2 5.9-3.8 8.2-5 2.4-1.3 4-2 4-2 0 0-1.3 1.3-3.3 2.9-2.1 1.7-4.9 3.7-7.8 5.7-2.9 1.9-5.9 3.7-8.2 5-2.4 1.2-4 1.9-4 1.9z"/>
		<path class="s4" d="m493.8 128.6c-0.5 0-0.9-0.3-1-0.8-0.1-0.5 0.3-1 0.8-1.1l27.6-5.7c0.5-0.1 1 0.2 1.1 0.7 0.1 0.5-0.2 1-0.7 1.1l-27.6 5.8z"/>
		<path class="s4" d="m499.9 141.1c0 1.2-1.1 2.2-2.4 2.2h-24.3c-1.3 0-2.4-1-2.4-2.2 0-1.1 1.1-2.1 2.4-2.1h24.3c1.3 0 2.4 1 2.4 2.1z"/>
		<path class="s4" d="m499.9 147.4c0 1.1-1.1 2.1-2.4 2.1h-24.3c-1.3 0-2.4-1-2.4-2.1 0-1.2 1.1-2.2 2.4-2.2h24.3c1.3 0 2.4 1 2.4 2.2z"/>
		<path class="s4" d="m499.9 153.6c0 1.2-1.1 2.1-2.4 2.1h-24.3c-1.3 0-2.4-0.9-2.4-2.1 0-1.2 1.1-2.1 2.4-2.1h24.3c1.3 0 2.4 0.9 2.4 2.1z"/>
		<path class="s4" d="m450.3 147c0 1.2-1 2.1-2.1 2.1-1.2 0-2.2-0.9-2.2-2.1 0-1.2 1-2.1 2.2-2.1 1.1 0 2.1 0.9 2.1 2.1z"/>
		<path class="s4" d="m449.6 153.1c0 0 0-0.8 0.3-1.8 0.2-1.1 0.7-2.4 1.3-3.7 0.6-1.3 1.3-2.6 2-3.4 0.6-0.9 1.1-1.5 1.1-1.5 0 0 0 0.8-0.3 1.9-0.3 1-0.7 2.4-1.3 3.7-0.6 1.3-1.3 2.5-2 3.4-0.6 0.9-1.1 1.4-1.1 1.4z"/>
		<path class="s4" d="m520.2 147c0 1.2 0.9 2.1 2.1 2.1 1.2 0 2.2-0.9 2.2-2.1 0-1.2-1-2.1-2.2-2.1-1.2 0-2.1 0.9-2.1 2.1z"/>
		<path class="s4" d="m520.9 153.1c0 0-0.5-0.5-1.1-1.4-0.7-0.9-1.4-2.1-2-3.4-0.6-1.3-1-2.7-1.3-3.7-0.3-1.1-0.3-1.9-0.3-1.9 0 0 0.5 0.6 1.1 1.5 0.7 0.8 1.4 2.1 2 3.4 0.6 1.3 1.1 2.6 1.3 3.7 0.3 1 0.3 1.8 0.3 1.8z"/>
		<path class="s4" d="m465.3 127.4c0 1-0.8 1.8-1.8 1.8h-5.2c-1 0-1.8-0.8-1.8-1.8 0-1 0.8-1.8 1.8-1.8h5.2c1 0 1.8 0.8 1.8 1.8z"/>
		<path class="s4" d="m498.9 127.4c0 1-0.8 1.8-1.8 1.8h-5.2c-1 0-1.8-0.8-1.8-1.8 0-1 0.8-1.8 1.8-1.8h5.2c1 0 1.8 0.8 1.8 1.8z"/>
		<path class="s4" d="m320.8 341.7h-4.6q-0.3 0-0.5-0.1c0.8 1.6 3.4 6.5 5.1 15z"/>
		<path class="s4" d="m222.6 341.7h4.6q0.3 0 0.5-0.1c-0.8 1.6-3.3 6.5-5.1 15z"/>
		<path class="s4" d="m230 327.6c2.4-9.9 4-13.5 5.6-19.3 2.4-8.6 8.3-11.2 14.9-11.2 13 0 38.3 0 43.6 0 8 0 12.6 2.6 14.7 10.4 1.5 5.6 2.6 11 4.4 20.1 0.6-0.4 7.6-0.8 7.6-0.8v-38.7c0-4.7-3.9-8.7-8.7-8.7h-81.3c-4.8 0-8.7 4-8.7 8.7v38.7c0 0 7.2 0.2 7.9 0.8z"/>
		<path class="s4" d="m235.3 389.4v6.1c0 2 1.6 3.6 3.5 3.6h11.1c1.9 0 4.6-1.7 4.6-3.6v-6.1z"/>
		<path class="s4" d="m289.4 389.4v6.1c0 2 1.6 3.6 3.5 3.6h11.1c1.9 0 4.6-1.7 4.6-3.6v-6.1z"/>
		<path class="s4" d="m278.6 309.2c0 1.3-1.6 2.4-3.6 2.4h-6.9c-1.9 0-3.5-1.1-3.5-2.4 0-1.4 1.6-2.5 3.5-2.5h6.9c2 0 3.6 1.1 3.6 2.5z"/>
		<path class="s4" d="m319 338.8c2 0 3.5-1.6 3.5-3.6 0-1.9-1.5-5.1-3.5-5.1l-6.9 1.6c-0.7 0-1.4 0.2-2 0.6-1.5-8.3-3.4-16.3-4.8-21.4-1.8-7-6-9.5-13.3-9.5-4.8 0-27.7 0-39.5 0-6 0-11.4 2.4-13.6 10.2-1.5 5.3-3.5 12.2-5.6 21.2-0.6-0.5-1.4-0.9-2.3-1.1l-6.8-1.6c-2 0-3.6 3.2-3.6 5.1 0 2 1.6 3.6 3.6 3.6h6.8q0.5 0 1-0.1l-0.1 0.1h0.2c0 0-6.4 4.4-6.4 31.5 0 1.7-2.3 1.8-2 3.2 1.8 8.2 3.5 13.8 8.6 13.8 6.9 0 70 0 76.7 0 8.6 0 9.8-8.6 10.5-13.8 0.1-1.4-1.8-2.3-1.7-3.2 0.3-19.1-4.9-29.3-6.2-31.5q0.3 0 0.5 0zm-12.7 33.2c-2.1 0-5 0.2-8.6 0.2-3.5 0.1-7.7 0.2-12.2 0.3-4.4 0-9.2 0-13.9 0.1-4.7-0.1-9.5-0.1-13.9-0.1-4.5-0.1-8.6-0.2-12.2-0.3-3.6 0-6.5-0.2-8.6-0.2-2.1-0.1-3.3-0.2-3.3-0.2 0 0 1.2 0 3.3-0.1 2.1-0.1 5-0.3 8.6-0.3 3.6-0.1 7.7-0.2 12.2-0.3 4.4 0 9.2 0 13.9-0.1 4.7 0.1 9.5 0.1 13.9 0.1 4.5 0.1 8.7 0.2 12.2 0.3 3.6 0 6.5 0.2 8.6 0.3 2.1 0.1 3.3 0.1 3.3 0.1 0 0-1.2 0.1-3.3 0.2zm-74.3-12.8c0-3.9 7.5-4.6 12.9-4 5.5 0.6 6.1 3.4 4.7 7.1-1.7 4.6-3.3 4.8-7.2 4.8-2.7 0-10.4-4-10.4-7.9zm56-4.4v11.9h-32.8v-11.9zm-50.5-20.3c2.3-7 4.1-17.1 5.6-21 2.4-6.4 6.6-8.5 11.8-8.5 10.2 0 30.8 0 35 0 6.3 0 10.1 1.9 11.5 7.9 1.3 5.1 2.5 13.3 4.5 21.6 0.7 2.9-0.6 7.3-8.2 7.3-4.7 0-48.6 0-53.4 0-4.8 0-8.1-3.1-6.8-7.3zm63.5 32.6c-3.9 0-5.5-0.2-7.2-4.8-1.3-3.7-0.8-6.5 4.7-7.1 5.4-0.6 13 0.1 13 4 0 3.9-7.8 7.9-10.5 7.9z"/>
		<path class="s4" d="m244.4 331.5c0 0 0.8-0.3 2.1-0.9 1.4-0.5 3.3-1.3 5.6-2.1 2.3-0.8 5-1.8 7.9-2.8 2.9-1 6-2 9.1-3 3.1-1 6.2-2 9.2-2.9 2.9-0.9 5.7-1.7 8-2.4 2.4-0.7 4.4-1.2 5.7-1.5 1.4-0.4 2.2-0.6 2.2-0.6 0 0-0.7 0.3-2.1 0.8-1.3 0.5-3.2 1.3-5.5 2.1-2.3 0.9-5 1.9-7.9 2.9-2.9 1-6 2-9.1 3-3.2 1-6.3 2-9.2 2.9-2.9 0.9-5.7 1.7-8.1 2.3-2.3 0.7-4.3 1.2-5.7 1.6-1.4 0.4-2.2 0.6-2.2 0.6z"/>
		<path class="s4" d="m249.3 341.4c-0.3 0-0.7-0.3-0.7-0.6-0.1-0.5 0.1-0.9 0.6-0.9l22-4.6c0.4-0.1 0.8 0.2 0.9 0.6 0.1 0.4-0.2 0.8-0.6 0.9l-22 4.6z"/>
		<path class="s4" d="m263.3 331.8c0 0 1.2-0.7 3.1-1.6 1.9-0.9 4.5-2 7.1-2.9 2.7-1 5.3-1.8 7.4-2.3 2-0.6 3.4-0.8 3.4-0.8 0 0-1.2 0.7-3.1 1.6-1.9 0.9-4.5 2-7.1 2.9-2.7 0.9-5.3 1.8-7.4 2.3-2 0.5-3.4 0.8-3.4 0.8z"/>
		<path class="s4" d="m253.4 340.4c0 0.8-0.6 1.5-1.4 1.5h-4.2c-0.8 0-1.5-0.7-1.5-1.5 0-0.7 0.7-1.4 1.5-1.4h4.2c0.8 0 1.4 0.7 1.4 1.4z"/>
		<path class="s4" d="m276.2 341.4c-0.4 0-0.7-0.3-0.8-0.6-0.1-0.5 0.2-0.9 0.6-0.9l22-4.6c0.5-0.1 0.9 0.2 1 0.6 0 0.4-0.2 0.8-0.6 0.9l-22.1 4.6z"/>
		<path class="s4" d="m280.3 340.4c0 0.8-0.7 1.5-1.5 1.5h-4.2c-0.8 0-1.4-0.7-1.4-1.5 0-0.7 0.6-1.4 1.4-1.4h4.2c0.8 0 1.5 0.7 1.5 1.4z"/>
		<path class="s4" d="m286.3 356.7c0 0.7-1.1 1.3-2.4 1.3h-24.4c-1.3 0-2.3-0.6-2.3-1.3 0-0.6 1-1.2 2.3-1.2h24.4c1.3 0 2.4 0.6 2.4 1.2z"/>
		<path class="s4" d="m286.3 360.4c0 0.7-1.1 1.3-2.4 1.3h-24.4c-1.3 0-2.3-0.6-2.3-1.3 0-0.7 1-1.2 2.3-1.2h24.4c1.3 0 2.4 0.5 2.4 1.2z"/>
		<path class="s4" d="m286.3 364.1c0 0.7-1.1 1.2-2.4 1.2h-24.4c-1.3 0-2.3-0.5-2.3-1.2 0-0.7 1-1.3 2.3-1.3h24.4c1.3 0 2.4 0.6 2.4 1.3z"/>
		<path class="s4" d="m238.6 359.4c0 1.1-0.9 2-2 2-1.1 0-2-0.9-2-2 0-1.1 0.9-2.1 2-2.1 1.1 0 2 1 2 2.1z"/>
		<path class="s4" d="m237.9 365.1c0 0 0-0.7 0.3-1.7 0.2-1 0.7-2.3 1.3-3.5 0.5-1.2 1.2-2.4 1.8-3.2 0.6-0.9 1.1-1.4 1.1-1.4 0 0 0 0.7-0.3 1.7-0.2 1-0.7 2.3-1.3 3.5-0.5 1.3-1.2 2.4-1.8 3.3-0.6 0.8-1.1 1.3-1.1 1.3z"/>
		<path class="s4" d="m304.7 359.4c0 1.1 0.9 2 2 2 1.1 0 2-0.9 2-2 0-1.1-0.9-2.1-2-2.1-1.1 0-2 1-2 2.1z"/>
		<path class="s4" d="m305.4 365.1c0 0-0.5-0.5-1.1-1.3-0.6-0.9-1.3-2-1.9-3.3-0.5-1.2-1-2.5-1.2-3.5-0.3-1-0.3-1.7-0.3-1.7 0 0 0.5 0.5 1.1 1.4 0.6 0.8 1.3 2 1.8 3.2 0.6 1.2 1 2.5 1.3 3.5 0.2 1 0.3 1.7 0.3 1.7z"/>
		<path class="s4" d="m518 386.6h-64.9l-19.4 14.5h12.6l9.6-8.4h59.3l9.6 8.4h12.6z"/>
		<path class="s4" d="m454.1 381.3v0.3c0 1.6 1.6 2.9 3.6 2.9h1.9c2 0 4.7-1.4 4.7-2.9v-0.3z"/>
		<path class="s4" d="m507.7 381.3v0.3c0 1.6 1.6 2.9 3.6 2.9h1.9c2.1 0 4.8-1.4 4.8-2.9v-0.3z"/>
		<path class="s4" d="m451.1 377.2c0.3 1.7 1.8 3 3.5 3h62.1c1.8 0 4.1-1.4 4.6-3z"/>
		<path class="s5" d="m454.4 363.5c0 0 1-0.1 2.7-0.2 1.8 0 4.3-0.2 7.3-0.3 2.9-0.1 6.4-0.2 10.1-0.2 3.8-0.1 7.7-0.1 11.7-0.1q3 0 5.9 0 3 0.1 5.8 0.1c3.7 0 7.2 0.1 10.2 0.2 3 0.1 5.4 0.3 7.2 0.3 1.7 0.1 2.7 0.2 2.7 0.2 0 0-1 0-2.7 0.1-1.8 0.1-4.2 0.2-7.2 0.3-3 0.1-6.5 0.2-10.2 0.3q-2.8 0-5.8 0-2.9 0-5.9 0.1c-4-0.1-7.9-0.1-11.7-0.1-3.7-0.1-7.2-0.2-10.1-0.3-3-0.1-5.5-0.2-7.3-0.3-1.7-0.1-2.7-0.1-2.7-0.1z"/>
		<path class="s4" d="m527.6 329.2c-2-19.9-4.3-35.7-6-42.2-1.9-7.2-6.2-9.7-13.6-9.7-5 0-28.5 0-40.5 0-6.1 0-11.7 2.5-13.9 10.4-1.8 6.6-5.1 20.6-7.1 42-1.8 19.9-0.2 32.2-0.2 32.2 0 0-2.4 1.9-2.1 3.3 1.9 8.4 3.6 9.4 8.9 9.4 7 0 57.4 0 64.3 0 8.8 0 10.1-4.1 10.7-9.4 0.2-1.4-1.7-3.3-1.7-3.3 0 0 3.1-14.2 1.2-32.7zm-11.8 28.2c-3.4 0-6.3-2.8-6.3-6.3 0-3.5 2.9-6.3 6.3-6.3 3.5 0 6.3 2.8 6.3 6.3 0 3.5-2.8 6.3-6.3 6.3zm-12.8 3.4h-33.5v-20.2h33.5zm-46.1-3.5c-3.4 0-6.2-2.8-6.2-6.3 0-3.5 2.8-6.3 6.2-6.3 3.5 0 6.3 2.8 6.3 6.3 0 3.5-2.8 6.3-6.3 6.3zm20.3-77.3h18c2 0 3.7 1.6 3.7 3.7 0 2-1.7 3.6-3.7 3.6h-18c-2 0-3.6-1.6-3.6-3.6 0-2.1 1.6-3.7 3.6-3.7zm36.4 51.4c-4.9 0-50.1 0-55.1 0-4.9 0-8.4-3-7.8-7.5 1.4-9.8 3.2-22.6 3.7-25.5 0.5-2.9 2.4-4.7 5.7-4.7 3.4 0 49.2 0 53.5 0 6.5 0 6.9 2 7.3 5.9 0.4 3.8 2.6 21.3 2.7 24.3 0.1 3-2.2 7.5-10 7.5z"/>
		<path class="s4" d="m460.8 319.8c0 0 0.8-0.3 2.1-1 1.4-0.6 3.3-1.5 5.7-2.6 2.3-1 5-2.2 7.9-3.4 3-1.3 6.1-2.5 9.3-3.8 3.1-1.2 6.3-2.5 9.3-3.6 2.9-1.1 5.7-2.1 8.1-2.9 2.4-0.9 4.4-1.5 5.8-2 1.4-0.5 2.2-0.7 2.2-0.7 0 0-0.7 0.4-2.1 1-1.3 0.6-3.2 1.6-5.6 2.6-2.3 1-5 2.2-8 3.5-2.9 1.2-6.1 2.5-9.2 3.7-3.2 1.3-6.3 2.5-9.3 3.6-3 1.1-5.8 2.1-8.1 3-2.4 0.8-4.4 1.5-5.8 1.9-1.5 0.5-2.3 0.7-2.3 0.7z"/>
		<path class="s4" d="m462.7 330c-0.4 0-0.7-0.2-0.8-0.6-0.1-0.4 0.2-0.8 0.6-0.9l22.6-4.7c0.4-0.1 0.8 0.2 0.9 0.6 0.1 0.4-0.2 0.9-0.6 0.9l-22.5 4.7z"/>
		<path class="s4" d="m480.1 319.5c0 0 1.3-0.8 3.2-1.9 1.9-1.1 4.5-2.4 7.2-3.5 2.6-1.2 5.3-2.2 7.4-2.9 2.1-0.7 3.5-1 3.5-1 0 0-1.2 0.9-3.2 1.9-1.9 1.1-4.5 2.4-7.2 3.6-2.6 1.1-5.3 2.2-7.4 2.8-2 0.7-3.5 1-3.5 1z"/>
		<path class="s4" d="m466.9 329.1c0 0.8-0.6 1.5-1.5 1.5h-4.3c-0.8 0-1.4-0.7-1.4-1.5 0-0.8 0.6-1.5 1.4-1.5h4.3c0.9 0 1.5 0.7 1.5 1.5z"/>
		<path class="s4" d="m490.2 330c-0.4 0-0.7-0.2-0.8-0.6-0.1-0.4 0.2-0.8 0.6-0.9l22.6-4.7c0.4-0.1 0.8 0.2 0.9 0.6 0.1 0.4-0.2 0.9-0.6 0.9l-22.6 4.7z"/>
		<path class="s4" d="m494.4 329.1c0 0.8-0.7 1.5-1.5 1.5h-4.3c-0.8 0-1.5-0.7-1.5-1.5 0-0.8 0.7-1.5 1.5-1.5h4.3c0.8 0 1.5 0.7 1.5 1.5z"/>
		<path class="s4" d="m501.2 344.9c0 1-1.1 1.8-2.4 1.8h-25.2c-1.3 0-2.4-0.8-2.4-1.8 0-1.1 1.1-1.9 2.4-1.9h25.2c1.3 0 2.4 0.8 2.4 1.9z"/>
		<path class="s4" d="m501.2 350.4c0 1-1.1 1.8-2.4 1.8h-25.2c-1.3 0-2.4-0.8-2.4-1.8 0-1.1 1.1-1.9 2.4-1.9h25.2c1.3 0 2.4 0.8 2.4 1.9z"/>
		<path class="s4" d="m501.2 355.8c0 1.1-1.1 1.9-2.4 1.9h-25.2c-1.3 0-2.4-0.8-2.4-1.9 0-1 1.1-1.8 2.4-1.8h25.2c1.3 0 2.4 0.8 2.4 1.8z"/>
		<path class="s4" d="m520.4 355.2c0 0-0.5-0.5-1.1-1.3-0.6-0.9-1.3-2.1-1.9-3.4-0.6-1.2-1-2.5-1.3-3.5-0.2-1.1-0.3-1.8-0.3-1.8 0 0 0.5 0.5 1.1 1.4 0.7 0.8 1.3 2 1.9 3.3 0.6 1.2 1.1 2.6 1.3 3.6 0.3 1 0.3 1.7 0.3 1.7z"/>
		<path class="s4" d="m461.5 355.2c0 0-0.5-0.5-1.1-1.3-0.6-0.9-1.3-2.1-1.9-3.4-0.5-1.2-1-2.5-1.3-3.5-0.2-1.1-0.3-1.8-0.3-1.8 0 0 0.6 0.5 1.2 1.4 0.6 0.8 1.3 2 1.9 3.3 0.5 1.2 1 2.6 1.2 3.6 0.3 1 0.3 1.7 0.3 1.7z"/>
	</g>
</svg>