<svg version="1.2" xmlns="http://www.w3.org/2000/svg" viewBox="0 0 607 421" width="607" height="421">
	<title>file</title>
	<style>
		.s0 { fill: #ffb200 } 
		.s1 { fill: #000000 } 
	</style>
	<g id="1d6e4122e0">
		<path class="s0" d="m108 195.9l183.3-183.3q1.3-1.3 2.9-2.4 1.6-1 3.3-1.7 1.8-0.8 3.6-1.1 1.9-0.4 3.8-0.4 1.8 0 3.7 0.4 1.9 0.3 3.6 1.1 1.8 0.7 3.3 1.7 1.6 1.1 2.9 2.4l183.3 183.3q1.3 1.3 2.4 2.9 1 1.6 1.8 3.3 0.7 1.8 1.1 3.6 0.3 1.9 0.3 3.8 0 1.9-0.3 3.7-0.4 1.9-1.1 3.6-0.8 1.8-1.8 3.4-1.1 1.5-2.4 2.9l-183.3 183.2q-1.3 1.4-2.9 2.4-1.5 1.1-3.3 1.8-1.7 0.7-3.6 1.1-1.9 0.4-3.7 0.4-1.9 0-3.8-0.4-1.8-0.4-3.6-1.1-1.7-0.7-3.3-1.8-1.6-1-2.9-2.4l-183.3-183.2q-1.3-1.4-2.4-2.9-1-1.6-1.8-3.4-0.7-1.7-1-3.6-0.4-1.8-0.4-3.7 0-1.9 0.4-3.8 0.3-1.8 1-3.6 0.8-1.7 1.8-3.3 1.1-1.6 2.4-2.9z"/>
		<path class="s1" d="m486.9 192.9l-167-167q-0.8-0.8-1.6-1.5-0.9-0.7-1.8-1.3-0.9-0.6-1.9-1.1-0.9-0.6-1.9-1-1.1-0.4-2.1-0.7-1.1-0.3-2.2-0.6-1-0.2-2.1-0.3-1.1-0.1-2.2-0.1-1.1 0-2.2 0.1-1.1 0.1-2.2 0.3-1.1 0.3-2.1 0.6-1.1 0.3-2.1 0.7-1 0.4-2 1-1 0.5-1.9 1.1-0.9 0.6-1.7 1.3-0.9 0.7-1.7 1.5l-167 167q-0.7 0.7-1.4 1.6-0.7 0.8-1.3 1.8-0.6 0.9-1.2 1.8-0.5 1-0.9 2-0.4 1-0.7 2.1-0.3 1.1-0.6 2.1-0.2 1.1-0.3 2.2-0.1 1.1-0.1 2.2 0 1.1 0.1 2.2 0.1 1.1 0.3 2.2 0.3 1 0.6 2.1 0.3 1.1 0.7 2.1 0.4 1 0.9 2 0.6 0.9 1.2 1.8 0.6 1 1.3 1.8 0.7 0.9 1.4 1.6l167 167q0.8 0.8 1.7 1.5 0.8 0.7 1.7 1.3 0.9 0.6 1.9 1.1 1 0.6 2 1 1 0.4 2.1 0.7 1 0.3 2.1 0.5 1.1 0.3 2.2 0.4 1.1 0.1 2.2 0.1 1.1 0 2.2-0.1 1.1-0.1 2.1-0.4 1.1-0.2 2.2-0.5 1-0.3 2.1-0.7 1-0.4 1.9-1 1-0.5 1.9-1.1 0.9-0.6 1.8-1.3 0.8-0.7 1.6-1.5l167-167q0.8-0.7 1.5-1.6 0.7-0.8 1.3-1.7 0.6-1 1.1-1.9 0.5-1 0.9-2 0.5-1 0.8-2.1 0.3-1 0.5-2.1 0.2-1.1 0.3-2.2 0.1-1.1 0.1-2.2 0-1.1-0.1-2.2-0.1-1.1-0.3-2.2-0.2-1.1-0.5-2.1-0.3-1.1-0.8-2.1-0.4-1-0.9-2-0.5-0.9-1.1-1.8-0.6-1-1.3-1.8-0.7-0.9-1.5-1.6zm-4.5 27.2l-167 166.9q-1.1 1.1-2.4 2-1.3 0.8-2.8 1.5-1.5 0.6-3 0.9-1.6 0.3-3.1 0.3-1.6 0-3.1-0.3-1.6-0.3-3.1-0.9-1.4-0.7-2.7-1.5-1.3-0.9-2.4-2l-167-167q-1.1-1.1-2-2.4-0.9-1.3-1.5-2.8-0.6-1.4-0.9-3-0.3-1.5-0.3-3.1 0-1.6 0.3-3.1 0.3-1.6 0.9-3 0.6-1.5 1.5-2.8 0.9-1.3 2-2.4l167-167q1.1-1.1 2.4-2 1.3-0.9 2.7-1.5 1.5-0.6 3.1-0.9 1.5-0.3 3.1-0.3 1.5 0 3.1 0.3 1.5 0.3 3 0.9 1.5 0.6 2.8 1.5 1.3 0.9 2.4 2l167 167q1.1 1.1 1.9 2.4 0.9 1.3 1.5 2.8 0.6 1.4 0.9 3 0.3 1.5 0.3 3.1 0 1.6-0.3 3.1-0.3 1.6-0.9 3-0.6 1.5-1.5 2.8-0.8 1.3-1.9 2.4z"/>
		<path class="s1" d="m329.5 116.1q0 1.3-0.2 2.6-0.1 1.4-0.4 2.7-0.2 1.3-0.6 2.6-0.4 1.3-0.9 2.5-0.5 1.3-1.2 2.5-0.6 1.2-1.4 2.3-0.7 1.1-1.6 2.1-0.8 1.1-1.8 2-0.9 1-2 1.8-1 0.9-2.1 1.6-1.1 0.8-2.3 1.4-1.2 0.7-2.5 1.2-1.2 0.5-2.5 0.9-1.3 0.4-2.6 0.6-1.3 0.3-2.7 0.4-1.3 0.2-2.6 0.2-1.4 0-2.7-0.2-1.4-0.1-2.7-0.4-1.3-0.2-2.6-0.6-1.3-0.4-2.5-0.9-1.3-0.5-2.5-1.2-1.1-0.6-2.3-1.4-1.1-0.7-2.1-1.6-1.1-0.8-2-1.8-1-0.9-1.8-2-0.9-1-1.6-2.1-0.8-1.1-1.4-2.3-0.6-1.2-1.2-2.5-0.5-1.2-0.9-2.5-0.4-1.3-0.6-2.6-0.3-1.3-0.4-2.7-0.1-1.3-0.1-2.6 0-1.4 0.1-2.7 0.1-1.4 0.4-2.7 0.2-1.3 0.6-2.6 0.4-1.3 0.9-2.5 0.6-1.3 1.2-2.5 0.6-1.1 1.4-2.3 0.7-1.1 1.6-2.1 0.8-1.1 1.8-2 0.9-1 2-1.8 1-0.9 2.1-1.6 1.2-0.8 2.3-1.4 1.2-0.6 2.5-1.2 1.2-0.5 2.5-0.9 1.3-0.4 2.6-0.6 1.3-0.3 2.7-0.4 1.3-0.1 2.7-0.1 1.3 0 2.6 0.1 1.4 0.1 2.7 0.4 1.3 0.2 2.6 0.6 1.3 0.4 2.5 0.9 1.3 0.6 2.5 1.2 1.2 0.6 2.3 1.4 1.1 0.7 2.1 1.6 1.1 0.8 2 1.8 1 0.9 1.8 2 0.9 1 1.6 2.1 0.8 1.2 1.4 2.3 0.7 1.2 1.2 2.5 0.5 1.2 0.9 2.5 0.4 1.3 0.6 2.6 0.3 1.3 0.4 2.7 0.2 1.3 0.2 2.7z"/>
		<path class="s1" d="m317.9 163.9l30.7 2.9h0.2v-0.1l27.8-12.2-9.4-13.4-23.5 10.4-25.8-2.5v-0.2h-2.4l-2.4-0.3v0.3h-24.5v-0.1l-25.7-0.9-26.2-16-5.2 14.1 29.1 17.8 0.2 0.1 0.1-0.1 25.3 0.9v17h31.7z"/>
		<path class="s1" d="m315.9 85.5l-6.2-16-6.2-16-6.1 16-6.2 16.1 12.4-0.1z"/>
		<path class="s1" d="m209.3 239.4q0.9-0.8 1.4-1.9 0.5-1.2 0.4-2.4v-13.2h11.9q12 0 18-3.7 1.5-0.8 2.6-2 1.2-1.1 2-2.6 0.8-1.4 1.2-3 0.3-1.6 0.3-3.2 0-3.2-1.5-6-1.6-2.9-4.4-4.6-3.1-1.9-6.8-2.6-5.6-1-11.4-0.8h-16.7q-3.3-0.3-6.2 1.3-1.1 0.8-1.6 1.9-0.5 1.2-0.4 2.5v36q-0.1 1.2 0.4 2.3 0.5 1.2 1.4 2 1 0.7 2.2 1 1.2 0.4 2.5 0.4 1.2 0 2.4-0.4 1.2-0.3 2.3-1zm1.8-39h8.8q8.7 0 11.5 2.1 1.2 0.9 1.8 2.2 0.7 1.3 0.7 2.8 0 1.2-0.4 2.3-0.4 1.1-1.2 1.9-2 1.8-4.7 2.3-3.8 0.8-7.7 0.7h-8.8z"/>
		<path class="s1" d="m268.4 220.7l-5.6 0.9q-4.7 0.5-8.6 3.4-1.4 1-2.3 2.7-0.8 1.6-0.8 3.4 0.1 2.8 1.9 4.8 2.2 2.5 5.4 3.6 3.9 1.4 8.1 1.3 4.6 0.1 9-1.2 4.5-1.4 8.4-3.7 1.7 2.1 3.8 3.7 1.7 1.2 3.7 1.2 2.1 0.1 3.9-1.1 0.7-0.3 1.2-0.9 0.5-0.7 0.5-1.5-0.3-1.8-1.1-3.4-1.1-2.5-1.1-5.1 0-2.6 0-4.8 0-2.2 0-5.2 0.2-4.2-1.9-7.8-1.1-1.6-2.8-2.7-1.6-1.1-3.6-1.6-6.1-1.5-12.4-1.3-6-0.2-11.8 1.4-3.9 0.9-6.9 3.5-1 0.9-1.6 2-0.6 1.2-0.7 2.5 0.1 0.8 0.4 1.4 0.4 0.6 1.1 1 1.6 1 3.5 0.9 1.6 0.2 2.9-0.5 1.2-1.2 2.3-2.5 1.7-1.8 4-2.7 3.3-1.1 6.8-1 5.3 0 7 1.6 2 2.2 1.9 5.1c-2.5 0.5-4.8 0.9-7 1.3-2.1 0.4-4.6 0.9-7.6 1.3zm14.8 3.9q0.3 3.5-1.6 6.5-1.8 2.1-4.4 2.9-3.2 1.2-6.6 1.2-2.9 0.1-5.4-1.4-0.9-0.5-1.5-1.4-0.5-0.9-0.6-2 0-0.9 0.5-1.7 0.5-0.8 1.3-1.3 1.7-1 3.7-1.4 1.9-0.4 6.9-1.1 3.9-0.6 7.7-1.5z"/>
		<path class="s1" d="m312.9 240.9q2.4 0.1 4.3-1.4 0.9-0.7 1.3-1.7 0.5-1.1 0.4-2.2v-7.3q0-3.3 0.4-6.6 0.2-2.5 1.2-4.7 0.9-1.9 2.6-3 2-1.1 4.3-1 2.3 0 4.5 0.6 1.5 0.4 3.2 0.6 1.7-0.1 3.2-1.1 0.7-0.4 1.1-1.1 0.4-0.7 0.4-1.5 0-2.3-3.6-3.6-3.5-1.4-7.3-1.4-3.2-0.1-6 1.4-2.6 1.6-4.4 4 0-2.3-1.5-4-0.9-0.8-2-1.2-1.1-0.3-2.3-0.2-5.8 0-5.8 5.9v24.2q-0.1 1.1 0.3 2.1 0.5 1.1 1.3 1.8 1.9 1.5 4.4 1.4z"/>
		<path class="s1" d="m371.7 239.7c2.1-0.7 3.2-1.8 3.2-3.2q0-0.6-0.3-1.2-0.4-0.5-0.9-0.8-1.2-0.9-2.6-0.9-1.4 0-2.8 0.3-1.4 0.2-2.8 0.3-1.6 0.1-2.8-0.7-0.9-0.7-1.1-1.8-0.2-1.6-0.2-3.2v-16h2.2q2.8 0.1 5.5-0.7 0.9-0.2 1.4-0.9 0.5-0.7 0.5-1.6 0-0.7-0.3-1.2-0.4-0.6-1-1-1.8-1-3.9-0.8h-4.3v-6q0-1.7-0.4-3.4-0.4-1.3-1.6-2-1.6-1-3.4-1.2-1.9-0.2-3.6 0.5-1.2 0.5-2.1 1.5-0.7 0.9-0.8 2-0.2 1.7-0.2 3.3v5.3h-1.3q-2.2-0.2-4.1 0.8-0.7 0.3-1 1-0.4 0.6-0.4 1.3 0 0.7 0.3 1.3 0.4 0.6 1 0.9 1.9 1.1 4 0.9h1.6v16.7q-0.1 3.3 0.9 6.4 0.5 1.3 1.5 2.3 1 1 2.3 1.5 4.1 1.6 8.5 1.4 4.5 0.2 9-1.1z"/>
		<path class="s1" d="m416.6 206q-1.3-0.5-2.6-0.5-1.5-0.1-3 0.5-1.2 0.6-1.9 1.8-1.2 1.8-2.1 3.8l-9.6 19.9-10.1-21.4q-0.8-1.9-2.3-3.4-1.7-1.4-3.9-1.2-1.5 0-2.9 0.6-1.3 0.5-2.1 1.6-0.8 0.9-0.8 2.1 0.3 1.8 1.3 3.3l14.7 27-1 1.9q-1 1.7-2.2 3.2-0.9 1.1-2.1 1.6-1.6 0.5-3.2 0.5-1 0-2-0.2-0.9-0.2-1.9-0.2-2-0.1-3.7 0.8-0.6 0.4-0.9 1-0.4 0.6-0.3 1.3 0 2.2 2.6 3 3.9 1 7.9 0.9 4.4 0.1 8.5-1.2 3-1.1 5.1-3.5 2.4-2.8 4-6.1l15.6-29.7q0.5-1.1 0.9-2.3 0.5-1.1 0.6-1.7 0-1-0.7-1.8-0.7-1.1-1.9-1.6z"/>
		<path class="s1" d="m247.2 291.3q-2-1.1-4.3-0.9h-23.4l21.9-17.8 2.1-1.6q0.8-0.7 1.3-1.2 0.5-0.6 0.9-1.3 0.3-0.6 0.3-1.4 0.1-0.5-0.1-0.9-0.1-0.5-0.4-0.9-0.2-0.4-0.6-0.7-0.4-0.3-0.9-0.4-2.8-0.9-5.8-0.8h-27.5q-2.2-0.2-4.1 0.9-0.6 0.3-1 1-0.4 0.6-0.4 1.4 0 0.4 0.1 0.8 0.1 0.4 0.4 0.8 0.2 0.3 0.6 0.6 0.4 0.2 0.8 0.3 2.7 0.5 5.6 0.5h17.8c-0.8 0.7-1.7 1.6-3 2.6-1.2 1.1-2.7 2.3-4.5 3.8q-2.8 2.3-6 4.8l-7.2 5.8q-3.7 3-4.9 4.2-1.1 0.8-1.2 2.2 0 0.9 0.5 1.7 0.4 0.8 1.2 1.3 2.4 1.2 5.1 1.1h32.4q2.3 0.1 4.3-1 0.7-0.3 1.1-1 0.4-0.6 0.4-1.4 0-0.7-0.4-1.4-0.4-0.7-1.1-1.1z"/>
		<path class="s1" d="m292.9 267.5q-3.5-2.5-7.6-3.6-4.8-1.4-9.8-1.3-5-0.1-9.8 1.2-4.1 1.1-7.6 3.6-3 2.3-4.8 5.6-0.8 1.7-1.2 3.5-0.4 1.9-0.4 3.7 0 1.9 0.4 3.7 0.4 1.9 1.2 3.5 1.8 3.4 4.8 5.7 3.5 2.5 7.6 3.7 4.8 1.3 9.8 1.2 5 0.1 9.8-1.2 4.1-1.2 7.6-3.6 3-2.3 4.8-5.7 0.8-1.7 1.2-3.5 0.4-1.8 0.4-3.7 0-1.8-0.4-3.6-0.4-1.9-1.2-3.5-1.7-3.4-4.8-5.7zm-8.8 21q-1.8 1.5-4 2.3-2.3 0.8-4.6 0.7-3.3 0.1-6.3-1.4-2.6-1.3-4.1-3.9-0.7-1.4-1-2.9-0.4-1.5-0.4-3.1 0-1.5 0.4-3 0.3-1.6 1-3 1.5-2.6 4.2-3.9 2.9-1.4 6.1-1.3 2.4-0.1 4.6 0.7 2.3 0.7 4.1 2.3 0.8 0.8 1.4 1.8 0.6 0.9 1 2 0.4 1.1 0.6 2.2 0.2 1.1 0.2 2.2 0 1.2-0.2 2.3-0.2 1.1-0.6 2.2-0.4 1-1 2-0.6 1-1.4 1.8z"/>
		<path class="s1" d="m349.1 268.3q-2.1-3-5.6-4.2-4.1-1.6-8.4-1.5-4.5-0.1-8.7 1.4-3.9 1.5-6.9 4.4v-1q0.1-1.4-0.7-2.7-0.8-1-2.1-1.6-1.3-0.5-2.8-0.5-2.3-0.1-4.1 1.2-0.8 0.7-1.2 1.7-0.3 1-0.3 2v25.2q0 1.1 0.4 2.1 0.4 1.1 1.2 1.8 1.9 1.5 4.3 1.4 2.4 0.1 4.3-1.4 0.9-0.7 1.4-1.7 0.4-1.1 0.3-2.2v-10.9q-0.2-3.7 0.9-7.3 1.3-2.5 3.9-3.8 2.7-1.4 5.8-1.4c3.2 0 5.4 0.8 6.5 2.3q1.9 3 1.6 6.6v14.5q0 1.1 0.4 2.1 0.4 1.1 1.2 1.8 1 0.6 2.1 1 1.1 0.3 2.2 0.3 1.2 0 2.3-0.3 1.1-0.4 2-1 0.9-0.8 1.3-1.8 0.4-1 0.3-2.2v-16.1q0.1-2.4-0.3-4.8-0.3-1.9-1.3-3.4z"/>
		<path class="s1" d="m403.6 281.4q0.6-0.2 1.1-0.6 0.5-0.5 0.9-1.1 0.3-0.5 0.5-1.2 0.1-0.7 0-1.3 0-3.9-2.5-7-3-3.7-7.5-5.5-5.8-2.3-12-2.1-5-0.1-9.8 1.2-4.1 1.1-7.5 3.7-2.9 2.2-4.6 5.6-1.6 3.4-1.6 7.2 0 1.9 0.4 3.7 0.4 1.9 1.2 3.6 0.8 1.6 2.1 3.1 1.2 1.4 2.7 2.5 6.4 4.8 18 4.8 4.5 0.1 8.9-0.9 3.3-0.8 6.4-2.4 2.2-1.2 3.8-3.1 1.1-1.1 1.3-2.7 0-0.6-0.3-1.2-0.3-0.5-0.9-0.9-1.3-0.8-3-0.7-1.3-0.1-2.6 0.6-2.2 1.5-3.6 2.4-1.5 0.9-3.1 1.6-1.6 0.8-3.4 1.1-2 0.4-3.9 0.4-3.1 0-5.9-1.1-2.6-1.1-4.2-3.5-1.7-2.3-1.6-5.2h23.4q3.7 0.2 7.3-1zm-30.7-3.9q0.2-1.9 1.1-3.6 0.9-1.8 2.4-3 3.3-2.4 7.4-2.3 4.1-0.2 7.5 2.3 1.5 1.2 2.4 3 0.8 1.7 0.9 3.6z"/>
	</g>
</svg>